%TF.GenerationSoftware,KiCad,Pcbnew,9.0.5*%
%TF.CreationDate,2025-11-23T20:07:00-05:00*%
%TF.ProjectId,lightwear,6c696768-7477-4656-9172-2e6b69636164,rev?*%
%TF.SameCoordinates,Original*%
%TF.FileFunction,Copper,L2,Bot*%
%TF.FilePolarity,Positive*%
%FSLAX46Y46*%
G04 Gerber Fmt 4.6, Leading zero omitted, Abs format (unit mm)*
G04 Created by KiCad (PCBNEW 9.0.5) date 2025-11-23 20:07:00*
%MOMM*%
%LPD*%
G01*
G04 APERTURE LIST*
G04 Aperture macros list*
%AMRoundRect*
0 Rectangle with rounded corners*
0 $1 Rounding radius*
0 $2 $3 $4 $5 $6 $7 $8 $9 X,Y pos of 4 corners*
0 Add a 4 corners polygon primitive as box body*
4,1,4,$2,$3,$4,$5,$6,$7,$8,$9,$2,$3,0*
0 Add four circle primitives for the rounded corners*
1,1,$1+$1,$2,$3*
1,1,$1+$1,$4,$5*
1,1,$1+$1,$6,$7*
1,1,$1+$1,$8,$9*
0 Add four rect primitives between the rounded corners*
20,1,$1+$1,$2,$3,$4,$5,0*
20,1,$1+$1,$4,$5,$6,$7,0*
20,1,$1+$1,$6,$7,$8,$9,0*
20,1,$1+$1,$8,$9,$2,$3,0*%
G04 Aperture macros list end*
%TA.AperFunction,SMDPad,CuDef*%
%ADD10R,1.240000X0.600000*%
%TD*%
%TA.AperFunction,SMDPad,CuDef*%
%ADD11R,1.240000X0.300000*%
%TD*%
%TA.AperFunction,HeatsinkPad*%
%ADD12O,1.800000X1.000000*%
%TD*%
%TA.AperFunction,HeatsinkPad*%
%ADD13O,2.100000X1.000000*%
%TD*%
%TA.AperFunction,SMDPad,CuDef*%
%ADD14R,1.500000X1.500000*%
%TD*%
%TA.AperFunction,SMDPad,CuDef*%
%ADD15RoundRect,0.250000X1.600000X-0.300000X1.600000X0.300000X-1.600000X0.300000X-1.600000X-0.300000X0*%
%TD*%
%TA.AperFunction,SMDPad,CuDef*%
%ADD16R,6.000000X12.000000*%
%TD*%
%TA.AperFunction,ViaPad*%
%ADD17C,0.600000*%
%TD*%
%TA.AperFunction,Conductor*%
%ADD18C,0.200000*%
%TD*%
%TA.AperFunction,Conductor*%
%ADD19C,0.300000*%
%TD*%
G04 APERTURE END LIST*
D10*
%TO.P,J1,A1,GND*%
%TO.N,GND*%
X169882697Y-59943255D03*
%TO.P,J1,A4,VBUS*%
%TO.N,/charger/VBUS*%
X169882697Y-60743255D03*
D11*
%TO.P,J1,A5,CC1*%
%TO.N,Net-(J1-CC1)*%
X169882697Y-61893255D03*
%TO.P,J1,A6,D+*%
%TO.N,unconnected-(J1-D+-PadA6)*%
X169882697Y-62893255D03*
%TO.P,J1,A7,D-*%
%TO.N,unconnected-(J1-D--PadA7)*%
X169882697Y-63393255D03*
%TO.P,J1,A8,SBU1*%
%TO.N,/mcu/USB_SBU1*%
X169882697Y-64393255D03*
D10*
%TO.P,J1,A9,VBUS*%
%TO.N,/charger/VBUS*%
X169882697Y-65543255D03*
%TO.P,J1,A12,GND*%
%TO.N,GND*%
X169882697Y-66343255D03*
%TO.P,J1,B1,GND*%
X169882697Y-66343255D03*
%TO.P,J1,B4,VBUS*%
%TO.N,/charger/VBUS*%
X169882697Y-65543255D03*
D11*
%TO.P,J1,B5,CC2*%
%TO.N,Net-(J1-CC2)*%
X169882697Y-64893255D03*
%TO.P,J1,B6,D+*%
%TO.N,unconnected-(J1-D+-PadB6)*%
X169882697Y-63893255D03*
%TO.P,J1,B7,D-*%
%TO.N,unconnected-(J1-D--PadB7)*%
X169882697Y-62393255D03*
%TO.P,J1,B8,SBU2*%
%TO.N,/mcu/USB_SBU2*%
X169882697Y-61393255D03*
D10*
%TO.P,J1,B9,VBUS*%
%TO.N,/charger/VBUS*%
X169882697Y-60743255D03*
%TO.P,J1,B12,GND*%
%TO.N,GND*%
X169882697Y-59943255D03*
D12*
%TO.P,J1,S1,SHIELD*%
%TO.N,unconnected-(J1-SHIELD-PadS1)_3*%
X174682697Y-58823255D03*
D13*
%TO.N,unconnected-(J1-SHIELD-PadS1)*%
X170482697Y-58823255D03*
D12*
%TO.N,unconnected-(J1-SHIELD-PadS1)_1*%
X174682697Y-67463255D03*
D13*
%TO.N,unconnected-(J1-SHIELD-PadS1)_2*%
X170482697Y-67463255D03*
%TD*%
D14*
%TO.P,TP6,1,1*%
%TO.N,+BATT*%
X160000000Y-54300000D03*
%TD*%
%TO.P,TP7,1,1*%
%TO.N,GND*%
X151950000Y-54300000D03*
%TD*%
D15*
%TO.P,L1,1,1*%
%TO.N,Net-(D1-A)*%
X173000000Y-57000000D03*
%TO.P,L1,2,2*%
%TO.N,+BATT*%
X173000000Y-54000000D03*
%TD*%
D16*
%TO.P,TP9,1,1*%
%TO.N,GND*%
X125200000Y-63000000D03*
%TD*%
D17*
%TO.N,GND*%
X140200000Y-62850000D03*
X129300000Y-62400000D03*
X129300000Y-63250000D03*
X130050000Y-63700000D03*
X150850000Y-70950000D03*
X149600000Y-60250000D03*
X155250000Y-68200000D03*
X130050000Y-64550000D03*
X156800000Y-63700000D03*
X155350000Y-59200000D03*
X156000000Y-63700000D03*
X145950000Y-63750000D03*
X140200000Y-61750000D03*
X158450000Y-57000000D03*
X155750000Y-67450000D03*
X129300000Y-59000000D03*
X155900000Y-55500000D03*
X156800000Y-62000000D03*
X130050000Y-59450000D03*
X130050000Y-62000000D03*
X129300000Y-64950000D03*
X129300000Y-60700000D03*
X150150000Y-65400000D03*
X129300000Y-61550000D03*
X130050000Y-58600000D03*
X129300000Y-58150000D03*
X148600000Y-59200000D03*
X129300000Y-59850000D03*
X157950000Y-59200000D03*
X130050000Y-60300000D03*
X152350000Y-71550000D03*
X129300000Y-64100000D03*
X130050000Y-61150000D03*
X153500000Y-70950000D03*
X150550000Y-69700000D03*
X130050000Y-62850000D03*
X160150000Y-57450000D03*
%TO.N,Net-(J1-CC1)*%
X172800000Y-62000000D03*
%TO.N,Net-(J1-CC2)*%
X172850000Y-64893255D03*
%TO.N,/mcu/USB_SBU2*%
X171700000Y-61100000D03*
X161600000Y-68400000D03*
X152650000Y-63100000D03*
X152500000Y-59350000D03*
%TO.N,/mcu/USB_SBU1*%
X149750000Y-61450000D03*
X151750000Y-63450000D03*
X163471187Y-69535795D03*
X171100000Y-64200000D03*
%TO.N,/led_driver/IADJ_DRV*%
X163000000Y-57600000D03*
X160100000Y-62100000D03*
%TO.N,/mcu/MCU_VCC*%
X155350000Y-62250000D03*
X158350000Y-65800000D03*
%TO.N,+BATT*%
X170200000Y-54100000D03*
X153920000Y-59550000D03*
X156300000Y-57250000D03*
X154150000Y-62400000D03*
%TO.N,/charger/VBUS*%
X160762500Y-60637500D03*
X168602697Y-64833255D03*
%TO.N,Net-(D1-A)*%
X169800000Y-56800000D03*
%TO.N,/mcu/PA1*%
X154350000Y-68350000D03*
X144400000Y-68420000D03*
%TO.N,/mcu/PA2*%
X137850000Y-67350000D03*
X154950000Y-67350000D03*
%TO.N,/mcu/PB2*%
X144600000Y-61000000D03*
X150477696Y-64022304D03*
%TO.N,/mcu/PB3*%
X150400000Y-63200000D03*
X136975000Y-57425000D03*
%TO.N,/mcu/PC1*%
X141550000Y-66650000D03*
X151600000Y-66830000D03*
%TO.N,/mcu/PC2*%
X130900000Y-67350000D03*
X151100000Y-68050000D03*
%TO.N,/led_driver/nSHDN*%
X168000000Y-55700000D03*
X157600000Y-64500000D03*
%TO.N,/charger/CHG_STAT*%
X153400000Y-55600000D03*
X153500000Y-62900000D03*
%TD*%
D18*
%TO.N,Net-(J1-CC1)*%
X172693255Y-61893255D02*
X169882697Y-61893255D01*
X172800000Y-62000000D02*
X172693255Y-61893255D01*
%TO.N,Net-(J1-CC2)*%
X172850000Y-64893255D02*
X169882697Y-64893255D01*
%TO.N,/mcu/USB_SBU2*%
X156050000Y-66500000D02*
X158600000Y-66500000D01*
X171406745Y-61393255D02*
X171700000Y-61100000D01*
X169882697Y-61393255D02*
X171406745Y-61393255D01*
X159700000Y-66500000D02*
X161600000Y-68400000D01*
X152650000Y-63100000D02*
X156050000Y-66500000D01*
X158600000Y-66500000D02*
X159700000Y-66500000D01*
X152500000Y-59350000D02*
X152500000Y-62950000D01*
X152500000Y-62950000D02*
X152650000Y-63100000D01*
%TO.N,/mcu/USB_SBU1*%
X161998989Y-69535795D02*
X159284194Y-66821000D01*
X159284194Y-66821000D02*
X155121000Y-66821000D01*
X155121000Y-66821000D02*
X151750000Y-63450000D01*
X170906745Y-64393255D02*
X171100000Y-64200000D01*
X163471187Y-69535795D02*
X161998989Y-69535795D01*
X169882697Y-64393255D02*
X170906745Y-64393255D01*
X149750000Y-61450000D02*
X151750000Y-63450000D01*
%TO.N,/led_driver/IADJ_DRV*%
X160100000Y-59300000D02*
X161800000Y-57600000D01*
X160100000Y-62100000D02*
X160100000Y-59300000D01*
X161800000Y-57600000D02*
X163000000Y-57600000D01*
%TO.N,/mcu/MCU_VCC*%
X155350000Y-62250000D02*
X155350000Y-62392000D01*
X155379000Y-62421000D02*
X155379000Y-64172403D01*
X157006597Y-65800000D02*
X158350000Y-65800000D01*
X155350000Y-62392000D02*
X155379000Y-62421000D01*
X155379000Y-64172403D02*
X157006597Y-65800000D01*
%TO.N,+BATT*%
X153920000Y-59550000D02*
X153750000Y-59720000D01*
X153750000Y-62000000D02*
X154150000Y-62400000D01*
X153750000Y-59720000D02*
X153750000Y-62000000D01*
X156300000Y-57250000D02*
X159250000Y-54300000D01*
D19*
X173000000Y-53800000D02*
X170500000Y-53800000D01*
X170500000Y-53800000D02*
X170200000Y-54100000D01*
D18*
X159250000Y-54300000D02*
X160000000Y-54300000D01*
D19*
X160200000Y-54100000D02*
X170200000Y-54100000D01*
X160000000Y-54300000D02*
X160200000Y-54100000D01*
D18*
%TO.N,/charger/VBUS*%
X167869442Y-60700000D02*
X168602697Y-61433255D01*
D19*
X168602697Y-64833255D02*
X168602697Y-61433255D01*
X168602697Y-61433255D02*
X169292697Y-60743255D01*
X168602697Y-64833255D02*
X169312697Y-65543255D01*
D18*
X169882697Y-65543255D02*
X169312697Y-65543255D01*
X160825000Y-60700000D02*
X167869442Y-60700000D01*
X160762500Y-60637500D02*
X160825000Y-60700000D01*
D19*
%TO.N,Net-(D1-A)*%
X169800000Y-56800000D02*
X173000000Y-56800000D01*
D18*
%TO.N,/mcu/PA1*%
X150884194Y-68571000D02*
X154129000Y-68571000D01*
X150733194Y-68420000D02*
X150884194Y-68571000D01*
X144400000Y-68420000D02*
X150733194Y-68420000D01*
X154129000Y-68571000D02*
X154350000Y-68350000D01*
%TO.N,/mcu/PA2*%
X138000000Y-67500000D02*
X137850000Y-67350000D01*
X154800000Y-67500000D02*
X138000000Y-67500000D01*
X154950000Y-67350000D02*
X154800000Y-67500000D01*
%TO.N,/mcu/PB2*%
X147622304Y-64022304D02*
X150477696Y-64022304D01*
X144600000Y-61000000D02*
X147622304Y-64022304D01*
%TO.N,/mcu/PB3*%
X139750000Y-60200000D02*
X147400000Y-60200000D01*
X136975000Y-57425000D02*
X139750000Y-60200000D01*
X147400000Y-60200000D02*
X150400000Y-63200000D01*
%TO.N,/mcu/PC1*%
X151330000Y-67100000D02*
X151600000Y-66830000D01*
X141550000Y-66650000D02*
X142000000Y-67100000D01*
X142000000Y-67100000D02*
X151330000Y-67100000D01*
%TO.N,/mcu/PC2*%
X150950000Y-67900000D02*
X131450000Y-67900000D01*
X131450000Y-67900000D02*
X130900000Y-67350000D01*
X151100000Y-68050000D02*
X150950000Y-67900000D01*
%TO.N,/led_driver/nSHDN*%
X159200000Y-59646038D02*
X163146037Y-55700000D01*
X159200000Y-62900000D02*
X159200000Y-59646038D01*
X163146037Y-55700000D02*
X168000000Y-55700000D01*
X157600000Y-64500000D02*
X159200000Y-62900000D01*
%TO.N,/charger/CHG_STAT*%
X153500000Y-62892500D02*
X153500000Y-62900000D01*
X153400000Y-62792500D02*
X153500000Y-62892500D01*
X153400000Y-55600000D02*
X153400000Y-62792500D01*
%TD*%
%TA.AperFunction,Conductor*%
%TO.N,GND*%
G36*
X159144006Y-53219407D02*
G01*
X159179970Y-53268907D01*
X159179970Y-53330093D01*
X159144006Y-53379593D01*
X159140817Y-53381815D01*
X159105450Y-53405446D01*
X159105445Y-53405451D01*
X159061134Y-53471766D01*
X159061132Y-53471772D01*
X159049501Y-53530241D01*
X159049500Y-53530253D01*
X159049500Y-54034520D01*
X159030593Y-54092711D01*
X159020504Y-54104524D01*
X156404524Y-56720504D01*
X156350007Y-56748281D01*
X156334520Y-56749500D01*
X156234108Y-56749500D01*
X156156200Y-56770375D01*
X156106809Y-56783609D01*
X155992690Y-56849496D01*
X155899496Y-56942690D01*
X155833609Y-57056809D01*
X155833608Y-57056814D01*
X155799500Y-57184108D01*
X155799500Y-57315892D01*
X155811080Y-57359108D01*
X155833609Y-57443190D01*
X155899496Y-57557309D01*
X155899498Y-57557311D01*
X155899500Y-57557314D01*
X155992686Y-57650500D01*
X155992688Y-57650501D01*
X155992690Y-57650503D01*
X156106810Y-57716390D01*
X156106808Y-57716390D01*
X156106812Y-57716391D01*
X156106814Y-57716392D01*
X156234108Y-57750500D01*
X156234110Y-57750500D01*
X156365890Y-57750500D01*
X156365892Y-57750500D01*
X156493186Y-57716392D01*
X156493188Y-57716390D01*
X156493190Y-57716390D01*
X156607309Y-57650503D01*
X156607309Y-57650502D01*
X156607314Y-57650500D01*
X156700500Y-57557314D01*
X156700503Y-57557309D01*
X156766390Y-57443190D01*
X156766390Y-57443188D01*
X156766392Y-57443186D01*
X156800500Y-57315892D01*
X156800500Y-57215478D01*
X156819407Y-57157287D01*
X156829496Y-57145474D01*
X157874470Y-56100500D01*
X158894596Y-55080374D01*
X158949112Y-55052598D01*
X159009544Y-55062169D01*
X159052809Y-55105434D01*
X159058559Y-55122015D01*
X159061134Y-55128233D01*
X159105445Y-55194548D01*
X159105448Y-55194552D01*
X159171769Y-55238867D01*
X159216231Y-55247711D01*
X159230241Y-55250498D01*
X159230246Y-55250498D01*
X159230252Y-55250500D01*
X159230253Y-55250500D01*
X160769747Y-55250500D01*
X160769748Y-55250500D01*
X160828231Y-55238867D01*
X160894552Y-55194552D01*
X160938867Y-55128231D01*
X160950500Y-55069748D01*
X160950500Y-54549500D01*
X160969407Y-54491309D01*
X161018907Y-54455345D01*
X161049500Y-54450500D01*
X169801679Y-54450500D01*
X169859870Y-54469407D01*
X169871676Y-54479490D01*
X169892686Y-54500500D01*
X169892688Y-54500501D01*
X169892690Y-54500503D01*
X170006810Y-54566390D01*
X170006808Y-54566390D01*
X170006812Y-54566391D01*
X170006814Y-54566392D01*
X170134108Y-54600500D01*
X170134110Y-54600500D01*
X170265890Y-54600500D01*
X170265892Y-54600500D01*
X170393186Y-54566392D01*
X170393188Y-54566390D01*
X170393190Y-54566390D01*
X170507309Y-54500503D01*
X170507309Y-54500502D01*
X170507314Y-54500500D01*
X170600500Y-54407314D01*
X170631123Y-54354274D01*
X170666390Y-54293190D01*
X170666390Y-54293188D01*
X170666392Y-54293186D01*
X170684963Y-54223876D01*
X170686435Y-54221610D01*
X170686435Y-54218907D01*
X170702968Y-54196150D01*
X170718287Y-54172562D01*
X170720810Y-54171593D01*
X170722399Y-54169407D01*
X170749152Y-54160714D01*
X170775409Y-54150636D01*
X170780590Y-54150500D01*
X170850500Y-54150500D01*
X170908691Y-54169407D01*
X170944655Y-54218907D01*
X170949500Y-54249500D01*
X170949500Y-54354274D01*
X170952353Y-54384694D01*
X170952355Y-54384703D01*
X170997207Y-54512883D01*
X171077845Y-54622144D01*
X171077847Y-54622146D01*
X171077850Y-54622150D01*
X171077853Y-54622152D01*
X171077855Y-54622154D01*
X171187116Y-54702792D01*
X171187117Y-54702792D01*
X171187118Y-54702793D01*
X171315301Y-54747646D01*
X171345725Y-54750499D01*
X171345727Y-54750500D01*
X171345734Y-54750500D01*
X174654273Y-54750500D01*
X174654273Y-54750499D01*
X174684699Y-54747646D01*
X174812882Y-54702793D01*
X174922150Y-54622150D01*
X175002793Y-54512882D01*
X175047646Y-54384699D01*
X175050499Y-54354273D01*
X175050500Y-54354273D01*
X175050500Y-53645727D01*
X175050499Y-53645725D01*
X175047646Y-53615305D01*
X175047646Y-53615301D01*
X175002793Y-53487118D01*
X174992658Y-53473386D01*
X174922154Y-53377855D01*
X174922152Y-53377853D01*
X174922150Y-53377850D01*
X174922146Y-53377847D01*
X174916903Y-53372604D01*
X174918261Y-53371245D01*
X174888325Y-53329384D01*
X174888785Y-53268200D01*
X174925120Y-53218972D01*
X174982707Y-53200500D01*
X175460118Y-53200500D01*
X175496108Y-53200500D01*
X175503875Y-53200805D01*
X175695523Y-53215887D01*
X175710856Y-53218316D01*
X175893997Y-53262284D01*
X175908764Y-53267082D01*
X176082773Y-53339159D01*
X176096600Y-53346205D01*
X176199542Y-53409288D01*
X176257179Y-53444608D01*
X176269748Y-53453739D01*
X176412960Y-53576055D01*
X176423944Y-53587039D01*
X176546260Y-53730251D01*
X176555391Y-53742820D01*
X176653790Y-53903392D01*
X176660843Y-53917233D01*
X176732915Y-54091231D01*
X176737716Y-54106006D01*
X176781682Y-54289138D01*
X176784112Y-54304481D01*
X176799195Y-54496123D01*
X176799500Y-54503891D01*
X176799500Y-71496108D01*
X176799195Y-71503875D01*
X176799195Y-71503876D01*
X176784112Y-71695518D01*
X176781682Y-71710861D01*
X176737716Y-71893993D01*
X176732915Y-71908768D01*
X176660843Y-72082766D01*
X176653790Y-72096607D01*
X176555391Y-72257179D01*
X176546260Y-72269748D01*
X176423944Y-72412960D01*
X176412960Y-72423944D01*
X176269748Y-72546260D01*
X176257179Y-72555391D01*
X176096607Y-72653790D01*
X176082766Y-72660843D01*
X175908768Y-72732915D01*
X175893993Y-72737716D01*
X175710861Y-72781682D01*
X175695518Y-72784112D01*
X175522730Y-72797711D01*
X175503874Y-72799195D01*
X175496108Y-72799500D01*
X123503892Y-72799500D01*
X123496125Y-72799195D01*
X123473566Y-72797419D01*
X123304481Y-72784112D01*
X123289138Y-72781682D01*
X123106006Y-72737716D01*
X123091231Y-72732915D01*
X122917233Y-72660843D01*
X122903392Y-72653790D01*
X122742820Y-72555391D01*
X122730251Y-72546260D01*
X122587039Y-72423944D01*
X122576055Y-72412960D01*
X122453739Y-72269748D01*
X122444608Y-72257179D01*
X122346205Y-72096600D01*
X122339159Y-72082773D01*
X122267082Y-71908764D01*
X122262283Y-71893993D01*
X122218317Y-71710861D01*
X122215887Y-71695523D01*
X122200805Y-71503875D01*
X122200500Y-71496108D01*
X122200500Y-67284108D01*
X130399500Y-67284108D01*
X130399500Y-67415892D01*
X130415305Y-67474878D01*
X130433609Y-67543190D01*
X130499496Y-67657309D01*
X130499498Y-67657311D01*
X130499500Y-67657314D01*
X130592686Y-67750500D01*
X130592688Y-67750501D01*
X130592690Y-67750503D01*
X130706810Y-67816390D01*
X130706808Y-67816390D01*
X130706812Y-67816391D01*
X130706814Y-67816392D01*
X130834108Y-67850500D01*
X130834110Y-67850500D01*
X130934521Y-67850500D01*
X130992712Y-67869407D01*
X131004525Y-67879496D01*
X131209540Y-68084511D01*
X131209539Y-68084511D01*
X131265489Y-68140460D01*
X131334007Y-68180019D01*
X131334011Y-68180021D01*
X131410435Y-68200499D01*
X131410437Y-68200500D01*
X131410438Y-68200500D01*
X131489562Y-68200500D01*
X143811640Y-68200500D01*
X143869831Y-68219407D01*
X143905795Y-68268907D01*
X143907266Y-68325121D01*
X143899500Y-68354108D01*
X143899500Y-68485892D01*
X143914852Y-68543186D01*
X143933609Y-68613190D01*
X143999496Y-68727309D01*
X143999498Y-68727311D01*
X143999500Y-68727314D01*
X144092686Y-68820500D01*
X144092688Y-68820501D01*
X144092690Y-68820503D01*
X144206810Y-68886390D01*
X144206808Y-68886390D01*
X144206812Y-68886391D01*
X144206814Y-68886392D01*
X144334108Y-68920500D01*
X144334110Y-68920500D01*
X144465890Y-68920500D01*
X144465892Y-68920500D01*
X144593186Y-68886392D01*
X144593188Y-68886390D01*
X144593190Y-68886390D01*
X144707309Y-68820503D01*
X144707309Y-68820502D01*
X144707314Y-68820500D01*
X144778319Y-68749494D01*
X144832834Y-68721719D01*
X144848321Y-68720500D01*
X150567715Y-68720500D01*
X150625906Y-68739407D01*
X150637719Y-68749496D01*
X150643734Y-68755511D01*
X150643733Y-68755511D01*
X150699683Y-68811460D01*
X150768201Y-68851019D01*
X150768205Y-68851021D01*
X150844629Y-68871499D01*
X150844631Y-68871500D01*
X150844632Y-68871500D01*
X154168563Y-68871500D01*
X154168563Y-68871499D01*
X154240160Y-68852314D01*
X154278711Y-68849789D01*
X154284107Y-68850499D01*
X154284108Y-68850500D01*
X154284109Y-68850500D01*
X154415890Y-68850500D01*
X154415892Y-68850500D01*
X154543186Y-68816392D01*
X154543188Y-68816390D01*
X154543190Y-68816390D01*
X154657309Y-68750503D01*
X154657309Y-68750502D01*
X154657314Y-68750500D01*
X154750500Y-68657314D01*
X154775975Y-68613190D01*
X154816390Y-68543190D01*
X154816390Y-68543188D01*
X154816392Y-68543186D01*
X154850500Y-68415892D01*
X154850500Y-68284108D01*
X154816392Y-68156814D01*
X154816390Y-68156811D01*
X154816390Y-68156809D01*
X154750503Y-68042690D01*
X154750501Y-68042688D01*
X154750500Y-68042686D01*
X154700319Y-67992505D01*
X154672544Y-67937991D01*
X154682115Y-67877559D01*
X154725380Y-67834294D01*
X154785812Y-67824723D01*
X154795933Y-67826873D01*
X154884108Y-67850500D01*
X154884110Y-67850500D01*
X155015890Y-67850500D01*
X155015892Y-67850500D01*
X155143186Y-67816392D01*
X155143188Y-67816390D01*
X155143190Y-67816390D01*
X155257309Y-67750503D01*
X155257309Y-67750502D01*
X155257314Y-67750500D01*
X155350500Y-67657314D01*
X155384583Y-67598281D01*
X155416390Y-67543190D01*
X155416390Y-67543188D01*
X155416392Y-67543186D01*
X155450500Y-67415892D01*
X155450500Y-67284108D01*
X155440322Y-67246122D01*
X155443525Y-67185020D01*
X155482031Y-67137471D01*
X155535949Y-67121500D01*
X159118715Y-67121500D01*
X159176906Y-67140407D01*
X159188719Y-67150496D01*
X161758529Y-69720306D01*
X161758528Y-69720306D01*
X161814478Y-69776255D01*
X161882996Y-69815814D01*
X161883000Y-69815816D01*
X161959424Y-69836294D01*
X161959426Y-69836295D01*
X161959427Y-69836295D01*
X163022866Y-69836295D01*
X163081057Y-69855202D01*
X163092863Y-69865285D01*
X163163873Y-69936295D01*
X163163875Y-69936296D01*
X163163877Y-69936298D01*
X163277997Y-70002185D01*
X163277995Y-70002185D01*
X163277999Y-70002186D01*
X163278001Y-70002187D01*
X163405295Y-70036295D01*
X163405297Y-70036295D01*
X163537077Y-70036295D01*
X163537079Y-70036295D01*
X163664373Y-70002187D01*
X163664375Y-70002185D01*
X163664377Y-70002185D01*
X163778496Y-69936298D01*
X163778496Y-69936297D01*
X163778501Y-69936295D01*
X163871687Y-69843109D01*
X163887446Y-69815814D01*
X163937577Y-69728985D01*
X163937577Y-69728983D01*
X163937579Y-69728981D01*
X163971687Y-69601687D01*
X163971687Y-69469903D01*
X163937579Y-69342609D01*
X163937577Y-69342606D01*
X163937577Y-69342604D01*
X163871690Y-69228485D01*
X163871688Y-69228483D01*
X163871687Y-69228481D01*
X163778501Y-69135295D01*
X163778498Y-69135293D01*
X163778496Y-69135291D01*
X163664376Y-69069404D01*
X163664378Y-69069404D01*
X163614986Y-69056170D01*
X163537079Y-69035295D01*
X163405295Y-69035295D01*
X163327387Y-69056170D01*
X163277996Y-69069404D01*
X163163877Y-69135291D01*
X163163876Y-69135292D01*
X163163873Y-69135294D01*
X163163873Y-69135295D01*
X163092867Y-69206300D01*
X163038353Y-69234076D01*
X163022866Y-69235295D01*
X162164468Y-69235295D01*
X162106277Y-69216388D01*
X162094464Y-69206299D01*
X161859926Y-68971761D01*
X161832149Y-68917244D01*
X161841720Y-68856812D01*
X161880429Y-68816022D01*
X161907314Y-68800500D01*
X162000500Y-68707314D01*
X162029368Y-68657314D01*
X162066390Y-68593190D01*
X162066390Y-68593188D01*
X162066392Y-68593186D01*
X162100500Y-68465892D01*
X162100500Y-68334108D01*
X162066392Y-68206814D01*
X162066390Y-68206811D01*
X162066390Y-68206809D01*
X162000503Y-68092690D01*
X162000501Y-68092688D01*
X162000500Y-68092686D01*
X161907314Y-67999500D01*
X161907311Y-67999498D01*
X161907309Y-67999496D01*
X161793189Y-67933609D01*
X161793191Y-67933609D01*
X161743799Y-67920375D01*
X161665892Y-67899500D01*
X161565479Y-67899500D01*
X161507288Y-67880593D01*
X161495475Y-67870504D01*
X161084373Y-67459402D01*
X161019230Y-67394259D01*
X169232197Y-67394259D01*
X169232197Y-67532250D01*
X169241813Y-67580593D01*
X169257074Y-67657314D01*
X169259117Y-67667582D01*
X169259117Y-67667584D01*
X169311919Y-67795061D01*
X169311925Y-67795072D01*
X169388582Y-67909796D01*
X169486155Y-68007369D01*
X169600879Y-68084026D01*
X169600890Y-68084032D01*
X169621793Y-68092690D01*
X169728369Y-68136835D01*
X169863704Y-68163755D01*
X169863705Y-68163755D01*
X171101689Y-68163755D01*
X171101690Y-68163755D01*
X171237025Y-68136835D01*
X171364508Y-68084030D01*
X171479239Y-68007369D01*
X171576811Y-67909797D01*
X171653472Y-67795066D01*
X171706277Y-67667583D01*
X171733197Y-67532248D01*
X171733197Y-67394262D01*
X171733196Y-67394259D01*
X173582197Y-67394259D01*
X173582197Y-67532250D01*
X173591813Y-67580593D01*
X173607074Y-67657314D01*
X173609117Y-67667582D01*
X173609117Y-67667584D01*
X173661919Y-67795061D01*
X173661925Y-67795072D01*
X173738582Y-67909796D01*
X173836155Y-68007369D01*
X173950879Y-68084026D01*
X173950890Y-68084032D01*
X173971793Y-68092690D01*
X174078369Y-68136835D01*
X174213704Y-68163755D01*
X174213705Y-68163755D01*
X175151689Y-68163755D01*
X175151690Y-68163755D01*
X175287025Y-68136835D01*
X175414508Y-68084030D01*
X175529239Y-68007369D01*
X175626811Y-67909797D01*
X175703472Y-67795066D01*
X175756277Y-67667583D01*
X175783197Y-67532248D01*
X175783197Y-67394262D01*
X175756277Y-67258927D01*
X175713981Y-67156814D01*
X175703474Y-67131448D01*
X175703468Y-67131437D01*
X175626811Y-67016713D01*
X175529238Y-66919140D01*
X175414514Y-66842483D01*
X175414503Y-66842477D01*
X175287025Y-66789675D01*
X175151692Y-66762755D01*
X175151690Y-66762755D01*
X174213704Y-66762755D01*
X174213701Y-66762755D01*
X174078369Y-66789675D01*
X174078367Y-66789675D01*
X173950890Y-66842477D01*
X173950879Y-66842483D01*
X173836155Y-66919140D01*
X173738582Y-67016713D01*
X173661925Y-67131437D01*
X173661919Y-67131448D01*
X173609117Y-67258925D01*
X173609117Y-67258927D01*
X173582197Y-67394259D01*
X171733196Y-67394259D01*
X171706277Y-67258927D01*
X171663981Y-67156814D01*
X171653474Y-67131448D01*
X171653468Y-67131437D01*
X171576811Y-67016713D01*
X171479238Y-66919140D01*
X171364514Y-66842483D01*
X171364503Y-66842477D01*
X171237025Y-66789675D01*
X171101692Y-66762755D01*
X171101690Y-66762755D01*
X169863704Y-66762755D01*
X169863701Y-66762755D01*
X169728369Y-66789675D01*
X169728367Y-66789675D01*
X169600890Y-66842477D01*
X169600879Y-66842483D01*
X169486155Y-66919140D01*
X169388582Y-67016713D01*
X169311925Y-67131437D01*
X169311919Y-67131448D01*
X169259117Y-67258925D01*
X169259117Y-67258927D01*
X169232197Y-67394259D01*
X161019230Y-67394259D01*
X160508193Y-66883222D01*
X159884511Y-66259540D01*
X159884508Y-66259538D01*
X159867121Y-66249499D01*
X159867121Y-66249500D01*
X159815989Y-66219979D01*
X159815988Y-66219978D01*
X159815987Y-66219978D01*
X159739564Y-66199500D01*
X159739562Y-66199500D01*
X158868750Y-66199500D01*
X158810559Y-66180593D01*
X158774595Y-66131093D01*
X158774595Y-66069907D01*
X158783013Y-66051000D01*
X158816391Y-65993187D01*
X158816392Y-65993186D01*
X158850500Y-65865892D01*
X158850500Y-65734108D01*
X158816392Y-65606814D01*
X158816390Y-65606811D01*
X158816390Y-65606809D01*
X158750503Y-65492690D01*
X158750501Y-65492688D01*
X158750500Y-65492686D01*
X158657314Y-65399500D01*
X158657311Y-65399498D01*
X158657309Y-65399496D01*
X158543189Y-65333609D01*
X158543191Y-65333609D01*
X158493799Y-65320375D01*
X158415892Y-65299500D01*
X158284108Y-65299500D01*
X158206200Y-65320375D01*
X158156809Y-65333609D01*
X158042690Y-65399496D01*
X158042689Y-65399497D01*
X158042686Y-65399499D01*
X158042686Y-65399500D01*
X157971680Y-65470505D01*
X157917166Y-65498281D01*
X157901679Y-65499500D01*
X157172076Y-65499500D01*
X157113885Y-65480593D01*
X157102072Y-65470504D01*
X156065676Y-64434108D01*
X157099500Y-64434108D01*
X157099500Y-64565892D01*
X157120229Y-64643255D01*
X157133609Y-64693190D01*
X157199496Y-64807309D01*
X157199498Y-64807311D01*
X157199500Y-64807314D01*
X157292686Y-64900500D01*
X157292688Y-64900501D01*
X157292690Y-64900503D01*
X157406810Y-64966390D01*
X157406808Y-64966390D01*
X157406812Y-64966391D01*
X157406814Y-64966392D01*
X157534108Y-65000500D01*
X157534110Y-65000500D01*
X157665890Y-65000500D01*
X157665892Y-65000500D01*
X157793186Y-64966392D01*
X157793188Y-64966390D01*
X157793190Y-64966390D01*
X157907309Y-64900503D01*
X157907309Y-64900502D01*
X157907314Y-64900500D01*
X158000500Y-64807314D01*
X158066392Y-64693186D01*
X158100500Y-64565892D01*
X158100500Y-64465478D01*
X158119407Y-64407287D01*
X158129496Y-64395474D01*
X158769071Y-63755899D01*
X159440460Y-63084511D01*
X159464840Y-63042284D01*
X159480020Y-63015992D01*
X159480020Y-63015990D01*
X159480022Y-63015988D01*
X159500500Y-62939562D01*
X159500500Y-62860438D01*
X159500500Y-62432109D01*
X159519407Y-62373918D01*
X159568907Y-62337954D01*
X159630093Y-62337954D01*
X159679593Y-62373918D01*
X159685232Y-62382602D01*
X159699500Y-62407314D01*
X159792686Y-62500500D01*
X159792688Y-62500501D01*
X159792690Y-62500503D01*
X159906810Y-62566390D01*
X159906808Y-62566390D01*
X159906812Y-62566391D01*
X159906814Y-62566392D01*
X160034108Y-62600500D01*
X160034110Y-62600500D01*
X160165890Y-62600500D01*
X160165892Y-62600500D01*
X160293186Y-62566392D01*
X160293188Y-62566390D01*
X160293190Y-62566390D01*
X160407309Y-62500503D01*
X160407309Y-62500502D01*
X160407314Y-62500500D01*
X160500500Y-62407314D01*
X160504434Y-62400500D01*
X160566390Y-62293190D01*
X160566390Y-62293188D01*
X160566392Y-62293186D01*
X160600500Y-62165892D01*
X160600500Y-62034108D01*
X160566392Y-61906814D01*
X160566390Y-61906811D01*
X160566390Y-61906809D01*
X160500503Y-61792690D01*
X160500501Y-61792688D01*
X160500500Y-61792686D01*
X160429494Y-61721680D01*
X160401719Y-61667166D01*
X160400500Y-61651679D01*
X160400500Y-61177900D01*
X160419407Y-61119709D01*
X160468907Y-61083745D01*
X160530093Y-61083745D01*
X160548999Y-61092163D01*
X160569314Y-61103892D01*
X160696608Y-61138000D01*
X160696610Y-61138000D01*
X160828390Y-61138000D01*
X160828392Y-61138000D01*
X160955686Y-61103892D01*
X160955688Y-61103890D01*
X160955690Y-61103890D01*
X161069809Y-61038003D01*
X161069809Y-61038002D01*
X161069814Y-61038000D01*
X161078319Y-61029494D01*
X161132834Y-61001719D01*
X161148321Y-61000500D01*
X167703963Y-61000500D01*
X167762154Y-61019407D01*
X167773967Y-61029496D01*
X168223201Y-61478730D01*
X168250978Y-61533247D01*
X168252197Y-61548734D01*
X168252197Y-64434933D01*
X168233290Y-64493124D01*
X168223202Y-64504935D01*
X168202198Y-64525939D01*
X168202193Y-64525945D01*
X168136306Y-64640064D01*
X168120228Y-64700069D01*
X168102197Y-64767363D01*
X168102197Y-64899147D01*
X168118274Y-64959147D01*
X168136306Y-65026445D01*
X168202193Y-65140564D01*
X168202195Y-65140566D01*
X168202197Y-65140569D01*
X168295383Y-65233755D01*
X168295385Y-65233756D01*
X168295387Y-65233758D01*
X168409507Y-65299645D01*
X168409505Y-65299645D01*
X168409509Y-65299646D01*
X168409511Y-65299647D01*
X168536805Y-65333755D01*
X168566507Y-65333755D01*
X168624698Y-65352662D01*
X168636511Y-65362751D01*
X169033201Y-65759441D01*
X169060978Y-65813958D01*
X169062197Y-65829445D01*
X169062197Y-65863001D01*
X169062198Y-65863013D01*
X169073829Y-65921482D01*
X169073831Y-65921488D01*
X169102286Y-65964073D01*
X169118145Y-65987807D01*
X169184466Y-66032122D01*
X169226384Y-66040460D01*
X169242938Y-66043753D01*
X169242943Y-66043753D01*
X169242949Y-66043755D01*
X170385508Y-66043755D01*
X170443699Y-66062662D01*
X170479663Y-66112162D01*
X170481126Y-66117104D01*
X170513009Y-66236091D01*
X170582192Y-66355920D01*
X170680032Y-66453760D01*
X170799861Y-66522943D01*
X170933514Y-66558755D01*
X170933516Y-66558755D01*
X171071878Y-66558755D01*
X171071880Y-66558755D01*
X171205533Y-66522943D01*
X171325362Y-66453760D01*
X171423202Y-66355920D01*
X171492385Y-66236091D01*
X171528197Y-66102438D01*
X171528197Y-65964072D01*
X171492385Y-65830419D01*
X171423202Y-65710590D01*
X171325362Y-65612750D01*
X171205533Y-65543567D01*
X171071880Y-65507755D01*
X170933514Y-65507755D01*
X170827818Y-65536075D01*
X170766718Y-65532873D01*
X170719169Y-65494368D01*
X170703197Y-65440449D01*
X170703197Y-65292755D01*
X170722104Y-65234564D01*
X170771604Y-65198600D01*
X170802197Y-65193755D01*
X172401679Y-65193755D01*
X172459870Y-65212662D01*
X172471676Y-65222745D01*
X172542686Y-65293755D01*
X172542688Y-65293756D01*
X172542690Y-65293758D01*
X172656810Y-65359645D01*
X172656808Y-65359645D01*
X172656812Y-65359646D01*
X172656814Y-65359647D01*
X172784108Y-65393755D01*
X172784110Y-65393755D01*
X172915890Y-65393755D01*
X172915892Y-65393755D01*
X173043186Y-65359647D01*
X173043188Y-65359645D01*
X173043190Y-65359645D01*
X173157309Y-65293758D01*
X173157309Y-65293757D01*
X173157314Y-65293755D01*
X173250500Y-65200569D01*
X173316392Y-65086441D01*
X173350500Y-64959147D01*
X173350500Y-64827363D01*
X173316392Y-64700069D01*
X173316390Y-64700066D01*
X173316390Y-64700064D01*
X173250503Y-64585945D01*
X173250501Y-64585943D01*
X173250500Y-64585941D01*
X173157314Y-64492755D01*
X173157311Y-64492753D01*
X173157309Y-64492751D01*
X173043189Y-64426864D01*
X173043191Y-64426864D01*
X172993799Y-64413630D01*
X172915892Y-64392755D01*
X172784108Y-64392755D01*
X172706200Y-64413630D01*
X172656809Y-64426864D01*
X172542690Y-64492751D01*
X172542689Y-64492752D01*
X172542686Y-64492754D01*
X172542686Y-64492755D01*
X172471680Y-64563760D01*
X172417166Y-64591536D01*
X172401679Y-64592755D01*
X171622644Y-64592755D01*
X171564453Y-64573848D01*
X171528489Y-64524348D01*
X171528489Y-64463162D01*
X171536908Y-64444255D01*
X171566390Y-64393190D01*
X171566390Y-64393188D01*
X171566392Y-64393186D01*
X171600500Y-64265892D01*
X171600500Y-64134108D01*
X171566392Y-64006814D01*
X171566390Y-64006811D01*
X171566390Y-64006809D01*
X171500503Y-63892690D01*
X171500501Y-63892688D01*
X171500500Y-63892686D01*
X171407314Y-63799500D01*
X171407311Y-63799498D01*
X171407309Y-63799496D01*
X171293189Y-63733609D01*
X171293191Y-63733609D01*
X171243799Y-63720375D01*
X171165892Y-63699500D01*
X171034108Y-63699500D01*
X170950868Y-63721804D01*
X170906810Y-63733609D01*
X170845618Y-63768938D01*
X170844954Y-63769079D01*
X170844493Y-63769578D01*
X170815091Y-63775426D01*
X170785769Y-63781659D01*
X170785148Y-63781382D01*
X170784483Y-63781515D01*
X170757295Y-63768981D01*
X170729874Y-63756772D01*
X170729533Y-63756182D01*
X170728918Y-63755899D01*
X170714268Y-63729742D01*
X170699282Y-63703783D01*
X170699039Y-63702604D01*
X170691564Y-63665024D01*
X170691562Y-63665022D01*
X170691075Y-63662570D01*
X170691076Y-63623940D01*
X170703195Y-63563013D01*
X170703197Y-63563001D01*
X170703197Y-63223508D01*
X170703195Y-63223496D01*
X170691076Y-63162570D01*
X170691076Y-63123940D01*
X170703195Y-63063013D01*
X170703197Y-63063001D01*
X170703197Y-62723508D01*
X170703195Y-62723496D01*
X170691076Y-62662570D01*
X170691076Y-62623940D01*
X170703195Y-62563013D01*
X170703197Y-62563001D01*
X170703197Y-62292755D01*
X170722104Y-62234564D01*
X170771604Y-62198600D01*
X170802197Y-62193755D01*
X172276779Y-62193755D01*
X172334970Y-62212662D01*
X172362515Y-62243255D01*
X172399497Y-62307309D01*
X172399500Y-62307314D01*
X172492686Y-62400500D01*
X172492688Y-62400501D01*
X172492690Y-62400503D01*
X172606810Y-62466390D01*
X172606808Y-62466390D01*
X172606812Y-62466391D01*
X172606814Y-62466392D01*
X172734108Y-62500500D01*
X172734110Y-62500500D01*
X172865890Y-62500500D01*
X172865892Y-62500500D01*
X172993186Y-62466392D01*
X172993188Y-62466390D01*
X172993190Y-62466390D01*
X173107309Y-62400503D01*
X173107309Y-62400502D01*
X173107314Y-62400500D01*
X173200500Y-62307314D01*
X173237485Y-62243255D01*
X173266390Y-62193190D01*
X173266390Y-62193188D01*
X173266392Y-62193186D01*
X173300500Y-62065892D01*
X173300500Y-61934108D01*
X173266392Y-61806814D01*
X173266390Y-61806811D01*
X173266390Y-61806809D01*
X173200503Y-61692690D01*
X173200501Y-61692688D01*
X173200500Y-61692686D01*
X173107314Y-61599500D01*
X173107311Y-61599498D01*
X173107309Y-61599496D01*
X172993189Y-61533609D01*
X172993191Y-61533609D01*
X172927068Y-61515892D01*
X172865892Y-61499500D01*
X172734108Y-61499500D01*
X172606814Y-61533608D01*
X172606813Y-61533608D01*
X172606811Y-61533609D01*
X172527343Y-61579491D01*
X172477842Y-61592755D01*
X172154066Y-61592755D01*
X172095875Y-61573848D01*
X172059911Y-61524348D01*
X172059911Y-61463162D01*
X172084060Y-61423753D01*
X172100500Y-61407314D01*
X172113082Y-61385521D01*
X172166390Y-61293190D01*
X172166390Y-61293188D01*
X172166392Y-61293186D01*
X172200500Y-61165892D01*
X172200500Y-61034108D01*
X172166392Y-60906814D01*
X172166390Y-60906811D01*
X172166390Y-60906809D01*
X172100503Y-60792690D01*
X172100501Y-60792688D01*
X172100500Y-60792686D01*
X172007314Y-60699500D01*
X172007311Y-60699498D01*
X172007309Y-60699496D01*
X171893189Y-60633609D01*
X171893191Y-60633609D01*
X171843799Y-60620375D01*
X171765892Y-60599500D01*
X171634108Y-60599500D01*
X171634103Y-60599500D01*
X171599357Y-60608810D01*
X171538256Y-60605606D01*
X171490707Y-60567100D01*
X171474873Y-60507999D01*
X171488001Y-60463683D01*
X171492385Y-60456091D01*
X171528197Y-60322438D01*
X171528197Y-60184072D01*
X171492385Y-60050419D01*
X171423202Y-59930590D01*
X171325362Y-59832750D01*
X171205533Y-59763567D01*
X171071880Y-59727755D01*
X170933514Y-59727755D01*
X170799861Y-59763567D01*
X170680032Y-59832750D01*
X170582192Y-59930590D01*
X170513009Y-60050419D01*
X170481133Y-60169380D01*
X170447811Y-60220692D01*
X170390690Y-60242619D01*
X170385508Y-60242755D01*
X169242949Y-60242755D01*
X169242948Y-60242755D01*
X169242938Y-60242756D01*
X169184469Y-60254387D01*
X169184463Y-60254389D01*
X169118148Y-60298700D01*
X169118142Y-60298706D01*
X169073831Y-60365021D01*
X169073829Y-60365027D01*
X169062198Y-60423496D01*
X169062197Y-60423508D01*
X169062197Y-60437064D01*
X169043290Y-60495255D01*
X169033201Y-60507068D01*
X168637345Y-60902924D01*
X168582828Y-60930701D01*
X168522396Y-60921130D01*
X168497338Y-60902924D01*
X168053952Y-60459539D01*
X168053951Y-60459538D01*
X168042608Y-60452990D01*
X168042606Y-60452988D01*
X168042606Y-60452989D01*
X167985431Y-60419979D01*
X167985430Y-60419978D01*
X167985429Y-60419978D01*
X167909006Y-60399500D01*
X167909004Y-60399500D01*
X161260176Y-60399500D01*
X161201985Y-60380593D01*
X161174439Y-60349999D01*
X161163001Y-60330188D01*
X161163000Y-60330186D01*
X161069814Y-60237000D01*
X161069811Y-60236998D01*
X161069809Y-60236996D01*
X160955689Y-60171109D01*
X160955691Y-60171109D01*
X160906299Y-60157875D01*
X160828392Y-60137000D01*
X160696608Y-60137000D01*
X160584348Y-60167079D01*
X160569310Y-60171109D01*
X160548999Y-60182836D01*
X160489150Y-60195557D01*
X160433255Y-60170670D01*
X160402663Y-60117681D01*
X160400500Y-60097099D01*
X160400500Y-59465479D01*
X160419407Y-59407288D01*
X160429496Y-59395475D01*
X161070712Y-58754259D01*
X169232197Y-58754259D01*
X169232197Y-58892250D01*
X169259117Y-59027582D01*
X169259117Y-59027584D01*
X169311919Y-59155061D01*
X169311925Y-59155072D01*
X169388582Y-59269796D01*
X169486155Y-59367369D01*
X169600879Y-59444026D01*
X169600890Y-59444032D01*
X169643128Y-59461527D01*
X169728369Y-59496835D01*
X169863704Y-59523755D01*
X169863705Y-59523755D01*
X171101689Y-59523755D01*
X171101690Y-59523755D01*
X171237025Y-59496835D01*
X171364508Y-59444030D01*
X171479239Y-59367369D01*
X171576811Y-59269797D01*
X171653472Y-59155066D01*
X171706277Y-59027583D01*
X171733197Y-58892248D01*
X171733197Y-58754262D01*
X171733196Y-58754259D01*
X173582197Y-58754259D01*
X173582197Y-58892250D01*
X173609117Y-59027582D01*
X173609117Y-59027584D01*
X173661919Y-59155061D01*
X173661925Y-59155072D01*
X173738582Y-59269796D01*
X173836155Y-59367369D01*
X173950879Y-59444026D01*
X173950890Y-59444032D01*
X173993128Y-59461527D01*
X174078369Y-59496835D01*
X174213704Y-59523755D01*
X174213705Y-59523755D01*
X175151689Y-59523755D01*
X175151690Y-59523755D01*
X175287025Y-59496835D01*
X175414508Y-59444030D01*
X175529239Y-59367369D01*
X175626811Y-59269797D01*
X175703472Y-59155066D01*
X175756277Y-59027583D01*
X175783197Y-58892248D01*
X175783197Y-58754262D01*
X175756277Y-58618927D01*
X175703472Y-58491444D01*
X175703471Y-58491442D01*
X175703468Y-58491437D01*
X175626811Y-58376713D01*
X175529238Y-58279140D01*
X175414514Y-58202483D01*
X175414503Y-58202477D01*
X175287025Y-58149675D01*
X175151692Y-58122755D01*
X175151690Y-58122755D01*
X174213704Y-58122755D01*
X174213701Y-58122755D01*
X174078369Y-58149675D01*
X174078367Y-58149675D01*
X173950890Y-58202477D01*
X173950879Y-58202483D01*
X173836155Y-58279140D01*
X173738582Y-58376713D01*
X173661925Y-58491437D01*
X173661919Y-58491448D01*
X173609117Y-58618925D01*
X173609117Y-58618927D01*
X173582197Y-58754259D01*
X171733196Y-58754259D01*
X171706277Y-58618927D01*
X171653472Y-58491444D01*
X171653471Y-58491442D01*
X171653468Y-58491437D01*
X171576811Y-58376713D01*
X171479238Y-58279140D01*
X171364514Y-58202483D01*
X171364503Y-58202477D01*
X171237025Y-58149675D01*
X171101692Y-58122755D01*
X171101690Y-58122755D01*
X169863704Y-58122755D01*
X169863701Y-58122755D01*
X169728369Y-58149675D01*
X169728367Y-58149675D01*
X169600890Y-58202477D01*
X169600879Y-58202483D01*
X169486155Y-58279140D01*
X169388582Y-58376713D01*
X169311925Y-58491437D01*
X169311919Y-58491448D01*
X169259117Y-58618925D01*
X169259117Y-58618927D01*
X169232197Y-58754259D01*
X161070712Y-58754259D01*
X161895475Y-57929496D01*
X161949992Y-57901719D01*
X161965479Y-57900500D01*
X162551679Y-57900500D01*
X162609870Y-57919407D01*
X162621676Y-57929490D01*
X162692686Y-58000500D01*
X162692688Y-58000501D01*
X162692690Y-58000503D01*
X162806810Y-58066390D01*
X162806808Y-58066390D01*
X162806812Y-58066391D01*
X162806814Y-58066392D01*
X162934108Y-58100500D01*
X162934110Y-58100500D01*
X163065890Y-58100500D01*
X163065892Y-58100500D01*
X163193186Y-58066392D01*
X163193188Y-58066390D01*
X163193190Y-58066390D01*
X163307309Y-58000503D01*
X163307309Y-58000502D01*
X163307314Y-58000500D01*
X163400500Y-57907314D01*
X163447734Y-57825503D01*
X163466390Y-57793190D01*
X163466390Y-57793188D01*
X163466392Y-57793186D01*
X163500500Y-57665892D01*
X163500500Y-57534108D01*
X163466392Y-57406814D01*
X163466390Y-57406811D01*
X163466390Y-57406809D01*
X163400503Y-57292690D01*
X163400501Y-57292688D01*
X163400500Y-57292686D01*
X163307314Y-57199500D01*
X163307311Y-57199498D01*
X163307309Y-57199496D01*
X163193189Y-57133609D01*
X163193191Y-57133609D01*
X163143799Y-57120375D01*
X163065892Y-57099500D01*
X162934108Y-57099500D01*
X162856200Y-57120375D01*
X162806809Y-57133609D01*
X162692690Y-57199496D01*
X162692689Y-57199497D01*
X162692686Y-57199499D01*
X162692686Y-57199500D01*
X162621680Y-57270505D01*
X162567166Y-57298281D01*
X162551679Y-57299500D01*
X162210516Y-57299500D01*
X162152325Y-57280593D01*
X162116361Y-57231093D01*
X162116361Y-57169907D01*
X162140512Y-57130496D01*
X162536900Y-56734108D01*
X169299500Y-56734108D01*
X169299500Y-56865892D01*
X169315204Y-56924500D01*
X169333609Y-56993190D01*
X169399496Y-57107309D01*
X169399498Y-57107311D01*
X169399500Y-57107314D01*
X169492686Y-57200500D01*
X169492688Y-57200501D01*
X169492690Y-57200503D01*
X169606810Y-57266390D01*
X169606808Y-57266390D01*
X169606812Y-57266391D01*
X169606814Y-57266392D01*
X169734108Y-57300500D01*
X169734110Y-57300500D01*
X169865890Y-57300500D01*
X169865892Y-57300500D01*
X169993186Y-57266392D01*
X169993188Y-57266390D01*
X169993190Y-57266390D01*
X170107309Y-57200503D01*
X170107309Y-57200502D01*
X170107314Y-57200500D01*
X170128319Y-57179494D01*
X170182834Y-57151719D01*
X170198321Y-57150500D01*
X170850500Y-57150500D01*
X170908691Y-57169407D01*
X170944655Y-57218907D01*
X170949500Y-57249500D01*
X170949500Y-57354274D01*
X170952353Y-57384694D01*
X170952355Y-57384703D01*
X170997207Y-57512883D01*
X171077845Y-57622144D01*
X171077847Y-57622146D01*
X171077850Y-57622150D01*
X171077853Y-57622152D01*
X171077855Y-57622154D01*
X171187116Y-57702792D01*
X171187117Y-57702792D01*
X171187118Y-57702793D01*
X171315301Y-57747646D01*
X171345725Y-57750499D01*
X171345727Y-57750500D01*
X171345734Y-57750500D01*
X174654273Y-57750500D01*
X174654273Y-57750499D01*
X174684699Y-57747646D01*
X174812882Y-57702793D01*
X174922150Y-57622150D01*
X175002793Y-57512882D01*
X175047646Y-57384699D01*
X175050499Y-57354273D01*
X175050500Y-57354273D01*
X175050500Y-56645727D01*
X175050499Y-56645725D01*
X175047646Y-56615305D01*
X175047646Y-56615301D01*
X175002793Y-56487118D01*
X174945352Y-56409288D01*
X174922154Y-56377855D01*
X174922152Y-56377853D01*
X174922150Y-56377850D01*
X174922146Y-56377847D01*
X174922144Y-56377845D01*
X174812883Y-56297207D01*
X174684703Y-56252355D01*
X174684694Y-56252353D01*
X174654274Y-56249500D01*
X174654266Y-56249500D01*
X171345734Y-56249500D01*
X171345725Y-56249500D01*
X171315305Y-56252353D01*
X171315296Y-56252355D01*
X171187116Y-56297207D01*
X171077850Y-56377849D01*
X171054648Y-56409288D01*
X171004880Y-56444881D01*
X170974992Y-56449500D01*
X170198321Y-56449500D01*
X170140130Y-56430593D01*
X170128323Y-56420509D01*
X170107314Y-56399500D01*
X170107311Y-56399498D01*
X170107309Y-56399496D01*
X169993189Y-56333609D01*
X169993191Y-56333609D01*
X169943799Y-56320375D01*
X169865892Y-56299500D01*
X169734108Y-56299500D01*
X169656200Y-56320375D01*
X169606809Y-56333609D01*
X169492690Y-56399496D01*
X169399496Y-56492690D01*
X169333609Y-56606809D01*
X169314539Y-56677978D01*
X169299500Y-56734108D01*
X162536900Y-56734108D01*
X163241512Y-56029496D01*
X163296029Y-56001719D01*
X163311516Y-56000500D01*
X167551679Y-56000500D01*
X167609870Y-56019407D01*
X167621676Y-56029490D01*
X167692686Y-56100500D01*
X167692688Y-56100501D01*
X167692690Y-56100503D01*
X167806810Y-56166390D01*
X167806808Y-56166390D01*
X167806812Y-56166391D01*
X167806814Y-56166392D01*
X167934108Y-56200500D01*
X167934110Y-56200500D01*
X168065890Y-56200500D01*
X168065892Y-56200500D01*
X168193186Y-56166392D01*
X168193188Y-56166390D01*
X168193190Y-56166390D01*
X168307309Y-56100503D01*
X168307309Y-56100502D01*
X168307314Y-56100500D01*
X168400500Y-56007314D01*
X168410421Y-55990130D01*
X168466390Y-55893190D01*
X168466390Y-55893188D01*
X168466392Y-55893186D01*
X168500500Y-55765892D01*
X168500500Y-55634108D01*
X168466392Y-55506814D01*
X168466390Y-55506811D01*
X168466390Y-55506809D01*
X168400503Y-55392690D01*
X168400501Y-55392688D01*
X168400500Y-55392686D01*
X168307314Y-55299500D01*
X168307311Y-55299498D01*
X168307309Y-55299496D01*
X168193189Y-55233609D01*
X168193191Y-55233609D01*
X168143799Y-55220375D01*
X168065892Y-55199500D01*
X167934108Y-55199500D01*
X167856200Y-55220375D01*
X167806809Y-55233609D01*
X167692690Y-55299496D01*
X167692689Y-55299497D01*
X167692686Y-55299499D01*
X167692686Y-55299500D01*
X167621680Y-55370505D01*
X167567166Y-55398281D01*
X167551679Y-55399500D01*
X163185599Y-55399500D01*
X163106475Y-55399500D01*
X163059698Y-55412033D01*
X163030044Y-55419979D01*
X162961530Y-55459536D01*
X162961529Y-55459537D01*
X162961526Y-55459539D01*
X162961526Y-55459540D01*
X159015489Y-59405578D01*
X159015488Y-59405577D01*
X158959539Y-59461527D01*
X158919980Y-59530045D01*
X158919978Y-59530049D01*
X158899500Y-59606473D01*
X158899500Y-62734520D01*
X158880593Y-62792711D01*
X158870504Y-62804524D01*
X157704524Y-63970504D01*
X157650007Y-63998281D01*
X157634520Y-63999500D01*
X157534108Y-63999500D01*
X157456200Y-64020375D01*
X157406809Y-64033609D01*
X157292690Y-64099496D01*
X157199496Y-64192690D01*
X157133609Y-64306809D01*
X157129323Y-64322805D01*
X157099500Y-64434108D01*
X156065676Y-64434108D01*
X155708496Y-64076928D01*
X155680719Y-64022411D01*
X155679500Y-64006924D01*
X155679500Y-62669321D01*
X155698407Y-62611130D01*
X155708490Y-62599323D01*
X155750500Y-62557314D01*
X155816392Y-62443186D01*
X155850500Y-62315892D01*
X155850500Y-62184108D01*
X155816392Y-62056814D01*
X155816390Y-62056811D01*
X155816390Y-62056809D01*
X155750503Y-61942690D01*
X155750501Y-61942688D01*
X155750500Y-61942686D01*
X155657314Y-61849500D01*
X155657311Y-61849498D01*
X155657309Y-61849496D01*
X155543189Y-61783609D01*
X155543191Y-61783609D01*
X155484525Y-61767890D01*
X155415892Y-61749500D01*
X155284108Y-61749500D01*
X155215475Y-61767890D01*
X155156809Y-61783609D01*
X155042690Y-61849496D01*
X154949496Y-61942690D01*
X154883609Y-62056809D01*
X154873996Y-62092686D01*
X154849500Y-62184108D01*
X154849500Y-62315892D01*
X154872171Y-62400503D01*
X154883609Y-62443190D01*
X154949496Y-62557309D01*
X154949498Y-62557311D01*
X154949500Y-62557314D01*
X155042686Y-62650500D01*
X155042688Y-62650501D01*
X155047275Y-62655088D01*
X155045604Y-62656758D01*
X155074420Y-62698675D01*
X155078500Y-62726802D01*
X155078500Y-64211967D01*
X155098978Y-64288391D01*
X155098979Y-64288393D01*
X155118845Y-64322800D01*
X155118846Y-64322805D01*
X155118848Y-64322805D01*
X155138540Y-64356914D01*
X156812124Y-66030498D01*
X156839900Y-66085013D01*
X156830329Y-66145445D01*
X156787064Y-66188710D01*
X156742119Y-66199500D01*
X156215479Y-66199500D01*
X156157288Y-66180593D01*
X156145475Y-66170504D01*
X153536961Y-63561990D01*
X153509184Y-63507473D01*
X153518755Y-63447041D01*
X153562020Y-63403776D01*
X153581334Y-63396362D01*
X153693186Y-63366392D01*
X153807314Y-63300500D01*
X153900500Y-63207314D01*
X153937485Y-63143255D01*
X153966390Y-63093190D01*
X153966390Y-63093188D01*
X153966392Y-63093186D01*
X153998360Y-62973875D01*
X154031684Y-62922563D01*
X154088806Y-62900636D01*
X154093987Y-62900500D01*
X154215890Y-62900500D01*
X154215892Y-62900500D01*
X154343186Y-62866392D01*
X154343188Y-62866390D01*
X154343190Y-62866390D01*
X154457309Y-62800503D01*
X154457309Y-62800502D01*
X154457314Y-62800500D01*
X154550500Y-62707314D01*
X154553836Y-62701536D01*
X154616390Y-62593190D01*
X154616390Y-62593188D01*
X154616392Y-62593186D01*
X154650500Y-62465892D01*
X154650500Y-62334108D01*
X154616392Y-62206814D01*
X154616390Y-62206811D01*
X154616390Y-62206809D01*
X154550503Y-62092690D01*
X154550501Y-62092688D01*
X154550500Y-62092686D01*
X154457314Y-61999500D01*
X154457311Y-61999498D01*
X154457309Y-61999496D01*
X154343189Y-61933609D01*
X154343191Y-61933609D01*
X154278934Y-61916392D01*
X154215892Y-61899500D01*
X154149500Y-61899500D01*
X154091309Y-61880593D01*
X154055345Y-61831093D01*
X154050500Y-61800500D01*
X154050500Y-60108506D01*
X154069407Y-60050315D01*
X154107804Y-60020048D01*
X154107566Y-60019636D01*
X154110414Y-60017991D01*
X154111624Y-60017038D01*
X154113172Y-60016395D01*
X154113186Y-60016392D01*
X154227314Y-59950500D01*
X154320500Y-59857314D01*
X154379898Y-59754434D01*
X154386390Y-59743190D01*
X154386390Y-59743188D01*
X154386392Y-59743186D01*
X154420500Y-59615892D01*
X154420500Y-59484108D01*
X154386392Y-59356814D01*
X154386390Y-59356811D01*
X154386390Y-59356809D01*
X154320503Y-59242690D01*
X154320501Y-59242688D01*
X154320500Y-59242686D01*
X154227314Y-59149500D01*
X154227311Y-59149498D01*
X154227309Y-59149496D01*
X154113189Y-59083609D01*
X154113191Y-59083609D01*
X154063799Y-59070375D01*
X153985892Y-59049500D01*
X153854108Y-59049500D01*
X153854105Y-59049500D01*
X153825121Y-59057266D01*
X153764019Y-59054063D01*
X153716470Y-59015556D01*
X153700500Y-58961639D01*
X153700500Y-56048321D01*
X153719407Y-55990130D01*
X153729490Y-55978323D01*
X153800500Y-55907314D01*
X153866392Y-55793186D01*
X153900500Y-55665892D01*
X153900500Y-55534108D01*
X153866392Y-55406814D01*
X153866390Y-55406811D01*
X153866390Y-55406809D01*
X153800503Y-55292690D01*
X153800501Y-55292688D01*
X153800500Y-55292686D01*
X153707314Y-55199500D01*
X153707311Y-55199498D01*
X153707309Y-55199496D01*
X153593189Y-55133609D01*
X153593191Y-55133609D01*
X153543799Y-55120375D01*
X153465892Y-55099500D01*
X153334108Y-55099500D01*
X153256200Y-55120375D01*
X153206809Y-55133609D01*
X153092690Y-55199496D01*
X152999496Y-55292690D01*
X152933609Y-55406809D01*
X152930080Y-55419979D01*
X152899500Y-55534108D01*
X152899500Y-55665892D01*
X152926294Y-55765890D01*
X152933609Y-55793190D01*
X152999496Y-55907309D01*
X152999498Y-55907311D01*
X152999500Y-55907314D01*
X153070505Y-55978319D01*
X153098281Y-56032834D01*
X153099500Y-56048321D01*
X153099500Y-59017890D01*
X153080593Y-59076081D01*
X153031093Y-59112045D01*
X152969907Y-59112045D01*
X152920407Y-59076081D01*
X152914764Y-59067391D01*
X152900501Y-59042688D01*
X152900500Y-59042686D01*
X152807314Y-58949500D01*
X152807311Y-58949498D01*
X152807309Y-58949496D01*
X152693189Y-58883609D01*
X152693191Y-58883609D01*
X152643799Y-58870375D01*
X152565892Y-58849500D01*
X152434108Y-58849500D01*
X152356200Y-58870375D01*
X152306809Y-58883609D01*
X152192690Y-58949496D01*
X152099496Y-59042690D01*
X152033609Y-59156809D01*
X152033608Y-59156814D01*
X151999500Y-59284108D01*
X151999500Y-59415892D01*
X152028401Y-59523754D01*
X152033609Y-59543190D01*
X152099496Y-59657309D01*
X152099498Y-59657311D01*
X152099500Y-59657314D01*
X152170505Y-59728319D01*
X152198281Y-59782834D01*
X152199500Y-59798321D01*
X152199500Y-62852761D01*
X152194733Y-62883113D01*
X152191504Y-62893137D01*
X152183608Y-62906814D01*
X152166333Y-62971285D01*
X152165576Y-62973636D01*
X152149025Y-62996538D01*
X152133645Y-63020222D01*
X152131244Y-63021143D01*
X152129738Y-63023228D01*
X152102885Y-63032028D01*
X152076523Y-63042148D01*
X152073918Y-63041522D01*
X152071596Y-63042284D01*
X152055514Y-63037104D01*
X152021843Y-63029020D01*
X151943189Y-62983609D01*
X151943191Y-62983609D01*
X151877068Y-62965892D01*
X151815892Y-62949500D01*
X151715479Y-62949500D01*
X151657288Y-62930593D01*
X151645475Y-62920504D01*
X150279496Y-61554525D01*
X150251719Y-61500008D01*
X150250500Y-61484521D01*
X150250500Y-61384109D01*
X150229923Y-61307314D01*
X150216392Y-61256814D01*
X150216390Y-61256811D01*
X150216390Y-61256809D01*
X150150503Y-61142690D01*
X150150501Y-61142688D01*
X150150500Y-61142686D01*
X150057314Y-61049500D01*
X150057311Y-61049498D01*
X150057309Y-61049496D01*
X149943189Y-60983609D01*
X149943191Y-60983609D01*
X149893799Y-60970375D01*
X149815892Y-60949500D01*
X149684108Y-60949500D01*
X149606200Y-60970375D01*
X149556809Y-60983609D01*
X149442690Y-61049496D01*
X149349496Y-61142690D01*
X149283609Y-61256809D01*
X149249500Y-61384109D01*
X149249500Y-61385521D01*
X149249187Y-61386483D01*
X149248653Y-61390542D01*
X149247900Y-61390442D01*
X149230593Y-61443712D01*
X149181093Y-61479676D01*
X149119907Y-61479676D01*
X149080496Y-61455525D01*
X148367914Y-60742943D01*
X147584511Y-59959540D01*
X147584508Y-59959538D01*
X147568853Y-59950499D01*
X147568853Y-59950500D01*
X147515989Y-59919979D01*
X147515988Y-59919978D01*
X147515987Y-59919978D01*
X147439564Y-59899500D01*
X147439562Y-59899500D01*
X139915479Y-59899500D01*
X139857288Y-59880593D01*
X139845475Y-59870504D01*
X137504496Y-57529525D01*
X137476719Y-57475008D01*
X137475500Y-57459521D01*
X137475500Y-57359109D01*
X137475500Y-57359108D01*
X137441392Y-57231814D01*
X137441390Y-57231811D01*
X137441390Y-57231809D01*
X137375503Y-57117690D01*
X137375501Y-57117688D01*
X137375500Y-57117686D01*
X137282314Y-57024500D01*
X137282311Y-57024498D01*
X137282309Y-57024496D01*
X137168189Y-56958609D01*
X137168191Y-56958609D01*
X137118799Y-56945375D01*
X137040892Y-56924500D01*
X136909108Y-56924500D01*
X136831200Y-56945375D01*
X136781809Y-56958609D01*
X136667690Y-57024496D01*
X136574496Y-57117690D01*
X136508609Y-57231809D01*
X136508608Y-57231814D01*
X136474500Y-57359108D01*
X136474500Y-57490892D01*
X136484852Y-57529525D01*
X136508609Y-57618190D01*
X136574496Y-57732309D01*
X136574498Y-57732311D01*
X136574500Y-57732314D01*
X136667686Y-57825500D01*
X136667688Y-57825501D01*
X136667690Y-57825503D01*
X136781810Y-57891390D01*
X136781808Y-57891390D01*
X136781812Y-57891391D01*
X136781814Y-57891392D01*
X136909108Y-57925500D01*
X136909110Y-57925500D01*
X137009521Y-57925500D01*
X137067712Y-57944407D01*
X137079525Y-57954496D01*
X139565489Y-60440460D01*
X139565491Y-60440461D01*
X139565492Y-60440462D01*
X139565493Y-60440463D01*
X139634008Y-60480020D01*
X139634006Y-60480020D01*
X139634010Y-60480021D01*
X139634012Y-60480022D01*
X139710438Y-60500500D01*
X139789562Y-60500500D01*
X144152679Y-60500500D01*
X144210870Y-60519407D01*
X144246834Y-60568907D01*
X144246834Y-60630093D01*
X144222684Y-60669501D01*
X144205052Y-60687134D01*
X144199497Y-60692689D01*
X144199496Y-60692690D01*
X144133609Y-60806809D01*
X144133608Y-60806814D01*
X144099500Y-60934108D01*
X144099500Y-61065892D01*
X144109682Y-61103892D01*
X144133609Y-61193190D01*
X144199496Y-61307309D01*
X144199498Y-61307311D01*
X144199500Y-61307314D01*
X144292686Y-61400500D01*
X144292688Y-61400501D01*
X144292690Y-61400503D01*
X144406810Y-61466390D01*
X144406808Y-61466390D01*
X144406812Y-61466391D01*
X144406814Y-61466392D01*
X144534108Y-61500500D01*
X144534110Y-61500500D01*
X144634521Y-61500500D01*
X144692712Y-61519407D01*
X144704525Y-61529496D01*
X147381844Y-64206815D01*
X147381843Y-64206815D01*
X147437793Y-64262764D01*
X147506311Y-64302323D01*
X147506315Y-64302325D01*
X147582739Y-64322803D01*
X147582741Y-64322804D01*
X147582742Y-64322804D01*
X147661866Y-64322804D01*
X150029375Y-64322804D01*
X150087566Y-64341711D01*
X150099372Y-64351794D01*
X150170382Y-64422804D01*
X150170384Y-64422805D01*
X150170386Y-64422807D01*
X150284506Y-64488694D01*
X150284504Y-64488694D01*
X150284508Y-64488695D01*
X150284510Y-64488696D01*
X150411804Y-64522804D01*
X150411806Y-64522804D01*
X150543586Y-64522804D01*
X150543588Y-64522804D01*
X150670882Y-64488696D01*
X150670884Y-64488694D01*
X150670886Y-64488694D01*
X150785005Y-64422807D01*
X150785005Y-64422806D01*
X150785010Y-64422804D01*
X150878196Y-64329618D01*
X150878199Y-64329613D01*
X150944086Y-64215494D01*
X150944086Y-64215492D01*
X150944088Y-64215490D01*
X150978196Y-64088196D01*
X150978196Y-63956412D01*
X150944088Y-63829118D01*
X150944086Y-63829115D01*
X150944086Y-63829113D01*
X150878199Y-63714994D01*
X150878197Y-63714992D01*
X150878196Y-63714990D01*
X150805455Y-63642249D01*
X150777680Y-63587735D01*
X150787251Y-63527303D01*
X150796921Y-63511978D01*
X150800495Y-63507318D01*
X150800500Y-63507314D01*
X150860278Y-63403776D01*
X150866390Y-63393190D01*
X150866390Y-63393188D01*
X150866392Y-63393186D01*
X150900500Y-63265892D01*
X150900500Y-63264479D01*
X150900812Y-63263516D01*
X150901347Y-63259458D01*
X150902099Y-63259557D01*
X150919407Y-63206288D01*
X150968907Y-63170324D01*
X151030093Y-63170324D01*
X151069504Y-63194475D01*
X151220504Y-63345475D01*
X151248281Y-63399992D01*
X151249500Y-63415479D01*
X151249500Y-63515892D01*
X151277794Y-63621486D01*
X151283609Y-63643190D01*
X151349496Y-63757309D01*
X151349498Y-63757311D01*
X151349500Y-63757314D01*
X151442686Y-63850500D01*
X151442688Y-63850501D01*
X151442690Y-63850503D01*
X151556810Y-63916390D01*
X151556808Y-63916390D01*
X151556812Y-63916391D01*
X151556814Y-63916392D01*
X151684108Y-63950500D01*
X151684110Y-63950500D01*
X151784521Y-63950500D01*
X151842712Y-63969407D01*
X151854525Y-63979496D01*
X154666739Y-66791710D01*
X154694516Y-66846227D01*
X154684945Y-66906659D01*
X154646237Y-66947449D01*
X154642690Y-66949496D01*
X154549496Y-67042690D01*
X154487541Y-67150000D01*
X154442072Y-67190941D01*
X154401805Y-67199500D01*
X152136070Y-67199500D01*
X152077879Y-67180593D01*
X152041915Y-67131093D01*
X152041915Y-67069907D01*
X152050334Y-67050999D01*
X152055131Y-67042690D01*
X152066392Y-67023186D01*
X152100500Y-66895892D01*
X152100500Y-66764108D01*
X152066392Y-66636814D01*
X152066390Y-66636811D01*
X152066390Y-66636809D01*
X152000503Y-66522690D01*
X152000501Y-66522688D01*
X152000500Y-66522686D01*
X151907314Y-66429500D01*
X151907311Y-66429498D01*
X151907309Y-66429496D01*
X151793189Y-66363609D01*
X151793191Y-66363609D01*
X151743799Y-66350375D01*
X151665892Y-66329500D01*
X151534108Y-66329500D01*
X151456200Y-66350375D01*
X151406809Y-66363609D01*
X151292690Y-66429496D01*
X151199496Y-66522690D01*
X151133609Y-66636809D01*
X151109678Y-66726123D01*
X151076354Y-66777438D01*
X151019232Y-66799364D01*
X151014051Y-66799500D01*
X142165479Y-66799500D01*
X142157881Y-66797031D01*
X142149992Y-66798281D01*
X142129336Y-66787756D01*
X142107288Y-66780593D01*
X142095475Y-66770504D01*
X142079496Y-66754525D01*
X142051719Y-66700008D01*
X142050500Y-66684521D01*
X142050500Y-66584109D01*
X142050500Y-66584108D01*
X142016392Y-66456814D01*
X142016390Y-66456811D01*
X142016390Y-66456809D01*
X141950503Y-66342690D01*
X141950501Y-66342688D01*
X141950500Y-66342686D01*
X141857314Y-66249500D01*
X141857311Y-66249498D01*
X141857309Y-66249496D01*
X141743189Y-66183609D01*
X141743191Y-66183609D01*
X141693799Y-66170375D01*
X141615892Y-66149500D01*
X141484108Y-66149500D01*
X141406200Y-66170375D01*
X141356809Y-66183609D01*
X141242690Y-66249496D01*
X141149496Y-66342690D01*
X141083609Y-66456809D01*
X141069435Y-66509710D01*
X141049500Y-66584108D01*
X141049500Y-66715892D01*
X141079579Y-66828151D01*
X141083609Y-66843190D01*
X141149496Y-66957309D01*
X141149498Y-66957311D01*
X141149500Y-66957314D01*
X141222684Y-67030498D01*
X141250460Y-67085013D01*
X141240889Y-67145445D01*
X141197624Y-67188710D01*
X141152679Y-67199500D01*
X138398195Y-67199500D01*
X138340004Y-67180593D01*
X138312459Y-67150000D01*
X138250503Y-67042690D01*
X138250501Y-67042688D01*
X138250500Y-67042686D01*
X138157314Y-66949500D01*
X138157311Y-66949498D01*
X138157309Y-66949496D01*
X138043189Y-66883609D01*
X138043191Y-66883609D01*
X137993799Y-66870375D01*
X137915892Y-66849500D01*
X137784108Y-66849500D01*
X137706200Y-66870375D01*
X137656809Y-66883609D01*
X137542690Y-66949496D01*
X137449496Y-67042690D01*
X137383609Y-67156809D01*
X137374464Y-67190941D01*
X137349500Y-67284108D01*
X137349500Y-67415892D01*
X137359852Y-67454525D01*
X137365305Y-67474878D01*
X137362102Y-67535979D01*
X137323597Y-67583529D01*
X137269678Y-67599500D01*
X131615479Y-67599500D01*
X131607881Y-67597031D01*
X131599992Y-67598281D01*
X131579336Y-67587756D01*
X131557288Y-67580593D01*
X131545475Y-67570504D01*
X131429496Y-67454525D01*
X131401719Y-67400008D01*
X131400500Y-67384521D01*
X131400500Y-67284109D01*
X131400500Y-67284108D01*
X131366392Y-67156814D01*
X131366390Y-67156811D01*
X131366390Y-67156809D01*
X131300503Y-67042690D01*
X131300501Y-67042688D01*
X131300500Y-67042686D01*
X131207314Y-66949500D01*
X131207311Y-66949498D01*
X131207309Y-66949496D01*
X131093189Y-66883609D01*
X131093191Y-66883609D01*
X131043799Y-66870375D01*
X130965892Y-66849500D01*
X130834108Y-66849500D01*
X130756200Y-66870375D01*
X130706809Y-66883609D01*
X130592690Y-66949496D01*
X130499496Y-67042690D01*
X130433609Y-67156809D01*
X130424464Y-67190941D01*
X130399500Y-67284108D01*
X122200500Y-67284108D01*
X122200500Y-54503891D01*
X122200805Y-54496124D01*
X122204396Y-54450500D01*
X122215888Y-54304472D01*
X122218315Y-54289145D01*
X122262285Y-54105998D01*
X122267081Y-54091239D01*
X122339162Y-53917220D01*
X122346202Y-53903404D01*
X122444612Y-53742813D01*
X122453733Y-53730258D01*
X122576057Y-53587036D01*
X122587039Y-53576055D01*
X122730258Y-53453733D01*
X122742813Y-53444612D01*
X122903404Y-53346202D01*
X122917220Y-53339162D01*
X123091239Y-53267081D01*
X123105998Y-53262285D01*
X123289145Y-53218315D01*
X123304474Y-53215888D01*
X123496125Y-53200805D01*
X123503892Y-53200500D01*
X123539882Y-53200500D01*
X159085815Y-53200500D01*
X159144006Y-53219407D01*
G37*
%TD.AperFunction*%
%TD*%
M02*
