%TF.GenerationSoftware,KiCad,Pcbnew,9.0.5*%
%TF.CreationDate,2025-11-23T20:07:00-05:00*%
%TF.ProjectId,lightwear,6c696768-7477-4656-9172-2e6b69636164,rev?*%
%TF.SameCoordinates,Original*%
%TF.FileFunction,Paste,Top*%
%TF.FilePolarity,Positive*%
%FSLAX46Y46*%
G04 Gerber Fmt 4.6, Leading zero omitted, Abs format (unit mm)*
G04 Created by KiCad (PCBNEW 9.0.5) date 2025-11-23 20:07:00*
%MOMM*%
%LPD*%
G01*
G04 APERTURE LIST*
G04 Aperture macros list*
%AMRoundRect*
0 Rectangle with rounded corners*
0 $1 Rounding radius*
0 $2 $3 $4 $5 $6 $7 $8 $9 X,Y pos of 4 corners*
0 Add a 4 corners polygon primitive as box body*
4,1,4,$2,$3,$4,$5,$6,$7,$8,$9,$2,$3,0*
0 Add four circle primitives for the rounded corners*
1,1,$1+$1,$2,$3*
1,1,$1+$1,$4,$5*
1,1,$1+$1,$6,$7*
1,1,$1+$1,$8,$9*
0 Add four rect primitives between the rounded corners*
20,1,$1+$1,$2,$3,$4,$5,0*
20,1,$1+$1,$4,$5,$6,$7,0*
20,1,$1+$1,$6,$7,$8,$9,0*
20,1,$1+$1,$8,$9,$2,$3,0*%
%AMFreePoly0*
4,1,14,0.334644,0.085355,0.385355,0.034644,0.400000,-0.000711,0.400000,-0.050000,0.385355,-0.085355,0.350000,-0.100000,-0.350000,-0.100000,-0.385355,-0.085355,-0.400000,-0.050000,-0.400000,0.050000,-0.385355,0.085355,-0.350000,0.100000,0.299289,0.100000,0.334644,0.085355,0.334644,0.085355,$1*%
%AMFreePoly1*
4,1,14,0.385355,0.085355,0.400000,0.050000,0.400000,0.000711,0.385355,-0.034644,0.334644,-0.085355,0.299289,-0.100000,-0.350000,-0.100000,-0.385355,-0.085355,-0.400000,-0.050000,-0.400000,0.050000,-0.385355,0.085355,-0.350000,0.100000,0.350000,0.100000,0.385355,0.085355,0.385355,0.085355,$1*%
%AMFreePoly2*
4,1,14,0.085355,0.385355,0.100000,0.350000,0.100000,-0.350000,0.085355,-0.385355,0.050000,-0.400000,-0.050000,-0.400000,-0.085355,-0.385355,-0.100000,-0.350000,-0.100000,0.299289,-0.085355,0.334644,-0.034644,0.385355,0.000711,0.400000,0.050000,0.400000,0.085355,0.385355,0.085355,0.385355,$1*%
%AMFreePoly3*
4,1,14,0.034644,0.385355,0.085355,0.334644,0.100000,0.299289,0.100000,-0.350000,0.085355,-0.385355,0.050000,-0.400000,-0.050000,-0.400000,-0.085355,-0.385355,-0.100000,-0.350000,-0.100000,0.350000,-0.085355,0.385355,-0.050000,0.400000,-0.000711,0.400000,0.034644,0.385355,0.034644,0.385355,$1*%
%AMFreePoly4*
4,1,14,0.385355,0.085355,0.400000,0.050000,0.400000,-0.050000,0.385355,-0.085355,0.350000,-0.100000,-0.299289,-0.100000,-0.334644,-0.085355,-0.385355,-0.034644,-0.400000,0.000711,-0.400000,0.050000,-0.385355,0.085355,-0.350000,0.100000,0.350000,0.100000,0.385355,0.085355,0.385355,0.085355,$1*%
%AMFreePoly5*
4,1,14,0.385355,0.085355,0.400000,0.050000,0.400000,-0.050000,0.385355,-0.085355,0.350000,-0.100000,-0.350000,-0.100000,-0.385355,-0.085355,-0.400000,-0.050000,-0.400000,-0.000711,-0.385355,0.034644,-0.334644,0.085355,-0.299289,0.100000,0.350000,0.100000,0.385355,0.085355,0.385355,0.085355,$1*%
%AMFreePoly6*
4,1,14,0.085355,0.385355,0.100000,0.350000,0.100000,-0.299289,0.085355,-0.334644,0.034644,-0.385355,-0.000711,-0.400000,-0.050000,-0.400000,-0.085355,-0.385355,-0.100000,-0.350000,-0.100000,0.350000,-0.085355,0.385355,-0.050000,0.400000,0.050000,0.400000,0.085355,0.385355,0.085355,0.385355,$1*%
%AMFreePoly7*
4,1,14,0.085355,0.385355,0.100000,0.350000,0.100000,-0.350000,0.085355,-0.385355,0.050000,-0.400000,0.000711,-0.400000,-0.034644,-0.385355,-0.085355,-0.334644,-0.100000,-0.299289,-0.100000,0.350000,-0.085355,0.385355,-0.050000,0.400000,0.050000,0.400000,0.085355,0.385355,0.085355,0.385355,$1*%
G04 Aperture macros list end*
%ADD10RoundRect,0.225000X-0.225000X-0.250000X0.225000X-0.250000X0.225000X0.250000X-0.225000X0.250000X0*%
%ADD11RoundRect,0.135000X-0.185000X0.135000X-0.185000X-0.135000X0.185000X-0.135000X0.185000X0.135000X0*%
%ADD12RoundRect,0.135000X-0.135000X-0.185000X0.135000X-0.185000X0.135000X0.185000X-0.135000X0.185000X0*%
%ADD13RoundRect,0.135000X0.185000X-0.135000X0.185000X0.135000X-0.185000X0.135000X-0.185000X-0.135000X0*%
%ADD14RoundRect,0.140000X-0.140000X-0.170000X0.140000X-0.170000X0.140000X0.170000X-0.140000X0.170000X0*%
%ADD15RoundRect,0.172500X0.172500X0.172500X-0.172500X0.172500X-0.172500X-0.172500X0.172500X-0.172500X0*%
%ADD16FreePoly0,180.000000*%
%ADD17RoundRect,0.050000X0.350000X0.050000X-0.350000X0.050000X-0.350000X-0.050000X0.350000X-0.050000X0*%
%ADD18FreePoly1,180.000000*%
%ADD19FreePoly2,180.000000*%
%ADD20RoundRect,0.050000X0.050000X0.350000X-0.050000X0.350000X-0.050000X-0.350000X0.050000X-0.350000X0*%
%ADD21FreePoly3,180.000000*%
%ADD22FreePoly4,180.000000*%
%ADD23FreePoly5,180.000000*%
%ADD24FreePoly6,180.000000*%
%ADD25FreePoly7,180.000000*%
%ADD26RoundRect,0.225000X-0.225000X-0.375000X0.225000X-0.375000X0.225000X0.375000X-0.225000X0.375000X0*%
%ADD27RoundRect,0.140000X0.170000X-0.140000X0.170000X0.140000X-0.170000X0.140000X-0.170000X-0.140000X0*%
%ADD28RoundRect,0.150000X-0.512500X-0.150000X0.512500X-0.150000X0.512500X0.150000X-0.512500X0.150000X0*%
%ADD29RoundRect,0.135000X0.135000X0.185000X-0.135000X0.185000X-0.135000X-0.185000X0.135000X-0.185000X0*%
%ADD30RoundRect,0.140000X0.140000X0.170000X-0.140000X0.170000X-0.140000X-0.170000X0.140000X-0.170000X0*%
%ADD31R,0.812800X0.254000*%
%ADD32R,1.752600X2.489200*%
%ADD33RoundRect,0.250000X-0.625000X0.312500X-0.625000X-0.312500X0.625000X-0.312500X0.625000X0.312500X0*%
%ADD34R,0.990600X0.711200*%
G04 APERTURE END LIST*
D10*
%TO.C,C2*%
X164800000Y-61400000D03*
X166350000Y-61400000D03*
%TD*%
D11*
%TO.C,R8*%
X159100000Y-54690000D03*
X159100000Y-55710000D03*
%TD*%
D12*
%TO.C,R9*%
X154450000Y-61650000D03*
X155470000Y-61650000D03*
%TD*%
D13*
%TO.C,R10*%
X161300000Y-55700000D03*
X161300000Y-54680000D03*
%TD*%
D14*
%TO.C,C1*%
X168320000Y-54900000D03*
X169280000Y-54900000D03*
%TD*%
D15*
%TO.C,U3*%
X153717500Y-65925000D03*
X153717500Y-65075000D03*
X152867500Y-65925000D03*
X152867500Y-65075000D03*
D16*
X154742500Y-66300000D03*
D17*
X154742500Y-65900000D03*
X154742500Y-65500000D03*
X154742500Y-65100000D03*
D18*
X154742500Y-64700000D03*
D19*
X154092500Y-64050000D03*
D20*
X153692500Y-64050000D03*
X153292500Y-64050000D03*
X152892500Y-64050000D03*
D21*
X152492500Y-64050000D03*
D22*
X151842500Y-64700000D03*
D17*
X151842500Y-65100000D03*
X151842500Y-65500000D03*
X151842500Y-65900000D03*
D23*
X151842500Y-66300000D03*
D24*
X152492500Y-66950000D03*
D20*
X152892500Y-66950000D03*
X153292500Y-66950000D03*
X153692500Y-66950000D03*
D25*
X154092500Y-66950000D03*
%TD*%
D12*
%TO.C,R7*%
X158290000Y-61800000D03*
X159310000Y-61800000D03*
%TD*%
D26*
%TO.C,D1*%
X163925000Y-59500000D03*
X167225000Y-59500000D03*
%TD*%
D13*
%TO.C,R4*%
X173702697Y-64953255D03*
X173702697Y-63933255D03*
%TD*%
D27*
%TO.C,C8*%
X160200000Y-55680000D03*
X160200000Y-54720000D03*
%TD*%
D28*
%TO.C,U2*%
X154727500Y-54610000D03*
X154727500Y-55560000D03*
X154727500Y-56510000D03*
X157002500Y-56510000D03*
X157002500Y-54610000D03*
%TD*%
D29*
%TO.C,R1*%
X149420000Y-63700000D03*
X148400000Y-63700000D03*
%TD*%
D30*
%TO.C,C4*%
X159280000Y-64000000D03*
X158320000Y-64000000D03*
%TD*%
D11*
%TO.C,R3*%
X173702697Y-61913255D03*
X173702697Y-62933255D03*
%TD*%
D28*
%TO.C,Q1*%
X157000000Y-58200000D03*
X157000000Y-60100000D03*
X159275000Y-59150000D03*
%TD*%
D31*
%TO.C,U1*%
X164052200Y-55399999D03*
X164052200Y-55900001D03*
X164052200Y-56400000D03*
X164052200Y-56899999D03*
X164052200Y-57400001D03*
X166947800Y-57400001D03*
X166947800Y-56899999D03*
X166947800Y-56400000D03*
X166947800Y-55900001D03*
X166947800Y-55399999D03*
D32*
X165500000Y-56400000D03*
%TD*%
D14*
%TO.C,C7*%
X170250000Y-54900000D03*
X171210000Y-54900000D03*
%TD*%
%TO.C,C6*%
X148420000Y-64800000D03*
X149380000Y-64800000D03*
%TD*%
D33*
%TO.C,R6*%
X165500000Y-63137500D03*
X165500000Y-66062500D03*
%TD*%
D34*
%TO.C,SW1*%
X142500000Y-63849998D03*
X137999998Y-63849998D03*
X142500000Y-61700000D03*
X137999998Y-61700000D03*
%TD*%
D11*
%TO.C,R12*%
X162400000Y-54680000D03*
X162400000Y-55700000D03*
%TD*%
D30*
%TO.C,C5*%
X159300000Y-65100000D03*
X158340000Y-65100000D03*
%TD*%
D12*
%TO.C,R11*%
X158280000Y-62900000D03*
X159300000Y-62900000D03*
%TD*%
M02*
