%TF.GenerationSoftware,KiCad,Pcbnew,9.0.5*%
%TF.CreationDate,2025-11-23T20:07:00-05:00*%
%TF.ProjectId,lightwear,6c696768-7477-4656-9172-2e6b69636164,rev?*%
%TF.SameCoordinates,Original*%
%TF.FileFunction,Legend,Bot*%
%TF.FilePolarity,Positive*%
%FSLAX46Y46*%
G04 Gerber Fmt 4.6, Leading zero omitted, Abs format (unit mm)*
G04 Created by KiCad (PCBNEW 9.0.5) date 2025-11-23 20:07:00*
%MOMM*%
%LPD*%
G01*
G04 APERTURE LIST*
%ADD10C,0.200000*%
%ADD11C,0.100000*%
%ADD12C,0.120000*%
G04 APERTURE END LIST*
D10*
X152280326Y-56136266D02*
X151518422Y-56136266D01*
D11*
G36*
X162324992Y-61248403D02*
G01*
X162190952Y-60810139D01*
X162190866Y-60810139D01*
X162029556Y-60283796D01*
X162029898Y-60283796D01*
X161968434Y-60082754D01*
X161928000Y-59950710D01*
X161927316Y-59948573D01*
X161896884Y-59849502D01*
X161896456Y-59849502D01*
X161734975Y-59321937D01*
X162687620Y-59321937D01*
X162634961Y-59563737D01*
X163231646Y-61514169D01*
X163329410Y-61617320D01*
X163376971Y-61654456D01*
X163403044Y-61670332D01*
X163310463Y-61771693D01*
X160587681Y-61771693D01*
X160457250Y-61752538D01*
X160330159Y-61695407D01*
X160209520Y-61601407D01*
X160152652Y-61541189D01*
X160098720Y-61472724D01*
X160048129Y-61396497D01*
X160001067Y-61312692D01*
X159969795Y-61248403D01*
X162324992Y-61248403D01*
G37*
G36*
X159376102Y-59321632D02*
G01*
X159323614Y-59563127D01*
X159920214Y-61513559D01*
X160019735Y-61617548D01*
X160065538Y-61654151D01*
X160091697Y-61670027D01*
X159999117Y-61771540D01*
X159173759Y-61771540D01*
X158878066Y-60807697D01*
X158422602Y-59321632D01*
X159376102Y-59321632D01*
G37*
G36*
X157312323Y-60807849D02*
G01*
X156289666Y-60807849D01*
X156422937Y-61237870D01*
X156425844Y-61247029D01*
X156437641Y-61285039D01*
X157972524Y-61285039D01*
X157960898Y-61247029D01*
X157960983Y-61247029D01*
X157920549Y-61114680D01*
X157531934Y-59842480D01*
X156060053Y-59842480D01*
X156060053Y-59842174D01*
X155934049Y-59842174D01*
X155845082Y-59870630D01*
X155803015Y-59898822D01*
X155763263Y-59935972D01*
X155726779Y-59981163D01*
X155693488Y-60034577D01*
X155676653Y-60067488D01*
X155671353Y-60078327D01*
X155004057Y-59321632D01*
X155747520Y-59321937D01*
X156192983Y-59321937D01*
X156192983Y-59321632D01*
X156345060Y-59321632D01*
X156344804Y-59321937D01*
X158325919Y-59321937D01*
X158273346Y-59564195D01*
X158781981Y-61232527D01*
X158801544Y-61345352D01*
X158800248Y-61462099D01*
X158778066Y-61574756D01*
X158759453Y-61625930D01*
X158736429Y-61671246D01*
X158709773Y-61709068D01*
X158679578Y-61738927D01*
X158647612Y-61759055D01*
X158613061Y-61769819D01*
X158593401Y-61771388D01*
X158376013Y-61771693D01*
X158121182Y-61771998D01*
X158121182Y-61771693D01*
X156587154Y-61771693D01*
X156727606Y-62228274D01*
X155816592Y-61950448D01*
X155307700Y-60286696D01*
X157007313Y-60286696D01*
X157312323Y-60807849D01*
G37*
G36*
X152546791Y-59321632D02*
G01*
X152494218Y-59563127D01*
X152715197Y-60285475D01*
X154252388Y-60285475D01*
X153956866Y-59321479D01*
X154910366Y-59321479D01*
X154857878Y-59562974D01*
X155454478Y-61513406D01*
X155554115Y-61617384D01*
X155599802Y-61653998D01*
X155625961Y-61669721D01*
X155533380Y-61771235D01*
X154708023Y-61771235D01*
X154412501Y-60807392D01*
X152874883Y-60807392D01*
X153090818Y-61513559D01*
X153190653Y-61617825D01*
X153236142Y-61654151D01*
X153262301Y-61670027D01*
X153169720Y-61771388D01*
X152344277Y-61771388D01*
X151593206Y-59321632D01*
X152546791Y-59321632D01*
G37*
G36*
X148221763Y-59321632D02*
G01*
X151520715Y-59321632D01*
X151407874Y-59842174D01*
X150303323Y-59842174D01*
X150814694Y-61513711D01*
X150817002Y-61521191D01*
X150919763Y-61622045D01*
X150959933Y-61653998D01*
X150986092Y-61669721D01*
X150893511Y-61771388D01*
X150893426Y-61771082D01*
X150893511Y-61771388D01*
X150068154Y-61771388D01*
X149551226Y-60082448D01*
X149536095Y-60032836D01*
X149510791Y-59950252D01*
X149510022Y-59948267D01*
X149479675Y-59849044D01*
X149477538Y-59842174D01*
X148369225Y-59842174D01*
X148211419Y-59321479D01*
X148221763Y-59321632D01*
G37*
G36*
X145821772Y-59321784D02*
G01*
X145769199Y-59563127D01*
X146099171Y-60639169D01*
X146399052Y-59536565D01*
X146640718Y-59536565D01*
X147664145Y-60737324D01*
X147309895Y-59579308D01*
X147231078Y-59321784D01*
X148183038Y-59321784D01*
X148130465Y-59563127D01*
X148729801Y-61517833D01*
X148825558Y-61617229D01*
X148873757Y-61653998D01*
X148899916Y-61669874D01*
X148807335Y-61771082D01*
X148807335Y-61771388D01*
X147781515Y-61771388D01*
X146735607Y-60621004D01*
X146446240Y-61771388D01*
X145619172Y-61771388D01*
X144948628Y-59579155D01*
X144869811Y-59321479D01*
X145821772Y-59321479D01*
X145821772Y-59321784D01*
G37*
G36*
X144243035Y-60807392D02*
G01*
X142969565Y-60807392D01*
X142661050Y-60285475D01*
X142736914Y-60285687D01*
X143494870Y-60285475D01*
X143661846Y-60285547D01*
X143871859Y-60285475D01*
X144015047Y-60285557D01*
X144083093Y-60285475D01*
X144026501Y-60101072D01*
X143947086Y-59841869D01*
X142372623Y-59841869D01*
X142282883Y-59861068D01*
X142239960Y-59884828D01*
X142199119Y-59917683D01*
X142161148Y-59958975D01*
X142126144Y-60008697D01*
X142094284Y-60067183D01*
X142088984Y-60078174D01*
X141421945Y-59320105D01*
X142612323Y-59321326D01*
X143421610Y-59321326D01*
X143421610Y-59321937D01*
X143432907Y-59321909D01*
X143783297Y-59321326D01*
X144742951Y-59321326D01*
X144690122Y-59563737D01*
X145023940Y-60659625D01*
X145285183Y-61513559D01*
X145285354Y-61513864D01*
X145382980Y-61616957D01*
X145430593Y-61654151D01*
X145456665Y-61669874D01*
X145364171Y-61771388D01*
X142297909Y-61771388D01*
X141989480Y-61248097D01*
X144378358Y-61248097D01*
X144243035Y-60807392D01*
G37*
G36*
X141318422Y-59563127D02*
G01*
X141915108Y-61513864D01*
X142012870Y-61617013D01*
X142060432Y-61654151D01*
X142086505Y-61669874D01*
X141993925Y-61771388D01*
X141168225Y-61771388D01*
X140874157Y-60809834D01*
X139334999Y-60809834D01*
X139472117Y-61259088D01*
X139548712Y-61509590D01*
X139647548Y-61614740D01*
X139697067Y-61653951D01*
X139697370Y-61654151D01*
X139723529Y-61669874D01*
X139628811Y-61771388D01*
X138803112Y-61771388D01*
X138654111Y-61284276D01*
X138579398Y-61039880D01*
X138291484Y-60098477D01*
X138219448Y-59863088D01*
X139053754Y-59863088D01*
X139053925Y-59891481D01*
X139174886Y-60286696D01*
X140713189Y-60283643D01*
X140580088Y-59849044D01*
X139066491Y-59849044D01*
X139053754Y-59863088D01*
X138219448Y-59863088D01*
X138125643Y-59556563D01*
X138114147Y-59482319D01*
X138116260Y-59442808D01*
X138123804Y-59404794D01*
X138125216Y-59399942D01*
X138137942Y-59367901D01*
X138154077Y-59343583D01*
X138172881Y-59327825D01*
X138193644Y-59321428D01*
X138196681Y-59321326D01*
X141371081Y-59321326D01*
X141318422Y-59563127D01*
G37*
G36*
X134683932Y-59400095D02*
G01*
X134696622Y-59368059D01*
X134712698Y-59343775D01*
X134731458Y-59328013D01*
X134752156Y-59321589D01*
X134755312Y-59321479D01*
X137929797Y-59321479D01*
X137877138Y-59563280D01*
X138473824Y-61513711D01*
X138571735Y-61617053D01*
X138619063Y-61653998D01*
X138645221Y-61669874D01*
X138552641Y-61771388D01*
X137726685Y-61771388D01*
X137566742Y-61247945D01*
X137566828Y-61247945D01*
X137432873Y-60809834D01*
X137271734Y-60283338D01*
X137210355Y-60082448D01*
X137169921Y-59950252D01*
X137169237Y-59948267D01*
X137136753Y-59842174D01*
X135623326Y-59842174D01*
X135610675Y-59856218D01*
X135610760Y-59884459D01*
X135662222Y-60052528D01*
X135733602Y-60286391D01*
X136981426Y-60283949D01*
X137262330Y-60809834D01*
X136522628Y-60809834D01*
X135890125Y-61771082D01*
X135064767Y-61771082D01*
X135581097Y-60985536D01*
X134944063Y-60405459D01*
X134684274Y-59556715D01*
X134672901Y-59481095D01*
X134675182Y-59441485D01*
X134682949Y-59403430D01*
X134683932Y-59400095D01*
G37*
G36*
X146437592Y-64320208D02*
G01*
X146385110Y-64059814D01*
X145742507Y-63560002D01*
X145624996Y-63455038D01*
X145587697Y-63410126D01*
X145565095Y-63371049D01*
X145551601Y-63330669D01*
X145547235Y-63291182D01*
X145552487Y-63252763D01*
X145567712Y-63220388D01*
X145593488Y-63192538D01*
X145626360Y-63172537D01*
X145669477Y-63159511D01*
X145725746Y-63154711D01*
X145799451Y-63164273D01*
X145871650Y-63193546D01*
X145937733Y-63239285D01*
X145998687Y-63301715D01*
X146275933Y-63118991D01*
X146210097Y-63035370D01*
X146127530Y-62963082D01*
X146026073Y-62901645D01*
X145915666Y-62857288D01*
X145795186Y-62830116D01*
X145662731Y-62820770D01*
X145557322Y-62826983D01*
X145463702Y-62844799D01*
X145380264Y-62873343D01*
X145302438Y-62913920D01*
X145239396Y-62961863D01*
X145189205Y-63017233D01*
X145151373Y-63080974D01*
X145128650Y-63150705D01*
X145120878Y-63228167D01*
X145128763Y-63314857D01*
X145152386Y-63398343D01*
X145192928Y-63478291D01*
X145258448Y-63565314D01*
X145342245Y-63649572D01*
X145465352Y-63751152D01*
X145967180Y-64139590D01*
X146023875Y-63990480D01*
X145225933Y-63990480D01*
X145293161Y-64320208D01*
X146437592Y-64320208D01*
G37*
G36*
X144375559Y-62829163D02*
G01*
X144480049Y-62853764D01*
X144577560Y-62894318D01*
X144668053Y-62949348D01*
X144750468Y-63017272D01*
X144825406Y-63099024D01*
X144889195Y-63190080D01*
X144943114Y-63291904D01*
X144987064Y-63405671D01*
X145018213Y-63523774D01*
X145037262Y-63649096D01*
X145043759Y-63782568D01*
X145035658Y-63901461D01*
X145012792Y-64002725D01*
X144976622Y-64089215D01*
X144925203Y-64167073D01*
X144861853Y-64231066D01*
X144785472Y-64282472D01*
X144700453Y-64318959D01*
X144603888Y-64341669D01*
X144493571Y-64349608D01*
X144380586Y-64341225D01*
X144276096Y-64316654D01*
X144178589Y-64276152D01*
X144088154Y-64221025D01*
X144006114Y-64153067D01*
X143931843Y-64071355D01*
X143868551Y-63980394D01*
X143814624Y-63878596D01*
X143770185Y-63764799D01*
X143738421Y-63646594D01*
X143719009Y-63521246D01*
X143712913Y-63398343D01*
X144130229Y-63398343D01*
X144134973Y-63488311D01*
X144150196Y-63591509D01*
X144175301Y-63694347D01*
X144210097Y-63790994D01*
X144256251Y-63879005D01*
X144310847Y-63947523D01*
X144354508Y-63982360D01*
X144401592Y-64002618D01*
X144453637Y-64009439D01*
X144502982Y-64003130D01*
X144543992Y-63985032D01*
X144578659Y-63954851D01*
X144602774Y-63915303D01*
X144619401Y-63856661D01*
X144625829Y-63772127D01*
X144621106Y-63682157D01*
X144605953Y-63578961D01*
X144580846Y-63476044D01*
X144546053Y-63379384D01*
X144499841Y-63291378D01*
X144445303Y-63222947D01*
X144401640Y-63188115D01*
X144354527Y-63167855D01*
X144302421Y-63161031D01*
X144253137Y-63167337D01*
X144212155Y-63185433D01*
X144177490Y-63215619D01*
X144153332Y-63255121D01*
X144136672Y-63313753D01*
X144130229Y-63398343D01*
X143712913Y-63398343D01*
X143712391Y-63387810D01*
X143720617Y-63268981D01*
X143743846Y-63167754D01*
X143780626Y-63081255D01*
X143832576Y-63003285D01*
X143895928Y-62939300D01*
X143971685Y-62887998D01*
X144056007Y-62851498D01*
X144152208Y-62828740D01*
X144262579Y-62820770D01*
X144375559Y-62829163D01*
G37*
G36*
X143757271Y-64320208D02*
G01*
X143704789Y-64059814D01*
X143062186Y-63560002D01*
X142944675Y-63455038D01*
X142907376Y-63410126D01*
X142884774Y-63371049D01*
X142871280Y-63330669D01*
X142866914Y-63291182D01*
X142872166Y-63252763D01*
X142887391Y-63220388D01*
X142913167Y-63192538D01*
X142946039Y-63172537D01*
X142989156Y-63159511D01*
X143045425Y-63154711D01*
X143119130Y-63164273D01*
X143191329Y-63193546D01*
X143257412Y-63239285D01*
X143318366Y-63301715D01*
X143595612Y-63118991D01*
X143529776Y-63035370D01*
X143447209Y-62963082D01*
X143345752Y-62901645D01*
X143235345Y-62857288D01*
X143114865Y-62830116D01*
X142982410Y-62820770D01*
X142877001Y-62826983D01*
X142783381Y-62844799D01*
X142699943Y-62873343D01*
X142622117Y-62913920D01*
X142559075Y-62961863D01*
X142508884Y-63017233D01*
X142471052Y-63080974D01*
X142448329Y-63150705D01*
X142440557Y-63228167D01*
X142448442Y-63314857D01*
X142472065Y-63398343D01*
X142512607Y-63478291D01*
X142578127Y-63565314D01*
X142661924Y-63649572D01*
X142785031Y-63751152D01*
X143286859Y-64139590D01*
X143343554Y-63990480D01*
X142545612Y-63990480D01*
X142612840Y-64320208D01*
X143757271Y-64320208D01*
G37*
G36*
X141951827Y-64349608D02*
G01*
X142108727Y-64339211D01*
X142255360Y-64308667D01*
X142348827Y-64276266D01*
X142431355Y-64235952D01*
X142504122Y-64187950D01*
X142310956Y-63891836D01*
X142228154Y-63943320D01*
X142131346Y-63982145D01*
X142028525Y-64005805D01*
X141924533Y-64013652D01*
X141839872Y-64007775D01*
X141775907Y-63992040D01*
X141728162Y-63968498D01*
X141689839Y-63934019D01*
X141667585Y-63893093D01*
X141659927Y-63843476D01*
X141665846Y-63804280D01*
X141683003Y-63771988D01*
X141712408Y-63744832D01*
X141749658Y-63727027D01*
X141807942Y-63714194D01*
X141895133Y-63709112D01*
X142317276Y-63709112D01*
X142071537Y-62850171D01*
X141137033Y-62850171D01*
X141202155Y-63171472D01*
X141989655Y-63171472D01*
X141739703Y-62988840D01*
X141905666Y-63568428D01*
X142079963Y-63385704D01*
X141790169Y-63385704D01*
X141651922Y-63393621D01*
X141540356Y-63415357D01*
X141450867Y-63448537D01*
X141379566Y-63491766D01*
X141318971Y-63549876D01*
X141275919Y-63618272D01*
X141249279Y-63698999D01*
X141239890Y-63795208D01*
X141250547Y-63905528D01*
X141281430Y-64003015D01*
X141332305Y-64090314D01*
X141400254Y-64166044D01*
X141483877Y-64229998D01*
X141585372Y-64282472D01*
X141694404Y-64318978D01*
X141815915Y-64341705D01*
X141951827Y-64349608D01*
G37*
G36*
X141098382Y-63874983D02*
G01*
X141037474Y-63568428D01*
X140426378Y-63568428D01*
X140487286Y-63874983D01*
X141098382Y-63874983D01*
G37*
G36*
X140237426Y-64320208D02*
G01*
X139974926Y-63005601D01*
X139830029Y-63171472D01*
X140281481Y-63171472D01*
X140216451Y-62850171D01*
X139527595Y-62850171D01*
X139821602Y-64320208D01*
X140237426Y-64320208D01*
G37*
G36*
X139387461Y-64320208D02*
G01*
X139124961Y-63005601D01*
X138980064Y-63171472D01*
X139431516Y-63171472D01*
X139366486Y-62850171D01*
X138677630Y-62850171D01*
X138971637Y-64320208D01*
X139387461Y-64320208D01*
G37*
G36*
X138632018Y-63874983D02*
G01*
X138571110Y-63568428D01*
X137960014Y-63568428D01*
X138020922Y-63874983D01*
X138632018Y-63874983D01*
G37*
G36*
X137983370Y-64320208D02*
G01*
X137930888Y-64059814D01*
X137288285Y-63560002D01*
X137170774Y-63455038D01*
X137133475Y-63410126D01*
X137110873Y-63371049D01*
X137097379Y-63330669D01*
X137093013Y-63291182D01*
X137098265Y-63252763D01*
X137113490Y-63220388D01*
X137139266Y-63192538D01*
X137172138Y-63172537D01*
X137215255Y-63159511D01*
X137271524Y-63154711D01*
X137345229Y-63164273D01*
X137417428Y-63193546D01*
X137483511Y-63239285D01*
X137544465Y-63301715D01*
X137821711Y-63118991D01*
X137755875Y-63035370D01*
X137673308Y-62963082D01*
X137571851Y-62901645D01*
X137461444Y-62857288D01*
X137340964Y-62830116D01*
X137208509Y-62820770D01*
X137103100Y-62826983D01*
X137009480Y-62844799D01*
X136926042Y-62873343D01*
X136848216Y-62913920D01*
X136785175Y-62961863D01*
X136734983Y-63017233D01*
X136697151Y-63080974D01*
X136674428Y-63150705D01*
X136666656Y-63228167D01*
X136674542Y-63314857D01*
X136698164Y-63398343D01*
X136738706Y-63478291D01*
X136804226Y-63565314D01*
X136888023Y-63649572D01*
X137011130Y-63751152D01*
X137512958Y-64139590D01*
X137569653Y-63990480D01*
X136771711Y-63990480D01*
X136838939Y-64320208D01*
X137983370Y-64320208D01*
G37*
G36*
X136205221Y-64349608D02*
G01*
X136361974Y-64339193D01*
X136507654Y-64308667D01*
X136600504Y-64276387D01*
X136683453Y-64236094D01*
X136757515Y-64187950D01*
X136564349Y-63891836D01*
X136479861Y-63943413D01*
X136382724Y-63982145D01*
X136280169Y-64005842D01*
X136177927Y-64013652D01*
X136095553Y-64008222D01*
X136033029Y-63993685D01*
X135980023Y-63968134D01*
X135943820Y-63934884D01*
X135921143Y-63892690D01*
X135913320Y-63841369D01*
X135918800Y-63803349D01*
X135934387Y-63773226D01*
X135960581Y-63749046D01*
X136015625Y-63726668D01*
X136108592Y-63717538D01*
X136287103Y-63717538D01*
X136234621Y-63455038D01*
X135762103Y-63028682D01*
X135739022Y-63171472D01*
X136495015Y-63171472D01*
X136429894Y-62850171D01*
X135367346Y-62850171D01*
X135417721Y-63110564D01*
X135890239Y-63536921D01*
X136079191Y-63425638D01*
X135986868Y-63425638D01*
X135885423Y-63431354D01*
X135798239Y-63447495D01*
X135723268Y-63472899D01*
X135653950Y-63509826D01*
X135597814Y-63554858D01*
X135553184Y-63608270D01*
X135520387Y-63669511D01*
X135500325Y-63738227D01*
X135493375Y-63816182D01*
X135503641Y-63915345D01*
X135533889Y-64006008D01*
X135584691Y-64090314D01*
X135651670Y-64163520D01*
X135735215Y-64226840D01*
X135837757Y-64280365D01*
X135947550Y-64318073D01*
X136069405Y-64341483D01*
X136205221Y-64349608D01*
G37*
G36*
X163528341Y-65527817D02*
G01*
X163433316Y-65534994D01*
X163352229Y-65555326D01*
X163282694Y-65587717D01*
X163222189Y-65633609D01*
X163174511Y-65691784D01*
X163138804Y-65764121D01*
X163119544Y-65842864D01*
X163116002Y-65938408D01*
X163131385Y-66054923D01*
X163257415Y-66684887D01*
X163656385Y-66684887D01*
X163538782Y-66092659D01*
X163529917Y-66019946D01*
X163535557Y-65965542D01*
X163552521Y-65924681D01*
X163581823Y-65893457D01*
X163625165Y-65873425D01*
X163687893Y-65865879D01*
X163752676Y-65873129D01*
X163808742Y-65894095D01*
X163858069Y-65928894D01*
X163897451Y-65975136D01*
X163929947Y-66038128D01*
X163954606Y-66122059D01*
X164067996Y-66684887D01*
X164467058Y-66684887D01*
X164240187Y-65546684D01*
X163862191Y-65546684D01*
X163927312Y-65865879D01*
X163977687Y-65773464D01*
X163917305Y-65694165D01*
X163849969Y-65632543D01*
X163775087Y-65586618D01*
X163692965Y-65553627D01*
X163611009Y-65534237D01*
X163528341Y-65527817D01*
G37*
G36*
X162357532Y-66703754D02*
G01*
X162477944Y-66696133D01*
X162583235Y-66674400D01*
X162675628Y-66639732D01*
X162760467Y-66590387D01*
X162830282Y-66530402D01*
X162886746Y-66459206D01*
X162928121Y-66378478D01*
X162953505Y-66287847D01*
X162962308Y-66185074D01*
X162952379Y-66061460D01*
X162923516Y-65949855D01*
X162876213Y-65848111D01*
X162811358Y-65756553D01*
X162731364Y-65678813D01*
X162634687Y-65613912D01*
X162527997Y-65566929D01*
X162408429Y-65537902D01*
X162273452Y-65527817D01*
X162158627Y-65535377D01*
X162059707Y-65556811D01*
X161974224Y-65590831D01*
X161896314Y-65638968D01*
X161832418Y-65697184D01*
X161781058Y-65766137D01*
X161743703Y-65843631D01*
X161720767Y-65930148D01*
X161712823Y-66027629D01*
X161719143Y-66124258D01*
X161735904Y-66214475D01*
X162649433Y-66214475D01*
X162611606Y-66004456D01*
X161920735Y-66004456D01*
X162086606Y-66065365D01*
X162079617Y-65987076D01*
X162091827Y-65927886D01*
X162121259Y-65878508D01*
X162165374Y-65841791D01*
X162220923Y-65819381D01*
X162292411Y-65811291D01*
X162355140Y-65817092D01*
X162407286Y-65833451D01*
X162450955Y-65859651D01*
X162504330Y-65915627D01*
X162543371Y-65990901D01*
X162566008Y-66076236D01*
X162573779Y-66170419D01*
X162565606Y-66246023D01*
X162543439Y-66302189D01*
X162508749Y-66343710D01*
X162462057Y-66372863D01*
X162398635Y-66392116D01*
X162313386Y-66399306D01*
X162238697Y-66393276D01*
X162165374Y-66375126D01*
X162096717Y-66345626D01*
X162038246Y-66306890D01*
X161872375Y-66556751D01*
X161946226Y-66605128D01*
X162023412Y-66642807D01*
X162104466Y-66670232D01*
X162230341Y-66695393D01*
X162357532Y-66703754D01*
G37*
G36*
X161024333Y-66703754D02*
G01*
X161144756Y-66696002D01*
X161249712Y-66673922D01*
X161341513Y-66638725D01*
X161425616Y-66588756D01*
X161494705Y-66528404D01*
X161550432Y-66457100D01*
X161591308Y-66376464D01*
X161616330Y-66286493D01*
X161624987Y-66185074D01*
X161614610Y-66061676D01*
X161584388Y-65950098D01*
X161534678Y-65848111D01*
X161467136Y-65756667D01*
X161384381Y-65678896D01*
X161284818Y-65613912D01*
X161175433Y-65566798D01*
X161054379Y-65537831D01*
X160919370Y-65527817D01*
X160792768Y-65537472D01*
X160682003Y-65565126D01*
X160584421Y-65609699D01*
X160497909Y-65671951D01*
X160430252Y-65747066D01*
X160379623Y-65836478D01*
X160719884Y-65998228D01*
X160744996Y-65947999D01*
X160774762Y-65910193D01*
X160809185Y-65882732D01*
X160870182Y-65856118D01*
X160940344Y-65847011D01*
X161016629Y-65857368D01*
X161084233Y-65887953D01*
X161141020Y-65935816D01*
X161183976Y-65998228D01*
X161210327Y-66071803D01*
X161219697Y-66161993D01*
X161212953Y-66225598D01*
X161193888Y-66278006D01*
X161163002Y-66321636D01*
X161121407Y-66354290D01*
X161067354Y-66374940D01*
X160997039Y-66382453D01*
X160922526Y-66373602D01*
X160857454Y-66347831D01*
X160801635Y-66303718D01*
X160751391Y-66233343D01*
X160459491Y-66409747D01*
X160521199Y-66495144D01*
X160597343Y-66566939D01*
X160689476Y-66626085D01*
X160790727Y-66668673D01*
X160901710Y-66694767D01*
X161024333Y-66703754D01*
G37*
G36*
X160013351Y-66491721D02*
G01*
X159925148Y-65996122D01*
X159393829Y-65546684D01*
X158889803Y-65546684D01*
X159524071Y-66094765D01*
X159750851Y-66260728D01*
X160013351Y-66491721D01*
G37*
G36*
X160401880Y-66684887D02*
G01*
X160091020Y-65126648D01*
X159692049Y-65126648D01*
X160002818Y-66684887D01*
X160401880Y-66684887D01*
G37*
G36*
X159557594Y-66684887D02*
G01*
X159820094Y-66248089D01*
X159538726Y-65943548D01*
X159091395Y-66684887D01*
X159557594Y-66684887D01*
G37*
G36*
X159002368Y-66684887D02*
G01*
X158691508Y-65126648D01*
X158292538Y-65126648D01*
X158603306Y-66684887D01*
X159002368Y-66684887D01*
G37*
G36*
X157773574Y-65533366D02*
G01*
X157852788Y-65549818D01*
X157929013Y-65577184D01*
X158000950Y-65614420D01*
X158066565Y-65660123D01*
X158126391Y-65714662D01*
X158178636Y-65776491D01*
X158223040Y-65845553D01*
X158259748Y-65922574D01*
X158286237Y-66003658D01*
X158302460Y-66090838D01*
X158308017Y-66185074D01*
X158299842Y-66293876D01*
X158276681Y-66386793D01*
X158239781Y-66466533D01*
X158188804Y-66538233D01*
X158129157Y-66596617D01*
X158060171Y-66642938D01*
X157984136Y-66676963D01*
X157906771Y-66697055D01*
X157827072Y-66703754D01*
X157727281Y-66694866D01*
X157639150Y-66669189D01*
X157560450Y-66627184D01*
X157497701Y-66575730D01*
X157520517Y-66684887D01*
X157142520Y-66684887D01*
X157019085Y-66065365D01*
X157417568Y-66065365D01*
X157426629Y-66155921D01*
X157452281Y-66231328D01*
X157493979Y-66295410D01*
X157547811Y-66342611D01*
X157612631Y-66372263D01*
X157688495Y-66382453D01*
X157754689Y-66375298D01*
X157806839Y-66355418D01*
X157848138Y-66323651D01*
X157878950Y-66281317D01*
X157898044Y-66229704D01*
X157904833Y-66166206D01*
X157895793Y-66075657D01*
X157870211Y-66000335D01*
X157828292Y-65936049D01*
X157773583Y-65887953D01*
X157708045Y-65857360D01*
X157633906Y-65847011D01*
X157567800Y-65854279D01*
X157515648Y-65874503D01*
X157474263Y-65906912D01*
X157443413Y-65949864D01*
X157424334Y-66001845D01*
X157417568Y-66065365D01*
X157019085Y-66065365D01*
X156915741Y-65546684D01*
X157314711Y-65546684D01*
X157342567Y-65683209D01*
X157344162Y-65680108D01*
X157392581Y-65623533D01*
X157452281Y-65581397D01*
X157520718Y-65552390D01*
X157599500Y-65534209D01*
X157690601Y-65527817D01*
X157773574Y-65533366D01*
G37*
G36*
X156251339Y-66703754D02*
G01*
X156371763Y-66696002D01*
X156476718Y-66673922D01*
X156568519Y-66638725D01*
X156652622Y-66588756D01*
X156721711Y-66528404D01*
X156777438Y-66457100D01*
X156818314Y-66376464D01*
X156843336Y-66286493D01*
X156851993Y-66185074D01*
X156841616Y-66061676D01*
X156811394Y-65950098D01*
X156761685Y-65848111D01*
X156694143Y-65756667D01*
X156611387Y-65678896D01*
X156511824Y-65613912D01*
X156402439Y-65566798D01*
X156281385Y-65537831D01*
X156146376Y-65527817D01*
X156019774Y-65537472D01*
X155909009Y-65565126D01*
X155811427Y-65609699D01*
X155724916Y-65671951D01*
X155657259Y-65747066D01*
X155606630Y-65836478D01*
X155946890Y-65998228D01*
X155972002Y-65947999D01*
X156001768Y-65910193D01*
X156036192Y-65882732D01*
X156097188Y-65856118D01*
X156167350Y-65847011D01*
X156243635Y-65857368D01*
X156311240Y-65887953D01*
X156368027Y-65935816D01*
X156410982Y-65998228D01*
X156437333Y-66071803D01*
X156446703Y-66161993D01*
X156439959Y-66225598D01*
X156420894Y-66278006D01*
X156390008Y-66321636D01*
X156348413Y-66354290D01*
X156294360Y-66374940D01*
X156224045Y-66382453D01*
X156149532Y-66373602D01*
X156084460Y-66347831D01*
X156028642Y-66303718D01*
X155978398Y-66233343D01*
X155686497Y-66409747D01*
X155748205Y-66495144D01*
X155824349Y-66566939D01*
X155916482Y-66626085D01*
X156017733Y-66668673D01*
X156128717Y-66694767D01*
X156251339Y-66703754D01*
G37*
G36*
X154993611Y-66703754D02*
G01*
X155114022Y-66696133D01*
X155219313Y-66674400D01*
X155311706Y-66639732D01*
X155396546Y-66590387D01*
X155466361Y-66530402D01*
X155522824Y-66459206D01*
X155564200Y-66378478D01*
X155589583Y-66287847D01*
X155598386Y-66185074D01*
X155588457Y-66061460D01*
X155559595Y-65949855D01*
X155512291Y-65848111D01*
X155447436Y-65756553D01*
X155367442Y-65678813D01*
X155270765Y-65613912D01*
X155164076Y-65566929D01*
X155044507Y-65537902D01*
X154909530Y-65527817D01*
X154794705Y-65535377D01*
X154695785Y-65556811D01*
X154610302Y-65590831D01*
X154532392Y-65638968D01*
X154468497Y-65697184D01*
X154417136Y-65766137D01*
X154379781Y-65843631D01*
X154356846Y-65930148D01*
X154348901Y-66027629D01*
X154355221Y-66124258D01*
X154371982Y-66214475D01*
X155285511Y-66214475D01*
X155247684Y-66004456D01*
X154556813Y-66004456D01*
X154722684Y-66065365D01*
X154715695Y-65987076D01*
X154727905Y-65927886D01*
X154757338Y-65878508D01*
X154801453Y-65841791D01*
X154857001Y-65819381D01*
X154928489Y-65811291D01*
X154991219Y-65817092D01*
X155043364Y-65833451D01*
X155087034Y-65859651D01*
X155140408Y-65915627D01*
X155179449Y-65990901D01*
X155202086Y-66076236D01*
X155209857Y-66170419D01*
X155201684Y-66246023D01*
X155179517Y-66302189D01*
X155144827Y-66343710D01*
X155098135Y-66372863D01*
X155034713Y-66392116D01*
X154949464Y-66399306D01*
X154874775Y-66393276D01*
X154801453Y-66375126D01*
X154732795Y-66345626D01*
X154674324Y-66306890D01*
X154508453Y-66556751D01*
X154582304Y-66605128D01*
X154659491Y-66642807D01*
X154740544Y-66670232D01*
X154866419Y-66695393D01*
X154993611Y-66703754D01*
G37*
G36*
X141375398Y-66680937D02*
G01*
X141148527Y-65542734D01*
X140770531Y-65542734D01*
X140835652Y-65866142D01*
X140873479Y-65773727D01*
X140816059Y-65689667D01*
X140749818Y-65626163D01*
X140673994Y-65580561D01*
X140589582Y-65549860D01*
X140493602Y-65530612D01*
X140384108Y-65523867D01*
X140453442Y-65882904D01*
X140499696Y-65877774D01*
X140543751Y-65876675D01*
X140628602Y-65884159D01*
X140698715Y-65905171D01*
X140756975Y-65938591D01*
X140803715Y-65985670D01*
X140840779Y-66052122D01*
X140867159Y-66143297D01*
X140976336Y-66680937D01*
X141375398Y-66680937D01*
G37*
G36*
X139818350Y-66699804D02*
G01*
X139938761Y-66692183D01*
X140044052Y-66670450D01*
X140136446Y-66635782D01*
X140221285Y-66586437D01*
X140291100Y-66526452D01*
X140347563Y-66455256D01*
X140388939Y-66374528D01*
X140414322Y-66283897D01*
X140423126Y-66181124D01*
X140413196Y-66057510D01*
X140384334Y-65945905D01*
X140337030Y-65844161D01*
X140272175Y-65752603D01*
X140192181Y-65674863D01*
X140095504Y-65609962D01*
X139988815Y-65562979D01*
X139869246Y-65533952D01*
X139734269Y-65523867D01*
X139619444Y-65531427D01*
X139520524Y-65552861D01*
X139435041Y-65586881D01*
X139357131Y-65635018D01*
X139293236Y-65693234D01*
X139241876Y-65762187D01*
X139204521Y-65839681D01*
X139181585Y-65926198D01*
X139173640Y-66023679D01*
X139179960Y-66120308D01*
X139196721Y-66210525D01*
X140110251Y-66210525D01*
X140072423Y-66000506D01*
X139381552Y-66000506D01*
X139547423Y-66061415D01*
X139540434Y-65983126D01*
X139552644Y-65923936D01*
X139582077Y-65874558D01*
X139626192Y-65837841D01*
X139681740Y-65815431D01*
X139753229Y-65807341D01*
X139815958Y-65813142D01*
X139868103Y-65829501D01*
X139911773Y-65855701D01*
X139965148Y-65911677D01*
X140004188Y-65986951D01*
X140026826Y-66072286D01*
X140034596Y-66166469D01*
X140026423Y-66242073D01*
X140004257Y-66298239D01*
X139969567Y-66339760D01*
X139922874Y-66368913D01*
X139859452Y-66388166D01*
X139774203Y-66395356D01*
X139699514Y-66389326D01*
X139626192Y-66371176D01*
X139557534Y-66341676D01*
X139499063Y-66302940D01*
X139333192Y-66552801D01*
X139407043Y-66601178D01*
X139484230Y-66638857D01*
X139565284Y-66666282D01*
X139691158Y-66691443D01*
X139818350Y-66699804D01*
G37*
G36*
X138826327Y-66680937D02*
G01*
X139067853Y-65542734D01*
X138673095Y-65542734D01*
X138484051Y-66496106D01*
X138689856Y-66496106D01*
X138112375Y-65542734D01*
X137717525Y-65542734D01*
X138412702Y-66680937D01*
X138826327Y-66680937D01*
G37*
G36*
X136491445Y-65189892D02*
G01*
X136595935Y-65214493D01*
X136693446Y-65255047D01*
X136783938Y-65310077D01*
X136866353Y-65378001D01*
X136941291Y-65459753D01*
X137005081Y-65550809D01*
X137058999Y-65652633D01*
X137102949Y-65766400D01*
X137134099Y-65884503D01*
X137153147Y-66009825D01*
X137159644Y-66143297D01*
X137151544Y-66262190D01*
X137128677Y-66363454D01*
X137092508Y-66449944D01*
X137041088Y-66527802D01*
X136977738Y-66591795D01*
X136901357Y-66643201D01*
X136816339Y-66679688D01*
X136719774Y-66702398D01*
X136609457Y-66710337D01*
X136496472Y-66701954D01*
X136391981Y-66677383D01*
X136294475Y-66636881D01*
X136204039Y-66581754D01*
X136122000Y-66513796D01*
X136047729Y-66432084D01*
X135984436Y-66341123D01*
X135930509Y-66239325D01*
X135886070Y-66125528D01*
X135854306Y-66007323D01*
X135834895Y-65881975D01*
X135828799Y-65759072D01*
X136246115Y-65759072D01*
X136250859Y-65849040D01*
X136266082Y-65952238D01*
X136291186Y-66055076D01*
X136325982Y-66151723D01*
X136372137Y-66239734D01*
X136426733Y-66308252D01*
X136470394Y-66343089D01*
X136517477Y-66363347D01*
X136569523Y-66370168D01*
X136618868Y-66363859D01*
X136659878Y-66345761D01*
X136694545Y-66315580D01*
X136718660Y-66276032D01*
X136735287Y-66217390D01*
X136741714Y-66132856D01*
X136736992Y-66042886D01*
X136721839Y-65939690D01*
X136696732Y-65836773D01*
X136661938Y-65740113D01*
X136615726Y-65652107D01*
X136561188Y-65583676D01*
X136517525Y-65548844D01*
X136470412Y-65528584D01*
X136418306Y-65521760D01*
X136369022Y-65528066D01*
X136328041Y-65546162D01*
X136293376Y-65576348D01*
X136269217Y-65615850D01*
X136252557Y-65674482D01*
X136246115Y-65759072D01*
X135828799Y-65759072D01*
X135828277Y-65748539D01*
X135836502Y-65629710D01*
X135859732Y-65528483D01*
X135896512Y-65441984D01*
X135948461Y-65364014D01*
X136011814Y-65300029D01*
X136087571Y-65248727D01*
X136171892Y-65212227D01*
X136268094Y-65189469D01*
X136378464Y-65181499D01*
X136491445Y-65189892D01*
G37*
G36*
X163958287Y-64329150D02*
G01*
X163578184Y-64329150D01*
X163546567Y-64168655D01*
X163506576Y-64225644D01*
X163457880Y-64270745D01*
X163399673Y-64304969D01*
X163335335Y-64328408D01*
X163263629Y-64342961D01*
X163183335Y-64348017D01*
X163098974Y-64342433D01*
X163019448Y-64325968D01*
X162943916Y-64298741D01*
X162872687Y-64261427D01*
X162807429Y-64215378D01*
X162747636Y-64160164D01*
X162695296Y-64097652D01*
X162650898Y-64028210D01*
X162614280Y-63951153D01*
X162587739Y-63870065D01*
X162571486Y-63782885D01*
X162567159Y-63709628D01*
X162969103Y-63709628D01*
X162978164Y-63800184D01*
X163003816Y-63875591D01*
X163045515Y-63939673D01*
X163099346Y-63986874D01*
X163164166Y-64016526D01*
X163240030Y-64026716D01*
X163306225Y-64019561D01*
X163358374Y-63999681D01*
X163399673Y-63967914D01*
X163430485Y-63925580D01*
X163449579Y-63873967D01*
X163456368Y-63810469D01*
X163447328Y-63719920D01*
X163421746Y-63644598D01*
X163379828Y-63580312D01*
X163325118Y-63532216D01*
X163259580Y-63501623D01*
X163185442Y-63491274D01*
X163119397Y-63498540D01*
X163067273Y-63518762D01*
X163025890Y-63551175D01*
X162994987Y-63594134D01*
X162975879Y-63646114D01*
X162969103Y-63709628D01*
X162567159Y-63709628D01*
X162565920Y-63688653D01*
X162574125Y-63579860D01*
X162597332Y-63487340D01*
X162634246Y-63408293D01*
X162685059Y-63337168D01*
X162744347Y-63279140D01*
X162812757Y-63232988D01*
X162888113Y-63199018D01*
X162965799Y-63178843D01*
X163046864Y-63172080D01*
X163134755Y-63179147D01*
X163213311Y-63199602D01*
X163284177Y-63232988D01*
X163348681Y-63278075D01*
X163349330Y-63278694D01*
X163248456Y-62770911D01*
X163647427Y-62770911D01*
X163958287Y-64329150D01*
G37*
G36*
X162398583Y-64755414D02*
G01*
X162488266Y-64748644D01*
X162578101Y-64728120D01*
X162661036Y-64695193D01*
X162719884Y-64656771D01*
X162541373Y-64375311D01*
X162503699Y-64401750D01*
X162461597Y-64422572D01*
X162415942Y-64435861D01*
X162364969Y-64440433D01*
X162309506Y-64432825D01*
X162264219Y-64411032D01*
X162225116Y-64375387D01*
X162184351Y-64318617D01*
X162102469Y-64186359D01*
X162068855Y-64146425D01*
X161495586Y-63190947D01*
X161104950Y-63190947D01*
X161833649Y-64379525D01*
X161925021Y-64514163D01*
X162005932Y-64606304D01*
X162064720Y-64656788D01*
X162124076Y-64694872D01*
X162184443Y-64721800D01*
X162282803Y-64746631D01*
X162398583Y-64755414D01*
G37*
G36*
X162188564Y-64377418D02*
G01*
X162455278Y-63190947D01*
X162058413Y-63190947D01*
X161869369Y-64110705D01*
X162188564Y-64377418D01*
G37*
G36*
X160618510Y-64329150D02*
G01*
X160391639Y-63190947D01*
X160013643Y-63190947D01*
X160078764Y-63514355D01*
X160116591Y-63421940D01*
X160059171Y-63337880D01*
X159992930Y-63274376D01*
X159917106Y-63228774D01*
X159832695Y-63198073D01*
X159736714Y-63178825D01*
X159627220Y-63172080D01*
X159696555Y-63531117D01*
X159742808Y-63525987D01*
X159786863Y-63524888D01*
X159871714Y-63532372D01*
X159941827Y-63553384D01*
X160000087Y-63586804D01*
X160046827Y-63633883D01*
X160083892Y-63700335D01*
X160110271Y-63791510D01*
X160219448Y-64329150D01*
X160618510Y-64329150D01*
G37*
G36*
X159061462Y-64348017D02*
G01*
X159181873Y-64340396D01*
X159287164Y-64318663D01*
X159379558Y-64283995D01*
X159464397Y-64234650D01*
X159534212Y-64174665D01*
X159590675Y-64103469D01*
X159632051Y-64022741D01*
X159657435Y-63932110D01*
X159666238Y-63829337D01*
X159656309Y-63705723D01*
X159627446Y-63594118D01*
X159580142Y-63492374D01*
X159515288Y-63400816D01*
X159435293Y-63323076D01*
X159338617Y-63258175D01*
X159231927Y-63211192D01*
X159112358Y-63182165D01*
X158977381Y-63172080D01*
X158862557Y-63179640D01*
X158763636Y-63201074D01*
X158678153Y-63235094D01*
X158600243Y-63283231D01*
X158536348Y-63341447D01*
X158484988Y-63410400D01*
X158447633Y-63487894D01*
X158424697Y-63574411D01*
X158416753Y-63671892D01*
X158423072Y-63768521D01*
X158439834Y-63858738D01*
X159353363Y-63858738D01*
X159315536Y-63648719D01*
X158624664Y-63648719D01*
X158790536Y-63709628D01*
X158783546Y-63631339D01*
X158795756Y-63572149D01*
X158825189Y-63522771D01*
X158869304Y-63486054D01*
X158924852Y-63463644D01*
X158996341Y-63455554D01*
X159059070Y-63461355D01*
X159111215Y-63477714D01*
X159154885Y-63503914D01*
X159208260Y-63559890D01*
X159247300Y-63635164D01*
X159269938Y-63720499D01*
X159277709Y-63814682D01*
X159269535Y-63890286D01*
X159247369Y-63946452D01*
X159212679Y-63987973D01*
X159165987Y-64017126D01*
X159102565Y-64036379D01*
X159017315Y-64043569D01*
X158942627Y-64037539D01*
X158869304Y-64019389D01*
X158800646Y-63989889D01*
X158742176Y-63951153D01*
X158576304Y-64201014D01*
X158650156Y-64249391D01*
X158727342Y-64287070D01*
X158808396Y-64314495D01*
X158934270Y-64339656D01*
X159061462Y-64348017D01*
G37*
G36*
X158254270Y-64755414D02*
G01*
X158343953Y-64748644D01*
X158433788Y-64728120D01*
X158516724Y-64695193D01*
X158575571Y-64656771D01*
X158397060Y-64375311D01*
X158359387Y-64401750D01*
X158317285Y-64422572D01*
X158271629Y-64435861D01*
X158220656Y-64440433D01*
X158165194Y-64432825D01*
X158119906Y-64411032D01*
X158080804Y-64375387D01*
X158040038Y-64318617D01*
X157958156Y-64186359D01*
X157924542Y-64146425D01*
X157351274Y-63190947D01*
X156960638Y-63190947D01*
X157689336Y-64379525D01*
X157780709Y-64514163D01*
X157861619Y-64606304D01*
X157920407Y-64656788D01*
X157979764Y-64694872D01*
X158040130Y-64721800D01*
X158138490Y-64746631D01*
X158254270Y-64755414D01*
G37*
G36*
X158044252Y-64377418D02*
G01*
X158310965Y-63190947D01*
X157914101Y-63190947D01*
X157725057Y-64110705D01*
X158044252Y-64377418D01*
G37*
G36*
X156696764Y-64135984D02*
G01*
X156608562Y-63640385D01*
X156077242Y-63190947D01*
X155573216Y-63190947D01*
X156207484Y-63739028D01*
X156434264Y-63904991D01*
X156696764Y-64135984D01*
G37*
G36*
X157085293Y-64329150D02*
G01*
X156774433Y-62770911D01*
X156375462Y-62770911D01*
X156686231Y-64329150D01*
X157085293Y-64329150D01*
G37*
G36*
X156241007Y-64329150D02*
G01*
X156503507Y-63892352D01*
X156222139Y-63587811D01*
X155774808Y-64329150D01*
X156241007Y-64329150D01*
G37*
G36*
X155163338Y-63177629D02*
G01*
X155242552Y-63194081D01*
X155318776Y-63221447D01*
X155390714Y-63258683D01*
X155456328Y-63304386D01*
X155516155Y-63358925D01*
X155568399Y-63420754D01*
X155612803Y-63489816D01*
X155649512Y-63566837D01*
X155676001Y-63647921D01*
X155692224Y-63735101D01*
X155697780Y-63829337D01*
X155689605Y-63938139D01*
X155666444Y-64031056D01*
X155629545Y-64110796D01*
X155578567Y-64182496D01*
X155518921Y-64240880D01*
X155449935Y-64287201D01*
X155373899Y-64321226D01*
X155296534Y-64341318D01*
X155216835Y-64348017D01*
X155117045Y-64339129D01*
X155028914Y-64313452D01*
X154950214Y-64271447D01*
X154887464Y-64219992D01*
X154910280Y-64329150D01*
X154532284Y-64329150D01*
X154408848Y-63709628D01*
X154807332Y-63709628D01*
X154816392Y-63800184D01*
X154842045Y-63875591D01*
X154883743Y-63939673D01*
X154937574Y-63986874D01*
X155002395Y-64016526D01*
X155078258Y-64026716D01*
X155144453Y-64019561D01*
X155196603Y-63999681D01*
X155237901Y-63967914D01*
X155268714Y-63925580D01*
X155287808Y-63873967D01*
X155294596Y-63810469D01*
X155285556Y-63719920D01*
X155259975Y-63644598D01*
X155218056Y-63580312D01*
X155163346Y-63532216D01*
X155097808Y-63501623D01*
X155023670Y-63491274D01*
X154957563Y-63498542D01*
X154905411Y-63518766D01*
X154864027Y-63551175D01*
X154833177Y-63594127D01*
X154814098Y-63646108D01*
X154807332Y-63709628D01*
X154408848Y-63709628D01*
X154305504Y-63190947D01*
X154704475Y-63190947D01*
X154732330Y-63327473D01*
X154733926Y-63324371D01*
X154782344Y-63267796D01*
X154842045Y-63225660D01*
X154910482Y-63196653D01*
X154989264Y-63178472D01*
X155080365Y-63172080D01*
X155163338Y-63177629D01*
G37*
G36*
X153773452Y-64348017D02*
G01*
X153860384Y-64341877D01*
X153935331Y-64324435D01*
X154000231Y-64296635D01*
X154057419Y-64256744D01*
X154101840Y-64206778D01*
X154134687Y-64145418D01*
X154153265Y-64077878D01*
X154158117Y-63999316D01*
X154147235Y-63907006D01*
X153954069Y-62936874D01*
X153555007Y-62936874D01*
X153748264Y-63904991D01*
X153749346Y-63965276D01*
X153733518Y-64004734D01*
X153701444Y-64029850D01*
X153647422Y-64039355D01*
X153586514Y-64031021D01*
X153527713Y-64005741D01*
X153477338Y-64280881D01*
X153543101Y-64311297D01*
X153617014Y-64332264D01*
X153694276Y-64344061D01*
X153773452Y-64348017D01*
G37*
G36*
X154239650Y-63531117D02*
G01*
X154178742Y-63232988D01*
X153355522Y-63232988D01*
X153414323Y-63531117D01*
X154239650Y-63531117D01*
G37*
G36*
X152771851Y-63182095D02*
G01*
X152891495Y-63211059D01*
X152999507Y-63258175D01*
X153097734Y-63323034D01*
X153179828Y-63400791D01*
X153247261Y-63492374D01*
X153296971Y-63594361D01*
X153327193Y-63705939D01*
X153337570Y-63829337D01*
X153329030Y-63930817D01*
X153304362Y-64020793D01*
X153264114Y-64101363D01*
X153208979Y-64172628D01*
X153140245Y-64232979D01*
X153056202Y-64282988D01*
X152964418Y-64318245D01*
X152860123Y-64340296D01*
X152741129Y-64348017D01*
X152607550Y-64338001D01*
X152487939Y-64309035D01*
X152379985Y-64261922D01*
X152281771Y-64197000D01*
X152199641Y-64118922D01*
X152132140Y-64026716D01*
X152082395Y-63924029D01*
X152052189Y-63812068D01*
X152043591Y-63709628D01*
X152447122Y-63709628D01*
X152456233Y-63802030D01*
X152481835Y-63877697D01*
X152523486Y-63941982D01*
X152577364Y-63989988D01*
X152642257Y-64020479D01*
X152718048Y-64030929D01*
X152782739Y-64023722D01*
X152834253Y-64003574D01*
X152875585Y-63971120D01*
X152906344Y-63928069D01*
X152925467Y-63875410D01*
X152932279Y-63810469D01*
X152923217Y-63717924D01*
X152897658Y-63641392D01*
X152855809Y-63576407D01*
X152802037Y-63529102D01*
X152737210Y-63499379D01*
X152661353Y-63489168D01*
X152595526Y-63496776D01*
X152543772Y-63517985D01*
X152502809Y-63552182D01*
X152472248Y-63596901D01*
X152453621Y-63648731D01*
X152447122Y-63709628D01*
X152043591Y-63709628D01*
X152041831Y-63688653D01*
X152050440Y-63585780D01*
X152075190Y-63495528D01*
X152115379Y-63415620D01*
X152170382Y-63344999D01*
X152238760Y-63285351D01*
X152322191Y-63236102D01*
X152413226Y-63201499D01*
X152517793Y-63179737D01*
X152638272Y-63172080D01*
X152771851Y-63182095D01*
G37*
D10*
X160330326Y-56136266D02*
X159568422Y-56136266D01*
X159949374Y-56517219D02*
X159949374Y-55755314D01*
D12*
%TO.C,J1*%
X171757697Y-58563255D02*
X173677697Y-58563255D01*
X173677697Y-67723255D02*
X171757697Y-67723255D01*
X175687697Y-67723255D02*
X177392697Y-67723255D01*
X177392697Y-58563255D02*
X175687697Y-58563255D01*
X177392697Y-67723255D02*
X177392697Y-58563255D01*
%TO.C,TP6*%
X159050000Y-53350000D02*
X159050000Y-55250000D01*
X159050000Y-55250000D02*
X160950000Y-55250000D01*
X160950000Y-53350000D02*
X159050000Y-53350000D01*
X160950000Y-55250000D02*
X160950000Y-53350000D01*
%TO.C,TP7*%
X151000000Y-53350000D02*
X151000000Y-55250000D01*
X151000000Y-55250000D02*
X152900000Y-55250000D01*
X152900000Y-53350000D02*
X151000000Y-53350000D01*
X152900000Y-55250000D02*
X152900000Y-53350000D01*
%TO.C,L1*%
X170890000Y-53390000D02*
X170890000Y-57610000D01*
X175110000Y-57610000D02*
X175110000Y-53390000D01*
%TD*%
M02*
