M48
; DRILL file {KiCad 9.0.5} date 2025-11-23T20:07:02-0500
; FORMAT={-:-/ absolute / inch / decimal}
; #@! TF.CreationDate,2025-11-23T20:07:02-05:00
; #@! TF.GenerationSoftware,Kicad,Pcbnew,9.0.5
; #@! TF.FileFunction,Plated,1,2,PTH
FMAT,2
INCH
; #@! TA.AperFunction,Plated,PTH,ViaDrill
T1C0.0118
; #@! TA.AperFunction,Plated,PTH,ComponentDrill
T2C0.0236
%
G90
G05
T1
X5.0906Y-2.2894
X5.0906Y-2.3228
X5.0906Y-2.3563
X5.0906Y-2.3898
X5.0906Y-2.4232
X5.0906Y-2.4567
X5.0906Y-2.4902
X5.0906Y-2.5236
X5.0906Y-2.5571
X5.1201Y-2.3071
X5.1201Y-2.3406
X5.1201Y-2.374
X5.1201Y-2.4075
X5.1201Y-2.4409
X5.1201Y-2.4744
X5.1201Y-2.5079
X5.1201Y-2.5413
X5.1535Y-2.6516
X5.3927Y-2.2608
X5.4272Y-2.6516
X5.5197Y-2.4311
X5.5197Y-2.4744
X5.5728Y-2.624
X5.685Y-2.6937
X5.6929Y-2.4016
X5.7461Y-2.5098
X5.8504Y-2.3307
X5.8898Y-2.372
X5.8957Y-2.4193
X5.9114Y-2.5748
X5.9213Y-2.4882
X5.9243Y-2.5206
X5.9272Y-2.7441
X5.939Y-2.7933
X5.9488Y-2.6791
X5.9685Y-2.6311
X5.9744Y-2.498
X5.998Y-2.8169
X6.0039Y-2.3366
X6.0098Y-2.4843
X6.0394Y-2.189
X6.0433Y-2.4764
X6.0433Y-2.7933
X6.0598Y-2.3445
X6.0689Y-2.4567
X6.0768Y-2.6909
X6.1004Y-2.6516
X6.1122Y-2.685
X6.1161Y-2.3307
X6.1161Y-2.4508
X6.1319Y-2.6555
X6.1378Y-2.185
X6.1417Y-2.5079
X6.1535Y-2.2539
X6.1732Y-2.4409
X6.1732Y-2.5079
X6.2047Y-2.5394
X6.2185Y-2.3307
X6.2343Y-2.5906
X6.2382Y-2.2441
X6.3031Y-2.4449
X6.3051Y-2.2618
X6.3292Y-2.3873
X6.3622Y-2.6929
X6.4173Y-2.2677
X6.4359Y-2.7376
X6.6142Y-2.1929
X6.6379Y-2.5525
X6.685Y-2.2362
X6.7008Y-2.1299
X6.7362Y-2.5276
X6.7598Y-2.4055
X6.8031Y-2.4409
X6.8051Y-2.5549
T2
G00X6.7336Y-2.3159
M15
G01X6.6903Y-2.3159
M16
G05
G00X6.7336Y-2.656
M15
G01X6.6903Y-2.656
M16
G05
G00X6.893Y-2.3159
M15
G01X6.8615Y-2.3159
M16
G05
G00X6.893Y-2.656
M15
G01X6.8615Y-2.656
M16
G05
M30
