%TF.GenerationSoftware,KiCad,Pcbnew,9.0.5*%
%TF.CreationDate,2026-02-15T17:35:30-05:00*%
%TF.ProjectId,lightwear_bracelet_bms,6c696768-7477-4656-9172-5f6272616365,rev?*%
%TF.SameCoordinates,Original*%
%TF.FileFunction,Copper,L1,Top*%
%TF.FilePolarity,Positive*%
%FSLAX46Y46*%
G04 Gerber Fmt 4.6, Leading zero omitted, Abs format (unit mm)*
G04 Created by KiCad (PCBNEW 9.0.5) date 2026-02-15 17:35:30*
%MOMM*%
%LPD*%
G01*
G04 APERTURE LIST*
G04 Aperture macros list*
%AMRoundRect*
0 Rectangle with rounded corners*
0 $1 Rounding radius*
0 $2 $3 $4 $5 $6 $7 $8 $9 X,Y pos of 4 corners*
0 Add a 4 corners polygon primitive as box body*
4,1,4,$2,$3,$4,$5,$6,$7,$8,$9,$2,$3,0*
0 Add four circle primitives for the rounded corners*
1,1,$1+$1,$2,$3*
1,1,$1+$1,$4,$5*
1,1,$1+$1,$6,$7*
1,1,$1+$1,$8,$9*
0 Add four rect primitives between the rounded corners*
20,1,$1+$1,$2,$3,$4,$5,0*
20,1,$1+$1,$4,$5,$6,$7,0*
20,1,$1+$1,$6,$7,$8,$9,0*
20,1,$1+$1,$8,$9,$2,$3,0*%
G04 Aperture macros list end*
%TA.AperFunction,SMDPad,CuDef*%
%ADD10R,2.200000X1.200000*%
%TD*%
%TA.AperFunction,SMDPad,CuDef*%
%ADD11RoundRect,0.218750X0.256250X-0.218750X0.256250X0.218750X-0.256250X0.218750X-0.256250X-0.218750X0*%
%TD*%
%TA.AperFunction,SMDPad,CuDef*%
%ADD12R,2.000000X1.500000*%
%TD*%
%TA.AperFunction,ComponentPad*%
%ADD13C,1.153998*%
%TD*%
%TA.AperFunction,ViaPad*%
%ADD14C,0.600000*%
%TD*%
%TA.AperFunction,Conductor*%
%ADD15C,0.200000*%
%TD*%
%TA.AperFunction,Conductor*%
%ADD16C,0.300000*%
%TD*%
G04 APERTURE END LIST*
D10*
%TO.P,TP6,1,1*%
%TO.N,+BATT*%
X150200000Y-91500000D03*
%TO.P,TP6,2,2*%
%TO.N,GND*%
X150200000Y-93500000D03*
%TD*%
D11*
%TO.P,D1,1,K*%
%TO.N,Net-(D1-K)*%
X130900000Y-89187500D03*
%TO.P,D1,2,A*%
%TO.N,Net-(D1-A)*%
X130900000Y-87612500D03*
%TD*%
D12*
%TO.P,TP4,1,1*%
%TO.N,/LEDK*%
X133100000Y-93000000D03*
%TD*%
%TO.P,TP5,1,1*%
%TO.N,+BATT*%
X133100000Y-91300000D03*
%TD*%
D13*
%TO.P,SW1,6*%
%TO.N,N/C*%
X134124900Y-97500400D03*
%TO.P,SW1,7*%
X136074900Y-97500400D03*
%TD*%
D14*
%TO.N,GND*%
X129700000Y-95850000D03*
X130500000Y-95850000D03*
X134700000Y-99200000D03*
X135500000Y-99200000D03*
X142650000Y-97350000D03*
X143450000Y-97350000D03*
X143350000Y-93750000D03*
X144150000Y-93750000D03*
X151700000Y-93950000D03*
X151700000Y-93150000D03*
X150400000Y-94450000D03*
X151200000Y-94450000D03*
X139000000Y-89250000D03*
%TO.N,+BATT*%
X131600000Y-86400000D03*
X140000000Y-90049943D03*
X138050000Y-87150000D03*
%TO.N,GND*%
X135200000Y-85800000D03*
X136200000Y-85800000D03*
X147800000Y-96600000D03*
X138100000Y-94400000D03*
X138100000Y-93600000D03*
X138700000Y-90200000D03*
X132400000Y-94800000D03*
X137000000Y-86500000D03*
X146200000Y-96600000D03*
X147000000Y-96600000D03*
X148600000Y-96600000D03*
X131400000Y-94800000D03*
%TO.N,Net-(D1-A)*%
X130200000Y-88200000D03*
%TO.N,Net-(D1-K)*%
X132100000Y-89600000D03*
%TO.N,/LEDK*%
X134886486Y-93360000D03*
%TO.N,+5V*%
X138500000Y-87900000D03*
X133500000Y-87900000D03*
%TD*%
D15*
%TO.N,+BATT*%
X138850000Y-87150000D02*
X138900000Y-87200000D01*
X138050000Y-87150000D02*
X138850000Y-87150000D01*
X140000000Y-88300000D02*
X138900000Y-87200000D01*
X140000000Y-90049943D02*
X140000000Y-88300000D01*
D16*
X138749943Y-91300000D02*
X133100000Y-91300000D01*
X140000000Y-90049943D02*
X138749943Y-91300000D01*
X141450057Y-91500000D02*
X150200000Y-91500000D01*
X140000000Y-90049943D02*
X141450057Y-91500000D01*
D15*
X132350000Y-87150000D02*
X138050000Y-87150000D01*
X131600000Y-86400000D02*
X132350000Y-87150000D01*
%TO.N,Net-(D1-A)*%
X130787500Y-87612500D02*
X130200000Y-88200000D01*
X130900000Y-87612500D02*
X130787500Y-87612500D01*
%TO.N,Net-(D1-K)*%
X130900000Y-89187500D02*
X131687500Y-89187500D01*
X131687500Y-89187500D02*
X132100000Y-89600000D01*
D16*
%TO.N,/LEDK*%
X134886486Y-93360000D02*
X134526486Y-93000000D01*
X134526486Y-93000000D02*
X133100000Y-93000000D01*
%TO.N,+5V*%
X133500000Y-87900000D02*
X138500000Y-87900000D01*
%TD*%
%TA.AperFunction,Conductor*%
%TO.N,GND*%
G36*
X152004828Y-85100975D02*
G01*
X152014501Y-85101925D01*
X152029168Y-85103367D01*
X152048154Y-85107136D01*
X152066911Y-85112815D01*
X152084818Y-85120220D01*
X152087427Y-85121612D01*
X152087865Y-85121846D01*
X152114365Y-85142438D01*
X157506481Y-91049036D01*
X157521589Y-91070863D01*
X157646777Y-91316733D01*
X157650986Y-91326195D01*
X157755901Y-91599689D01*
X157759100Y-91609539D01*
X157834874Y-91892513D01*
X157837026Y-91902643D01*
X157882826Y-92191991D01*
X157883907Y-92202291D01*
X157899228Y-92494822D01*
X157899228Y-92505178D01*
X157883907Y-92797708D01*
X157882826Y-92808008D01*
X157837026Y-93097356D01*
X157834874Y-93107486D01*
X157759100Y-93390460D01*
X157755901Y-93400310D01*
X157650986Y-93673804D01*
X157646777Y-93683266D01*
X157521592Y-93929130D01*
X157506484Y-93950957D01*
X152114363Y-99857560D01*
X152087841Y-99878164D01*
X152084802Y-99879785D01*
X152066902Y-99887185D01*
X152048172Y-99892857D01*
X152029167Y-99896631D01*
X152004821Y-99899025D01*
X151995133Y-99899500D01*
X132082637Y-99899500D01*
X132024446Y-99880593D01*
X132012633Y-99870504D01*
X129565949Y-97423820D01*
X133347401Y-97423820D01*
X133347401Y-97576979D01*
X133377280Y-97727187D01*
X133377280Y-97727189D01*
X133435886Y-97868679D01*
X133435892Y-97868690D01*
X133487081Y-97945298D01*
X133520977Y-97996027D01*
X133629273Y-98104323D01*
X133705192Y-98155050D01*
X133756609Y-98189407D01*
X133756620Y-98189413D01*
X133808887Y-98211062D01*
X133898112Y-98248020D01*
X134048323Y-98277899D01*
X134048324Y-98277899D01*
X134201476Y-98277899D01*
X134201477Y-98277899D01*
X134351688Y-98248020D01*
X134493184Y-98189411D01*
X134620527Y-98104323D01*
X134728823Y-97996027D01*
X134813911Y-97868684D01*
X134872520Y-97727188D01*
X134902399Y-97576977D01*
X134902399Y-97423823D01*
X134902398Y-97423820D01*
X135297401Y-97423820D01*
X135297401Y-97576979D01*
X135327280Y-97727187D01*
X135327280Y-97727189D01*
X135385886Y-97868679D01*
X135385892Y-97868690D01*
X135437081Y-97945298D01*
X135470977Y-97996027D01*
X135579273Y-98104323D01*
X135655192Y-98155050D01*
X135706609Y-98189407D01*
X135706620Y-98189413D01*
X135758887Y-98211062D01*
X135848112Y-98248020D01*
X135998323Y-98277899D01*
X135998324Y-98277899D01*
X136151476Y-98277899D01*
X136151477Y-98277899D01*
X136301688Y-98248020D01*
X136443184Y-98189411D01*
X136570527Y-98104323D01*
X136678823Y-97996027D01*
X136763911Y-97868684D01*
X136822520Y-97727188D01*
X136852399Y-97576977D01*
X136852399Y-97423823D01*
X136822520Y-97273612D01*
X136763911Y-97132116D01*
X136763910Y-97132114D01*
X136763907Y-97132109D01*
X136729550Y-97080692D01*
X136678823Y-97004773D01*
X136570527Y-96896477D01*
X136519798Y-96862581D01*
X136443190Y-96811392D01*
X136443179Y-96811386D01*
X136301688Y-96752780D01*
X136151479Y-96722901D01*
X136151477Y-96722901D01*
X135998323Y-96722901D01*
X135998320Y-96722901D01*
X135848112Y-96752780D01*
X135848110Y-96752780D01*
X135706620Y-96811386D01*
X135706609Y-96811392D01*
X135579273Y-96896477D01*
X135579269Y-96896480D01*
X135470980Y-97004769D01*
X135470977Y-97004773D01*
X135385892Y-97132109D01*
X135385886Y-97132120D01*
X135327280Y-97273610D01*
X135327280Y-97273612D01*
X135297401Y-97423820D01*
X134902398Y-97423820D01*
X134872520Y-97273612D01*
X134813911Y-97132116D01*
X134813910Y-97132114D01*
X134813907Y-97132109D01*
X134779550Y-97080692D01*
X134728823Y-97004773D01*
X134620527Y-96896477D01*
X134569798Y-96862581D01*
X134493190Y-96811392D01*
X134493179Y-96811386D01*
X134351688Y-96752780D01*
X134201479Y-96722901D01*
X134201477Y-96722901D01*
X134048323Y-96722901D01*
X134048320Y-96722901D01*
X133898112Y-96752780D01*
X133898110Y-96752780D01*
X133756620Y-96811386D01*
X133756609Y-96811392D01*
X133629273Y-96896477D01*
X133629269Y-96896480D01*
X133520980Y-97004769D01*
X133520977Y-97004773D01*
X133435892Y-97132109D01*
X133435886Y-97132120D01*
X133377280Y-97273610D01*
X133377280Y-97273612D01*
X133347401Y-97423820D01*
X129565949Y-97423820D01*
X129129496Y-96987367D01*
X129101719Y-96932850D01*
X129100500Y-96917363D01*
X129100500Y-94399500D01*
X129119407Y-94341309D01*
X129168907Y-94305345D01*
X129199500Y-94300500D01*
X134247594Y-94300500D01*
X134247595Y-94300500D01*
X134338125Y-94271085D01*
X134415134Y-94215134D01*
X134471085Y-94138125D01*
X134500500Y-94047595D01*
X134500500Y-93952405D01*
X134485278Y-93905556D01*
X134485278Y-93844374D01*
X134521242Y-93794873D01*
X134579433Y-93775966D01*
X134628933Y-93789229D01*
X134693300Y-93826392D01*
X134820594Y-93860500D01*
X134820596Y-93860500D01*
X134952376Y-93860500D01*
X134952378Y-93860500D01*
X135079672Y-93826392D01*
X135079674Y-93826390D01*
X135079676Y-93826390D01*
X135193795Y-93760503D01*
X135193795Y-93760502D01*
X135193800Y-93760500D01*
X135286986Y-93667314D01*
X135333375Y-93586966D01*
X135352876Y-93553190D01*
X135352876Y-93553188D01*
X135352878Y-93553186D01*
X135386986Y-93425892D01*
X135386986Y-93294108D01*
X135352878Y-93166814D01*
X135352876Y-93166811D01*
X135352876Y-93166809D01*
X135286989Y-93052690D01*
X135286987Y-93052688D01*
X135286986Y-93052686D01*
X135193800Y-92959500D01*
X135193797Y-92959498D01*
X135193795Y-92959496D01*
X135079675Y-92893609D01*
X135079677Y-92893609D01*
X135030285Y-92880375D01*
X134952378Y-92859500D01*
X134952376Y-92859500D01*
X134922676Y-92859500D01*
X134864485Y-92840593D01*
X134852673Y-92830504D01*
X134741700Y-92719532D01*
X134741698Y-92719530D01*
X134661774Y-92673386D01*
X134572630Y-92649500D01*
X134572628Y-92649500D01*
X134399500Y-92649500D01*
X134341309Y-92630593D01*
X134305345Y-92581093D01*
X134300500Y-92550500D01*
X134300500Y-92362324D01*
X152899500Y-92362324D01*
X152899500Y-92637675D01*
X152910277Y-92719532D01*
X152935440Y-92910666D01*
X152973494Y-93052686D01*
X153006704Y-93176631D01*
X153112074Y-93431016D01*
X153112077Y-93431021D01*
X153244245Y-93659943D01*
X153249753Y-93669482D01*
X153319596Y-93760503D01*
X153417372Y-93887928D01*
X153612072Y-94082628D01*
X153830521Y-94250249D01*
X154068979Y-94387923D01*
X154068980Y-94387923D01*
X154068983Y-94387925D01*
X154323368Y-94493295D01*
X154589334Y-94564560D01*
X154862326Y-94600500D01*
X154862327Y-94600500D01*
X155137673Y-94600500D01*
X155137674Y-94600500D01*
X155410666Y-94564560D01*
X155676632Y-94493295D01*
X155931021Y-94387923D01*
X156169479Y-94250249D01*
X156387928Y-94082628D01*
X156582628Y-93887928D01*
X156750249Y-93669479D01*
X156887923Y-93431021D01*
X156993295Y-93176632D01*
X157064560Y-92910666D01*
X157100500Y-92637674D01*
X157100500Y-92362326D01*
X157064560Y-92089334D01*
X156993295Y-91823368D01*
X156923697Y-91655345D01*
X156887925Y-91568983D01*
X156886969Y-91567327D01*
X156750249Y-91330521D01*
X156582628Y-91112072D01*
X156387928Y-90917372D01*
X156263331Y-90821766D01*
X156169482Y-90749753D01*
X156105881Y-90713033D01*
X155974185Y-90636998D01*
X155931016Y-90612074D01*
X155676631Y-90506704D01*
X155555521Y-90474253D01*
X155410666Y-90435440D01*
X155410659Y-90435439D01*
X155137675Y-90399500D01*
X155137674Y-90399500D01*
X154862326Y-90399500D01*
X154862324Y-90399500D01*
X154589340Y-90435439D01*
X154589338Y-90435439D01*
X154589334Y-90435440D01*
X154488805Y-90462376D01*
X154323368Y-90506704D01*
X154068983Y-90612074D01*
X153830517Y-90749753D01*
X153612075Y-90917369D01*
X153417369Y-91112075D01*
X153249753Y-91330517D01*
X153112074Y-91568983D01*
X153006704Y-91823368D01*
X152972908Y-91949500D01*
X152935440Y-92089334D01*
X152935439Y-92089338D01*
X152935439Y-92089340D01*
X152899500Y-92362324D01*
X134300500Y-92362324D01*
X134300500Y-92230253D01*
X134300498Y-92230241D01*
X134288379Y-92169315D01*
X134288379Y-92130685D01*
X134300498Y-92069758D01*
X134300500Y-92069746D01*
X134300500Y-91749500D01*
X134319407Y-91691309D01*
X134368907Y-91655345D01*
X134399500Y-91650500D01*
X138796085Y-91650500D01*
X138796087Y-91650500D01*
X138885231Y-91626614D01*
X138923471Y-91604536D01*
X138965155Y-91580470D01*
X139929999Y-90615625D01*
X139984512Y-90587851D01*
X140044944Y-90597422D01*
X140070003Y-90615628D01*
X141169588Y-91715212D01*
X141169587Y-91715212D01*
X141234844Y-91780468D01*
X141234846Y-91780470D01*
X141283759Y-91808710D01*
X141314769Y-91826614D01*
X141403913Y-91850500D01*
X148800500Y-91850500D01*
X148858691Y-91869407D01*
X148894655Y-91918907D01*
X148899500Y-91949500D01*
X148899500Y-92119746D01*
X148899501Y-92119758D01*
X148911132Y-92178227D01*
X148911134Y-92178233D01*
X148955445Y-92244548D01*
X148955448Y-92244552D01*
X149021769Y-92288867D01*
X149066231Y-92297711D01*
X149080241Y-92300498D01*
X149080246Y-92300498D01*
X149080252Y-92300500D01*
X149080253Y-92300500D01*
X151319747Y-92300500D01*
X151319748Y-92300500D01*
X151378231Y-92288867D01*
X151444552Y-92244552D01*
X151488867Y-92178231D01*
X151500500Y-92119748D01*
X151500500Y-90880252D01*
X151488867Y-90821769D01*
X151444552Y-90755448D01*
X151381075Y-90713033D01*
X151378233Y-90711134D01*
X151378231Y-90711133D01*
X151378228Y-90711132D01*
X151378227Y-90711132D01*
X151319758Y-90699501D01*
X151319748Y-90699500D01*
X149080252Y-90699500D01*
X149080251Y-90699500D01*
X149080241Y-90699501D01*
X149021772Y-90711132D01*
X149021766Y-90711134D01*
X148955451Y-90755445D01*
X148955445Y-90755451D01*
X148911134Y-90821766D01*
X148911132Y-90821772D01*
X148899501Y-90880241D01*
X148899500Y-90880253D01*
X148899500Y-91050500D01*
X148880593Y-91108691D01*
X148831093Y-91144655D01*
X148800500Y-91149500D01*
X141636246Y-91149500D01*
X141578055Y-91130593D01*
X141566242Y-91120504D01*
X140529496Y-90083757D01*
X140501719Y-90029240D01*
X140500500Y-90013753D01*
X140500500Y-89984052D01*
X140496870Y-89970504D01*
X140466392Y-89856757D01*
X140466390Y-89856754D01*
X140466390Y-89856752D01*
X140400503Y-89742633D01*
X140400501Y-89742631D01*
X140400500Y-89742629D01*
X140329494Y-89671623D01*
X140301719Y-89617109D01*
X140300500Y-89601622D01*
X140300500Y-88260437D01*
X140300499Y-88260435D01*
X140297873Y-88250636D01*
X140280021Y-88184011D01*
X140240460Y-88115489D01*
X140218157Y-88093186D01*
X140184511Y-88059539D01*
X140184511Y-88059540D01*
X139084511Y-86959540D01*
X139084511Y-86959539D01*
X139034510Y-86909539D01*
X139017121Y-86899499D01*
X139017121Y-86899500D01*
X138965989Y-86869979D01*
X138965988Y-86869978D01*
X138965987Y-86869978D01*
X138889564Y-86849500D01*
X138889562Y-86849500D01*
X138498321Y-86849500D01*
X138440130Y-86830593D01*
X138428323Y-86820509D01*
X138357314Y-86749500D01*
X138357311Y-86749498D01*
X138357309Y-86749496D01*
X138243189Y-86683609D01*
X138243191Y-86683609D01*
X138193799Y-86670375D01*
X138115892Y-86649500D01*
X137984108Y-86649500D01*
X137906200Y-86670375D01*
X137856809Y-86683609D01*
X137742690Y-86749496D01*
X137742689Y-86749497D01*
X137742686Y-86749499D01*
X137742686Y-86749500D01*
X137671680Y-86820505D01*
X137617166Y-86848281D01*
X137601679Y-86849500D01*
X132515479Y-86849500D01*
X132457288Y-86830593D01*
X132445475Y-86820504D01*
X132129496Y-86504525D01*
X132101719Y-86450008D01*
X132100500Y-86434521D01*
X132100500Y-86334109D01*
X132100500Y-86334108D01*
X132066392Y-86206814D01*
X132066390Y-86206811D01*
X132066390Y-86206809D01*
X132000503Y-86092690D01*
X132000501Y-86092688D01*
X132000500Y-86092686D01*
X131907314Y-85999500D01*
X131907311Y-85999498D01*
X131907309Y-85999496D01*
X131793189Y-85933609D01*
X131793191Y-85933609D01*
X131743799Y-85920375D01*
X131665892Y-85899500D01*
X131534108Y-85899500D01*
X131492822Y-85910562D01*
X131431720Y-85907359D01*
X131384171Y-85868853D01*
X131368336Y-85809752D01*
X131390264Y-85752631D01*
X131397186Y-85744941D01*
X132012632Y-85129496D01*
X132067149Y-85101719D01*
X132082636Y-85100500D01*
X151973071Y-85100500D01*
X151995144Y-85100500D01*
X152004828Y-85100975D01*
G37*
%TD.AperFunction*%
%TA.AperFunction,Conductor*%
G36*
X131501477Y-86891756D02*
G01*
X131534108Y-86900500D01*
X131637699Y-86900500D01*
X131640862Y-86900703D01*
X131666485Y-86910885D01*
X131692712Y-86919407D01*
X131694653Y-86922079D01*
X131697722Y-86923299D01*
X131704525Y-86929496D01*
X132109540Y-87334511D01*
X132109539Y-87334511D01*
X132165489Y-87390460D01*
X132234007Y-87430019D01*
X132234011Y-87430021D01*
X132310435Y-87450499D01*
X132310437Y-87450500D01*
X132310438Y-87450500D01*
X132389562Y-87450500D01*
X133010118Y-87450500D01*
X133068309Y-87469407D01*
X133104273Y-87518907D01*
X133104273Y-87580093D01*
X133095854Y-87599000D01*
X133033609Y-87706809D01*
X133026428Y-87733609D01*
X132999500Y-87834108D01*
X132999500Y-87965892D01*
X133003283Y-87980009D01*
X133033609Y-88093190D01*
X133099496Y-88207309D01*
X133099498Y-88207311D01*
X133099500Y-88207314D01*
X133192686Y-88300500D01*
X133192688Y-88300501D01*
X133192690Y-88300503D01*
X133306810Y-88366390D01*
X133306808Y-88366390D01*
X133306812Y-88366391D01*
X133306814Y-88366392D01*
X133434108Y-88400500D01*
X133434110Y-88400500D01*
X133565890Y-88400500D01*
X133565892Y-88400500D01*
X133693186Y-88366392D01*
X133693188Y-88366390D01*
X133693190Y-88366390D01*
X133807309Y-88300503D01*
X133807309Y-88300502D01*
X133807314Y-88300500D01*
X133828319Y-88279494D01*
X133882834Y-88251719D01*
X133898321Y-88250500D01*
X138101679Y-88250500D01*
X138159870Y-88269407D01*
X138171676Y-88279490D01*
X138192686Y-88300500D01*
X138192688Y-88300501D01*
X138192690Y-88300503D01*
X138306810Y-88366390D01*
X138306808Y-88366390D01*
X138306812Y-88366391D01*
X138306814Y-88366392D01*
X138434108Y-88400500D01*
X138434110Y-88400500D01*
X138565890Y-88400500D01*
X138565892Y-88400500D01*
X138693186Y-88366392D01*
X138693188Y-88366390D01*
X138693190Y-88366390D01*
X138807309Y-88300503D01*
X138807309Y-88300502D01*
X138807314Y-88300500D01*
X138900500Y-88207314D01*
X138942766Y-88134108D01*
X138966390Y-88093190D01*
X138966390Y-88093188D01*
X138966392Y-88093186D01*
X139000500Y-87965892D01*
X139000500Y-87964479D01*
X139000812Y-87963516D01*
X139001347Y-87959458D01*
X139002099Y-87959557D01*
X139019407Y-87906288D01*
X139068907Y-87870324D01*
X139130093Y-87870324D01*
X139169504Y-87894475D01*
X139670504Y-88395475D01*
X139698281Y-88449992D01*
X139699500Y-88465479D01*
X139699500Y-89601622D01*
X139680593Y-89659813D01*
X139670509Y-89671619D01*
X139616671Y-89725458D01*
X139599497Y-89742632D01*
X139599496Y-89742633D01*
X139533609Y-89856752D01*
X139521887Y-89900500D01*
X139504138Y-89966744D01*
X139499500Y-89984052D01*
X139499500Y-90013753D01*
X139480593Y-90071944D01*
X139470504Y-90083757D01*
X138633757Y-90920504D01*
X138579240Y-90948281D01*
X138563753Y-90949500D01*
X134399500Y-90949500D01*
X134341309Y-90930593D01*
X134305345Y-90881093D01*
X134300500Y-90850500D01*
X134300500Y-90648864D01*
X134319407Y-90590673D01*
X134341309Y-90568772D01*
X134415128Y-90515138D01*
X134415134Y-90515134D01*
X134471085Y-90438125D01*
X134500500Y-90347595D01*
X134500500Y-90252405D01*
X134471085Y-90161875D01*
X134467491Y-90156929D01*
X134415138Y-90084871D01*
X134415136Y-90084869D01*
X134415134Y-90084866D01*
X134415130Y-90084863D01*
X134415128Y-90084861D01*
X134338126Y-90028915D01*
X134291461Y-90013753D01*
X134247595Y-89999500D01*
X134247594Y-89999500D01*
X132618750Y-89999500D01*
X132560559Y-89980593D01*
X132524595Y-89931093D01*
X132524595Y-89869907D01*
X132533013Y-89851000D01*
X132550676Y-89820407D01*
X132566392Y-89793186D01*
X132600500Y-89665892D01*
X132600500Y-89534108D01*
X132566392Y-89406814D01*
X132566390Y-89406811D01*
X132566390Y-89406809D01*
X132500503Y-89292690D01*
X132500501Y-89292688D01*
X132500500Y-89292686D01*
X132407314Y-89199500D01*
X132407311Y-89199498D01*
X132407309Y-89199496D01*
X132293189Y-89133609D01*
X132293191Y-89133609D01*
X132243799Y-89120375D01*
X132165892Y-89099500D01*
X132065479Y-89099500D01*
X132007288Y-89080593D01*
X131995476Y-89070504D01*
X131872010Y-88947039D01*
X131852464Y-88935754D01*
X131803490Y-88907479D01*
X131803485Y-88907477D01*
X131727064Y-88887000D01*
X131727062Y-88887000D01*
X131645799Y-88887000D01*
X131587608Y-88868093D01*
X131557590Y-88832946D01*
X131524960Y-88768907D01*
X131499658Y-88719249D01*
X131405751Y-88625342D01*
X131357002Y-88600503D01*
X131287423Y-88565050D01*
X131287420Y-88565049D01*
X131251551Y-88559368D01*
X131189249Y-88549500D01*
X131189246Y-88549500D01*
X130747617Y-88549500D01*
X130689426Y-88530593D01*
X130653462Y-88481093D01*
X130653462Y-88419907D01*
X130653505Y-88419776D01*
X130656712Y-88409951D01*
X130666392Y-88393186D01*
X130685651Y-88321306D01*
X130686478Y-88318776D01*
X130703001Y-88296100D01*
X130718287Y-88272562D01*
X130720877Y-88271567D01*
X130722511Y-88269326D01*
X130749213Y-88260691D01*
X130775409Y-88250636D01*
X130780590Y-88250500D01*
X131189249Y-88250500D01*
X131217803Y-88245976D01*
X131287420Y-88234951D01*
X131405751Y-88174658D01*
X131499658Y-88080751D01*
X131559951Y-87962420D01*
X131572160Y-87885328D01*
X131575500Y-87864248D01*
X131575500Y-87360751D01*
X131570491Y-87329130D01*
X131559951Y-87262580D01*
X131499658Y-87144249D01*
X131415335Y-87059926D01*
X131403435Y-87036570D01*
X131389420Y-87014424D01*
X131389725Y-87009662D01*
X131387560Y-87005412D01*
X131391659Y-86979524D01*
X131393339Y-86953364D01*
X131396384Y-86949691D01*
X131397131Y-86944980D01*
X131415667Y-86926443D01*
X131432400Y-86906270D01*
X131437021Y-86905089D01*
X131440396Y-86901715D01*
X131466286Y-86897614D01*
X131491682Y-86891128D01*
X131501477Y-86891756D01*
G37*
%TD.AperFunction*%
%TD*%
M02*
