%TF.GenerationSoftware,KiCad,Pcbnew,9.0.5*%
%TF.CreationDate,2026-02-15T17:35:30-05:00*%
%TF.ProjectId,lightwear_bracelet_bms,6c696768-7477-4656-9172-5f6272616365,rev?*%
%TF.SameCoordinates,Original*%
%TF.FileFunction,Profile,NP*%
%FSLAX46Y46*%
G04 Gerber Fmt 4.6, Leading zero omitted, Abs format (unit mm)*
G04 Created by KiCad (PCBNEW 9.0.5) date 2026-02-15 17:35:30*
%MOMM*%
%LPD*%
G01*
G04 APERTURE LIST*
%TA.AperFunction,Profile*%
%ADD10C,0.050000*%
%TD*%
%TA.AperFunction,Profile*%
%ADD11C,0.100000*%
%TD*%
G04 APERTURE END LIST*
D10*
X129000000Y-90100000D02*
X129000000Y-88000000D01*
X134200000Y-93800000D02*
G75*
G02*
X134200000Y-94200000I0J-200000D01*
G01*
X152166410Y-99949615D02*
G75*
G02*
X152000000Y-100000000I-166410J249615D01*
G01*
X132000000Y-85000000D02*
X152000000Y-85000000D01*
X134200000Y-94200000D02*
X129000000Y-94200000D01*
X132000000Y-85000000D02*
X129000000Y-88000000D01*
X129001438Y-97001438D02*
X131998562Y-99998562D01*
X132000000Y-100000000D02*
X152000000Y-100000000D01*
X152166410Y-85050385D02*
X157598557Y-91000833D01*
X130500000Y-90700000D02*
G75*
G02*
X130700000Y-90500000I200000J0D01*
G01*
X152000000Y-85000000D02*
G75*
G02*
X152166410Y-85050385I0J-300000D01*
G01*
X130700000Y-93800000D02*
X134200000Y-93800000D01*
X157598556Y-93999167D02*
X152166410Y-99949613D01*
X134200000Y-90100000D02*
X129000000Y-90100000D01*
X158000000Y-92500000D02*
G75*
G02*
X157598557Y-93999167I-3000000J0D01*
G01*
X130700000Y-93800000D02*
G75*
G02*
X130500000Y-93600000I0J200000D01*
G01*
X130500000Y-93600000D02*
X130500000Y-90700000D01*
D11*
X157000000Y-92500000D02*
G75*
G02*
X153000000Y-92500000I-2000000J0D01*
G01*
X153000000Y-92500000D02*
G75*
G02*
X157000000Y-92500000I2000000J0D01*
G01*
D10*
X157598557Y-91000833D02*
G75*
G02*
X158000000Y-92500000I-2598557J-1499167D01*
G01*
X130700000Y-90500000D02*
X134200000Y-90500000D01*
X129000000Y-94200000D02*
X129000000Y-97000000D01*
X134200000Y-90100000D02*
G75*
G02*
X134200000Y-90500000I0J-200000D01*
G01*
M02*
