%TF.GenerationSoftware,KiCad,Pcbnew,9.0.5*%
%TF.CreationDate,2026-02-15T17:35:30-05:00*%
%TF.ProjectId,lightwear_bracelet_bms,6c696768-7477-4656-9172-5f6272616365,rev?*%
%TF.SameCoordinates,Original*%
%TF.FileFunction,Copper,L2,Bot*%
%TF.FilePolarity,Positive*%
%FSLAX46Y46*%
G04 Gerber Fmt 4.6, Leading zero omitted, Abs format (unit mm)*
G04 Created by KiCad (PCBNEW 9.0.5) date 2026-02-15 17:35:30*
%MOMM*%
%LPD*%
G01*
G04 APERTURE LIST*
G04 Aperture macros list*
%AMRoundRect*
0 Rectangle with rounded corners*
0 $1 Rounding radius*
0 $2 $3 $4 $5 $6 $7 $8 $9 X,Y pos of 4 corners*
0 Add a 4 corners polygon primitive as box body*
4,1,4,$2,$3,$4,$5,$6,$7,$8,$9,$2,$3,0*
0 Add four circle primitives for the rounded corners*
1,1,$1+$1,$2,$3*
1,1,$1+$1,$4,$5*
1,1,$1+$1,$6,$7*
1,1,$1+$1,$8,$9*
0 Add four rect primitives between the rounded corners*
20,1,$1+$1,$2,$3,$4,$5,0*
20,1,$1+$1,$4,$5,$6,$7,0*
20,1,$1+$1,$6,$7,$8,$9,0*
20,1,$1+$1,$8,$9,$2,$3,0*%
%AMFreePoly0*
4,1,14,0.385355,0.085355,0.400000,0.050000,0.400000,0.000711,0.385355,-0.034644,0.334644,-0.085355,0.299289,-0.100000,-0.350000,-0.100000,-0.385355,-0.085355,-0.400000,-0.050000,-0.400000,0.050000,-0.385355,0.085355,-0.350000,0.100000,0.350000,0.100000,0.385355,0.085355,0.385355,0.085355,$1*%
%AMFreePoly1*
4,1,14,0.334644,0.085355,0.385355,0.034644,0.400000,-0.000711,0.400000,-0.050000,0.385355,-0.085355,0.350000,-0.100000,-0.350000,-0.100000,-0.385355,-0.085355,-0.400000,-0.050000,-0.400000,0.050000,-0.385355,0.085355,-0.350000,0.100000,0.299289,0.100000,0.334644,0.085355,0.334644,0.085355,$1*%
%AMFreePoly2*
4,1,14,0.085355,0.385355,0.100000,0.350000,0.100000,-0.350000,0.085355,-0.385355,0.050000,-0.400000,0.000711,-0.400000,-0.034644,-0.385355,-0.085355,-0.334644,-0.100000,-0.299289,-0.100000,0.350000,-0.085355,0.385355,-0.050000,0.400000,0.050000,0.400000,0.085355,0.385355,0.085355,0.385355,$1*%
%AMFreePoly3*
4,1,14,0.085355,0.385355,0.100000,0.350000,0.100000,-0.299289,0.085355,-0.334644,0.034644,-0.385355,-0.000711,-0.400000,-0.050000,-0.400000,-0.085355,-0.385355,-0.100000,-0.350000,-0.100000,0.350000,-0.085355,0.385355,-0.050000,0.400000,0.050000,0.400000,0.085355,0.385355,0.085355,0.385355,$1*%
%AMFreePoly4*
4,1,14,0.385355,0.085355,0.400000,0.050000,0.400000,-0.050000,0.385355,-0.085355,0.350000,-0.100000,-0.350000,-0.100000,-0.385355,-0.085355,-0.400000,-0.050000,-0.400000,-0.000711,-0.385355,0.034644,-0.334644,0.085355,-0.299289,0.100000,0.350000,0.100000,0.385355,0.085355,0.385355,0.085355,$1*%
%AMFreePoly5*
4,1,14,0.385355,0.085355,0.400000,0.050000,0.400000,-0.050000,0.385355,-0.085355,0.350000,-0.100000,-0.299289,-0.100000,-0.334644,-0.085355,-0.385355,-0.034644,-0.400000,0.000711,-0.400000,0.050000,-0.385355,0.085355,-0.350000,0.100000,0.350000,0.100000,0.385355,0.085355,0.385355,0.085355,$1*%
%AMFreePoly6*
4,1,14,0.034644,0.385355,0.085355,0.334644,0.100000,0.299289,0.100000,-0.350000,0.085355,-0.385355,0.050000,-0.400000,-0.050000,-0.400000,-0.085355,-0.385355,-0.100000,-0.350000,-0.100000,0.350000,-0.085355,0.385355,-0.050000,0.400000,-0.000711,0.400000,0.034644,0.385355,0.034644,0.385355,$1*%
%AMFreePoly7*
4,1,14,0.085355,0.385355,0.100000,0.350000,0.100000,-0.350000,0.085355,-0.385355,0.050000,-0.400000,-0.050000,-0.400000,-0.085355,-0.385355,-0.100000,-0.350000,-0.100000,0.299289,-0.085355,0.334644,-0.034644,0.385355,0.000711,0.400000,0.050000,0.400000,0.085355,0.385355,0.085355,0.385355,$1*%
G04 Aperture macros list end*
%TA.AperFunction,SMDPad,CuDef*%
%ADD10RoundRect,0.160000X-0.222500X-0.160000X0.222500X-0.160000X0.222500X0.160000X-0.222500X0.160000X0*%
%TD*%
%TA.AperFunction,SMDPad,CuDef*%
%ADD11R,1.193800X0.889000*%
%TD*%
%TA.AperFunction,SMDPad,CuDef*%
%ADD12R,2.499995X0.424993*%
%TD*%
%TA.AperFunction,ComponentPad*%
%ADD13C,1.153998*%
%TD*%
%TA.AperFunction,SMDPad,CuDef*%
%ADD14RoundRect,0.150000X-0.587500X-0.150000X0.587500X-0.150000X0.587500X0.150000X-0.587500X0.150000X0*%
%TD*%
%TA.AperFunction,SMDPad,CuDef*%
%ADD15RoundRect,0.150000X0.512500X0.150000X-0.512500X0.150000X-0.512500X-0.150000X0.512500X-0.150000X0*%
%TD*%
%TA.AperFunction,SMDPad,CuDef*%
%ADD16R,5.000000X2.000000*%
%TD*%
%TA.AperFunction,SMDPad,CuDef*%
%ADD17RoundRect,0.135000X0.135000X0.185000X-0.135000X0.185000X-0.135000X-0.185000X0.135000X-0.185000X0*%
%TD*%
%TA.AperFunction,SMDPad,CuDef*%
%ADD18RoundRect,0.140000X0.170000X-0.140000X0.170000X0.140000X-0.170000X0.140000X-0.170000X-0.140000X0*%
%TD*%
%TA.AperFunction,SMDPad,CuDef*%
%ADD19FreePoly0,180.000000*%
%TD*%
%TA.AperFunction,SMDPad,CuDef*%
%ADD20RoundRect,0.050000X0.350000X0.050000X-0.350000X0.050000X-0.350000X-0.050000X0.350000X-0.050000X0*%
%TD*%
%TA.AperFunction,SMDPad,CuDef*%
%ADD21FreePoly1,180.000000*%
%TD*%
%TA.AperFunction,SMDPad,CuDef*%
%ADD22FreePoly2,180.000000*%
%TD*%
%TA.AperFunction,SMDPad,CuDef*%
%ADD23RoundRect,0.050000X0.050000X0.350000X-0.050000X0.350000X-0.050000X-0.350000X0.050000X-0.350000X0*%
%TD*%
%TA.AperFunction,SMDPad,CuDef*%
%ADD24FreePoly3,180.000000*%
%TD*%
%TA.AperFunction,SMDPad,CuDef*%
%ADD25FreePoly4,180.000000*%
%TD*%
%TA.AperFunction,SMDPad,CuDef*%
%ADD26FreePoly5,180.000000*%
%TD*%
%TA.AperFunction,SMDPad,CuDef*%
%ADD27FreePoly6,180.000000*%
%TD*%
%TA.AperFunction,SMDPad,CuDef*%
%ADD28FreePoly7,180.000000*%
%TD*%
%TA.AperFunction,HeatsinkPad*%
%ADD29R,1.700000X1.700000*%
%TD*%
%TA.AperFunction,SMDPad,CuDef*%
%ADD30RoundRect,0.135000X-0.185000X0.135000X-0.185000X-0.135000X0.185000X-0.135000X0.185000X0.135000X0*%
%TD*%
%TA.AperFunction,ViaPad*%
%ADD31C,0.600000*%
%TD*%
%TA.AperFunction,Conductor*%
%ADD32C,0.200000*%
%TD*%
%TA.AperFunction,Conductor*%
%ADD33C,0.300000*%
%TD*%
G04 APERTURE END LIST*
D10*
%TO.P,R2,1*%
%TO.N,Net-(U2-PROG)*%
X133027500Y-85700000D03*
%TO.P,R2,2*%
%TO.N,GND*%
X134172500Y-85700000D03*
%TD*%
D11*
%TO.P,SW1,1,A*%
%TO.N,GND*%
X132890200Y-99100002D03*
X137309800Y-99100002D03*
%TO.P,SW1,2,B*%
%TO.N,Net-(SW1-B)*%
X132890200Y-97499998D03*
D12*
X135100000Y-96418000D03*
D11*
X137309800Y-97499998D03*
D13*
%TO.P,SW1,6*%
%TO.N,N/C*%
X134124900Y-97500400D03*
%TO.P,SW1,7*%
X136074900Y-97500400D03*
%TD*%
D14*
%TO.P,Q1,1,D*%
%TO.N,/LEDK*%
X131975000Y-95950000D03*
%TO.P,Q1,2,G*%
%TO.N,Net-(Q1-G)*%
X130100000Y-96900000D03*
%TO.P,Q1,3,S*%
%TO.N,GND*%
X130100000Y-95000000D03*
%TD*%
D15*
%TO.P,U2,1,~{CHRG}*%
%TO.N,/nCHRG*%
X135275000Y-87000000D03*
%TO.P,U2,2,GND*%
%TO.N,GND*%
X135275000Y-87950000D03*
%TO.P,U2,3,BAT*%
%TO.N,+BATT*%
X135275000Y-88900000D03*
%TO.P,U2,4,V_{CC}*%
%TO.N,+5V*%
X133000000Y-88900000D03*
%TO.P,U2,5,PROG*%
%TO.N,Net-(U2-PROG)*%
X133000000Y-87000000D03*
%TD*%
D16*
%TO.P,TP3,1,1*%
%TO.N,GND*%
X147400000Y-95000000D03*
%TD*%
%TO.P,TP2,1,1*%
%TO.N,/UPDI*%
X147400000Y-92500000D03*
%TD*%
D17*
%TO.P,R3,1*%
%TO.N,Net-(U1-PA6)*%
X136010000Y-95200000D03*
%TO.P,R3,2*%
%TO.N,Net-(Q1-G)*%
X134990000Y-95200000D03*
%TD*%
D18*
%TO.P,C1,1*%
%TO.N,+BATT*%
X139200000Y-92560000D03*
%TO.P,C1,2*%
%TO.N,GND*%
X139200000Y-91600000D03*
%TD*%
D16*
%TO.P,TP1,1,1*%
%TO.N,+5V*%
X147400000Y-90000000D03*
%TD*%
D19*
%TO.P,U1,1,PA2*%
%TO.N,unconnected-(U1-PA2-Pad1)*%
X137700000Y-91200000D03*
D20*
%TO.P,U1,2,PA3*%
%TO.N,unconnected-(U1-PA3-Pad2)*%
X137700000Y-91600000D03*
%TO.P,U1,3,GND*%
%TO.N,GND*%
X137700000Y-92000000D03*
%TO.P,U1,4,VCC*%
%TO.N,+BATT*%
X137700000Y-92400000D03*
D21*
%TO.P,U1,5,PA4*%
%TO.N,unconnected-(U1-PA4-Pad5)*%
X137700000Y-92800000D03*
D22*
%TO.P,U1,6,PA5*%
%TO.N,Net-(SW1-B)*%
X137050000Y-93450000D03*
D23*
%TO.P,U1,7,PA6*%
%TO.N,Net-(U1-PA6)*%
X136650000Y-93450000D03*
%TO.P,U1,8,PA7*%
%TO.N,unconnected-(U1-PA7-Pad8)*%
X136250000Y-93450000D03*
%TO.P,U1,9,PB5*%
%TO.N,unconnected-(U1-PB5-Pad9)*%
X135850000Y-93450000D03*
D24*
%TO.P,U1,10,PB4*%
%TO.N,unconnected-(U1-PB4-Pad10)*%
X135450000Y-93450000D03*
D25*
%TO.P,U1,11,PB3*%
%TO.N,unconnected-(U1-PB3-Pad11)*%
X134800000Y-92800000D03*
D20*
%TO.P,U1,12,PB2*%
%TO.N,unconnected-(U1-PB2-Pad12)*%
X134800000Y-92400000D03*
%TO.P,U1,13,PB1*%
%TO.N,unconnected-(U1-PB1-Pad13)*%
X134800000Y-92000000D03*
%TO.P,U1,14,PB0*%
%TO.N,unconnected-(U1-PB0-Pad14)*%
X134800000Y-91600000D03*
D26*
%TO.P,U1,15,PC0*%
%TO.N,unconnected-(U1-PC0-Pad15)*%
X134800000Y-91200000D03*
D27*
%TO.P,U1,16,PC1*%
%TO.N,Net-(D1-K)*%
X135450000Y-90550000D03*
D23*
%TO.P,U1,17,PC2*%
%TO.N,/nCHRG*%
X135850000Y-90550000D03*
%TO.P,U1,18,PC3*%
%TO.N,unconnected-(U1-PC3-Pad18)*%
X136250000Y-90550000D03*
%TO.P,U1,19,~{RESET}/PA0*%
%TO.N,/UPDI*%
X136650000Y-90550000D03*
D28*
%TO.P,U1,20,PA1*%
%TO.N,unconnected-(U1-PA1-Pad20)*%
X137050000Y-90550000D03*
D29*
%TO.P,U1,21,GND*%
%TO.N,GND*%
X136250000Y-92000000D03*
%TD*%
D30*
%TO.P,R1,1*%
%TO.N,+BATT*%
X131300000Y-87080000D03*
%TO.P,R1,2*%
%TO.N,Net-(D1-A)*%
X131300000Y-88100000D03*
%TD*%
D31*
%TO.N,GND*%
X129700000Y-95850000D03*
X130500000Y-95850000D03*
X134700000Y-99200000D03*
X135500000Y-99200000D03*
X142650000Y-97350000D03*
X143450000Y-97350000D03*
X143350000Y-93750000D03*
X144150000Y-93750000D03*
X151700000Y-93950000D03*
X151700000Y-93150000D03*
X150400000Y-94450000D03*
X151200000Y-94450000D03*
X139000000Y-89250000D03*
%TO.N,+BATT*%
X131600000Y-86400000D03*
X140000000Y-90049943D03*
X138050000Y-87150000D03*
%TO.N,GND*%
X135200000Y-85800000D03*
X136200000Y-85800000D03*
X147800000Y-96600000D03*
X138100000Y-94400000D03*
X138100000Y-93600000D03*
X138700000Y-90200000D03*
X132400000Y-94800000D03*
X137000000Y-86500000D03*
X146200000Y-96600000D03*
X147000000Y-96600000D03*
X148600000Y-96600000D03*
X131400000Y-94800000D03*
%TO.N,Net-(D1-A)*%
X130200000Y-88200000D03*
%TO.N,Net-(D1-K)*%
X132100000Y-89600000D03*
%TO.N,/LEDK*%
X134886486Y-93360000D03*
%TO.N,+5V*%
X138500000Y-87900000D03*
X133500000Y-87900000D03*
%TD*%
D32*
%TO.N,+BATT*%
X139380000Y-92380000D02*
X139200000Y-92560000D01*
X139580000Y-92380000D02*
X139380000Y-92380000D01*
X140000000Y-91960000D02*
X139580000Y-92380000D01*
X140000000Y-90049943D02*
X140000000Y-91960000D01*
X139040000Y-92560000D02*
X138880000Y-92400000D01*
D33*
X138050000Y-87150000D02*
X136300000Y-88900000D01*
D32*
X131300000Y-86700000D02*
X131600000Y-86400000D01*
X138880000Y-92400000D02*
X137700000Y-92400000D01*
X131300000Y-87080000D02*
X131300000Y-86700000D01*
D33*
X136300000Y-88900000D02*
X135275000Y-88900000D01*
D32*
X139200000Y-92560000D02*
X139040000Y-92560000D01*
%TO.N,Net-(D1-A)*%
X131200000Y-88200000D02*
X131300000Y-88100000D01*
X130200000Y-88200000D02*
X131200000Y-88200000D01*
%TO.N,Net-(D1-K)*%
X135100000Y-90500000D02*
X135400000Y-90500000D01*
X134300000Y-89700000D02*
X135100000Y-90500000D01*
X132100000Y-89600000D02*
X132200000Y-89700000D01*
X135400000Y-90500000D02*
X135450000Y-90550000D01*
X132200000Y-89700000D02*
X134300000Y-89700000D01*
D33*
%TO.N,/LEDK*%
X133150000Y-95950000D02*
X131975000Y-95950000D01*
X134886486Y-93360000D02*
X134886486Y-94213514D01*
X134886486Y-94213514D02*
X133150000Y-95950000D01*
D32*
%TO.N,Net-(Q1-G)*%
X131700000Y-96600000D02*
X133100000Y-96600000D01*
X134500000Y-95200000D02*
X134990000Y-95200000D01*
X133100000Y-96600000D02*
X134500000Y-95200000D01*
X130100000Y-96900000D02*
X131400000Y-96900000D01*
X131400000Y-96900000D02*
X131700000Y-96600000D01*
%TO.N,Net-(U2-PROG)*%
X133027500Y-86972500D02*
X133000000Y-87000000D01*
X133027500Y-85700000D02*
X133027500Y-86972500D01*
%TO.N,Net-(U1-PA6)*%
X136000000Y-94700000D02*
X136650000Y-94050000D01*
X136000000Y-95190000D02*
X136000000Y-94700000D01*
X136010000Y-95200000D02*
X136000000Y-95190000D01*
X136650000Y-94050000D02*
X136650000Y-93450000D01*
%TO.N,Net-(SW1-B)*%
X135100000Y-96418000D02*
X136137501Y-96418000D01*
X135100000Y-96418000D02*
X136227802Y-96418000D01*
X132890200Y-97499998D02*
X133972198Y-96418000D01*
X136227802Y-96418000D02*
X137309800Y-97499998D01*
X136137501Y-96418000D02*
X137050000Y-95505501D01*
X133972198Y-96418000D02*
X135100000Y-96418000D01*
X137050000Y-95505501D02*
X137050000Y-93450000D01*
%TO.N,+5V*%
X133000000Y-88900000D02*
X133000000Y-88400000D01*
D33*
X138500000Y-87900000D02*
X143800000Y-87900000D01*
D32*
X133000000Y-88400000D02*
X133500000Y-87900000D01*
D33*
X143800000Y-87900000D02*
X145900000Y-90000000D01*
X145900000Y-90000000D02*
X147400000Y-90000000D01*
D32*
%TO.N,/UPDI*%
X136650000Y-90105359D02*
X138255359Y-88500000D01*
X138255359Y-88500000D02*
X141800000Y-88500000D01*
X145800000Y-92500000D02*
X147400000Y-92500000D01*
X141800000Y-88500000D02*
X145800000Y-92500000D01*
X136650000Y-90550000D02*
X136650000Y-90105359D01*
%TO.N,/nCHRG*%
X135850000Y-90110718D02*
X135539282Y-89800000D01*
X134100000Y-89000000D02*
X134100000Y-87700000D01*
X134900000Y-89800000D02*
X134100000Y-89000000D01*
X135539282Y-89800000D02*
X134900000Y-89800000D01*
X134100000Y-87700000D02*
X134800000Y-87000000D01*
X135850000Y-90550000D02*
X135850000Y-90110718D01*
X134800000Y-87000000D02*
X135275000Y-87000000D01*
%TD*%
%TA.AperFunction,Conductor*%
%TO.N,GND*%
G36*
X152004828Y-85100975D02*
G01*
X152014501Y-85101925D01*
X152029168Y-85103367D01*
X152048154Y-85107136D01*
X152066911Y-85112815D01*
X152084818Y-85120220D01*
X152087427Y-85121612D01*
X152087865Y-85121846D01*
X152114365Y-85142438D01*
X157506481Y-91049036D01*
X157521589Y-91070863D01*
X157646777Y-91316733D01*
X157650986Y-91326195D01*
X157755901Y-91599689D01*
X157759100Y-91609539D01*
X157834874Y-91892513D01*
X157837026Y-91902643D01*
X157882826Y-92191991D01*
X157883907Y-92202291D01*
X157899228Y-92494822D01*
X157899228Y-92505178D01*
X157883907Y-92797708D01*
X157882826Y-92808008D01*
X157837026Y-93097356D01*
X157834874Y-93107486D01*
X157759100Y-93390460D01*
X157755901Y-93400310D01*
X157650986Y-93673804D01*
X157646777Y-93683266D01*
X157521592Y-93929130D01*
X157506484Y-93950957D01*
X152114363Y-99857560D01*
X152087841Y-99878164D01*
X152084802Y-99879785D01*
X152066902Y-99887185D01*
X152048172Y-99892857D01*
X152029167Y-99896631D01*
X152004821Y-99899025D01*
X151995133Y-99899500D01*
X132082637Y-99899500D01*
X132024446Y-99880593D01*
X132012633Y-99870504D01*
X129711632Y-97569504D01*
X129683855Y-97514987D01*
X129693426Y-97454555D01*
X129736691Y-97411290D01*
X129781636Y-97400500D01*
X130720757Y-97400500D01*
X130720760Y-97400500D01*
X130788893Y-97390573D01*
X130893983Y-97339198D01*
X130976698Y-97256483D01*
X130976923Y-97256021D01*
X130977319Y-97255612D01*
X130981465Y-97249806D01*
X130982335Y-97250427D01*
X131019465Y-97212047D01*
X131065865Y-97200500D01*
X131439563Y-97200500D01*
X131439563Y-97200499D01*
X131515989Y-97180021D01*
X131584511Y-97140460D01*
X131640460Y-97084511D01*
X131795475Y-96929496D01*
X131802592Y-96925869D01*
X131807288Y-96919407D01*
X131829336Y-96912243D01*
X131849992Y-96901719D01*
X131865479Y-96900500D01*
X131999071Y-96900500D01*
X132057262Y-96919407D01*
X132093226Y-96968907D01*
X132096168Y-97018816D01*
X132092800Y-97035741D01*
X132092800Y-97964244D01*
X132092801Y-97964256D01*
X132099122Y-97996030D01*
X132104433Y-98022729D01*
X132148748Y-98089050D01*
X132215069Y-98133365D01*
X132259531Y-98142209D01*
X132273541Y-98144996D01*
X132273546Y-98144996D01*
X132273552Y-98144998D01*
X132273553Y-98144998D01*
X133506847Y-98144998D01*
X133506848Y-98144998D01*
X133565331Y-98133365D01*
X133565337Y-98133360D01*
X133574340Y-98129633D01*
X133574968Y-98131149D01*
X133622910Y-98117623D01*
X133674032Y-98134230D01*
X133756616Y-98189411D01*
X133756618Y-98189412D01*
X133756620Y-98189413D01*
X133808887Y-98211062D01*
X133898112Y-98248020D01*
X134048323Y-98277899D01*
X134048324Y-98277899D01*
X134201476Y-98277899D01*
X134201477Y-98277899D01*
X134351688Y-98248020D01*
X134493184Y-98189411D01*
X134620527Y-98104323D01*
X134728823Y-97996027D01*
X134813911Y-97868684D01*
X134872520Y-97727188D01*
X134902399Y-97576977D01*
X134902399Y-97423823D01*
X134872520Y-97273612D01*
X134813911Y-97132116D01*
X134813910Y-97132114D01*
X134813907Y-97132109D01*
X134779550Y-97080692D01*
X134728823Y-97004773D01*
X134724051Y-97000001D01*
X134696274Y-96945484D01*
X134705845Y-96885052D01*
X134749110Y-96841787D01*
X134794055Y-96830997D01*
X135405745Y-96830997D01*
X135463936Y-96849904D01*
X135499900Y-96899404D01*
X135499900Y-96960590D01*
X135475749Y-97000001D01*
X135470980Y-97004769D01*
X135470977Y-97004773D01*
X135385892Y-97132109D01*
X135385886Y-97132120D01*
X135327280Y-97273610D01*
X135327280Y-97273612D01*
X135297401Y-97423820D01*
X135297401Y-97576979D01*
X135327280Y-97727187D01*
X135327280Y-97727189D01*
X135385886Y-97868679D01*
X135385892Y-97868690D01*
X135437081Y-97945298D01*
X135470977Y-97996027D01*
X135579273Y-98104323D01*
X135655192Y-98155050D01*
X135706609Y-98189407D01*
X135706620Y-98189413D01*
X135758887Y-98211062D01*
X135848112Y-98248020D01*
X135998323Y-98277899D01*
X135998324Y-98277899D01*
X136151476Y-98277899D01*
X136151477Y-98277899D01*
X136301688Y-98248020D01*
X136443184Y-98189411D01*
X136443186Y-98189409D01*
X136443191Y-98189407D01*
X136525864Y-98134166D01*
X136584752Y-98117557D01*
X136625213Y-98130704D01*
X136625658Y-98129632D01*
X136634664Y-98133361D01*
X136634669Y-98133365D01*
X136679131Y-98142209D01*
X136693141Y-98144996D01*
X136693146Y-98144996D01*
X136693152Y-98144998D01*
X136693153Y-98144998D01*
X137926447Y-98144998D01*
X137926448Y-98144998D01*
X137984931Y-98133365D01*
X138051252Y-98089050D01*
X138095567Y-98022729D01*
X138107200Y-97964246D01*
X138107200Y-97035750D01*
X138095567Y-96977267D01*
X138051252Y-96910946D01*
X138051248Y-96910943D01*
X137984933Y-96866632D01*
X137984931Y-96866631D01*
X137984928Y-96866630D01*
X137984927Y-96866630D01*
X137926458Y-96854999D01*
X137926448Y-96854998D01*
X137926447Y-96854998D01*
X137130779Y-96854998D01*
X137072588Y-96836091D01*
X137060775Y-96826002D01*
X136677626Y-96442853D01*
X136649849Y-96388336D01*
X136659420Y-96327904D01*
X136677626Y-96302845D01*
X136847215Y-96133256D01*
X137290460Y-95690012D01*
X137330021Y-95621490D01*
X137350500Y-95545063D01*
X137350500Y-93860025D01*
X137352402Y-93840711D01*
X137360500Y-93800000D01*
X137360500Y-93209500D01*
X137379407Y-93151309D01*
X137428907Y-93115345D01*
X137459500Y-93110500D01*
X138049998Y-93110500D01*
X138050000Y-93110500D01*
X138128641Y-93094858D01*
X138167532Y-93078749D01*
X138225826Y-93042120D01*
X138278749Y-92967532D01*
X138294858Y-92928641D01*
X138310500Y-92850000D01*
X138310500Y-92799500D01*
X138315345Y-92784588D01*
X138315345Y-92768907D01*
X138324561Y-92756221D01*
X138329407Y-92741309D01*
X138342092Y-92732092D01*
X138351309Y-92719407D01*
X138366221Y-92714561D01*
X138378907Y-92705345D01*
X138409500Y-92700500D01*
X138597492Y-92700500D01*
X138655683Y-92719407D01*
X138691647Y-92768907D01*
X138695646Y-92786582D01*
X138696028Y-92789490D01*
X138746774Y-92898313D01*
X138746775Y-92898314D01*
X138746776Y-92898316D01*
X138831684Y-92983224D01*
X138940513Y-93033972D01*
X138990099Y-93040500D01*
X139409900Y-93040499D01*
X139459487Y-93033972D01*
X139459488Y-93033972D01*
X139518137Y-93006622D01*
X139568316Y-92983224D01*
X139653224Y-92898316D01*
X139703972Y-92789487D01*
X139710500Y-92739901D01*
X139710499Y-92708802D01*
X139729405Y-92650613D01*
X139760003Y-92623062D01*
X139764511Y-92620460D01*
X139792486Y-92592484D01*
X139820461Y-92564511D01*
X140132714Y-92252257D01*
X140240460Y-92144511D01*
X140240463Y-92144506D01*
X140280020Y-92075992D01*
X140280020Y-92075990D01*
X140280022Y-92075988D01*
X140300500Y-91999562D01*
X140300500Y-91920438D01*
X140300500Y-90498264D01*
X140319407Y-90440073D01*
X140329490Y-90428266D01*
X140400500Y-90357257D01*
X140404834Y-90349750D01*
X140466390Y-90243133D01*
X140466390Y-90243131D01*
X140466392Y-90243129D01*
X140500500Y-90115835D01*
X140500500Y-89984051D01*
X140466392Y-89856757D01*
X140466390Y-89856754D01*
X140466390Y-89856752D01*
X140400503Y-89742633D01*
X140400501Y-89742631D01*
X140400500Y-89742629D01*
X140307314Y-89649443D01*
X140307311Y-89649441D01*
X140307309Y-89649439D01*
X140193189Y-89583552D01*
X140193191Y-89583552D01*
X140140761Y-89569504D01*
X140065892Y-89549443D01*
X139934108Y-89549443D01*
X139859239Y-89569504D01*
X139806809Y-89583552D01*
X139692690Y-89649439D01*
X139599496Y-89742633D01*
X139533609Y-89856752D01*
X139514999Y-89926207D01*
X139499500Y-89984051D01*
X139499500Y-90115835D01*
X139500981Y-90121362D01*
X139533609Y-90243133D01*
X139599496Y-90357252D01*
X139599498Y-90357254D01*
X139599500Y-90357257D01*
X139670505Y-90428262D01*
X139698281Y-90482777D01*
X139699500Y-90498264D01*
X139699500Y-91794521D01*
X139680593Y-91852712D01*
X139670504Y-91864525D01*
X139484525Y-92050504D01*
X139430008Y-92078281D01*
X139414521Y-92079500D01*
X138990104Y-92079500D01*
X138990092Y-92079501D01*
X138940513Y-92086027D01*
X138940511Y-92086027D01*
X138931513Y-92090224D01*
X138889674Y-92099500D01*
X138074674Y-92099500D01*
X137325326Y-92099500D01*
X137325325Y-92099500D01*
X137325315Y-92099501D01*
X137252263Y-92114033D01*
X137252257Y-92114035D01*
X137169400Y-92169397D01*
X137169397Y-92169400D01*
X137114035Y-92252257D01*
X137114033Y-92252263D01*
X137099501Y-92325315D01*
X137099500Y-92325327D01*
X137099500Y-92474672D01*
X137099501Y-92474684D01*
X137114033Y-92547736D01*
X137114034Y-92547740D01*
X137114035Y-92547741D01*
X137117767Y-92556752D01*
X137116811Y-92557147D01*
X137120673Y-92561865D01*
X137120510Y-92577425D01*
X137127363Y-92601724D01*
X137124201Y-92622948D01*
X137121970Y-92631454D01*
X137121251Y-92632468D01*
X137105142Y-92671359D01*
X137089500Y-92750000D01*
X137089500Y-92755264D01*
X137086677Y-92766029D01*
X137074183Y-92785493D01*
X137064913Y-92806682D01*
X137057971Y-92810749D01*
X137053626Y-92817520D01*
X137032077Y-92825923D01*
X137012124Y-92837616D01*
X137000626Y-92839438D01*
X137000002Y-92839499D01*
X136921362Y-92855141D01*
X136921353Y-92855144D01*
X136885718Y-92869904D01*
X136824721Y-92874703D01*
X136807075Y-92866986D01*
X136806752Y-92867767D01*
X136797742Y-92864035D01*
X136797740Y-92864034D01*
X136797736Y-92864033D01*
X136724684Y-92849501D01*
X136724674Y-92849500D01*
X136575326Y-92849500D01*
X136575325Y-92849500D01*
X136575315Y-92849501D01*
X136502263Y-92864033D01*
X136502261Y-92864033D01*
X136502260Y-92864034D01*
X136502259Y-92864034D01*
X136493251Y-92867766D01*
X136492416Y-92865751D01*
X136446112Y-92878811D01*
X136407386Y-92866227D01*
X136406749Y-92867766D01*
X136397742Y-92864035D01*
X136397740Y-92864034D01*
X136397736Y-92864033D01*
X136324684Y-92849501D01*
X136324674Y-92849500D01*
X136175326Y-92849500D01*
X136175325Y-92849500D01*
X136175315Y-92849501D01*
X136102263Y-92864033D01*
X136102261Y-92864033D01*
X136102260Y-92864034D01*
X136102259Y-92864034D01*
X136093251Y-92867766D01*
X136092416Y-92865751D01*
X136046112Y-92878811D01*
X136007386Y-92866227D01*
X136006749Y-92867766D01*
X135997742Y-92864035D01*
X135997740Y-92864034D01*
X135997736Y-92864033D01*
X135924684Y-92849501D01*
X135924674Y-92849500D01*
X135775326Y-92849500D01*
X135775325Y-92849500D01*
X135775315Y-92849501D01*
X135702263Y-92864033D01*
X135702261Y-92864033D01*
X135702260Y-92864034D01*
X135702259Y-92864034D01*
X135693251Y-92867766D01*
X135692854Y-92866809D01*
X135688136Y-92870673D01*
X135672569Y-92870510D01*
X135648261Y-92877362D01*
X135627052Y-92874201D01*
X135618545Y-92871970D01*
X135617532Y-92871251D01*
X135578641Y-92855142D01*
X135500000Y-92839500D01*
X135494734Y-92839500D01*
X135483970Y-92836677D01*
X135464505Y-92824182D01*
X135443319Y-92814914D01*
X135439251Y-92807972D01*
X135432479Y-92803626D01*
X135424076Y-92782078D01*
X135412383Y-92762126D01*
X135410560Y-92750609D01*
X135410500Y-92750000D01*
X135400654Y-92700500D01*
X135394858Y-92671359D01*
X135380094Y-92635716D01*
X135375294Y-92574724D01*
X135383017Y-92557073D01*
X135382234Y-92556749D01*
X135385961Y-92547746D01*
X135385966Y-92547740D01*
X135400500Y-92474674D01*
X135400500Y-92325326D01*
X135385966Y-92252260D01*
X135385962Y-92252255D01*
X135382233Y-92243248D01*
X135384248Y-92242413D01*
X135371189Y-92196120D01*
X135383773Y-92157389D01*
X135382233Y-92156752D01*
X135385961Y-92147746D01*
X135385966Y-92147740D01*
X135400500Y-92074674D01*
X135400500Y-91925326D01*
X135385966Y-91852260D01*
X135385962Y-91852255D01*
X135382233Y-91843248D01*
X135384248Y-91842413D01*
X135371189Y-91796120D01*
X135383773Y-91757389D01*
X135382233Y-91756752D01*
X135385961Y-91747746D01*
X135385966Y-91747740D01*
X135400500Y-91674674D01*
X135400500Y-91525326D01*
X135385966Y-91452260D01*
X135385962Y-91452255D01*
X135382233Y-91443248D01*
X135383187Y-91442852D01*
X135379324Y-91438133D01*
X135379486Y-91422572D01*
X135372635Y-91398288D01*
X135375798Y-91377049D01*
X135378027Y-91368549D01*
X135378749Y-91367532D01*
X135394858Y-91328641D01*
X135410500Y-91250000D01*
X135410500Y-91244732D01*
X135413323Y-91233969D01*
X135425811Y-91214513D01*
X135435073Y-91193332D01*
X135442022Y-91189257D01*
X135446374Y-91182478D01*
X135467913Y-91174078D01*
X135487856Y-91162387D01*
X135499392Y-91160560D01*
X135499998Y-91160500D01*
X135500000Y-91160500D01*
X135578641Y-91144858D01*
X135614280Y-91130095D01*
X135675277Y-91125295D01*
X135692924Y-91133014D01*
X135693248Y-91132233D01*
X135702255Y-91135962D01*
X135702260Y-91135966D01*
X135757808Y-91147015D01*
X135775315Y-91150498D01*
X135775320Y-91150498D01*
X135775326Y-91150500D01*
X135775327Y-91150500D01*
X135924673Y-91150500D01*
X135924674Y-91150500D01*
X135997740Y-91135966D01*
X135997746Y-91135961D01*
X136006752Y-91132233D01*
X136007586Y-91134248D01*
X136053880Y-91121189D01*
X136092610Y-91133773D01*
X136093248Y-91132233D01*
X136102255Y-91135962D01*
X136102260Y-91135966D01*
X136157808Y-91147015D01*
X136175315Y-91150498D01*
X136175320Y-91150498D01*
X136175326Y-91150500D01*
X136175327Y-91150500D01*
X136324673Y-91150500D01*
X136324674Y-91150500D01*
X136397740Y-91135966D01*
X136397746Y-91135961D01*
X136406752Y-91132233D01*
X136407586Y-91134248D01*
X136453880Y-91121189D01*
X136492610Y-91133773D01*
X136493248Y-91132233D01*
X136502255Y-91135962D01*
X136502260Y-91135966D01*
X136557808Y-91147015D01*
X136575315Y-91150498D01*
X136575320Y-91150498D01*
X136575326Y-91150500D01*
X136575327Y-91150500D01*
X136724673Y-91150500D01*
X136724674Y-91150500D01*
X136797740Y-91135966D01*
X136797746Y-91135961D01*
X136806749Y-91132234D01*
X136807144Y-91133189D01*
X136811865Y-91129326D01*
X136827424Y-91129488D01*
X136851710Y-91122636D01*
X136872948Y-91125798D01*
X136881452Y-91128028D01*
X136882468Y-91128749D01*
X136921359Y-91144858D01*
X137000000Y-91160500D01*
X137005269Y-91160500D01*
X137016029Y-91163322D01*
X137035487Y-91175811D01*
X137056668Y-91185074D01*
X137060741Y-91192021D01*
X137067520Y-91196373D01*
X137075919Y-91217910D01*
X137087613Y-91237857D01*
X137089438Y-91249374D01*
X137089499Y-91249997D01*
X137105141Y-91328637D01*
X137105144Y-91328647D01*
X137119904Y-91364280D01*
X137124705Y-91425277D01*
X137116985Y-91442927D01*
X137117766Y-91443251D01*
X137114033Y-91452263D01*
X137099501Y-91525315D01*
X137099500Y-91525327D01*
X137099500Y-91674672D01*
X137099501Y-91674684D01*
X137114033Y-91747736D01*
X137114035Y-91747742D01*
X137169397Y-91830599D01*
X137169400Y-91830602D01*
X137252257Y-91885964D01*
X137252260Y-91885966D01*
X137307808Y-91897015D01*
X137325315Y-91900498D01*
X137325320Y-91900498D01*
X137325326Y-91900500D01*
X137325327Y-91900500D01*
X138074673Y-91900500D01*
X138074674Y-91900500D01*
X138147740Y-91885966D01*
X138230601Y-91830601D01*
X138285966Y-91747740D01*
X138300500Y-91674674D01*
X138300500Y-91525326D01*
X138285966Y-91452260D01*
X138285962Y-91452255D01*
X138282233Y-91443248D01*
X138284996Y-91442103D01*
X138272635Y-91398288D01*
X138280094Y-91364284D01*
X138294858Y-91328641D01*
X138310500Y-91250000D01*
X138310500Y-91150000D01*
X138294858Y-91071359D01*
X138278749Y-91032468D01*
X138242120Y-90974174D01*
X138167531Y-90921250D01*
X138148086Y-90913196D01*
X138128641Y-90905142D01*
X138128638Y-90905141D01*
X138128637Y-90905141D01*
X138050002Y-90889500D01*
X138050000Y-90889500D01*
X137459500Y-90889500D01*
X137401309Y-90870593D01*
X137365345Y-90821093D01*
X137360500Y-90790500D01*
X137360500Y-90200002D01*
X137360499Y-90199997D01*
X137351933Y-90156929D01*
X137344858Y-90121359D01*
X137328749Y-90082468D01*
X137292120Y-90024174D01*
X137286932Y-90015917D01*
X137287930Y-90015289D01*
X137265938Y-89968955D01*
X137277203Y-89908815D01*
X137294108Y-89886220D01*
X138350834Y-88829496D01*
X138405351Y-88801719D01*
X138420838Y-88800500D01*
X141634521Y-88800500D01*
X141692712Y-88819407D01*
X141704525Y-88829496D01*
X144670504Y-91795475D01*
X144698281Y-91849992D01*
X144699500Y-91865479D01*
X144699500Y-93519746D01*
X144699501Y-93519758D01*
X144711132Y-93578227D01*
X144711134Y-93578233D01*
X144741217Y-93623254D01*
X144755448Y-93644552D01*
X144821769Y-93688867D01*
X144866231Y-93697711D01*
X144880241Y-93700498D01*
X144880246Y-93700498D01*
X144880252Y-93700500D01*
X144880253Y-93700500D01*
X149919747Y-93700500D01*
X149919748Y-93700500D01*
X149978231Y-93688867D01*
X150044552Y-93644552D01*
X150088867Y-93578231D01*
X150100500Y-93519748D01*
X150100500Y-92362324D01*
X152899500Y-92362324D01*
X152899500Y-92637675D01*
X152933600Y-92896690D01*
X152935440Y-92910666D01*
X152970229Y-93040500D01*
X153006704Y-93176631D01*
X153112074Y-93431016D01*
X153112077Y-93431021D01*
X153244245Y-93659943D01*
X153249753Y-93669482D01*
X153361515Y-93815134D01*
X153417372Y-93887928D01*
X153612072Y-94082628D01*
X153830521Y-94250249D01*
X154068979Y-94387923D01*
X154068980Y-94387923D01*
X154068983Y-94387925D01*
X154265932Y-94469504D01*
X154323368Y-94493295D01*
X154589334Y-94564560D01*
X154862326Y-94600500D01*
X154862327Y-94600500D01*
X155137673Y-94600500D01*
X155137674Y-94600500D01*
X155410666Y-94564560D01*
X155676632Y-94493295D01*
X155931021Y-94387923D01*
X156169479Y-94250249D01*
X156387928Y-94082628D01*
X156582628Y-93887928D01*
X156750249Y-93669479D01*
X156887923Y-93431021D01*
X156993295Y-93176632D01*
X157064560Y-92910666D01*
X157100500Y-92637674D01*
X157100500Y-92362326D01*
X157064560Y-92089334D01*
X156993295Y-91823368D01*
X156966046Y-91757583D01*
X156887925Y-91568983D01*
X156862720Y-91525326D01*
X156750249Y-91330521D01*
X156582628Y-91112072D01*
X156387928Y-90917372D01*
X156262454Y-90821093D01*
X156169482Y-90749753D01*
X156153386Y-90740460D01*
X155974185Y-90636998D01*
X155931016Y-90612074D01*
X155676631Y-90506704D01*
X155555521Y-90474253D01*
X155410666Y-90435440D01*
X155410659Y-90435439D01*
X155137675Y-90399500D01*
X155137674Y-90399500D01*
X154862326Y-90399500D01*
X154862324Y-90399500D01*
X154589340Y-90435439D01*
X154589338Y-90435439D01*
X154589334Y-90435440D01*
X154518660Y-90454377D01*
X154323368Y-90506704D01*
X154068983Y-90612074D01*
X153830517Y-90749753D01*
X153612075Y-90917369D01*
X153417369Y-91112075D01*
X153249753Y-91330517D01*
X153112074Y-91568983D01*
X153006704Y-91823368D01*
X152979385Y-91925327D01*
X152935440Y-92089334D01*
X152935439Y-92089338D01*
X152935439Y-92089340D01*
X152899500Y-92362324D01*
X150100500Y-92362324D01*
X150100500Y-91480252D01*
X150088867Y-91421769D01*
X150044552Y-91355448D01*
X150009930Y-91332314D01*
X149972052Y-91284265D01*
X149969650Y-91223127D01*
X150003643Y-91172254D01*
X150009924Y-91167689D01*
X150044552Y-91144552D01*
X150088867Y-91078231D01*
X150100500Y-91019748D01*
X150100500Y-88980252D01*
X150088867Y-88921769D01*
X150044552Y-88855448D01*
X149990614Y-88819407D01*
X149978233Y-88811134D01*
X149978231Y-88811133D01*
X149978228Y-88811132D01*
X149978227Y-88811132D01*
X149919758Y-88799501D01*
X149919748Y-88799500D01*
X149919747Y-88799500D01*
X145236190Y-88799500D01*
X145177999Y-88780593D01*
X145166186Y-88770504D01*
X144602996Y-88207314D01*
X144015212Y-87619530D01*
X143935288Y-87573386D01*
X143846144Y-87549500D01*
X143846142Y-87549500D01*
X138898321Y-87549500D01*
X138840130Y-87530593D01*
X138828323Y-87520509D01*
X138807314Y-87499500D01*
X138807311Y-87499498D01*
X138807309Y-87499496D01*
X138693189Y-87433609D01*
X138693191Y-87433609D01*
X138660054Y-87424730D01*
X138601253Y-87408974D01*
X138549941Y-87375652D01*
X138528014Y-87318531D01*
X138531251Y-87287728D01*
X138550500Y-87215892D01*
X138550500Y-87084108D01*
X138516392Y-86956814D01*
X138516390Y-86956811D01*
X138516390Y-86956809D01*
X138450503Y-86842690D01*
X138450501Y-86842688D01*
X138450500Y-86842686D01*
X138357314Y-86749500D01*
X138357311Y-86749498D01*
X138357309Y-86749496D01*
X138243189Y-86683609D01*
X138243191Y-86683609D01*
X138193799Y-86670375D01*
X138115892Y-86649500D01*
X137984108Y-86649500D01*
X137906200Y-86670375D01*
X137856809Y-86683609D01*
X137742690Y-86749496D01*
X137649496Y-86842690D01*
X137583609Y-86956809D01*
X137549500Y-87084109D01*
X137549500Y-87113810D01*
X137530593Y-87172001D01*
X137520504Y-87183814D01*
X136188753Y-88515565D01*
X136134236Y-88543342D01*
X136073804Y-88533771D01*
X136048748Y-88515567D01*
X135993983Y-88460802D01*
X135990538Y-88459118D01*
X135888895Y-88409427D01*
X135861639Y-88405456D01*
X135820760Y-88399500D01*
X134729240Y-88399500D01*
X134695173Y-88404463D01*
X134661104Y-88409427D01*
X134548647Y-88464405D01*
X134547936Y-88462952D01*
X134498680Y-88478507D01*
X134440648Y-88459118D01*
X134405095Y-88409321D01*
X134400500Y-88379510D01*
X134400500Y-87865477D01*
X134419407Y-87807286D01*
X134429484Y-87795486D01*
X134695475Y-87529494D01*
X134749990Y-87501719D01*
X134765477Y-87500500D01*
X135820757Y-87500500D01*
X135820760Y-87500500D01*
X135888893Y-87490573D01*
X135993983Y-87439198D01*
X136076698Y-87356483D01*
X136128073Y-87251393D01*
X136138000Y-87183260D01*
X136138000Y-86816740D01*
X136128073Y-86748607D01*
X136120575Y-86733270D01*
X136087656Y-86665932D01*
X136076698Y-86643517D01*
X135993983Y-86560802D01*
X135983782Y-86555815D01*
X135888895Y-86509427D01*
X135861639Y-86505456D01*
X135820760Y-86499500D01*
X134729240Y-86499500D01*
X134695173Y-86504463D01*
X134661104Y-86509427D01*
X134556018Y-86560801D01*
X134473301Y-86643518D01*
X134421927Y-86748604D01*
X134412000Y-86816743D01*
X134412000Y-86922021D01*
X134393093Y-86980212D01*
X134383003Y-86992025D01*
X134013802Y-87361225D01*
X133959286Y-87389002D01*
X133898854Y-87379431D01*
X133855589Y-87336166D01*
X133846018Y-87275734D01*
X133851333Y-87258905D01*
X133850803Y-87258742D01*
X133853071Y-87251399D01*
X133853072Y-87251395D01*
X133853073Y-87251393D01*
X133863000Y-87183260D01*
X133863000Y-86816740D01*
X133853073Y-86748607D01*
X133845575Y-86733270D01*
X133812656Y-86665932D01*
X133801698Y-86643517D01*
X133718983Y-86560802D01*
X133708782Y-86555815D01*
X133613895Y-86509427D01*
X133586639Y-86505456D01*
X133545760Y-86499500D01*
X133545757Y-86499500D01*
X133427000Y-86499500D01*
X133412088Y-86494655D01*
X133396407Y-86494655D01*
X133383721Y-86485438D01*
X133368809Y-86480593D01*
X133359592Y-86467907D01*
X133346907Y-86458691D01*
X133342061Y-86443778D01*
X133332845Y-86431093D01*
X133328000Y-86400500D01*
X133328000Y-86284940D01*
X133346907Y-86226749D01*
X133383520Y-86195999D01*
X133462375Y-86157449D01*
X133547449Y-86072375D01*
X133600291Y-85964286D01*
X133610500Y-85894215D01*
X133610499Y-85505786D01*
X133600291Y-85435714D01*
X133547449Y-85327625D01*
X133489325Y-85269501D01*
X133461550Y-85214987D01*
X133471121Y-85154555D01*
X133514386Y-85111290D01*
X133559331Y-85100500D01*
X151973071Y-85100500D01*
X151995144Y-85100500D01*
X152004828Y-85100975D01*
G37*
%TD.AperFunction*%
%TA.AperFunction,Conductor*%
G36*
X134123000Y-94319407D02*
G01*
X134158964Y-94368907D01*
X134158964Y-94430093D01*
X134134813Y-94469504D01*
X133033814Y-95570504D01*
X133026696Y-95574130D01*
X133022001Y-95580593D01*
X132999952Y-95587756D01*
X132979297Y-95598281D01*
X132963810Y-95599500D01*
X132898688Y-95599500D01*
X132840497Y-95580593D01*
X132828690Y-95570509D01*
X132768983Y-95510802D01*
X132764894Y-95508803D01*
X132663895Y-95459427D01*
X132636639Y-95455456D01*
X132595760Y-95449500D01*
X131354240Y-95449500D01*
X131320173Y-95454463D01*
X131286104Y-95459427D01*
X131181018Y-95510801D01*
X131098301Y-95593518D01*
X131046927Y-95698604D01*
X131042165Y-95731290D01*
X131037000Y-95766740D01*
X131037000Y-96133260D01*
X131043618Y-96178682D01*
X131046927Y-96201395D01*
X131098301Y-96306481D01*
X131098302Y-96306483D01*
X131181017Y-96389198D01*
X131226758Y-96411559D01*
X131233089Y-96417684D01*
X131241468Y-96420407D01*
X131254634Y-96438528D01*
X131270732Y-96454103D01*
X131272253Y-96462779D01*
X131277432Y-96469907D01*
X131277432Y-96492306D01*
X131281301Y-96514368D01*
X131277432Y-96522282D01*
X131277432Y-96531093D01*
X131264264Y-96549216D01*
X131254428Y-96569337D01*
X131246646Y-96573465D01*
X131241468Y-96580593D01*
X131220164Y-96587514D01*
X131200378Y-96598012D01*
X131183277Y-96599500D01*
X131065865Y-96599500D01*
X131007674Y-96580593D01*
X130981889Y-96549891D01*
X130981465Y-96550194D01*
X130977615Y-96544802D01*
X130976923Y-96543978D01*
X130976698Y-96543518D01*
X130976698Y-96543517D01*
X130893983Y-96460802D01*
X130872910Y-96450500D01*
X130788895Y-96409427D01*
X130761639Y-96405456D01*
X130720760Y-96399500D01*
X129479240Y-96399500D01*
X129445173Y-96404463D01*
X129411104Y-96409427D01*
X129306018Y-96460801D01*
X129306017Y-96460801D01*
X129306017Y-96460802D01*
X129269501Y-96497317D01*
X129214987Y-96525093D01*
X129154555Y-96515522D01*
X129111290Y-96472257D01*
X129100500Y-96427312D01*
X129100500Y-94399500D01*
X129119407Y-94341309D01*
X129168907Y-94305345D01*
X129199500Y-94300500D01*
X134064809Y-94300500D01*
X134123000Y-94319407D01*
G37*
%TD.AperFunction*%
%TD*%
M02*
