%TF.GenerationSoftware,KiCad,Pcbnew,9.0.5*%
%TF.CreationDate,2026-05-14T15:32:50-04:00*%
%TF.ProjectId,lightwear_bracelet_12x15_bat,6c696768-7477-4656-9172-5f6272616365,rev?*%
%TF.SameCoordinates,Original*%
%TF.FileFunction,Copper,L1,Top*%
%TF.FilePolarity,Positive*%
%FSLAX46Y46*%
G04 Gerber Fmt 4.6, Leading zero omitted, Abs format (unit mm)*
G04 Created by KiCad (PCBNEW 9.0.5) date 2026-05-14 15:32:50*
%MOMM*%
%LPD*%
G01*
G04 APERTURE LIST*
G04 Aperture macros list*
%AMFreePoly0*
4,1,7,0.700000,-0.300000,0.500000,-0.500000,-1.750000,-0.500000,-1.750000,-0.100000,0.300000,1.950000,0.700000,1.950000,0.700000,-0.300000,0.700000,-0.300000,$1*%
G04 Aperture macros list end*
%TA.AperFunction,SMDPad,CuDef*%
%ADD10R,1.500000X0.800000*%
%TD*%
%TA.AperFunction,SMDPad,CuDef*%
%ADD11C,1.500000*%
%TD*%
%TA.AperFunction,SMDPad,CuDef*%
%ADD12R,0.711200X0.990600*%
%TD*%
%TA.AperFunction,SMDPad,CuDef*%
%ADD13R,2.000000X1.200000*%
%TD*%
%TA.AperFunction,SMDPad,CuDef*%
%ADD14FreePoly0,0.000000*%
%TD*%
%TA.AperFunction,SMDPad,CuDef*%
%ADD15FreePoly0,90.000000*%
%TD*%
%TA.AperFunction,ViaPad*%
%ADD16C,0.600000*%
%TD*%
%TA.AperFunction,Conductor*%
%ADD17C,0.300000*%
%TD*%
%TA.AperFunction,Conductor*%
%ADD18C,0.200000*%
%TD*%
G04 APERTURE END LIST*
D10*
%TO.P,TP8,1,1*%
%TO.N,/BTN*%
X147900000Y-91500000D03*
%TD*%
D11*
%TO.P,TP1,1,1*%
%TO.N,Net-(TP1-Pad1)*%
X137943627Y-99987368D03*
%TD*%
D12*
%TO.P,SW1,1,A*%
%TO.N,GND*%
X150274999Y-89899999D03*
X150274999Y-94400001D03*
%TO.P,SW1,2,B*%
%TO.N,/BTN*%
X148125001Y-89899999D03*
X148125001Y-94400001D03*
%TD*%
D13*
%TO.P,TP4,1,1*%
%TO.N,/LEDK*%
X131700000Y-93000000D03*
%TD*%
%TO.P,TP5,1,1*%
%TO.N,+BATT*%
X131700000Y-91300000D03*
%TD*%
D11*
%TO.P,TP3,1,1*%
%TO.N,Net-(TP3-Pad1)*%
X142943627Y-99987368D03*
%TD*%
%TO.P,TP2,1,1*%
%TO.N,Net-(TP2-Pad1)*%
X140443627Y-99987368D03*
%TD*%
D14*
%TO.P,TP7,1,1*%
%TO.N,GND*%
X132750000Y-88650000D03*
%TD*%
D15*
%TO.P,TP6,1,1*%
%TO.N,+BATT*%
X133000000Y-95850000D03*
%TD*%
D10*
%TO.P,TP9,1,1*%
%TO.N,GND*%
X147900000Y-92800000D03*
%TD*%
D16*
%TO.N,GND*%
X143500000Y-89350000D03*
%TO.N,+BATT*%
X143800000Y-92150000D03*
%TO.N,GND*%
X150200000Y-92200000D03*
X134450000Y-87300000D03*
X144850000Y-92200000D03*
X134450000Y-88900000D03*
X150200000Y-93000000D03*
X134450000Y-88100000D03*
X143500000Y-88550000D03*
X142200000Y-95550000D03*
X145650000Y-92200000D03*
X143500000Y-87750000D03*
X142200000Y-94750000D03*
%TO.N,/LEDK*%
X133750000Y-92950000D03*
%TO.N,/BTN*%
X146350000Y-89140000D03*
%TO.N,/UPDI*%
X145750000Y-93150000D03*
X142200000Y-93900000D03*
%TO.N,Net-(TP1-Pad1)*%
X137943627Y-99987368D03*
%TO.N,Net-(TP2-Pad1)*%
X140443627Y-99987368D03*
%TO.N,Net-(TP3-Pad1)*%
X142943627Y-99987368D03*
%TD*%
D17*
%TO.N,+BATT*%
X134650000Y-94250000D02*
X134650000Y-92200000D01*
X133075000Y-95825000D02*
X134650000Y-94250000D01*
X133750000Y-91300000D02*
X131700000Y-91300000D01*
D18*
X143800000Y-92150000D02*
X134600000Y-92150000D01*
D17*
X133025000Y-95825000D02*
X133075000Y-95825000D01*
X134650000Y-92200000D02*
X133750000Y-91300000D01*
%TO.N,/LEDK*%
X131700000Y-93000000D02*
X133700000Y-93000000D01*
X133700000Y-93000000D02*
X133750000Y-92950000D01*
D18*
%TO.N,/BTN*%
X148650000Y-91500000D02*
X147900000Y-91500000D01*
X147900000Y-91500000D02*
X147900000Y-90125000D01*
X148350001Y-89899999D02*
X148125001Y-89899999D01*
X149150000Y-93375002D02*
X149150000Y-92000000D01*
X147109999Y-89899999D02*
X148125001Y-89899999D01*
X149150000Y-92000000D02*
X148650000Y-91500000D01*
X148125001Y-94400001D02*
X149150000Y-93375002D01*
X146350000Y-89140000D02*
X147109999Y-89899999D01*
X147900000Y-90125000D02*
X148125001Y-89899999D01*
%TO.N,/UPDI*%
X145750000Y-93150000D02*
X145000000Y-93900000D01*
X145000000Y-93900000D02*
X142200000Y-93900000D01*
%TD*%
%TA.AperFunction,Conductor*%
%TO.N,GND*%
G36*
X147724049Y-86270185D02*
G01*
X147744691Y-86286819D01*
X150418604Y-88960732D01*
X150452089Y-89022055D01*
X150447105Y-89091747D01*
X150418604Y-89136094D01*
X150399999Y-89154699D01*
X150399999Y-90645299D01*
X150575500Y-90645299D01*
X150642539Y-90664984D01*
X150688294Y-90717788D01*
X150699500Y-90769299D01*
X150699500Y-93530701D01*
X150679815Y-93597740D01*
X150627011Y-93643495D01*
X150575500Y-93654701D01*
X150399999Y-93654701D01*
X150399999Y-95145301D01*
X150418603Y-95163905D01*
X150452088Y-95225228D01*
X150447104Y-95294920D01*
X150418603Y-95339267D01*
X147744691Y-98013181D01*
X147683368Y-98046666D01*
X147657010Y-98049500D01*
X143866511Y-98049500D01*
X143866437Y-98049501D01*
X143840691Y-98049501D01*
X143839318Y-98049868D01*
X143830453Y-98049989D01*
X143830165Y-98049908D01*
X143828772Y-98050000D01*
X143259177Y-98050000D01*
X143192138Y-98030315D01*
X143171496Y-98013682D01*
X143170995Y-98013181D01*
X143107314Y-97949500D01*
X143050250Y-97916554D01*
X142993187Y-97883608D01*
X142929539Y-97866554D01*
X142865892Y-97849500D01*
X142734108Y-97849500D01*
X142606812Y-97883608D01*
X142492686Y-97949500D01*
X142428504Y-98013682D01*
X142401573Y-98028386D01*
X142375758Y-98044977D01*
X142369555Y-98045868D01*
X142367180Y-98047166D01*
X142340823Y-98050000D01*
X142309177Y-98050000D01*
X142242138Y-98030315D01*
X142221496Y-98013682D01*
X142220995Y-98013181D01*
X142157314Y-97949500D01*
X142100250Y-97916554D01*
X142043187Y-97883608D01*
X141979539Y-97866554D01*
X141915892Y-97849500D01*
X141784108Y-97849500D01*
X141656812Y-97883608D01*
X141542686Y-97949500D01*
X141478504Y-98013682D01*
X141451573Y-98028386D01*
X141425758Y-98044977D01*
X141419555Y-98045868D01*
X141417180Y-98047166D01*
X141390823Y-98050000D01*
X141359177Y-98050000D01*
X141292138Y-98030315D01*
X141271496Y-98013682D01*
X141270995Y-98013181D01*
X141207314Y-97949500D01*
X141150250Y-97916554D01*
X141093187Y-97883608D01*
X141029539Y-97866554D01*
X140965892Y-97849500D01*
X140834108Y-97849500D01*
X140706812Y-97883608D01*
X140592686Y-97949500D01*
X140528504Y-98013682D01*
X140501573Y-98028386D01*
X140475758Y-98044977D01*
X140469555Y-98045868D01*
X140467180Y-98047166D01*
X140440823Y-98050000D01*
X140409177Y-98050000D01*
X140342138Y-98030315D01*
X140321496Y-98013682D01*
X140320995Y-98013181D01*
X140257314Y-97949500D01*
X140200250Y-97916554D01*
X140143187Y-97883608D01*
X140079539Y-97866554D01*
X140015892Y-97849500D01*
X139884108Y-97849500D01*
X139756812Y-97883608D01*
X139642686Y-97949500D01*
X139578504Y-98013682D01*
X139551573Y-98028386D01*
X139525758Y-98044977D01*
X139519555Y-98045868D01*
X139517180Y-98047166D01*
X139490823Y-98050000D01*
X139459177Y-98050000D01*
X139392138Y-98030315D01*
X139371496Y-98013682D01*
X139370995Y-98013181D01*
X139307314Y-97949500D01*
X139250250Y-97916554D01*
X139193187Y-97883608D01*
X139129539Y-97866554D01*
X139065892Y-97849500D01*
X138934108Y-97849500D01*
X138806812Y-97883608D01*
X138692686Y-97949500D01*
X138628504Y-98013682D01*
X138601573Y-98028386D01*
X138575758Y-98044977D01*
X138569555Y-98045868D01*
X138567180Y-98047166D01*
X138540823Y-98050000D01*
X138509177Y-98050000D01*
X138442138Y-98030315D01*
X138421496Y-98013682D01*
X138420995Y-98013181D01*
X138357314Y-97949500D01*
X138300250Y-97916554D01*
X138243187Y-97883608D01*
X138179539Y-97866554D01*
X138115892Y-97849500D01*
X137984108Y-97849500D01*
X137856812Y-97883608D01*
X137742686Y-97949500D01*
X137678504Y-98013682D01*
X137617180Y-98047166D01*
X137590823Y-98050000D01*
X137071233Y-98050000D01*
X137063604Y-98049500D01*
X137059309Y-98049500D01*
X137019991Y-98049500D01*
X133542465Y-98049500D01*
X133475426Y-98029815D01*
X133429671Y-97977011D01*
X133419727Y-97907853D01*
X133448752Y-97844297D01*
X133507530Y-97806523D01*
X133528581Y-97802280D01*
X133530317Y-97802084D01*
X133545728Y-97800348D01*
X133628127Y-97760666D01*
X133685149Y-97689163D01*
X133705500Y-97600000D01*
X133705500Y-95741543D01*
X133725185Y-95674504D01*
X133741819Y-95653862D01*
X134334845Y-95060836D01*
X134930469Y-94465212D01*
X134976614Y-94385288D01*
X134976638Y-94385200D01*
X135000500Y-94296144D01*
X135000500Y-93834108D01*
X141699500Y-93834108D01*
X141699500Y-93965891D01*
X141733608Y-94093187D01*
X141760902Y-94140460D01*
X141799500Y-94207314D01*
X141892686Y-94300500D01*
X142006814Y-94366392D01*
X142134108Y-94400500D01*
X142134110Y-94400500D01*
X142265890Y-94400500D01*
X142265892Y-94400500D01*
X142393186Y-94366392D01*
X142507314Y-94300500D01*
X142570995Y-94236819D01*
X142632318Y-94203334D01*
X142658676Y-94200500D01*
X145039560Y-94200500D01*
X145039562Y-94200500D01*
X145115989Y-94180021D01*
X145184511Y-94140460D01*
X145240460Y-94084511D01*
X145638151Y-93686818D01*
X145699474Y-93653334D01*
X145725832Y-93650500D01*
X145815890Y-93650500D01*
X145815892Y-93650500D01*
X145943186Y-93616392D01*
X146057314Y-93550500D01*
X146150500Y-93457314D01*
X146216392Y-93343186D01*
X146248159Y-93224628D01*
X146900000Y-93224628D01*
X146914503Y-93297540D01*
X146914505Y-93297544D01*
X146969760Y-93380239D01*
X147052455Y-93435494D01*
X147052459Y-93435496D01*
X147125371Y-93449999D01*
X147125374Y-93450000D01*
X147775000Y-93450000D01*
X147775000Y-92925000D01*
X146900000Y-92925000D01*
X146900000Y-93224628D01*
X146248159Y-93224628D01*
X146250500Y-93215892D01*
X146250500Y-93084108D01*
X146216392Y-92956814D01*
X146150500Y-92842686D01*
X146057314Y-92749500D01*
X145980735Y-92705287D01*
X145943187Y-92683608D01*
X145879539Y-92666554D01*
X145815892Y-92649500D01*
X145684108Y-92649500D01*
X145556812Y-92683608D01*
X145442686Y-92749500D01*
X145442683Y-92749502D01*
X145349502Y-92842683D01*
X145349500Y-92842686D01*
X145283608Y-92956812D01*
X145249500Y-93084108D01*
X145249500Y-93174166D01*
X145229815Y-93241205D01*
X145213181Y-93261847D01*
X144911848Y-93563181D01*
X144850525Y-93596666D01*
X144824167Y-93599500D01*
X142658676Y-93599500D01*
X142591637Y-93579815D01*
X142570995Y-93563181D01*
X142507316Y-93499502D01*
X142507314Y-93499500D01*
X142435119Y-93457818D01*
X142393187Y-93433608D01*
X142311457Y-93411709D01*
X142265892Y-93399500D01*
X142134108Y-93399500D01*
X142006812Y-93433608D01*
X141892686Y-93499500D01*
X141892683Y-93499502D01*
X141799502Y-93592683D01*
X141799500Y-93592686D01*
X141733608Y-93706812D01*
X141699500Y-93834108D01*
X135000500Y-93834108D01*
X135000500Y-92574500D01*
X135020185Y-92507461D01*
X135072989Y-92461706D01*
X135124500Y-92450500D01*
X143341324Y-92450500D01*
X143408363Y-92470185D01*
X143429005Y-92486819D01*
X143492686Y-92550500D01*
X143554238Y-92586037D01*
X143596868Y-92610650D01*
X143606814Y-92616392D01*
X143734108Y-92650500D01*
X143734110Y-92650500D01*
X143865890Y-92650500D01*
X143865892Y-92650500D01*
X143993186Y-92616392D01*
X144107314Y-92550500D01*
X144200500Y-92457314D01*
X144266392Y-92343186D01*
X144300500Y-92215892D01*
X144300500Y-92084108D01*
X144266392Y-91956814D01*
X144200500Y-91842686D01*
X144107314Y-91749500D01*
X144034809Y-91707639D01*
X143993187Y-91683608D01*
X143929539Y-91666554D01*
X143865892Y-91649500D01*
X143734108Y-91649500D01*
X143606812Y-91683608D01*
X143492686Y-91749500D01*
X143492683Y-91749502D01*
X143429005Y-91813181D01*
X143367682Y-91846666D01*
X143341324Y-91849500D01*
X134846544Y-91849500D01*
X134779505Y-91829815D01*
X134758863Y-91813181D01*
X133965213Y-91019531D01*
X133965208Y-91019527D01*
X133885288Y-90973386D01*
X133878236Y-90971496D01*
X133878235Y-90971496D01*
X133818338Y-90955447D01*
X133796144Y-90949500D01*
X133796143Y-90949500D01*
X133351528Y-90949500D01*
X133333324Y-90948156D01*
X133322817Y-90946596D01*
X133318465Y-90945078D01*
X133211661Y-90930099D01*
X133211045Y-90930008D01*
X133210724Y-90929859D01*
X133192727Y-90925851D01*
X133144308Y-90910928D01*
X133131387Y-90906145D01*
X133073662Y-90881039D01*
X133060561Y-90874392D01*
X133018956Y-90850081D01*
X133005111Y-90840683D01*
X132981439Y-90822164D01*
X132940767Y-90765353D01*
X132937266Y-90695571D01*
X132972047Y-90634974D01*
X133034068Y-90602801D01*
X133057844Y-90600500D01*
X133255513Y-90600500D01*
X133255514Y-90600500D01*
X133361107Y-90566191D01*
X133450930Y-90500930D01*
X133516191Y-90411107D01*
X133550500Y-90305514D01*
X133550500Y-90194486D01*
X133516191Y-90088893D01*
X133469769Y-90024999D01*
X133450930Y-89999069D01*
X133361108Y-89933810D01*
X133361107Y-89933809D01*
X133289824Y-89910647D01*
X133255515Y-89899500D01*
X133255514Y-89899500D01*
X133219991Y-89899500D01*
X130724500Y-89899500D01*
X130657461Y-89879815D01*
X130611706Y-89827011D01*
X130600500Y-89775500D01*
X130600500Y-89410486D01*
X130620185Y-89343447D01*
X130672989Y-89297692D01*
X130742147Y-89287748D01*
X130805703Y-89316773D01*
X130812181Y-89322805D01*
X130819687Y-89330311D01*
X130902416Y-89385588D01*
X130902420Y-89385590D01*
X130999995Y-89404999D01*
X130999998Y-89405000D01*
X132100000Y-89405000D01*
X132350000Y-89405000D01*
X133250002Y-89405000D01*
X133250004Y-89404999D01*
X133347579Y-89385590D01*
X133347582Y-89385589D01*
X133430314Y-89330310D01*
X133630310Y-89130314D01*
X133667865Y-89074108D01*
X145849500Y-89074108D01*
X145849500Y-89205892D01*
X145854475Y-89224459D01*
X145883608Y-89333187D01*
X145916554Y-89390250D01*
X145949500Y-89447314D01*
X146042686Y-89540500D01*
X146156814Y-89606392D01*
X146284108Y-89640500D01*
X146284110Y-89640500D01*
X146374167Y-89640500D01*
X146441206Y-89660185D01*
X146461848Y-89676819D01*
X146869539Y-90084510D01*
X146925488Y-90140459D01*
X146925490Y-90140460D01*
X146925494Y-90140463D01*
X146994003Y-90180016D01*
X146994010Y-90180020D01*
X147070437Y-90200499D01*
X147149561Y-90200499D01*
X147444901Y-90200499D01*
X147444990Y-90200525D01*
X147445081Y-90200499D01*
X147478647Y-90210408D01*
X147511940Y-90220184D01*
X147512001Y-90220254D01*
X147512091Y-90220281D01*
X147535051Y-90246856D01*
X147557695Y-90272988D01*
X147557728Y-90273103D01*
X147557770Y-90273151D01*
X147557847Y-90273509D01*
X147567664Y-90307030D01*
X147568901Y-90315722D01*
X147568901Y-90415047D01*
X147580534Y-90473530D01*
X147594285Y-90494110D01*
X147598263Y-90522061D01*
X147597134Y-90529827D01*
X147599480Y-90537317D01*
X147599500Y-90539530D01*
X147599500Y-90775500D01*
X147579815Y-90842539D01*
X147527011Y-90888294D01*
X147475500Y-90899500D01*
X147130247Y-90899500D01*
X147071770Y-90911131D01*
X147071769Y-90911132D01*
X147005447Y-90955447D01*
X146961132Y-91021769D01*
X146961131Y-91021770D01*
X146949500Y-91080247D01*
X146949500Y-91919752D01*
X146961131Y-91978228D01*
X146961132Y-91978230D01*
X146961133Y-91978231D01*
X147005448Y-92044552D01*
X147005449Y-92044552D01*
X147006477Y-92046091D01*
X147027355Y-92112769D01*
X147008871Y-92180149D01*
X146972271Y-92218082D01*
X146969760Y-92219759D01*
X146914505Y-92302455D01*
X146914503Y-92302459D01*
X146900000Y-92375371D01*
X146900000Y-92675000D01*
X147776000Y-92675000D01*
X147784685Y-92677550D01*
X147793647Y-92676262D01*
X147817687Y-92687240D01*
X147843039Y-92694685D01*
X147848966Y-92701525D01*
X147857203Y-92705287D01*
X147871492Y-92727521D01*
X147888794Y-92747489D01*
X147891081Y-92758003D01*
X147894977Y-92764065D01*
X147900000Y-92799000D01*
X147900000Y-92800000D01*
X147901000Y-92800000D01*
X147968039Y-92819685D01*
X148013794Y-92872489D01*
X148025000Y-92924000D01*
X148025000Y-93450000D01*
X148350669Y-93450000D01*
X148371914Y-93456238D01*
X148394003Y-93457818D01*
X148404786Y-93465890D01*
X148417708Y-93469685D01*
X148432207Y-93486418D01*
X148449936Y-93499690D01*
X148454643Y-93512310D01*
X148463463Y-93522489D01*
X148466614Y-93544406D01*
X148474353Y-93565154D01*
X148471490Y-93578314D01*
X148473407Y-93591647D01*
X148464207Y-93611790D01*
X148459501Y-93633427D01*
X148446232Y-93651152D01*
X148444382Y-93655203D01*
X148438350Y-93661681D01*
X148432149Y-93667882D01*
X148370826Y-93701367D01*
X148344468Y-93704201D01*
X147749648Y-93704201D01*
X147691171Y-93715832D01*
X147691170Y-93715833D01*
X147624848Y-93760148D01*
X147580533Y-93826470D01*
X147580532Y-93826471D01*
X147568901Y-93884948D01*
X147568901Y-94915053D01*
X147580532Y-94973530D01*
X147580533Y-94973531D01*
X147624848Y-95039853D01*
X147691170Y-95084168D01*
X147691171Y-95084169D01*
X147749648Y-95095800D01*
X147749651Y-95095801D01*
X147749653Y-95095801D01*
X148500351Y-95095801D01*
X148500352Y-95095800D01*
X148515169Y-95092853D01*
X148558830Y-95084169D01*
X148558830Y-95084168D01*
X148558832Y-95084168D01*
X148625153Y-95039853D01*
X148669468Y-94973532D01*
X148669468Y-94973530D01*
X148669469Y-94973530D01*
X148680130Y-94919929D01*
X149669399Y-94919929D01*
X149683902Y-94992841D01*
X149683904Y-94992845D01*
X149739159Y-95075540D01*
X149821854Y-95130795D01*
X149821858Y-95130797D01*
X149894770Y-95145300D01*
X149894773Y-95145301D01*
X150149999Y-95145301D01*
X150149999Y-94525001D01*
X149669399Y-94525001D01*
X149669399Y-94919929D01*
X148680130Y-94919929D01*
X148681100Y-94915053D01*
X148681101Y-94915051D01*
X148681101Y-94320234D01*
X148700786Y-94253195D01*
X148717420Y-94232553D01*
X149069901Y-93880072D01*
X149669399Y-93880072D01*
X149669399Y-94275001D01*
X150149999Y-94275001D01*
X150149999Y-93654701D01*
X149894772Y-93654701D01*
X149821858Y-93669204D01*
X149821854Y-93669206D01*
X149739159Y-93724461D01*
X149683904Y-93807156D01*
X149683902Y-93807160D01*
X149669399Y-93880072D01*
X149069901Y-93880072D01*
X149163669Y-93786304D01*
X149271742Y-93678231D01*
X149390460Y-93559513D01*
X149409561Y-93526429D01*
X149430021Y-93490991D01*
X149450500Y-93414564D01*
X149450500Y-91960438D01*
X149436862Y-91909540D01*
X149430022Y-91884012D01*
X149390460Y-91815489D01*
X148886819Y-91311848D01*
X148853334Y-91250525D01*
X148850500Y-91224167D01*
X148850500Y-91080249D01*
X148850499Y-91080247D01*
X148838868Y-91021770D01*
X148838867Y-91021769D01*
X148794552Y-90955447D01*
X148728230Y-90911132D01*
X148728229Y-90911131D01*
X148669752Y-90899500D01*
X148669748Y-90899500D01*
X148324500Y-90899500D01*
X148315814Y-90896949D01*
X148306853Y-90898238D01*
X148282812Y-90887259D01*
X148257461Y-90879815D01*
X148251533Y-90872974D01*
X148243297Y-90869213D01*
X148229007Y-90846978D01*
X148211706Y-90827011D01*
X148209418Y-90816496D01*
X148205523Y-90810435D01*
X148200500Y-90775500D01*
X148200500Y-90719799D01*
X148220185Y-90652760D01*
X148272989Y-90607005D01*
X148324500Y-90595799D01*
X148500351Y-90595799D01*
X148500352Y-90595798D01*
X148515169Y-90592851D01*
X148558830Y-90584167D01*
X148558830Y-90584166D01*
X148558832Y-90584166D01*
X148625153Y-90539851D01*
X148669468Y-90473530D01*
X148669468Y-90473528D01*
X148669469Y-90473528D01*
X148680130Y-90419927D01*
X149669399Y-90419927D01*
X149683902Y-90492839D01*
X149683904Y-90492843D01*
X149739159Y-90575538D01*
X149821854Y-90630793D01*
X149821858Y-90630795D01*
X149894770Y-90645298D01*
X149894773Y-90645299D01*
X150149999Y-90645299D01*
X150149999Y-90024999D01*
X149669399Y-90024999D01*
X149669399Y-90419927D01*
X148680130Y-90419927D01*
X148681100Y-90415051D01*
X148681101Y-90415049D01*
X148681101Y-89384950D01*
X148681100Y-89384944D01*
X148680131Y-89380070D01*
X149669399Y-89380070D01*
X149669399Y-89774999D01*
X150149999Y-89774999D01*
X150149999Y-89154699D01*
X149894772Y-89154699D01*
X149821858Y-89169202D01*
X149821854Y-89169204D01*
X149739159Y-89224459D01*
X149683904Y-89307154D01*
X149683902Y-89307158D01*
X149669399Y-89380070D01*
X148680131Y-89380070D01*
X148669469Y-89326469D01*
X148669468Y-89326468D01*
X148625153Y-89260146D01*
X148558831Y-89215831D01*
X148558830Y-89215830D01*
X148500353Y-89204199D01*
X148500349Y-89204199D01*
X147749653Y-89204199D01*
X147749648Y-89204199D01*
X147691171Y-89215830D01*
X147691170Y-89215831D01*
X147624848Y-89260146D01*
X147580533Y-89326468D01*
X147580532Y-89326469D01*
X147568901Y-89384946D01*
X147568901Y-89475499D01*
X147566350Y-89484184D01*
X147567639Y-89493146D01*
X147556660Y-89517186D01*
X147549216Y-89542538D01*
X147542375Y-89548465D01*
X147538614Y-89556702D01*
X147516379Y-89570991D01*
X147496412Y-89588293D01*
X147485897Y-89590580D01*
X147479836Y-89594476D01*
X147444901Y-89599499D01*
X147285832Y-89599499D01*
X147218793Y-89579814D01*
X147198151Y-89563180D01*
X146886819Y-89251848D01*
X146853334Y-89190525D01*
X146850500Y-89164167D01*
X146850500Y-89074110D01*
X146850500Y-89074108D01*
X146816392Y-88946814D01*
X146750500Y-88832686D01*
X146657314Y-88739500D01*
X146600250Y-88706554D01*
X146543187Y-88673608D01*
X146479539Y-88656554D01*
X146415892Y-88639500D01*
X146284108Y-88639500D01*
X146156812Y-88673608D01*
X146042686Y-88739500D01*
X146042683Y-88739502D01*
X145949502Y-88832683D01*
X145949500Y-88832686D01*
X145883608Y-88946812D01*
X145849500Y-89074108D01*
X133667865Y-89074108D01*
X133685589Y-89047582D01*
X133686741Y-89041792D01*
X133686741Y-89041790D01*
X133686742Y-89041789D01*
X133705000Y-88950002D01*
X133705000Y-88050000D01*
X132350000Y-88050000D01*
X132350000Y-89405000D01*
X132100000Y-89405000D01*
X132100000Y-88049000D01*
X132102550Y-88040314D01*
X132101262Y-88031353D01*
X132112240Y-88007312D01*
X132119685Y-87981961D01*
X132126525Y-87976033D01*
X132130287Y-87967797D01*
X132152521Y-87953507D01*
X132172489Y-87936206D01*
X132183003Y-87933918D01*
X132189065Y-87930023D01*
X132224000Y-87925000D01*
X132225000Y-87925000D01*
X132225000Y-87924000D01*
X132244685Y-87856961D01*
X132297489Y-87811206D01*
X132349000Y-87800000D01*
X133705000Y-87800000D01*
X133705000Y-86699997D01*
X133704999Y-86699995D01*
X133685590Y-86602420D01*
X133685588Y-86602416D01*
X133630311Y-86519687D01*
X133567326Y-86477602D01*
X133522520Y-86423990D01*
X133513813Y-86354665D01*
X133543967Y-86291638D01*
X133603410Y-86254918D01*
X133636216Y-86250500D01*
X147657010Y-86250500D01*
X147724049Y-86270185D01*
G37*
%TD.AperFunction*%
%TD*%
%TA.AperFunction,Conductor*%
%TO.N,+BATT*%
G36*
X132699495Y-90713942D02*
G01*
X132701140Y-90719265D01*
X132702247Y-90737950D01*
X132715161Y-90796824D01*
X132715165Y-90796836D01*
X132738367Y-90851193D01*
X132777095Y-90909484D01*
X132822887Y-90958170D01*
X132825977Y-90961456D01*
X132825985Y-90961463D01*
X132896027Y-91016260D01*
X132896034Y-91016265D01*
X132896038Y-91016268D01*
X132973768Y-91061688D01*
X132973770Y-91061688D01*
X132973772Y-91061690D01*
X133066244Y-91101907D01*
X133066249Y-91101909D01*
X133134088Y-91122818D01*
X133157381Y-91129998D01*
X133157382Y-91129998D01*
X133157388Y-91130000D01*
X133289925Y-91148587D01*
X133297642Y-91153130D01*
X133300000Y-91160174D01*
X133300000Y-91439733D01*
X133296573Y-91448006D01*
X133289821Y-91451334D01*
X133169268Y-91467135D01*
X133003262Y-91524067D01*
X133003259Y-91524068D01*
X132867933Y-91603723D01*
X132867929Y-91603726D01*
X132773849Y-91694618D01*
X132773847Y-91694621D01*
X132718690Y-91792856D01*
X132702927Y-91883216D01*
X132698129Y-91890777D01*
X132689390Y-91892731D01*
X132685386Y-91891240D01*
X132072818Y-91524067D01*
X131715740Y-91310034D01*
X131710407Y-91302843D01*
X131711721Y-91293985D01*
X131715739Y-91289966D01*
X132683447Y-90709921D01*
X132692303Y-90708608D01*
X132699495Y-90713942D01*
G37*
%TD.AperFunction*%
%TD*%
%TA.AperFunction,Conductor*%
%TO.N,/LEDK*%
G36*
X132699495Y-92413942D02*
G01*
X132701140Y-92419265D01*
X132702247Y-92437950D01*
X132715161Y-92496824D01*
X132715165Y-92496836D01*
X132738367Y-92551193D01*
X132777095Y-92609484D01*
X132822887Y-92658170D01*
X132825977Y-92661456D01*
X132825985Y-92661463D01*
X132896027Y-92716260D01*
X132896034Y-92716265D01*
X132896038Y-92716268D01*
X132973768Y-92761688D01*
X132973770Y-92761688D01*
X132973772Y-92761690D01*
X133066244Y-92801907D01*
X133066249Y-92801909D01*
X133134088Y-92822818D01*
X133157381Y-92829998D01*
X133157382Y-92829998D01*
X133157388Y-92830000D01*
X133289925Y-92848587D01*
X133297642Y-92853130D01*
X133300000Y-92860174D01*
X133300000Y-93139733D01*
X133296573Y-93148006D01*
X133289821Y-93151334D01*
X133169268Y-93167135D01*
X133003262Y-93224067D01*
X133003259Y-93224068D01*
X132867933Y-93303723D01*
X132867929Y-93303726D01*
X132773849Y-93394618D01*
X132773847Y-93394621D01*
X132718690Y-93492856D01*
X132702927Y-93583216D01*
X132698129Y-93590777D01*
X132689390Y-93592731D01*
X132685386Y-93591240D01*
X132072818Y-93224067D01*
X131715740Y-93010034D01*
X131710407Y-93002843D01*
X131711721Y-92993985D01*
X131715739Y-92989966D01*
X132683447Y-92409921D01*
X132692303Y-92408608D01*
X132699495Y-92413942D01*
G37*
%TD.AperFunction*%
%TD*%
M02*
