%TF.GenerationSoftware,KiCad,Pcbnew,9.0.5*%
%TF.CreationDate,2025-12-13T15:18:49-05:00*%
%TF.ProjectId,lightwear_bracelet,6c696768-7477-4656-9172-5f6272616365,rev?*%
%TF.SameCoordinates,Original*%
%TF.FileFunction,Legend,Bot*%
%TF.FilePolarity,Positive*%
%FSLAX46Y46*%
G04 Gerber Fmt 4.6, Leading zero omitted, Abs format (unit mm)*
G04 Created by KiCad (PCBNEW 9.0.5) date 2025-12-13 15:18:49*
%MOMM*%
%LPD*%
G01*
G04 APERTURE LIST*
%ADD10C,0.100000*%
%ADD11C,0.150000*%
%ADD12C,0.120000*%
G04 APERTURE END LIST*
D10*
G36*
X150590230Y-84330000D02*
G01*
X150336828Y-84330000D01*
X150315749Y-84223003D01*
X150289089Y-84260996D01*
X150256625Y-84291063D01*
X150217821Y-84313879D01*
X150174928Y-84329505D01*
X150127125Y-84339207D01*
X150073595Y-84342578D01*
X150017354Y-84338855D01*
X149964337Y-84327878D01*
X149913982Y-84309727D01*
X149866497Y-84284851D01*
X149822991Y-84254152D01*
X149783129Y-84217342D01*
X149748236Y-84175668D01*
X149718637Y-84129373D01*
X149694225Y-84078002D01*
X149676531Y-84023943D01*
X149665696Y-83965823D01*
X149662811Y-83916985D01*
X149930774Y-83916985D01*
X149936814Y-83977356D01*
X149953916Y-84027627D01*
X149981715Y-84070348D01*
X150017602Y-84101816D01*
X150060816Y-84121584D01*
X150111392Y-84128377D01*
X150155522Y-84123607D01*
X150190288Y-84110354D01*
X150217821Y-84089176D01*
X150238362Y-84060953D01*
X150251091Y-84026545D01*
X150255617Y-83984213D01*
X150249590Y-83923846D01*
X150232536Y-83873632D01*
X150204590Y-83830774D01*
X150168117Y-83798710D01*
X150124425Y-83778315D01*
X150075000Y-83771416D01*
X150030970Y-83776260D01*
X149996220Y-83789741D01*
X149968632Y-83811350D01*
X149948030Y-83839989D01*
X149935291Y-83874643D01*
X149930774Y-83916985D01*
X149662811Y-83916985D01*
X149661985Y-83903002D01*
X149667455Y-83830473D01*
X149682927Y-83768793D01*
X149707536Y-83716095D01*
X149741411Y-83668678D01*
X149780937Y-83629993D01*
X149826543Y-83599225D01*
X149876781Y-83576578D01*
X149928571Y-83563129D01*
X149982615Y-83558620D01*
X150041209Y-83563331D01*
X150093579Y-83576968D01*
X150140823Y-83599225D01*
X150183826Y-83629283D01*
X150184258Y-83629696D01*
X150117009Y-83291174D01*
X150382990Y-83291174D01*
X150590230Y-84330000D01*
G37*
G36*
X149550427Y-84614176D02*
G01*
X149610216Y-84609663D01*
X149670106Y-84595980D01*
X149725396Y-84574028D01*
X149764628Y-84548414D01*
X149645621Y-84360774D01*
X149620505Y-84378400D01*
X149592437Y-84392281D01*
X149562000Y-84401140D01*
X149528018Y-84404188D01*
X149491043Y-84399116D01*
X149460851Y-84384588D01*
X149434783Y-84360825D01*
X149407606Y-84322978D01*
X149353018Y-84234806D01*
X149330608Y-84208183D01*
X148948429Y-83571198D01*
X148688005Y-83571198D01*
X149173804Y-84363583D01*
X149234719Y-84453342D01*
X149288660Y-84514769D01*
X149327852Y-84548425D01*
X149367423Y-84573814D01*
X149407667Y-84591767D01*
X149473240Y-84608320D01*
X149550427Y-84614176D01*
G37*
G36*
X149410415Y-84362178D02*
G01*
X149588224Y-83571198D01*
X149323647Y-83571198D01*
X149197618Y-84184370D01*
X149410415Y-84362178D01*
G37*
G36*
X148363712Y-84330000D02*
G01*
X148212465Y-83571198D01*
X147960467Y-83571198D01*
X148003881Y-83786803D01*
X148029099Y-83725193D01*
X147990819Y-83669153D01*
X147946659Y-83626817D01*
X147896109Y-83596416D01*
X147839835Y-83575948D01*
X147775848Y-83563117D01*
X147702852Y-83558620D01*
X147749075Y-83797978D01*
X147779911Y-83794558D01*
X147809281Y-83793825D01*
X147865848Y-83798815D01*
X147912590Y-83812823D01*
X147951430Y-83835102D01*
X147982590Y-83866488D01*
X148007300Y-83910790D01*
X148024886Y-83971573D01*
X148097670Y-84330000D01*
X148363712Y-84330000D01*
G37*
G36*
X147325680Y-84342578D02*
G01*
X147405954Y-84337497D01*
X147476148Y-84323009D01*
X147537744Y-84299897D01*
X147594303Y-84267000D01*
X147640847Y-84227010D01*
X147678489Y-84179546D01*
X147706073Y-84125727D01*
X147722995Y-84065307D01*
X147728864Y-83996791D01*
X147722244Y-83914382D01*
X147703003Y-83839979D01*
X147671467Y-83772149D01*
X147628230Y-83711110D01*
X147574901Y-83659284D01*
X147510450Y-83616017D01*
X147439323Y-83584695D01*
X147359611Y-83565343D01*
X147269626Y-83558620D01*
X147193076Y-83563660D01*
X147127129Y-83577949D01*
X147070141Y-83600629D01*
X147018201Y-83632721D01*
X146975604Y-83671531D01*
X146941364Y-83717500D01*
X146916460Y-83769162D01*
X146901170Y-83826840D01*
X146895874Y-83891828D01*
X146900087Y-83956247D01*
X146911261Y-84016392D01*
X147520280Y-84016392D01*
X147495062Y-83876379D01*
X147034481Y-83876379D01*
X147145062Y-83916985D01*
X147140403Y-83864792D01*
X147148543Y-83825333D01*
X147168165Y-83792414D01*
X147197575Y-83767936D01*
X147234607Y-83752996D01*
X147282266Y-83747602D01*
X147324085Y-83751470D01*
X147358849Y-83762376D01*
X147387962Y-83779842D01*
X147423545Y-83817160D01*
X147449572Y-83867342D01*
X147464664Y-83924233D01*
X147469844Y-83987021D01*
X147464395Y-84037424D01*
X147449618Y-84074868D01*
X147426491Y-84102548D01*
X147395363Y-84121984D01*
X147353082Y-84134819D01*
X147296249Y-84139612D01*
X147246456Y-84135593D01*
X147197575Y-84123492D01*
X147151803Y-84103826D01*
X147112822Y-84078002D01*
X147002241Y-84244576D01*
X147051476Y-84276827D01*
X147102933Y-84301946D01*
X147156969Y-84320230D01*
X147240885Y-84337004D01*
X147325680Y-84342578D01*
G37*
G36*
X146787552Y-84614176D02*
G01*
X146847341Y-84609663D01*
X146907231Y-84595980D01*
X146962521Y-84574028D01*
X147001753Y-84548414D01*
X146882745Y-84360774D01*
X146857630Y-84378400D01*
X146829562Y-84392281D01*
X146799124Y-84401140D01*
X146765143Y-84404188D01*
X146728168Y-84399116D01*
X146697976Y-84384588D01*
X146671908Y-84360825D01*
X146644731Y-84322978D01*
X146590143Y-84234806D01*
X146567733Y-84208183D01*
X146185554Y-83571198D01*
X145925130Y-83571198D01*
X146410929Y-84363583D01*
X146471844Y-84453342D01*
X146525785Y-84514769D01*
X146564977Y-84548425D01*
X146604548Y-84573814D01*
X146644792Y-84591767D01*
X146710365Y-84608320D01*
X146787552Y-84614176D01*
G37*
G36*
X146647540Y-84362178D02*
G01*
X146825348Y-83571198D01*
X146560772Y-83571198D01*
X146434743Y-84184370D01*
X146647540Y-84362178D01*
G37*
G36*
X145749214Y-84201222D02*
G01*
X145690413Y-83870823D01*
X145336200Y-83571198D01*
X145000183Y-83571198D01*
X145423028Y-83936585D01*
X145574214Y-84047227D01*
X145749214Y-84201222D01*
G37*
G36*
X146008234Y-84330000D02*
G01*
X145800994Y-83291174D01*
X145535013Y-83291174D01*
X145742192Y-84330000D01*
X146008234Y-84330000D01*
G37*
G36*
X145445376Y-84330000D02*
G01*
X145620376Y-84038801D01*
X145432798Y-83835774D01*
X145134577Y-84330000D01*
X145445376Y-84330000D01*
G37*
G36*
X144726930Y-83562319D02*
G01*
X144779740Y-83573287D01*
X144830556Y-83591531D01*
X144878514Y-83616355D01*
X144922257Y-83646824D01*
X144962142Y-83683183D01*
X144996971Y-83724403D01*
X145026574Y-83770444D01*
X145051046Y-83821791D01*
X145068706Y-83875847D01*
X145079521Y-83933967D01*
X145083225Y-83996791D01*
X145077775Y-84069326D01*
X145062335Y-84131270D01*
X145037735Y-84184431D01*
X145003750Y-84232231D01*
X144963986Y-84271153D01*
X144917995Y-84302034D01*
X144867305Y-84324717D01*
X144815728Y-84338112D01*
X144762595Y-84342578D01*
X144696068Y-84336652D01*
X144637314Y-84319534D01*
X144584848Y-84291531D01*
X144543015Y-84257228D01*
X144558225Y-84330000D01*
X144306228Y-84330000D01*
X144223937Y-83916985D01*
X144489593Y-83916985D01*
X144495633Y-83977356D01*
X144512735Y-84027627D01*
X144540534Y-84070348D01*
X144576421Y-84101816D01*
X144619635Y-84121584D01*
X144670211Y-84128377D01*
X144714340Y-84123607D01*
X144749107Y-84110354D01*
X144776639Y-84089176D01*
X144797181Y-84060953D01*
X144809910Y-84026545D01*
X144814436Y-83984213D01*
X144808409Y-83923846D01*
X144791355Y-83873632D01*
X144763409Y-83830774D01*
X144726936Y-83798710D01*
X144683244Y-83778315D01*
X144633818Y-83771416D01*
X144589747Y-83776261D01*
X144554979Y-83789744D01*
X144527390Y-83811350D01*
X144506823Y-83839985D01*
X144494104Y-83874638D01*
X144489593Y-83916985D01*
X144223937Y-83916985D01*
X144155041Y-83571198D01*
X144421022Y-83571198D01*
X144439592Y-83662215D01*
X144440656Y-83660147D01*
X144472935Y-83622430D01*
X144512735Y-83594340D01*
X144558360Y-83575002D01*
X144610881Y-83562881D01*
X144671615Y-83558620D01*
X144726930Y-83562319D01*
G37*
G36*
X143800340Y-84342578D02*
G01*
X143858294Y-84338484D01*
X143908259Y-84326857D01*
X143951526Y-84308323D01*
X143989651Y-84281729D01*
X144019265Y-84248419D01*
X144041163Y-84207512D01*
X144053549Y-84162485D01*
X144056783Y-84110111D01*
X144049528Y-84048571D01*
X143920751Y-83401816D01*
X143654710Y-83401816D01*
X143783548Y-84047227D01*
X143784269Y-84087417D01*
X143773717Y-84113722D01*
X143752335Y-84130466D01*
X143716320Y-84136803D01*
X143675715Y-84131247D01*
X143636514Y-84114394D01*
X143602930Y-84297821D01*
X143646773Y-84318098D01*
X143696048Y-84332076D01*
X143747556Y-84339940D01*
X143800340Y-84342578D01*
G37*
G36*
X144111139Y-83797978D02*
G01*
X144070533Y-83599225D01*
X143521720Y-83599225D01*
X143560921Y-83797978D01*
X144111139Y-83797978D01*
G37*
G36*
X143132606Y-83565296D02*
G01*
X143212369Y-83584606D01*
X143284377Y-83616017D01*
X143349861Y-83659256D01*
X143404591Y-83711094D01*
X143449546Y-83772149D01*
X143482686Y-83840140D01*
X143502834Y-83914526D01*
X143509752Y-83996791D01*
X143504058Y-84064444D01*
X143487613Y-84124429D01*
X143460781Y-84178142D01*
X143424025Y-84225652D01*
X143378202Y-84265886D01*
X143322173Y-84299225D01*
X143260984Y-84322730D01*
X143191454Y-84337430D01*
X143112124Y-84342578D01*
X143023072Y-84335900D01*
X142943331Y-84316590D01*
X142871362Y-84285181D01*
X142805886Y-84241900D01*
X142751132Y-84189848D01*
X142706132Y-84128377D01*
X142672969Y-84059919D01*
X142652831Y-83985278D01*
X142647100Y-83916985D01*
X142916120Y-83916985D01*
X142922194Y-83978586D01*
X142939262Y-84029031D01*
X142967029Y-84071888D01*
X143002948Y-84103892D01*
X143046210Y-84124219D01*
X143096737Y-84131186D01*
X143139865Y-84126381D01*
X143174207Y-84112949D01*
X143201762Y-84091313D01*
X143222268Y-84062613D01*
X143235016Y-84027507D01*
X143239558Y-83984213D01*
X143233516Y-83922516D01*
X143216477Y-83871495D01*
X143188578Y-83828171D01*
X143152730Y-83796634D01*
X143109512Y-83776819D01*
X143058941Y-83770012D01*
X143015056Y-83775084D01*
X142980553Y-83789223D01*
X142953244Y-83812021D01*
X142932870Y-83841834D01*
X142920453Y-83876387D01*
X142916120Y-83916985D01*
X142647100Y-83916985D01*
X142645926Y-83903002D01*
X142651665Y-83834420D01*
X142668165Y-83774252D01*
X142694958Y-83720980D01*
X142731626Y-83673899D01*
X142777212Y-83634134D01*
X142832833Y-83601301D01*
X142893523Y-83578233D01*
X142963234Y-83563724D01*
X143043553Y-83558620D01*
X143132606Y-83565296D01*
G37*
D11*
X144091792Y-92132390D02*
X144167982Y-92094295D01*
X144167982Y-92094295D02*
X144282268Y-92094295D01*
X144282268Y-92094295D02*
X144396554Y-92132390D01*
X144396554Y-92132390D02*
X144472744Y-92208580D01*
X144472744Y-92208580D02*
X144510839Y-92284771D01*
X144510839Y-92284771D02*
X144548935Y-92437152D01*
X144548935Y-92437152D02*
X144548935Y-92551438D01*
X144548935Y-92551438D02*
X144510839Y-92703819D01*
X144510839Y-92703819D02*
X144472744Y-92780009D01*
X144472744Y-92780009D02*
X144396554Y-92856200D01*
X144396554Y-92856200D02*
X144282268Y-92894295D01*
X144282268Y-92894295D02*
X144206077Y-92894295D01*
X144206077Y-92894295D02*
X144091792Y-92856200D01*
X144091792Y-92856200D02*
X144053696Y-92818104D01*
X144053696Y-92818104D02*
X144053696Y-92551438D01*
X144053696Y-92551438D02*
X144206077Y-92551438D01*
X143710839Y-92894295D02*
X143710839Y-92094295D01*
X143710839Y-92094295D02*
X143253696Y-92894295D01*
X143253696Y-92894295D02*
X143253696Y-92094295D01*
X142872744Y-92894295D02*
X142872744Y-92094295D01*
X142872744Y-92094295D02*
X142682268Y-92094295D01*
X142682268Y-92094295D02*
X142567982Y-92132390D01*
X142567982Y-92132390D02*
X142491792Y-92208580D01*
X142491792Y-92208580D02*
X142453697Y-92284771D01*
X142453697Y-92284771D02*
X142415601Y-92437152D01*
X142415601Y-92437152D02*
X142415601Y-92551438D01*
X142415601Y-92551438D02*
X142453697Y-92703819D01*
X142453697Y-92703819D02*
X142491792Y-92780009D01*
X142491792Y-92780009D02*
X142567982Y-92856200D01*
X142567982Y-92856200D02*
X142682268Y-92894295D01*
X142682268Y-92894295D02*
X142872744Y-92894295D01*
D10*
G36*
X149552957Y-82317450D02*
G01*
X149457213Y-82001901D01*
X149457152Y-82001901D01*
X149341931Y-81622934D01*
X149342175Y-81622934D01*
X149298272Y-81478183D01*
X149269391Y-81383112D01*
X149268902Y-81381573D01*
X149247165Y-81310242D01*
X149246859Y-81310242D01*
X149131516Y-80930395D01*
X149811976Y-80930395D01*
X149774363Y-81104491D01*
X150200566Y-82508802D01*
X150270398Y-82583071D01*
X150304370Y-82609809D01*
X150322993Y-82621240D01*
X150256864Y-82694219D01*
X148312020Y-82694219D01*
X148218855Y-82680428D01*
X148128075Y-82639294D01*
X148041905Y-82571614D01*
X148001285Y-82528257D01*
X147962762Y-82478962D01*
X147926626Y-82424078D01*
X147893010Y-82363739D01*
X147870673Y-82317450D01*
X149552957Y-82317450D01*
G37*
G36*
X147446606Y-80930175D02*
G01*
X147409115Y-81104052D01*
X147835258Y-82508363D01*
X147906344Y-82583235D01*
X147939061Y-82609589D01*
X147957745Y-82621020D01*
X147891617Y-82694109D01*
X147302076Y-82694109D01*
X147090867Y-82000142D01*
X146765535Y-80930175D01*
X147446606Y-80930175D01*
G37*
G36*
X145972479Y-82000252D02*
G01*
X145242009Y-82000252D01*
X145337203Y-82309867D01*
X145339279Y-82316461D01*
X145347705Y-82343829D01*
X146444050Y-82343829D01*
X146435746Y-82316461D01*
X146435807Y-82316461D01*
X146406926Y-82221170D01*
X146129344Y-81305186D01*
X145078000Y-81305186D01*
X145078000Y-81304966D01*
X144987997Y-81304966D01*
X144924449Y-81325454D01*
X144894401Y-81345752D01*
X144866007Y-81372500D01*
X144839947Y-81405038D01*
X144816168Y-81443496D01*
X144804143Y-81467192D01*
X144800357Y-81474996D01*
X144323717Y-80930175D01*
X144854762Y-80930395D01*
X145172950Y-80930395D01*
X145172950Y-80930175D01*
X145281577Y-80930175D01*
X145281393Y-80930395D01*
X146696475Y-80930395D01*
X146658923Y-81104821D01*
X147022234Y-82306020D01*
X147036208Y-82387254D01*
X147035282Y-82471312D01*
X147019438Y-82552425D01*
X147006142Y-82589270D01*
X146989697Y-82621897D01*
X146970657Y-82649129D01*
X146949089Y-82670628D01*
X146926257Y-82685120D01*
X146901577Y-82692870D01*
X146887534Y-82694000D01*
X146732257Y-82694219D01*
X146550235Y-82694439D01*
X146550235Y-82694219D01*
X145454501Y-82694219D01*
X145554823Y-83022958D01*
X144904099Y-82822923D01*
X144540605Y-81625022D01*
X145754614Y-81625022D01*
X145972479Y-82000252D01*
G37*
G36*
X142568527Y-80930175D02*
G01*
X142530975Y-81104052D01*
X142688817Y-81624143D01*
X143786810Y-81624143D01*
X143575724Y-80930065D01*
X144256795Y-80930065D01*
X144219303Y-81103942D01*
X144645446Y-82508253D01*
X144716615Y-82583117D01*
X144749249Y-82609479D01*
X144767934Y-82620800D01*
X144701805Y-82693890D01*
X144112264Y-82693890D01*
X143901177Y-81999922D01*
X142802878Y-81999922D01*
X142957117Y-82508363D01*
X143028429Y-82583434D01*
X143060921Y-82609589D01*
X143079605Y-82621020D01*
X143013476Y-82694000D01*
X142423874Y-82694000D01*
X141887395Y-80930175D01*
X142568527Y-80930175D01*
G37*
G36*
X139479221Y-80930175D02*
G01*
X141835615Y-80930175D01*
X141755015Y-81304966D01*
X140966050Y-81304966D01*
X141331315Y-82508473D01*
X141332964Y-82513858D01*
X141406364Y-82586473D01*
X141435057Y-82609479D01*
X141453742Y-82620800D01*
X141387613Y-82694000D01*
X141387552Y-82693780D01*
X141387613Y-82694000D01*
X140798072Y-82694000D01*
X140428838Y-81477963D01*
X140418030Y-81442243D01*
X140399956Y-81382782D01*
X140399406Y-81381353D01*
X140377730Y-81309912D01*
X140376203Y-81304966D01*
X139584551Y-81304966D01*
X139471833Y-80930065D01*
X139479221Y-80930175D01*
G37*
G36*
X137764942Y-80930285D02*
G01*
X137727390Y-81104052D01*
X137963084Y-81878802D01*
X138177285Y-81084928D01*
X138349904Y-81084928D01*
X139080922Y-81949474D01*
X138827887Y-81115702D01*
X138771589Y-80930285D01*
X139451561Y-80930285D01*
X139414009Y-81104052D01*
X139842105Y-82511440D01*
X139910503Y-82583005D01*
X139944931Y-82609479D01*
X139963616Y-82620910D01*
X139897487Y-82693780D01*
X139897487Y-82694000D01*
X139164759Y-82694000D01*
X138417681Y-81865723D01*
X138210990Y-82694000D01*
X137620228Y-82694000D01*
X137141268Y-81115592D01*
X137084970Y-80930065D01*
X137764942Y-80930065D01*
X137764942Y-80930285D01*
G37*
G36*
X136637273Y-81999922D02*
G01*
X135727651Y-81999922D01*
X135507283Y-81624143D01*
X135561472Y-81624295D01*
X136102869Y-81624143D01*
X136222138Y-81624195D01*
X136372147Y-81624143D01*
X136474424Y-81624202D01*
X136523028Y-81624143D01*
X136482606Y-81491372D01*
X136425881Y-81304746D01*
X135301264Y-81304746D01*
X135237164Y-81318569D01*
X135206505Y-81335677D01*
X135177332Y-81359332D01*
X135150211Y-81389062D01*
X135125208Y-81424862D01*
X135102451Y-81466972D01*
X135098665Y-81474886D01*
X134622208Y-80929076D01*
X135472479Y-80929956D01*
X136050540Y-80929956D01*
X136050540Y-80930395D01*
X136058610Y-80930375D01*
X136308888Y-80929956D01*
X136994356Y-80929956D01*
X136956620Y-81104491D01*
X137195062Y-81893530D01*
X137381664Y-82508363D01*
X137381786Y-82508583D01*
X137451519Y-82582809D01*
X137485528Y-82609589D01*
X137504152Y-82620910D01*
X137438084Y-82694000D01*
X135247897Y-82694000D01*
X135027590Y-82317230D01*
X136733932Y-82317230D01*
X136637273Y-81999922D01*
G37*
G36*
X134548264Y-81104052D02*
G01*
X134974467Y-82508583D01*
X135044298Y-82582850D01*
X135078271Y-82609589D01*
X135096894Y-82620910D01*
X135030765Y-82694000D01*
X134440980Y-82694000D01*
X134230931Y-82001681D01*
X133131533Y-82001681D01*
X133229474Y-82325144D01*
X133284185Y-82505505D01*
X133354782Y-82581214D01*
X133390153Y-82609446D01*
X133390369Y-82609589D01*
X133409054Y-82620910D01*
X133341399Y-82694000D01*
X132751613Y-82694000D01*
X132645184Y-82343279D01*
X132591817Y-82167314D01*
X132386165Y-81489504D01*
X132334711Y-81320024D01*
X132930643Y-81320024D01*
X132930765Y-81340467D01*
X133017166Y-81625022D01*
X134115954Y-81622824D01*
X134020882Y-81309912D01*
X132939741Y-81309912D01*
X132930643Y-81320024D01*
X132334711Y-81320024D01*
X132267707Y-81099326D01*
X132259496Y-81045870D01*
X132261005Y-81017422D01*
X132266394Y-80990052D01*
X132267402Y-80986559D01*
X132276492Y-80963489D01*
X132288017Y-80945981D01*
X132301448Y-80934635D01*
X132316279Y-80930029D01*
X132318449Y-80929956D01*
X134585877Y-80929956D01*
X134548264Y-81104052D01*
G37*
G36*
X129809342Y-80986669D02*
G01*
X129818406Y-80963603D01*
X129829889Y-80946118D01*
X129843289Y-80934770D01*
X129858074Y-80930144D01*
X129860327Y-80930065D01*
X132127817Y-80930065D01*
X132090204Y-81104162D01*
X132516407Y-82508473D01*
X132586344Y-82582878D01*
X132620150Y-82609479D01*
X132638834Y-82620910D01*
X132572705Y-82694000D01*
X131982737Y-82694000D01*
X131868492Y-82317121D01*
X131868553Y-82317121D01*
X131772871Y-82001681D01*
X131657772Y-81622604D01*
X131613930Y-81477963D01*
X131585048Y-81382782D01*
X131584560Y-81381353D01*
X131561357Y-81304966D01*
X130480338Y-81304966D01*
X130471301Y-81315078D01*
X130471362Y-81335411D01*
X130508121Y-81456421D01*
X130559106Y-81624802D01*
X131450409Y-81623043D01*
X131651055Y-82001681D01*
X131122697Y-82001681D01*
X130670908Y-82693780D01*
X130081367Y-82693780D01*
X130450174Y-82128187D01*
X129995150Y-81710531D01*
X129809586Y-81099436D01*
X129801463Y-81044989D01*
X129803092Y-81016470D01*
X129808640Y-80989070D01*
X129809342Y-80986669D01*
G37*
D11*
X144129887Y-87094295D02*
X144510839Y-87094295D01*
X144510839Y-87094295D02*
X144548935Y-87475247D01*
X144548935Y-87475247D02*
X144510839Y-87437152D01*
X144510839Y-87437152D02*
X144434649Y-87399057D01*
X144434649Y-87399057D02*
X144244173Y-87399057D01*
X144244173Y-87399057D02*
X144167982Y-87437152D01*
X144167982Y-87437152D02*
X144129887Y-87475247D01*
X144129887Y-87475247D02*
X144091792Y-87551438D01*
X144091792Y-87551438D02*
X144091792Y-87741914D01*
X144091792Y-87741914D02*
X144129887Y-87818104D01*
X144129887Y-87818104D02*
X144167982Y-87856200D01*
X144167982Y-87856200D02*
X144244173Y-87894295D01*
X144244173Y-87894295D02*
X144434649Y-87894295D01*
X144434649Y-87894295D02*
X144510839Y-87856200D01*
X144510839Y-87856200D02*
X144548935Y-87818104D01*
X143825125Y-87360961D02*
X143634649Y-87894295D01*
X143634649Y-87894295D02*
X143444172Y-87360961D01*
X144510839Y-89594295D02*
X144510839Y-90241914D01*
X144510839Y-90241914D02*
X144472744Y-90318104D01*
X144472744Y-90318104D02*
X144434649Y-90356200D01*
X144434649Y-90356200D02*
X144358458Y-90394295D01*
X144358458Y-90394295D02*
X144206077Y-90394295D01*
X144206077Y-90394295D02*
X144129887Y-90356200D01*
X144129887Y-90356200D02*
X144091792Y-90318104D01*
X144091792Y-90318104D02*
X144053696Y-90241914D01*
X144053696Y-90241914D02*
X144053696Y-89594295D01*
X143672744Y-90394295D02*
X143672744Y-89594295D01*
X143672744Y-89594295D02*
X143367982Y-89594295D01*
X143367982Y-89594295D02*
X143291792Y-89632390D01*
X143291792Y-89632390D02*
X143253697Y-89670485D01*
X143253697Y-89670485D02*
X143215601Y-89746676D01*
X143215601Y-89746676D02*
X143215601Y-89860961D01*
X143215601Y-89860961D02*
X143253697Y-89937152D01*
X143253697Y-89937152D02*
X143291792Y-89975247D01*
X143291792Y-89975247D02*
X143367982Y-90013342D01*
X143367982Y-90013342D02*
X143672744Y-90013342D01*
X142872744Y-90394295D02*
X142872744Y-89594295D01*
X142872744Y-89594295D02*
X142682268Y-89594295D01*
X142682268Y-89594295D02*
X142567982Y-89632390D01*
X142567982Y-89632390D02*
X142491792Y-89708580D01*
X142491792Y-89708580D02*
X142453697Y-89784771D01*
X142453697Y-89784771D02*
X142415601Y-89937152D01*
X142415601Y-89937152D02*
X142415601Y-90051438D01*
X142415601Y-90051438D02*
X142453697Y-90203819D01*
X142453697Y-90203819D02*
X142491792Y-90280009D01*
X142491792Y-90280009D02*
X142567982Y-90356200D01*
X142567982Y-90356200D02*
X142682268Y-90394295D01*
X142682268Y-90394295D02*
X142872744Y-90394295D01*
X142072744Y-90394295D02*
X142072744Y-89594295D01*
D10*
G36*
X137833583Y-84380000D02*
G01*
X137798595Y-84206404D01*
X137370193Y-83873196D01*
X137291852Y-83803220D01*
X137266987Y-83773279D01*
X137251919Y-83747227D01*
X137242922Y-83720307D01*
X137240012Y-83693982D01*
X137243513Y-83668370D01*
X137253663Y-83646787D01*
X137270847Y-83628220D01*
X137292762Y-83614886D01*
X137321506Y-83606202D01*
X137359019Y-83603002D01*
X137408156Y-83609377D01*
X137456289Y-83628892D01*
X137500344Y-83659385D01*
X137540980Y-83701004D01*
X137725811Y-83579188D01*
X137681920Y-83523441D01*
X137626875Y-83475249D01*
X137559237Y-83434291D01*
X137485633Y-83404720D01*
X137405313Y-83386605D01*
X137317009Y-83380375D01*
X137246737Y-83384517D01*
X137184323Y-83396394D01*
X137128698Y-83415423D01*
X137076814Y-83442475D01*
X137034786Y-83474437D01*
X137001325Y-83511350D01*
X136976104Y-83553844D01*
X136960955Y-83600331D01*
X136955774Y-83651973D01*
X136961031Y-83709766D01*
X136976779Y-83765423D01*
X137003807Y-83818722D01*
X137047487Y-83876737D01*
X137103352Y-83932909D01*
X137185423Y-84000629D01*
X137519975Y-84259588D01*
X137557772Y-84160181D01*
X137025811Y-84160181D01*
X137070629Y-84380000D01*
X137833583Y-84380000D01*
G37*
G36*
X136458895Y-83385970D02*
G01*
X136528555Y-83402370D01*
X136593562Y-83429406D01*
X136653890Y-83466093D01*
X136708834Y-83511376D01*
X136758792Y-83565877D01*
X136801319Y-83626581D01*
X136837264Y-83694464D01*
X136866564Y-83770308D01*
X136887331Y-83849044D01*
X136900030Y-83932592D01*
X136904361Y-84021573D01*
X136898961Y-84100835D01*
X136883716Y-84168345D01*
X136859603Y-84226004D01*
X136825324Y-84277910D01*
X136783090Y-84320572D01*
X136732170Y-84354842D01*
X136675491Y-84379167D01*
X136611114Y-84394307D01*
X136537569Y-84399600D01*
X136462246Y-84394011D01*
X136392586Y-84377631D01*
X136327581Y-84350629D01*
X136267291Y-84313878D01*
X136212598Y-84268573D01*
X136163084Y-84214098D01*
X136120889Y-84153457D01*
X136084938Y-84085592D01*
X136055312Y-84009727D01*
X136034136Y-83930924D01*
X136021195Y-83847359D01*
X136017130Y-83765423D01*
X136295341Y-83765423D01*
X136298504Y-83825402D01*
X136308653Y-83894200D01*
X136325389Y-83962759D01*
X136348586Y-84027191D01*
X136379356Y-84085865D01*
X136415753Y-84131543D01*
X136444861Y-84154768D01*
X136476250Y-84168273D01*
X136510947Y-84172821D01*
X136543843Y-84168615D01*
X136571183Y-84156549D01*
X136594295Y-84136428D01*
X136610371Y-84110063D01*
X136621456Y-84070969D01*
X136625741Y-84014612D01*
X136622593Y-83954633D01*
X136612491Y-83885835D01*
X136595753Y-83817224D01*
X136572557Y-83752784D01*
X136541749Y-83694113D01*
X136505390Y-83648492D01*
X136476282Y-83625271D01*
X136444873Y-83611764D01*
X136410136Y-83607215D01*
X136377280Y-83611419D01*
X136349959Y-83623483D01*
X136326849Y-83643607D01*
X136310743Y-83669942D01*
X136299636Y-83709030D01*
X136295341Y-83765423D01*
X136017130Y-83765423D01*
X136016782Y-83758401D01*
X136022266Y-83679182D01*
X136037753Y-83611697D01*
X136062273Y-83554031D01*
X136096906Y-83502051D01*
X136139141Y-83459395D01*
X136189645Y-83425193D01*
X136245860Y-83400860D01*
X136309994Y-83385688D01*
X136383574Y-83380375D01*
X136458895Y-83385970D01*
G37*
G36*
X136046702Y-84380000D02*
G01*
X136011714Y-84206404D01*
X135583312Y-83873196D01*
X135504972Y-83803220D01*
X135480106Y-83773279D01*
X135465038Y-83747227D01*
X135456042Y-83720307D01*
X135453131Y-83693982D01*
X135456633Y-83668370D01*
X135466782Y-83646787D01*
X135483967Y-83628220D01*
X135505881Y-83614886D01*
X135534626Y-83606202D01*
X135572138Y-83603002D01*
X135621275Y-83609377D01*
X135669408Y-83628892D01*
X135713463Y-83659385D01*
X135754099Y-83701004D01*
X135938930Y-83579188D01*
X135895039Y-83523441D01*
X135839994Y-83475249D01*
X135772356Y-83434291D01*
X135698752Y-83404720D01*
X135618432Y-83386605D01*
X135530129Y-83380375D01*
X135459856Y-83384517D01*
X135397443Y-83396394D01*
X135341817Y-83415423D01*
X135289933Y-83442475D01*
X135247905Y-83474437D01*
X135214445Y-83511350D01*
X135189223Y-83553844D01*
X135174074Y-83600331D01*
X135168893Y-83651973D01*
X135174150Y-83709766D01*
X135189898Y-83765423D01*
X135216926Y-83818722D01*
X135260607Y-83876737D01*
X135316471Y-83932909D01*
X135398543Y-84000629D01*
X135733094Y-84259588D01*
X135770891Y-84160181D01*
X135238930Y-84160181D01*
X135283749Y-84380000D01*
X136046702Y-84380000D01*
G37*
G36*
X134843073Y-84399600D02*
G01*
X134947673Y-84392669D01*
X135045429Y-84372306D01*
X135107740Y-84350705D01*
X135162759Y-84323829D01*
X135211270Y-84291828D01*
X135082493Y-84094419D01*
X135027291Y-84128741D01*
X134962752Y-84154624D01*
X134894205Y-84170398D01*
X134824877Y-84175629D01*
X134768437Y-84171711D01*
X134725793Y-84161221D01*
X134693963Y-84145526D01*
X134668415Y-84122540D01*
X134653578Y-84095256D01*
X134648473Y-84062178D01*
X134652419Y-84036048D01*
X134663857Y-84014520D01*
X134683461Y-83996416D01*
X134708294Y-83984546D01*
X134747150Y-83975991D01*
X134805277Y-83972602D01*
X135086706Y-83972602D01*
X134922880Y-83399975D01*
X134299877Y-83399975D01*
X134343292Y-83614176D01*
X134868292Y-83614176D01*
X134701657Y-83492421D01*
X134812299Y-83878813D01*
X134928497Y-83756997D01*
X134735301Y-83756997D01*
X134643137Y-83762275D01*
X134568759Y-83776766D01*
X134509100Y-83798886D01*
X134461566Y-83827705D01*
X134421169Y-83866445D01*
X134392468Y-83912042D01*
X134374708Y-83965860D01*
X134368449Y-84030000D01*
X134375553Y-84103547D01*
X134396142Y-84168538D01*
X134430059Y-84226737D01*
X134475358Y-84277224D01*
X134531107Y-84319860D01*
X134598770Y-84354842D01*
X134671458Y-84379180D01*
X134752465Y-84394331D01*
X134843073Y-84399600D01*
G37*
G36*
X134274110Y-84083183D02*
G01*
X134233504Y-83878813D01*
X133826107Y-83878813D01*
X133866713Y-84083183D01*
X134274110Y-84083183D01*
G37*
G36*
X133700139Y-84380000D02*
G01*
X133525139Y-83503595D01*
X133428541Y-83614176D01*
X133729509Y-83614176D01*
X133686156Y-83399975D01*
X133226919Y-83399975D01*
X133422923Y-84380000D01*
X133700139Y-84380000D01*
G37*
G36*
X133281873Y-84380000D02*
G01*
X133246885Y-84206404D01*
X132818483Y-83873196D01*
X132740143Y-83803220D01*
X132715277Y-83773279D01*
X132700209Y-83747227D01*
X132691213Y-83720307D01*
X132688302Y-83693982D01*
X132691804Y-83668370D01*
X132701953Y-83646787D01*
X132719138Y-83628220D01*
X132741052Y-83614886D01*
X132769797Y-83606202D01*
X132807309Y-83603002D01*
X132856446Y-83609377D01*
X132904579Y-83628892D01*
X132948634Y-83659385D01*
X132989270Y-83701004D01*
X133174101Y-83579188D01*
X133130210Y-83523441D01*
X133075165Y-83475249D01*
X133007527Y-83434291D01*
X132933923Y-83404720D01*
X132853603Y-83386605D01*
X132765300Y-83380375D01*
X132695027Y-83384517D01*
X132632613Y-83396394D01*
X132576988Y-83415423D01*
X132525104Y-83442475D01*
X132483076Y-83474437D01*
X132449616Y-83511350D01*
X132424394Y-83553844D01*
X132409245Y-83600331D01*
X132404064Y-83651973D01*
X132409321Y-83709766D01*
X132425069Y-83765423D01*
X132452097Y-83818722D01*
X132495778Y-83876737D01*
X132551642Y-83932909D01*
X132633714Y-84000629D01*
X132968265Y-84259588D01*
X133006062Y-84160181D01*
X132474101Y-84160181D01*
X132518920Y-84380000D01*
X133281873Y-84380000D01*
G37*
G36*
X132361200Y-84083183D02*
G01*
X132320594Y-83878813D01*
X131913197Y-83878813D01*
X131953803Y-84083183D01*
X132361200Y-84083183D01*
G37*
G36*
X131928768Y-84380000D02*
G01*
X131893780Y-84206404D01*
X131465378Y-83873196D01*
X131387037Y-83803220D01*
X131362172Y-83773279D01*
X131347103Y-83747227D01*
X131338107Y-83720307D01*
X131335197Y-83693982D01*
X131338698Y-83668370D01*
X131348848Y-83646787D01*
X131366032Y-83628220D01*
X131387947Y-83614886D01*
X131416691Y-83606202D01*
X131454204Y-83603002D01*
X131503341Y-83609377D01*
X131551474Y-83628892D01*
X131595528Y-83659385D01*
X131636165Y-83701004D01*
X131820996Y-83579188D01*
X131777105Y-83523441D01*
X131722060Y-83475249D01*
X131654422Y-83434291D01*
X131580818Y-83404720D01*
X131500497Y-83386605D01*
X131412194Y-83380375D01*
X131341922Y-83384517D01*
X131279508Y-83396394D01*
X131223883Y-83415423D01*
X131171999Y-83442475D01*
X131129971Y-83474437D01*
X131096510Y-83511350D01*
X131071289Y-83553844D01*
X131056140Y-83600331D01*
X131050959Y-83651973D01*
X131056216Y-83709766D01*
X131071964Y-83765423D01*
X131098992Y-83818722D01*
X131142672Y-83876737D01*
X131198537Y-83932909D01*
X131280608Y-84000629D01*
X131615160Y-84259588D01*
X131652957Y-84160181D01*
X131120996Y-84160181D01*
X131165814Y-84380000D01*
X131928768Y-84380000D01*
G37*
G36*
X130743335Y-84399600D02*
G01*
X130847837Y-84392656D01*
X130944958Y-84372306D01*
X131006858Y-84350786D01*
X131062157Y-84323924D01*
X131111531Y-84291828D01*
X130982754Y-84094419D01*
X130926429Y-84128803D01*
X130861671Y-84154624D01*
X130793301Y-84170422D01*
X130725139Y-84175629D01*
X130670223Y-84172009D01*
X130628541Y-84162318D01*
X130593203Y-84145284D01*
X130569068Y-84123117D01*
X130553950Y-84094988D01*
X130548735Y-84060774D01*
X130552388Y-84035427D01*
X130562779Y-84015345D01*
X130580242Y-83999225D01*
X130616938Y-83984306D01*
X130678916Y-83978220D01*
X130797923Y-83978220D01*
X130762936Y-83803220D01*
X130447923Y-83518982D01*
X130432536Y-83614176D01*
X130936531Y-83614176D01*
X130893117Y-83399975D01*
X130184752Y-83399975D01*
X130218335Y-83573571D01*
X130533347Y-83857808D01*
X130659316Y-83783620D01*
X130597766Y-83783620D01*
X130530137Y-83787431D01*
X130472014Y-83798191D01*
X130422034Y-83815127D01*
X130375821Y-83839745D01*
X130338397Y-83869766D01*
X130308644Y-83905375D01*
X130286780Y-83946202D01*
X130273405Y-83992013D01*
X130268771Y-84043982D01*
X130275615Y-84110091D01*
X130295780Y-84170533D01*
X130329649Y-84226737D01*
X130374302Y-84275541D01*
X130429998Y-84317754D01*
X130498360Y-84353438D01*
X130571554Y-84378577D01*
X130652791Y-84394183D01*
X130743335Y-84399600D01*
G37*
G36*
X134240230Y-85730000D02*
G01*
X134088982Y-84971198D01*
X133836985Y-84971198D01*
X133880399Y-85186803D01*
X133905617Y-85125193D01*
X133867337Y-85069153D01*
X133823176Y-85026817D01*
X133772627Y-84996416D01*
X133716353Y-84975948D01*
X133652366Y-84963117D01*
X133579370Y-84958620D01*
X133625593Y-85197978D01*
X133656428Y-85194558D01*
X133685799Y-85193825D01*
X133742366Y-85198815D01*
X133789108Y-85212823D01*
X133827948Y-85235102D01*
X133859108Y-85266488D01*
X133883817Y-85310790D01*
X133901404Y-85371573D01*
X133974188Y-85730000D01*
X134240230Y-85730000D01*
G37*
G36*
X133202198Y-85742578D02*
G01*
X133282472Y-85737497D01*
X133352666Y-85723009D01*
X133414262Y-85699897D01*
X133470821Y-85667000D01*
X133517364Y-85627010D01*
X133555006Y-85579546D01*
X133582590Y-85525727D01*
X133599513Y-85465307D01*
X133605382Y-85396791D01*
X133598762Y-85314382D01*
X133579520Y-85239979D01*
X133547984Y-85172149D01*
X133504748Y-85111110D01*
X133451418Y-85059284D01*
X133386967Y-85016017D01*
X133315841Y-84984695D01*
X133236129Y-84965343D01*
X133146144Y-84958620D01*
X133069594Y-84963660D01*
X133003647Y-84977949D01*
X132946659Y-85000629D01*
X132894719Y-85032721D01*
X132852122Y-85071531D01*
X132817882Y-85117500D01*
X132792978Y-85169162D01*
X132777688Y-85226840D01*
X132772391Y-85291828D01*
X132776605Y-85356247D01*
X132787779Y-85416392D01*
X133396798Y-85416392D01*
X133371580Y-85276379D01*
X132910999Y-85276379D01*
X133021580Y-85316985D01*
X133016921Y-85264792D01*
X133025061Y-85225333D01*
X133044682Y-85192414D01*
X133074092Y-85167936D01*
X133111124Y-85152996D01*
X133158784Y-85147602D01*
X133200603Y-85151470D01*
X133235367Y-85162376D01*
X133264480Y-85179842D01*
X133300063Y-85217160D01*
X133326090Y-85267342D01*
X133341182Y-85324233D01*
X133346362Y-85387021D01*
X133340913Y-85437424D01*
X133326136Y-85474868D01*
X133303009Y-85502548D01*
X133271881Y-85521984D01*
X133229599Y-85534819D01*
X133172766Y-85539612D01*
X133122974Y-85535593D01*
X133074092Y-85523492D01*
X133028320Y-85503826D01*
X132989340Y-85478002D01*
X132878759Y-85644576D01*
X132927993Y-85676827D01*
X132979451Y-85701946D01*
X133033487Y-85720230D01*
X133117403Y-85737004D01*
X133202198Y-85742578D01*
G37*
G36*
X132540849Y-85730000D02*
G01*
X132701866Y-84971198D01*
X132438695Y-84971198D01*
X132312665Y-85606779D01*
X132449869Y-85606779D01*
X132064881Y-84971198D01*
X131801648Y-84971198D01*
X132265099Y-85730000D01*
X132540849Y-85730000D01*
G37*
G36*
X130984261Y-84735970D02*
G01*
X131053921Y-84752370D01*
X131118928Y-84779406D01*
X131179257Y-84816093D01*
X131234200Y-84861376D01*
X131284159Y-84915877D01*
X131326685Y-84976581D01*
X131362631Y-85044464D01*
X131391931Y-85120308D01*
X131412697Y-85199044D01*
X131425396Y-85282592D01*
X131429727Y-85371573D01*
X131424327Y-85450835D01*
X131409083Y-85518345D01*
X131384970Y-85576004D01*
X131350690Y-85627910D01*
X131308457Y-85670572D01*
X131257536Y-85704842D01*
X131200857Y-85729167D01*
X131136480Y-85744307D01*
X131062936Y-85749600D01*
X130987613Y-85744011D01*
X130917952Y-85727631D01*
X130852948Y-85700629D01*
X130792657Y-85663878D01*
X130737964Y-85618573D01*
X130688450Y-85564098D01*
X130646255Y-85503457D01*
X130610304Y-85435592D01*
X130580678Y-85359727D01*
X130559502Y-85280924D01*
X130546561Y-85197359D01*
X130542497Y-85115423D01*
X130820708Y-85115423D01*
X130823870Y-85175402D01*
X130834019Y-85244200D01*
X130850755Y-85312759D01*
X130873953Y-85377191D01*
X130904722Y-85435865D01*
X130941120Y-85481543D01*
X130970227Y-85504768D01*
X131001616Y-85518273D01*
X131036313Y-85522821D01*
X131069210Y-85518615D01*
X131096550Y-85506549D01*
X131119661Y-85486428D01*
X131135738Y-85460063D01*
X131146822Y-85420969D01*
X131151107Y-85364612D01*
X131147959Y-85304633D01*
X131137857Y-85235835D01*
X131121119Y-85167224D01*
X131097923Y-85102784D01*
X131067115Y-85044113D01*
X131030757Y-84998492D01*
X131001648Y-84975271D01*
X130970239Y-84961764D01*
X130935502Y-84957215D01*
X130902646Y-84961419D01*
X130875325Y-84973483D01*
X130852215Y-84993607D01*
X130836109Y-85019942D01*
X130825003Y-85059030D01*
X130820708Y-85115423D01*
X130542497Y-85115423D01*
X130542149Y-85108401D01*
X130547633Y-85029182D01*
X130563119Y-84961697D01*
X130587639Y-84904031D01*
X130622272Y-84852051D01*
X130664507Y-84809395D01*
X130715012Y-84775193D01*
X130771226Y-84750860D01*
X130835360Y-84735688D01*
X130908941Y-84730375D01*
X130984261Y-84735970D01*
G37*
D12*
%TO.C,TP3*%
X147125000Y-92500000D02*
G75*
G02*
X145225000Y-92500000I-950000J0D01*
G01*
X145225000Y-92500000D02*
G75*
G02*
X147125000Y-92500000I950000J0D01*
G01*
%TO.C,TP2*%
X147125000Y-90000000D02*
G75*
G02*
X145225000Y-90000000I-950000J0D01*
G01*
X145225000Y-90000000D02*
G75*
G02*
X147125000Y-90000000I950000J0D01*
G01*
%TO.C,TP1*%
X147125000Y-87500000D02*
G75*
G02*
X145225000Y-87500000I-950000J0D01*
G01*
X145225000Y-87500000D02*
G75*
G02*
X147125000Y-87500000I950000J0D01*
G01*
%TD*%
M02*
