%TF.GenerationSoftware,KiCad,Pcbnew,9.0.5*%
%TF.CreationDate,2025-12-13T15:18:48-05:00*%
%TF.ProjectId,lightwear_bracelet,6c696768-7477-4656-9172-5f6272616365,rev?*%
%TF.SameCoordinates,Original*%
%TF.FileFunction,Copper,L1,Top*%
%TF.FilePolarity,Positive*%
%FSLAX46Y46*%
G04 Gerber Fmt 4.6, Leading zero omitted, Abs format (unit mm)*
G04 Created by KiCad (PCBNEW 9.0.5) date 2025-12-13 15:18:48*
%MOMM*%
%LPD*%
G01*
G04 APERTURE LIST*
G04 Aperture macros list*
%AMRoundRect*
0 Rectangle with rounded corners*
0 $1 Rounding radius*
0 $2 $3 $4 $5 $6 $7 $8 $9 X,Y pos of 4 corners*
0 Add a 4 corners polygon primitive as box body*
4,1,4,$2,$3,$4,$5,$6,$7,$8,$9,$2,$3,0*
0 Add four circle primitives for the rounded corners*
1,1,$1+$1,$2,$3*
1,1,$1+$1,$4,$5*
1,1,$1+$1,$6,$7*
1,1,$1+$1,$8,$9*
0 Add four rect primitives between the rounded corners*
20,1,$1+$1,$2,$3,$4,$5,0*
20,1,$1+$1,$4,$5,$6,$7,0*
20,1,$1+$1,$6,$7,$8,$9,0*
20,1,$1+$1,$8,$9,$2,$3,0*%
%AMFreePoly0*
4,1,14,0.334644,0.085355,0.385355,0.034644,0.400000,-0.000711,0.400000,-0.050000,0.385355,-0.085355,0.350000,-0.100000,-0.350000,-0.100000,-0.385355,-0.085355,-0.400000,-0.050000,-0.400000,0.050000,-0.385355,0.085355,-0.350000,0.100000,0.299289,0.100000,0.334644,0.085355,0.334644,0.085355,$1*%
%AMFreePoly1*
4,1,14,0.385355,0.085355,0.400000,0.050000,0.400000,0.000711,0.385355,-0.034644,0.334644,-0.085355,0.299289,-0.100000,-0.350000,-0.100000,-0.385355,-0.085355,-0.400000,-0.050000,-0.400000,0.050000,-0.385355,0.085355,-0.350000,0.100000,0.350000,0.100000,0.385355,0.085355,0.385355,0.085355,$1*%
%AMFreePoly2*
4,1,14,0.085355,0.385355,0.100000,0.350000,0.100000,-0.350000,0.085355,-0.385355,0.050000,-0.400000,-0.050000,-0.400000,-0.085355,-0.385355,-0.100000,-0.350000,-0.100000,0.299289,-0.085355,0.334644,-0.034644,0.385355,0.000711,0.400000,0.050000,0.400000,0.085355,0.385355,0.085355,0.385355,$1*%
%AMFreePoly3*
4,1,14,0.034644,0.385355,0.085355,0.334644,0.100000,0.299289,0.100000,-0.350000,0.085355,-0.385355,0.050000,-0.400000,-0.050000,-0.400000,-0.085355,-0.385355,-0.100000,-0.350000,-0.100000,0.350000,-0.085355,0.385355,-0.050000,0.400000,-0.000711,0.400000,0.034644,0.385355,0.034644,0.385355,$1*%
%AMFreePoly4*
4,1,14,0.385355,0.085355,0.400000,0.050000,0.400000,-0.050000,0.385355,-0.085355,0.350000,-0.100000,-0.299289,-0.100000,-0.334644,-0.085355,-0.385355,-0.034644,-0.400000,0.000711,-0.400000,0.050000,-0.385355,0.085355,-0.350000,0.100000,0.350000,0.100000,0.385355,0.085355,0.385355,0.085355,$1*%
%AMFreePoly5*
4,1,14,0.385355,0.085355,0.400000,0.050000,0.400000,-0.050000,0.385355,-0.085355,0.350000,-0.100000,-0.350000,-0.100000,-0.385355,-0.085355,-0.400000,-0.050000,-0.400000,-0.000711,-0.385355,0.034644,-0.334644,0.085355,-0.299289,0.100000,0.350000,0.100000,0.385355,0.085355,0.385355,0.085355,$1*%
%AMFreePoly6*
4,1,14,0.085355,0.385355,0.100000,0.350000,0.100000,-0.299289,0.085355,-0.334644,0.034644,-0.385355,-0.000711,-0.400000,-0.050000,-0.400000,-0.085355,-0.385355,-0.100000,-0.350000,-0.100000,0.350000,-0.085355,0.385355,-0.050000,0.400000,0.050000,0.400000,0.085355,0.385355,0.085355,0.385355,$1*%
%AMFreePoly7*
4,1,14,0.085355,0.385355,0.100000,0.350000,0.100000,-0.350000,0.085355,-0.385355,0.050000,-0.400000,0.000711,-0.400000,-0.034644,-0.385355,-0.085355,-0.334644,-0.100000,-0.299289,-0.100000,0.350000,-0.085355,0.385355,-0.050000,0.400000,0.050000,0.400000,0.085355,0.385355,0.085355,0.385355,$1*%
G04 Aperture macros list end*
%TA.AperFunction,SMDPad,CuDef*%
%ADD10R,2.000000X2.000000*%
%TD*%
%TA.AperFunction,SMDPad,CuDef*%
%ADD11RoundRect,0.135000X-0.185000X0.135000X-0.185000X-0.135000X0.185000X-0.135000X0.185000X0.135000X0*%
%TD*%
%TA.AperFunction,SMDPad,CuDef*%
%ADD12RoundRect,0.100000X-0.130000X-0.100000X0.130000X-0.100000X0.130000X0.100000X-0.130000X0.100000X0*%
%TD*%
%TA.AperFunction,SMDPad,CuDef*%
%ADD13R,4.000000X1.400000*%
%TD*%
%TA.AperFunction,SMDPad,CuDef*%
%ADD14RoundRect,0.150000X-0.587500X-0.150000X0.587500X-0.150000X0.587500X0.150000X-0.587500X0.150000X0*%
%TD*%
%TA.AperFunction,SMDPad,CuDef*%
%ADD15RoundRect,0.150000X-0.512500X-0.150000X0.512500X-0.150000X0.512500X0.150000X-0.512500X0.150000X0*%
%TD*%
%TA.AperFunction,SMDPad,CuDef*%
%ADD16RoundRect,0.135000X-0.135000X-0.185000X0.135000X-0.185000X0.135000X0.185000X-0.135000X0.185000X0*%
%TD*%
%TA.AperFunction,SMDPad,CuDef*%
%ADD17RoundRect,0.140000X-0.140000X-0.170000X0.140000X-0.170000X0.140000X0.170000X-0.140000X0.170000X0*%
%TD*%
%TA.AperFunction,SMDPad,CuDef*%
%ADD18FreePoly0,0.000000*%
%TD*%
%TA.AperFunction,SMDPad,CuDef*%
%ADD19RoundRect,0.050000X-0.350000X-0.050000X0.350000X-0.050000X0.350000X0.050000X-0.350000X0.050000X0*%
%TD*%
%TA.AperFunction,SMDPad,CuDef*%
%ADD20FreePoly1,0.000000*%
%TD*%
%TA.AperFunction,SMDPad,CuDef*%
%ADD21FreePoly2,0.000000*%
%TD*%
%TA.AperFunction,SMDPad,CuDef*%
%ADD22RoundRect,0.050000X-0.050000X-0.350000X0.050000X-0.350000X0.050000X0.350000X-0.050000X0.350000X0*%
%TD*%
%TA.AperFunction,SMDPad,CuDef*%
%ADD23FreePoly3,0.000000*%
%TD*%
%TA.AperFunction,SMDPad,CuDef*%
%ADD24FreePoly4,0.000000*%
%TD*%
%TA.AperFunction,SMDPad,CuDef*%
%ADD25FreePoly5,0.000000*%
%TD*%
%TA.AperFunction,SMDPad,CuDef*%
%ADD26FreePoly6,0.000000*%
%TD*%
%TA.AperFunction,SMDPad,CuDef*%
%ADD27FreePoly7,0.000000*%
%TD*%
%TA.AperFunction,HeatsinkPad*%
%ADD28R,1.700000X1.700000*%
%TD*%
%TA.AperFunction,SMDPad,CuDef*%
%ADD29R,0.711200X0.990600*%
%TD*%
%TA.AperFunction,ViaPad*%
%ADD30C,1.000000*%
%TD*%
%TA.AperFunction,ViaPad*%
%ADD31C,0.600000*%
%TD*%
%TA.AperFunction,Conductor*%
%ADD32C,0.200000*%
%TD*%
%TA.AperFunction,Conductor*%
%ADD33C,0.500000*%
%TD*%
%TA.AperFunction,Conductor*%
%ADD34C,0.150000*%
%TD*%
G04 APERTURE END LIST*
D10*
%TO.P,TP6,1,1*%
%TO.N,+BATT*%
X134900000Y-81200000D03*
%TD*%
D11*
%TO.P,R2,1*%
%TO.N,Net-(U2-PROG)*%
X148300000Y-81090000D03*
%TO.P,R2,2*%
%TO.N,GND*%
X148300000Y-82110000D03*
%TD*%
D12*
%TO.P,D1,1,K*%
%TO.N,Net-(D1-K)*%
X150824293Y-93299293D03*
%TO.P,D1,2,A*%
%TO.N,Net-(D1-A)*%
X151464293Y-93299293D03*
%TD*%
D13*
%TO.P,TP4,1,1*%
%TO.N,/LEDK*%
X139050000Y-89100000D03*
%TD*%
%TO.P,TP5,1,1*%
%TO.N,+BATT*%
X139050000Y-90800000D03*
%TD*%
D14*
%TO.P,Q1,1,D*%
%TO.N,/LEDK*%
X149925000Y-84550000D03*
%TO.P,Q1,2,G*%
%TO.N,Net-(Q1-G)*%
X149925000Y-86450000D03*
%TO.P,Q1,3,S*%
%TO.N,GND*%
X151800000Y-85500000D03*
%TD*%
D15*
%TO.P,U2,1,~{CHRG}*%
%TO.N,/nCHRG*%
X149700000Y-81100000D03*
%TO.P,U2,2,GND*%
%TO.N,GND*%
X149700000Y-82050000D03*
%TO.P,U2,3,BAT*%
%TO.N,+BATT*%
X149700000Y-83000000D03*
%TO.P,U2,4,V_{CC}*%
%TO.N,+5V*%
X151975000Y-83000000D03*
%TO.P,U2,5,PROG*%
%TO.N,Net-(U2-PROG)*%
X151975000Y-81100000D03*
%TD*%
D16*
%TO.P,R3,1*%
%TO.N,Net-(U1-PA6)*%
X151090000Y-98900000D03*
%TO.P,R3,2*%
%TO.N,Net-(Q1-G)*%
X152110000Y-98900000D03*
%TD*%
D17*
%TO.P,C1,1*%
%TO.N,+BATT*%
X148940000Y-98900000D03*
%TO.P,C1,2*%
%TO.N,GND*%
X149900000Y-98900000D03*
%TD*%
D10*
%TO.P,TP7,1,1*%
%TO.N,GND*%
X140200000Y-81200000D03*
%TD*%
D18*
%TO.P,U1,1,PA2*%
%TO.N,unconnected-(U1-PA2-Pad1)*%
X149000000Y-95200000D03*
D19*
%TO.P,U1,2,PA3*%
%TO.N,unconnected-(U1-PA3-Pad2)*%
X149000000Y-95600000D03*
%TO.P,U1,3,GND*%
%TO.N,GND*%
X149000000Y-96000000D03*
%TO.P,U1,4,VCC*%
%TO.N,+BATT*%
X149000000Y-96400000D03*
D20*
%TO.P,U1,5,PA4*%
%TO.N,unconnected-(U1-PA4-Pad5)*%
X149000000Y-96800000D03*
D21*
%TO.P,U1,6,PA5*%
%TO.N,unconnected-(U1-PA5-Pad6)*%
X149650000Y-97450000D03*
D22*
%TO.P,U1,7,PA6*%
%TO.N,Net-(U1-PA6)*%
X150050000Y-97450000D03*
%TO.P,U1,8,PA7*%
%TO.N,unconnected-(U1-PA7-Pad8)*%
X150450000Y-97450000D03*
%TO.P,U1,9,PB5*%
%TO.N,unconnected-(U1-PB5-Pad9)*%
X150850000Y-97450000D03*
D23*
%TO.P,U1,10,PB4*%
%TO.N,unconnected-(U1-PB4-Pad10)*%
X151250000Y-97450000D03*
D24*
%TO.P,U1,11,PB3*%
%TO.N,unconnected-(U1-PB3-Pad11)*%
X151900000Y-96800000D03*
D19*
%TO.P,U1,12,PB2*%
%TO.N,unconnected-(U1-PB2-Pad12)*%
X151900000Y-96400000D03*
%TO.P,U1,13,PB1*%
%TO.N,unconnected-(U1-PB1-Pad13)*%
X151900000Y-96000000D03*
%TO.P,U1,14,PB0*%
%TO.N,unconnected-(U1-PB0-Pad14)*%
X151900000Y-95600000D03*
D25*
%TO.P,U1,15,PC0*%
%TO.N,unconnected-(U1-PC0-Pad15)*%
X151900000Y-95200000D03*
D26*
%TO.P,U1,16,PC1*%
%TO.N,Net-(D1-K)*%
X151250000Y-94550000D03*
D22*
%TO.P,U1,17,PC2*%
%TO.N,/nCHRG*%
X150850000Y-94550000D03*
%TO.P,U1,18,PC3*%
%TO.N,Net-(SW1-A)*%
X150450000Y-94550000D03*
%TO.P,U1,19,~{RESET}/PA0*%
%TO.N,/UPDI*%
X150050000Y-94550000D03*
D27*
%TO.P,U1,20,PA1*%
%TO.N,unconnected-(U1-PA1-Pad20)*%
X149650000Y-94550000D03*
D28*
%TO.P,U1,21,GND*%
%TO.N,GND*%
X150450000Y-96000000D03*
%TD*%
D29*
%TO.P,SW1,1,A*%
%TO.N,Net-(SW1-A)*%
X149325001Y-92250001D03*
X149325001Y-87749999D03*
%TO.P,SW1,2,B*%
%TO.N,GND*%
X151474999Y-92250001D03*
X151474999Y-87749999D03*
%TD*%
D11*
%TO.P,R1,1*%
%TO.N,+BATT*%
X148300000Y-83000000D03*
%TO.P,R1,2*%
%TO.N,Net-(D1-A)*%
X148300000Y-84020000D03*
%TD*%
D30*
%TO.N,+BATT*%
X139650000Y-84050000D03*
X147350000Y-83075000D03*
D31*
%TO.N,GND*%
X136950000Y-80700000D03*
X142000000Y-80700000D03*
X144400000Y-86900000D03*
X142800000Y-80700000D03*
X152100000Y-89500000D03*
X144400000Y-90100000D03*
X144400000Y-89300000D03*
X148300000Y-88200000D03*
X141200000Y-84000000D03*
X153050000Y-86100000D03*
X147425000Y-88450000D03*
X148300000Y-86500000D03*
X152100000Y-90300000D03*
X148300000Y-89000000D03*
X137750000Y-80700000D03*
X148300000Y-90300000D03*
X147000000Y-94200000D03*
X147175000Y-97275000D03*
X152100000Y-88700000D03*
X148700000Y-97700000D03*
X147175000Y-98075000D03*
X144400000Y-87700000D03*
X145200000Y-80700000D03*
X143600000Y-80700000D03*
X153050000Y-85300000D03*
X144400000Y-91700000D03*
X141700000Y-81950000D03*
X144400000Y-88500000D03*
X147425000Y-89250000D03*
X144400000Y-80700000D03*
X138550000Y-80700000D03*
X148300000Y-91100000D03*
X153050000Y-86900000D03*
X147175000Y-98875000D03*
X142000000Y-84000000D03*
X146200000Y-94200000D03*
X139050000Y-83050000D03*
X144400000Y-90900000D03*
X146000000Y-80700000D03*
X147175000Y-96475000D03*
X152100000Y-91100000D03*
X138250000Y-83050000D03*
%TO.N,Net-(D1-A)*%
X151700000Y-84500000D03*
X152201074Y-93000741D03*
D30*
%TO.N,/LEDK*%
X142450000Y-88400000D03*
X147300000Y-84700000D03*
D31*
%TO.N,Net-(Q1-G)*%
X151900000Y-97700000D03*
X150400000Y-87700000D03*
%TO.N,Net-(SW1-A)*%
X149325001Y-91475000D03*
X149325001Y-88525000D03*
D30*
%TO.N,+5V*%
X153325000Y-83000000D03*
D31*
%TO.N,/UPDI*%
X148400000Y-93300000D03*
%TO.N,/nCHRG*%
X150950000Y-91100000D03*
X150872975Y-83391975D03*
%TD*%
D32*
%TO.N,/nCHRG*%
X150000000Y-81100000D02*
X149525000Y-81100000D01*
X150794203Y-81894203D02*
X150000000Y-81100000D01*
X150794203Y-83313203D02*
X150794203Y-81894203D01*
X150872975Y-83391975D02*
X150794203Y-83313203D01*
%TO.N,Net-(D1-A)*%
X151200000Y-84000000D02*
X151700000Y-84500000D01*
X148120000Y-84000000D02*
X151200000Y-84000000D01*
X148100000Y-84020000D02*
X148120000Y-84000000D01*
%TO.N,+BATT*%
X148400000Y-96400000D02*
X147025000Y-95025000D01*
X147950000Y-97910000D02*
X147950000Y-95950000D01*
D33*
X147350000Y-83075000D02*
X147425000Y-83000000D01*
D32*
X145700000Y-95025000D02*
X143400000Y-92725000D01*
X147025000Y-95025000D02*
X145700000Y-95025000D01*
X143400000Y-92725000D02*
X143400000Y-89100000D01*
D33*
X149700000Y-83000000D02*
X148300000Y-83000000D01*
X147425000Y-83000000D02*
X148300000Y-83000000D01*
X143400000Y-87800000D02*
X143400000Y-89100000D01*
X139650000Y-84050000D02*
X143400000Y-87800000D01*
X135000000Y-81200000D02*
X137850000Y-84050000D01*
X137850000Y-84050000D02*
X139650000Y-84050000D01*
D32*
X148940000Y-98900000D02*
X147950000Y-97910000D01*
D33*
X143400000Y-89100000D02*
X141700000Y-90800000D01*
D32*
X149000000Y-96400000D02*
X148400000Y-96400000D01*
D33*
X134900000Y-81200000D02*
X135000000Y-81200000D01*
X141700000Y-90800000D02*
X139050000Y-90800000D01*
D32*
%TO.N,GND*%
X149000000Y-96000000D02*
X148500000Y-96000000D01*
X148300000Y-95800000D02*
X148300000Y-95600000D01*
X148500000Y-96000000D02*
X148300000Y-95800000D01*
D34*
%TO.N,Net-(D1-A)*%
X152199259Y-93000741D02*
X151900000Y-93300000D01*
X152201074Y-93000741D02*
X152199259Y-93000741D01*
X151900000Y-93300000D02*
X151465000Y-93300000D01*
%TO.N,Net-(D1-K)*%
X151250000Y-94550000D02*
X151250000Y-93950000D01*
X150825000Y-93525000D02*
X150825000Y-93300000D01*
X151250000Y-93950000D02*
X150825000Y-93525000D01*
D33*
%TO.N,/LEDK*%
X149500000Y-84700000D02*
X149600000Y-84600000D01*
X142450000Y-88400000D02*
X141750000Y-89100000D01*
X141750000Y-89100000D02*
X139050000Y-89100000D01*
X147300000Y-84700000D02*
X149500000Y-84700000D01*
D32*
%TO.N,Net-(Q1-G)*%
X149925000Y-86450000D02*
X149462500Y-86450000D01*
X150400000Y-87700000D02*
X150401000Y-87699000D01*
X152110000Y-98900000D02*
X152110000Y-97910000D01*
X150401000Y-87699000D02*
X150401000Y-86926000D01*
X150401000Y-86926000D02*
X149925000Y-86450000D01*
X152110000Y-97910000D02*
X151900000Y-97700000D01*
%TO.N,Net-(U2-PROG)*%
X151375000Y-80500000D02*
X151975000Y-81100000D01*
X148890000Y-80500000D02*
X151375000Y-80500000D01*
X148300000Y-81090000D02*
X148890000Y-80500000D01*
%TO.N,Net-(U1-PA6)*%
X151072936Y-98900000D02*
X151090000Y-98900000D01*
X150050000Y-97450000D02*
X150050000Y-97877064D01*
X150050000Y-97877064D02*
X151072936Y-98900000D01*
D34*
%TO.N,Net-(SW1-A)*%
X149325001Y-92913967D02*
X150450000Y-94038966D01*
X149325001Y-88525000D02*
X149325001Y-87749999D01*
X149325001Y-91475000D02*
X149325001Y-92250001D01*
X150450000Y-94038966D02*
X150450000Y-94550000D01*
X149325001Y-92250001D02*
X149325001Y-92913967D01*
D33*
%TO.N,+5V*%
X152000000Y-82975000D02*
X151975000Y-83000000D01*
X153325000Y-83000000D02*
X153300000Y-82975000D01*
X153300000Y-82975000D02*
X152000000Y-82975000D01*
D32*
%TO.N,/UPDI*%
X150050000Y-94100000D02*
X149750000Y-93800000D01*
X149750000Y-93800000D02*
X148900000Y-93800000D01*
X148900000Y-93800000D02*
X148400000Y-93300000D01*
X150050000Y-94550000D02*
X150050000Y-94100000D01*
D34*
%TO.N,/nCHRG*%
X150850000Y-94013288D02*
X150850000Y-94550000D01*
X150200000Y-91850000D02*
X150950000Y-91100000D01*
X150200000Y-93363288D02*
X150850000Y-94013288D01*
X150200000Y-91850000D02*
X150200000Y-93363288D01*
%TD*%
%TA.AperFunction,Conductor*%
%TO.N,GND*%
G36*
X133658691Y-80119407D02*
G01*
X133694655Y-80168907D01*
X133699500Y-80199500D01*
X133699500Y-82219746D01*
X133699501Y-82219758D01*
X133711132Y-82278227D01*
X133711134Y-82278233D01*
X133743332Y-82326420D01*
X133755448Y-82344552D01*
X133821769Y-82388867D01*
X133866231Y-82397711D01*
X133880241Y-82400498D01*
X133880246Y-82400498D01*
X133880252Y-82400500D01*
X134431528Y-82400500D01*
X134468832Y-82407796D01*
X136307777Y-83155880D01*
X136340475Y-83177579D01*
X137573386Y-84410490D01*
X137676113Y-84469799D01*
X137688320Y-84473069D01*
X137688324Y-84473072D01*
X137688325Y-84473071D01*
X137790691Y-84500500D01*
X139068836Y-84500500D01*
X139127027Y-84519407D01*
X139138840Y-84529496D01*
X139203458Y-84594114D01*
X139318182Y-84670771D01*
X139318193Y-84670777D01*
X139359062Y-84687705D01*
X139445672Y-84723580D01*
X139581007Y-84750500D01*
X139672389Y-84750500D01*
X139730580Y-84769407D01*
X139742393Y-84779496D01*
X142493392Y-87530496D01*
X142521169Y-87585013D01*
X142511598Y-87645445D01*
X142468333Y-87688710D01*
X142423388Y-87699500D01*
X142381004Y-87699500D01*
X142245672Y-87726420D01*
X142245670Y-87726420D01*
X142118193Y-87779222D01*
X142118182Y-87779228D01*
X142003458Y-87855885D01*
X141905885Y-87953458D01*
X141829228Y-88068182D01*
X141829222Y-88068193D01*
X141776420Y-88195670D01*
X141776420Y-88195672D01*
X141749500Y-88331004D01*
X141749500Y-88422389D01*
X141747031Y-88429986D01*
X141748281Y-88437876D01*
X141737756Y-88458531D01*
X141730593Y-88480580D01*
X141720504Y-88492393D01*
X141719497Y-88493400D01*
X141664980Y-88521177D01*
X141604548Y-88511606D01*
X141595958Y-88506673D01*
X141575311Y-88493400D01*
X141165922Y-88230221D01*
X141164957Y-88229642D01*
X141155061Y-88223702D01*
X141153729Y-88222958D01*
X141152982Y-88222542D01*
X141152968Y-88222537D01*
X141139481Y-88218650D01*
X141128231Y-88211133D01*
X141080360Y-88201611D01*
X141076344Y-88200453D01*
X141076342Y-88200453D01*
X141073039Y-88199501D01*
X141065098Y-88197212D01*
X141065101Y-88197212D01*
X141060629Y-88196960D01*
X141056160Y-88196709D01*
X141056159Y-88196709D01*
X141056157Y-88196709D01*
X141048522Y-88197786D01*
X141043256Y-88198529D01*
X141029429Y-88199500D01*
X137030252Y-88199500D01*
X137030251Y-88199500D01*
X137030241Y-88199501D01*
X136971772Y-88211132D01*
X136971766Y-88211134D01*
X136905451Y-88255445D01*
X136905445Y-88255451D01*
X136861134Y-88321766D01*
X136861132Y-88321772D01*
X136849501Y-88380241D01*
X136849500Y-88380253D01*
X136849500Y-89819746D01*
X136849501Y-89819758D01*
X136860298Y-89874034D01*
X136861133Y-89878231D01*
X136861134Y-89878232D01*
X136872337Y-89894999D01*
X136888945Y-89953887D01*
X136872337Y-90005001D01*
X136861134Y-90021767D01*
X136861132Y-90021772D01*
X136849501Y-90080241D01*
X136849500Y-90080253D01*
X136849500Y-91519746D01*
X136849501Y-91519758D01*
X136861132Y-91578227D01*
X136861134Y-91578233D01*
X136905445Y-91644548D01*
X136905448Y-91644552D01*
X136971769Y-91688867D01*
X137016231Y-91697711D01*
X137030241Y-91700498D01*
X137030246Y-91700498D01*
X137030252Y-91700500D01*
X137030253Y-91700500D01*
X141069747Y-91700500D01*
X141069748Y-91700500D01*
X141128231Y-91688867D01*
X141194552Y-91644552D01*
X141203507Y-91631148D01*
X141233794Y-91601925D01*
X141823719Y-91237563D01*
X141850115Y-91226167D01*
X141873887Y-91219799D01*
X141976614Y-91160489D01*
X142026037Y-91111065D01*
X142027044Y-91110360D01*
X142029169Y-91108679D01*
X142038606Y-91100742D01*
X142044091Y-91093011D01*
X142930497Y-90206605D01*
X142985013Y-90178829D01*
X143045445Y-90188400D01*
X143088710Y-90231665D01*
X143099500Y-90276610D01*
X143099500Y-92764564D01*
X143119978Y-92840987D01*
X143153350Y-92898790D01*
X143153758Y-92899496D01*
X143159540Y-92909511D01*
X145459540Y-95209511D01*
X145459539Y-95209511D01*
X145515489Y-95265460D01*
X145584007Y-95305019D01*
X145584011Y-95305021D01*
X145660435Y-95325499D01*
X145660437Y-95325500D01*
X145660438Y-95325500D01*
X146859521Y-95325500D01*
X146917712Y-95344407D01*
X146929525Y-95354496D01*
X147620504Y-96045475D01*
X147648281Y-96099992D01*
X147649500Y-96115479D01*
X147649500Y-97949564D01*
X147669978Y-98025988D01*
X147669980Y-98025992D01*
X147690524Y-98061575D01*
X147709540Y-98094511D01*
X147986845Y-98371816D01*
X148232043Y-98617014D01*
X148251116Y-98643818D01*
X148449577Y-99053034D01*
X148459500Y-99096228D01*
X148459500Y-99109894D01*
X148459501Y-99109908D01*
X148466027Y-99159486D01*
X148466027Y-99159488D01*
X148516774Y-99268313D01*
X148516775Y-99268314D01*
X148516776Y-99268316D01*
X148601684Y-99353224D01*
X148710513Y-99403972D01*
X148760099Y-99410500D01*
X149119900Y-99410499D01*
X149169487Y-99403972D01*
X149169488Y-99403972D01*
X149255067Y-99364065D01*
X149278316Y-99353224D01*
X149363224Y-99268316D01*
X149413972Y-99159487D01*
X149420500Y-99109901D01*
X149420499Y-98690100D01*
X149416695Y-98661204D01*
X149413972Y-98640513D01*
X149413972Y-98640511D01*
X149363225Y-98531686D01*
X149363224Y-98531685D01*
X149363224Y-98531684D01*
X149278316Y-98446776D01*
X149278314Y-98446775D01*
X149278313Y-98446774D01*
X149169489Y-98396029D01*
X149169488Y-98396028D01*
X149144694Y-98392764D01*
X149119901Y-98389500D01*
X149119900Y-98389500D01*
X149102632Y-98389500D01*
X149061878Y-98380723D01*
X148684067Y-98210065D01*
X148654817Y-98189846D01*
X148279496Y-97814525D01*
X148251719Y-97760008D01*
X148250500Y-97744521D01*
X148250500Y-97039419D01*
X148269407Y-96981228D01*
X148318907Y-96945264D01*
X148380093Y-96945264D01*
X148429593Y-96981228D01*
X148433326Y-96986749D01*
X148457878Y-97025824D01*
X148457879Y-97025824D01*
X148457880Y-97025826D01*
X148532468Y-97078749D01*
X148571359Y-97094858D01*
X148650000Y-97110500D01*
X148650002Y-97110500D01*
X149240500Y-97110500D01*
X149298691Y-97129407D01*
X149334655Y-97178907D01*
X149339500Y-97209500D01*
X149339500Y-97800002D01*
X149355141Y-97878637D01*
X149355144Y-97878647D01*
X149371249Y-97917529D01*
X149371251Y-97917532D01*
X149407880Y-97975826D01*
X149482468Y-98028749D01*
X149521359Y-98044858D01*
X149600000Y-98060500D01*
X149600002Y-98060500D01*
X149699998Y-98060500D01*
X149700000Y-98060500D01*
X149738570Y-98052828D01*
X149799331Y-98060020D01*
X149827884Y-98079919D01*
X150119781Y-98371816D01*
X150385092Y-98637127D01*
X150402790Y-98661203D01*
X150608203Y-99053467D01*
X150619500Y-99099391D01*
X150619500Y-99124314D01*
X150625932Y-99173174D01*
X150625932Y-99173175D01*
X150675933Y-99280401D01*
X150675934Y-99280402D01*
X150675935Y-99280404D01*
X150759596Y-99364065D01*
X150759597Y-99364065D01*
X150759598Y-99364066D01*
X150866824Y-99414067D01*
X150866825Y-99414067D01*
X150866827Y-99414068D01*
X150915684Y-99420500D01*
X150915685Y-99420500D01*
X151264314Y-99420500D01*
X151264316Y-99420500D01*
X151313173Y-99414068D01*
X151420404Y-99364065D01*
X151504065Y-99280404D01*
X151510275Y-99267085D01*
X151552003Y-99222337D01*
X151612064Y-99210662D01*
X151667517Y-99236519D01*
X151689724Y-99267084D01*
X151695935Y-99280404D01*
X151779596Y-99364065D01*
X151779597Y-99364065D01*
X151779598Y-99364066D01*
X151886824Y-99414067D01*
X151886825Y-99414067D01*
X151886827Y-99414068D01*
X151935684Y-99420500D01*
X151935685Y-99420500D01*
X152284314Y-99420500D01*
X152284316Y-99420500D01*
X152333173Y-99414068D01*
X152440404Y-99364065D01*
X152524065Y-99280404D01*
X152574068Y-99173173D01*
X152580500Y-99124316D01*
X152580500Y-98675684D01*
X152574068Y-98626827D01*
X152563284Y-98603701D01*
X152556575Y-98584261D01*
X152553488Y-98570963D01*
X152547498Y-98557712D01*
X152419289Y-98274088D01*
X152410500Y-98233309D01*
X152410500Y-97870437D01*
X152398359Y-97825130D01*
X152398360Y-97773877D01*
X152400500Y-97765892D01*
X152400500Y-97634109D01*
X152400500Y-97634108D01*
X152366392Y-97506814D01*
X152366390Y-97506811D01*
X152366390Y-97506809D01*
X152300503Y-97392690D01*
X152300501Y-97392688D01*
X152300500Y-97392686D01*
X152207314Y-97299500D01*
X152199929Y-97295236D01*
X152158989Y-97249766D01*
X152152594Y-97188916D01*
X152183187Y-97135928D01*
X152239082Y-97111042D01*
X152249430Y-97110500D01*
X152249998Y-97110500D01*
X152250000Y-97110500D01*
X152328641Y-97094858D01*
X152367532Y-97078749D01*
X152425826Y-97042120D01*
X152478749Y-96967532D01*
X152494858Y-96928641D01*
X152510500Y-96850000D01*
X152510500Y-96750000D01*
X152494858Y-96671359D01*
X152480094Y-96635716D01*
X152475294Y-96574724D01*
X152483017Y-96557073D01*
X152482234Y-96556749D01*
X152485961Y-96547746D01*
X152485966Y-96547740D01*
X152500500Y-96474674D01*
X152500500Y-96325326D01*
X152485966Y-96252260D01*
X152485962Y-96252255D01*
X152482233Y-96243248D01*
X152484248Y-96242413D01*
X152471189Y-96196120D01*
X152483773Y-96157389D01*
X152482233Y-96156752D01*
X152485961Y-96147746D01*
X152485966Y-96147740D01*
X152500500Y-96074674D01*
X152500500Y-95925326D01*
X152485966Y-95852260D01*
X152485962Y-95852255D01*
X152482233Y-95843248D01*
X152484248Y-95842413D01*
X152471189Y-95796120D01*
X152483773Y-95757389D01*
X152482233Y-95756752D01*
X152485961Y-95747746D01*
X152485966Y-95747740D01*
X152500500Y-95674674D01*
X152500500Y-95525326D01*
X152485966Y-95452260D01*
X152485962Y-95452255D01*
X152482233Y-95443248D01*
X152484996Y-95442103D01*
X152472635Y-95398288D01*
X152480094Y-95364284D01*
X152494858Y-95328641D01*
X152510500Y-95250000D01*
X152510500Y-95150000D01*
X152494858Y-95071359D01*
X152478749Y-95032468D01*
X152442120Y-94974174D01*
X152367532Y-94921251D01*
X152367531Y-94921250D01*
X152348086Y-94913196D01*
X152328641Y-94905142D01*
X152328638Y-94905141D01*
X152328637Y-94905141D01*
X152250002Y-94889500D01*
X152250000Y-94889500D01*
X151659500Y-94889500D01*
X151601309Y-94870593D01*
X151565345Y-94821093D01*
X151560500Y-94790500D01*
X151560500Y-94200002D01*
X151560499Y-94199997D01*
X151544858Y-94121359D01*
X151533034Y-94092814D01*
X151525500Y-94054932D01*
X151525500Y-93895200D01*
X151520460Y-93883033D01*
X151520460Y-93883032D01*
X151501259Y-93836676D01*
X151496460Y-93775679D01*
X151528430Y-93723511D01*
X151584958Y-93700097D01*
X151592724Y-93699792D01*
X151639154Y-93699792D01*
X151639157Y-93699792D01*
X151664284Y-93696878D01*
X151690189Y-93685439D01*
X151708274Y-93679457D01*
X151724096Y-93675870D01*
X151949241Y-93575500D01*
X151954800Y-93575500D01*
X152056058Y-93533557D01*
X152071685Y-93517929D01*
X152087459Y-93510556D01*
X152101388Y-93508832D01*
X152113895Y-93502460D01*
X152129382Y-93501241D01*
X152266964Y-93501241D01*
X152266966Y-93501241D01*
X152394260Y-93467133D01*
X152394262Y-93467131D01*
X152394264Y-93467131D01*
X152508383Y-93401244D01*
X152508383Y-93401243D01*
X152508388Y-93401241D01*
X152601574Y-93308055D01*
X152601577Y-93308050D01*
X152667464Y-93193931D01*
X152667464Y-93193929D01*
X152667466Y-93193927D01*
X152701574Y-93066633D01*
X152701574Y-92934849D01*
X152667466Y-92807555D01*
X152667464Y-92807552D01*
X152667464Y-92807550D01*
X152601577Y-92693431D01*
X152601575Y-92693429D01*
X152601574Y-92693427D01*
X152508388Y-92600241D01*
X152508385Y-92600239D01*
X152508383Y-92600237D01*
X152394263Y-92534350D01*
X152394265Y-92534350D01*
X152344873Y-92521116D01*
X152266966Y-92500241D01*
X152135182Y-92500241D01*
X152057274Y-92521116D01*
X152007883Y-92534350D01*
X151893764Y-92600237D01*
X151800570Y-92693431D01*
X151734683Y-92807551D01*
X151734682Y-92807552D01*
X151729895Y-92825419D01*
X151696570Y-92876732D01*
X151639448Y-92898657D01*
X151634269Y-92898793D01*
X151289433Y-92898793D01*
X151289428Y-92898794D01*
X151264302Y-92901707D01*
X151184280Y-92937041D01*
X151123410Y-92943249D01*
X151104311Y-92937043D01*
X151024284Y-92901708D01*
X151024281Y-92901707D01*
X150999161Y-92898793D01*
X150649433Y-92898793D01*
X150649428Y-92898794D01*
X150624302Y-92901707D01*
X150614486Y-92906042D01*
X150553616Y-92912248D01*
X150500723Y-92881491D01*
X150476011Y-92825518D01*
X150475500Y-92815476D01*
X150475500Y-92005123D01*
X150494407Y-91946932D01*
X150504496Y-91935119D01*
X150810119Y-91629496D01*
X150864636Y-91601719D01*
X150880123Y-91600500D01*
X151015890Y-91600500D01*
X151015892Y-91600500D01*
X151143186Y-91566392D01*
X151143188Y-91566390D01*
X151143190Y-91566390D01*
X151257309Y-91500503D01*
X151257309Y-91500502D01*
X151257314Y-91500500D01*
X151350500Y-91407314D01*
X151372696Y-91368870D01*
X151416390Y-91293190D01*
X151416390Y-91293188D01*
X151416392Y-91293186D01*
X151450500Y-91165892D01*
X151450500Y-91034108D01*
X151416392Y-90906814D01*
X151416390Y-90906811D01*
X151416390Y-90906809D01*
X151350503Y-90792690D01*
X151350501Y-90792688D01*
X151350500Y-90792686D01*
X151257314Y-90699500D01*
X151257311Y-90699498D01*
X151257309Y-90699496D01*
X151143189Y-90633609D01*
X151143191Y-90633609D01*
X151093799Y-90620375D01*
X151015892Y-90599500D01*
X150884108Y-90599500D01*
X150806200Y-90620375D01*
X150756809Y-90633609D01*
X150642690Y-90699496D01*
X150549496Y-90792690D01*
X150483609Y-90906809D01*
X150483608Y-90906814D01*
X150456333Y-91008609D01*
X150449500Y-91034109D01*
X150449500Y-91169876D01*
X150430593Y-91228067D01*
X150420504Y-91239879D01*
X150043942Y-91616442D01*
X150043941Y-91616443D01*
X150000607Y-91659776D01*
X149946090Y-91687553D01*
X149885658Y-91677981D01*
X149848288Y-91644773D01*
X149848140Y-91644552D01*
X149837075Y-91627992D01*
X149831053Y-91606639D01*
X149821345Y-91586696D01*
X149822920Y-91577800D01*
X149820468Y-91569105D01*
X149823766Y-91547367D01*
X149825501Y-91540892D01*
X149825501Y-91409109D01*
X149825019Y-91407309D01*
X149791393Y-91281814D01*
X149791391Y-91281811D01*
X149791391Y-91281809D01*
X149725504Y-91167690D01*
X149725502Y-91167688D01*
X149725501Y-91167686D01*
X149632315Y-91074500D01*
X149632312Y-91074498D01*
X149632310Y-91074496D01*
X149518190Y-91008609D01*
X149518192Y-91008609D01*
X149468800Y-90995375D01*
X149390893Y-90974500D01*
X149259109Y-90974500D01*
X149181201Y-90995375D01*
X149131810Y-91008609D01*
X149017691Y-91074496D01*
X148924497Y-91167690D01*
X148858610Y-91281809D01*
X148858609Y-91281814D01*
X148828232Y-91395186D01*
X148824501Y-91409109D01*
X148824501Y-91540894D01*
X148826084Y-91546801D01*
X148825518Y-91557596D01*
X148829345Y-91567709D01*
X148824066Y-91585284D01*
X148822881Y-91607902D01*
X148813229Y-91626734D01*
X148811845Y-91628842D01*
X148793726Y-91653633D01*
X148790443Y-91660011D01*
X148789269Y-91663249D01*
X148784116Y-91671103D01*
X148784020Y-91671179D01*
X148783662Y-91671788D01*
X148780534Y-91676469D01*
X148777190Y-91693278D01*
X148775729Y-91700625D01*
X148772601Y-91709260D01*
X148772632Y-91716187D01*
X148770686Y-91725976D01*
X148768901Y-91734946D01*
X148768901Y-92763583D01*
X148749994Y-92821774D01*
X148700494Y-92857738D01*
X148639308Y-92857738D01*
X148620402Y-92849320D01*
X148593189Y-92833609D01*
X148593186Y-92833608D01*
X148465892Y-92799500D01*
X148334108Y-92799500D01*
X148256200Y-92820375D01*
X148206809Y-92833609D01*
X148092690Y-92899496D01*
X147999496Y-92992690D01*
X147933609Y-93106809D01*
X147933608Y-93106814D01*
X147899500Y-93234108D01*
X147899500Y-93365892D01*
X147909852Y-93404525D01*
X147933609Y-93493190D01*
X147999496Y-93607309D01*
X147999498Y-93607311D01*
X147999500Y-93607314D01*
X148092686Y-93700500D01*
X148092688Y-93700501D01*
X148092690Y-93700503D01*
X148206810Y-93766390D01*
X148206808Y-93766390D01*
X148206812Y-93766391D01*
X148206814Y-93766392D01*
X148334108Y-93800500D01*
X148334110Y-93800500D01*
X148434521Y-93800500D01*
X148492712Y-93819407D01*
X148504524Y-93829496D01*
X148715488Y-94040459D01*
X148715493Y-94040463D01*
X148784008Y-94080020D01*
X148784006Y-94080020D01*
X148784010Y-94080021D01*
X148784012Y-94080022D01*
X148860438Y-94100500D01*
X148939562Y-94100500D01*
X149240500Y-94100500D01*
X149298691Y-94119407D01*
X149334655Y-94168907D01*
X149339500Y-94199500D01*
X149339500Y-94790500D01*
X149320593Y-94848691D01*
X149271093Y-94884655D01*
X149240500Y-94889500D01*
X148649997Y-94889500D01*
X148571362Y-94905141D01*
X148571352Y-94905144D01*
X148532470Y-94921249D01*
X148474174Y-94957879D01*
X148421250Y-95032468D01*
X148405143Y-95071357D01*
X148405141Y-95071362D01*
X148389500Y-95149997D01*
X148389500Y-95250002D01*
X148405141Y-95328637D01*
X148405144Y-95328647D01*
X148419904Y-95364280D01*
X148424705Y-95425277D01*
X148416985Y-95442927D01*
X148417766Y-95443251D01*
X148414033Y-95452263D01*
X148399501Y-95525315D01*
X148399500Y-95525327D01*
X148399500Y-95674676D01*
X148410285Y-95728894D01*
X148403093Y-95789655D01*
X148361561Y-95834585D01*
X148301551Y-95846522D01*
X148245986Y-95820906D01*
X148243183Y-95818212D01*
X147209511Y-94784540D01*
X147207808Y-94783557D01*
X147164594Y-94758607D01*
X147140988Y-94744978D01*
X147064564Y-94724500D01*
X147064562Y-94724500D01*
X145865479Y-94724500D01*
X145807288Y-94705593D01*
X145795475Y-94695504D01*
X143729496Y-92629525D01*
X143701719Y-92575008D01*
X143700500Y-92559521D01*
X143700500Y-89874034D01*
X153899500Y-89874034D01*
X153899500Y-90125965D01*
X153938908Y-90374780D01*
X154016759Y-90614379D01*
X154107610Y-90792686D01*
X154131130Y-90838845D01*
X154279207Y-91042656D01*
X154457344Y-91220793D01*
X154661155Y-91368870D01*
X154885621Y-91483241D01*
X155125215Y-91561090D01*
X155125216Y-91561090D01*
X155125219Y-91561091D01*
X155374035Y-91600500D01*
X155374038Y-91600500D01*
X155625965Y-91600500D01*
X155874780Y-91561091D01*
X155874781Y-91561090D01*
X155874785Y-91561090D01*
X156114379Y-91483241D01*
X156338845Y-91368870D01*
X156542656Y-91220793D01*
X156720793Y-91042656D01*
X156868870Y-90838845D01*
X156983241Y-90614379D01*
X157061090Y-90374785D01*
X157068705Y-90326707D01*
X157100500Y-90125965D01*
X157100500Y-89874034D01*
X157061091Y-89625219D01*
X157061090Y-89625215D01*
X156983241Y-89385621D01*
X156868870Y-89161155D01*
X156720793Y-88957344D01*
X156542656Y-88779207D01*
X156338845Y-88631130D01*
X156338844Y-88631129D01*
X156338842Y-88631128D01*
X156114379Y-88516759D01*
X155874780Y-88438908D01*
X155625965Y-88399500D01*
X155625962Y-88399500D01*
X155374038Y-88399500D01*
X155374035Y-88399500D01*
X155125219Y-88438908D01*
X154885620Y-88516759D01*
X154661157Y-88631128D01*
X154457345Y-88779206D01*
X154279206Y-88957345D01*
X154131128Y-89161157D01*
X154016759Y-89385620D01*
X153938908Y-89625219D01*
X153899500Y-89874034D01*
X143700500Y-89874034D01*
X143700500Y-89477610D01*
X143719407Y-89419419D01*
X143729490Y-89407612D01*
X143760489Y-89376614D01*
X143819799Y-89273887D01*
X143822741Y-89262903D01*
X143826287Y-89249672D01*
X143826287Y-89249669D01*
X143850500Y-89159309D01*
X143850500Y-88234685D01*
X148767795Y-88234685D01*
X148768901Y-88247668D01*
X148768901Y-88265045D01*
X148768902Y-88265057D01*
X148780184Y-88321772D01*
X148780534Y-88323530D01*
X148812925Y-88372007D01*
X148829534Y-88430892D01*
X148826238Y-88452623D01*
X148824501Y-88459108D01*
X148824501Y-88590892D01*
X148854580Y-88703151D01*
X148858610Y-88718190D01*
X148924497Y-88832309D01*
X148924499Y-88832311D01*
X148924501Y-88832314D01*
X149017687Y-88925500D01*
X149017689Y-88925501D01*
X149017691Y-88925503D01*
X149131811Y-88991390D01*
X149131809Y-88991390D01*
X149131813Y-88991391D01*
X149131815Y-88991392D01*
X149259109Y-89025500D01*
X149259111Y-89025500D01*
X149390891Y-89025500D01*
X149390893Y-89025500D01*
X149518187Y-88991392D01*
X149518189Y-88991390D01*
X149518191Y-88991390D01*
X149632310Y-88925503D01*
X149632310Y-88925502D01*
X149632315Y-88925500D01*
X149725501Y-88832314D01*
X149740272Y-88806730D01*
X149791391Y-88718190D01*
X149791391Y-88718188D01*
X149791393Y-88718186D01*
X149825501Y-88590892D01*
X149825501Y-88459108D01*
X149823917Y-88453196D01*
X149824482Y-88442400D01*
X149820656Y-88432287D01*
X149825934Y-88414715D01*
X149827120Y-88392096D01*
X149836773Y-88373262D01*
X149838144Y-88371171D01*
X149856268Y-88346378D01*
X149859552Y-88339999D01*
X149860725Y-88336759D01*
X149865876Y-88328910D01*
X149865971Y-88328833D01*
X149866323Y-88328236D01*
X149869468Y-88323530D01*
X149874274Y-88299364D01*
X149877400Y-88290739D01*
X149877367Y-88283814D01*
X149881101Y-88265047D01*
X149881101Y-88127922D01*
X149900008Y-88069731D01*
X149949508Y-88033767D01*
X150010694Y-88033767D01*
X150050102Y-88057916D01*
X150092686Y-88100500D01*
X150092688Y-88100501D01*
X150092690Y-88100503D01*
X150206810Y-88166390D01*
X150206808Y-88166390D01*
X150206812Y-88166391D01*
X150206814Y-88166392D01*
X150334108Y-88200500D01*
X150334110Y-88200500D01*
X150465890Y-88200500D01*
X150465892Y-88200500D01*
X150593186Y-88166392D01*
X150593188Y-88166390D01*
X150593190Y-88166390D01*
X150707309Y-88100503D01*
X150707309Y-88100502D01*
X150707314Y-88100500D01*
X150800500Y-88007314D01*
X150866392Y-87893186D01*
X150900500Y-87765892D01*
X150900500Y-87634108D01*
X150866392Y-87506814D01*
X150866390Y-87506811D01*
X150866390Y-87506809D01*
X150800503Y-87392690D01*
X150800501Y-87392688D01*
X150800500Y-87392686D01*
X150730494Y-87322680D01*
X150702719Y-87268166D01*
X150701500Y-87252679D01*
X150701500Y-87041161D01*
X150706477Y-87010166D01*
X150709781Y-87000144D01*
X150752446Y-86870722D01*
X150776467Y-86831713D01*
X150801698Y-86806483D01*
X150853073Y-86701393D01*
X150863000Y-86633260D01*
X150863000Y-86266740D01*
X150853073Y-86198607D01*
X150848821Y-86189910D01*
X150827068Y-86145413D01*
X150801698Y-86093517D01*
X150718983Y-86010802D01*
X150718981Y-86010801D01*
X150613895Y-85959427D01*
X150586639Y-85955456D01*
X150545760Y-85949500D01*
X149304240Y-85949500D01*
X149270173Y-85954463D01*
X149236104Y-85959427D01*
X149131018Y-86010801D01*
X149048301Y-86093518D01*
X148996927Y-86198604D01*
X148996927Y-86198607D01*
X148987000Y-86266740D01*
X148987000Y-86633260D01*
X148990035Y-86654087D01*
X148996927Y-86701395D01*
X149020535Y-86749685D01*
X149048302Y-86806483D01*
X149127016Y-86885197D01*
X149154792Y-86939712D01*
X149145221Y-87000144D01*
X149101956Y-87043409D01*
X149057011Y-87054199D01*
X148949653Y-87054199D01*
X148949652Y-87054199D01*
X148949642Y-87054200D01*
X148891173Y-87065831D01*
X148891167Y-87065833D01*
X148824852Y-87110144D01*
X148824846Y-87110150D01*
X148780535Y-87176465D01*
X148780533Y-87176471D01*
X148768902Y-87234940D01*
X148768901Y-87234952D01*
X148768901Y-88217877D01*
X148767826Y-88229642D01*
X148767795Y-88234685D01*
X143850500Y-88234685D01*
X143850500Y-87740691D01*
X143819799Y-87626114D01*
X143819799Y-87626113D01*
X143760490Y-87523386D01*
X140379496Y-84142392D01*
X140351719Y-84087875D01*
X140350500Y-84072388D01*
X140350500Y-83981008D01*
X140350499Y-83981004D01*
X140323580Y-83845672D01*
X140294514Y-83775500D01*
X140270777Y-83718193D01*
X140270771Y-83718182D01*
X140194114Y-83603458D01*
X140096541Y-83505885D01*
X139981817Y-83429228D01*
X139981806Y-83429222D01*
X139854328Y-83376420D01*
X139718995Y-83349500D01*
X139718993Y-83349500D01*
X139581007Y-83349500D01*
X139581004Y-83349500D01*
X139445672Y-83376420D01*
X139445670Y-83376420D01*
X139318193Y-83429222D01*
X139318182Y-83429228D01*
X139203458Y-83505885D01*
X139203454Y-83505889D01*
X139138840Y-83570504D01*
X139084323Y-83598281D01*
X139068836Y-83599500D01*
X138077612Y-83599500D01*
X138019421Y-83580593D01*
X138007608Y-83570504D01*
X136972789Y-82535685D01*
X136953355Y-82508129D01*
X136740520Y-82059682D01*
X136437117Y-81420404D01*
X136110062Y-80731292D01*
X136100500Y-80688844D01*
X136100500Y-80199500D01*
X136119407Y-80141309D01*
X136168907Y-80105345D01*
X136199500Y-80100500D01*
X148625522Y-80100500D01*
X148647572Y-80107664D01*
X148670468Y-80111291D01*
X148676115Y-80116938D01*
X148683713Y-80119407D01*
X148697341Y-80138165D01*
X148713732Y-80154556D01*
X148714981Y-80162443D01*
X148719677Y-80168907D01*
X148719677Y-80192093D01*
X148723303Y-80214988D01*
X148719677Y-80222104D01*
X148719677Y-80230093D01*
X148695525Y-80269504D01*
X148574363Y-80390664D01*
X148548759Y-80409146D01*
X148150486Y-80608986D01*
X148106087Y-80619500D01*
X148075684Y-80619500D01*
X148059398Y-80621644D01*
X148026825Y-80625932D01*
X148026824Y-80625932D01*
X147919598Y-80675933D01*
X147835933Y-80759598D01*
X147785932Y-80866824D01*
X147785932Y-80866825D01*
X147785932Y-80866827D01*
X147779500Y-80915684D01*
X147779500Y-81264316D01*
X147781994Y-81283260D01*
X147785932Y-81313174D01*
X147785932Y-81313175D01*
X147835933Y-81420401D01*
X147835934Y-81420402D01*
X147835935Y-81420404D01*
X147919596Y-81504065D01*
X147919597Y-81504065D01*
X147919598Y-81504066D01*
X148026824Y-81554067D01*
X148026825Y-81554067D01*
X148026827Y-81554068D01*
X148075684Y-81560500D01*
X148075685Y-81560500D01*
X148524314Y-81560500D01*
X148524316Y-81560500D01*
X148573173Y-81554068D01*
X148680404Y-81504065D01*
X148744702Y-81439766D01*
X148799216Y-81411990D01*
X148859648Y-81421561D01*
X148895272Y-81452240D01*
X148898298Y-81456478D01*
X148898301Y-81456481D01*
X148898302Y-81456483D01*
X148981017Y-81539198D01*
X149024591Y-81560500D01*
X149086104Y-81590572D01*
X149086105Y-81590572D01*
X149086107Y-81590573D01*
X149154240Y-81600500D01*
X150034521Y-81600500D01*
X150092712Y-81619407D01*
X150104525Y-81629496D01*
X150464707Y-81989678D01*
X150492484Y-82044195D01*
X150493703Y-82059682D01*
X150493703Y-82438735D01*
X150474796Y-82496926D01*
X150425296Y-82532890D01*
X150364110Y-82532890D01*
X150351223Y-82527676D01*
X150313895Y-82509427D01*
X150286639Y-82505456D01*
X150245760Y-82499500D01*
X150245757Y-82499500D01*
X149230782Y-82499500D01*
X149225916Y-82499380D01*
X149160956Y-82496183D01*
X149160954Y-82496183D01*
X148725213Y-82544599D01*
X148725212Y-82544599D01*
X148721517Y-82545660D01*
X148694212Y-82549500D01*
X148624217Y-82549500D01*
X148582380Y-82540225D01*
X148573173Y-82535932D01*
X148524316Y-82529500D01*
X148075684Y-82529500D01*
X148026827Y-82535932D01*
X148017619Y-82540225D01*
X147975783Y-82549500D01*
X147854430Y-82549500D01*
X147799428Y-82532815D01*
X147796543Y-82530887D01*
X147796542Y-82530886D01*
X147749570Y-82499500D01*
X147681817Y-82454228D01*
X147681806Y-82454222D01*
X147554328Y-82401420D01*
X147418995Y-82374500D01*
X147418993Y-82374500D01*
X147281007Y-82374500D01*
X147281004Y-82374500D01*
X147145672Y-82401420D01*
X147145670Y-82401420D01*
X147018193Y-82454222D01*
X147018182Y-82454228D01*
X146903458Y-82530885D01*
X146805885Y-82628458D01*
X146729228Y-82743182D01*
X146729222Y-82743193D01*
X146676420Y-82870670D01*
X146676420Y-82870672D01*
X146649500Y-83006004D01*
X146649500Y-83143995D01*
X146676420Y-83279327D01*
X146676420Y-83279329D01*
X146729222Y-83406806D01*
X146729228Y-83406817D01*
X146805885Y-83521541D01*
X146903458Y-83619114D01*
X147018182Y-83695771D01*
X147018193Y-83695777D01*
X147065283Y-83715282D01*
X147145672Y-83748580D01*
X147281007Y-83775500D01*
X147281008Y-83775500D01*
X147418992Y-83775500D01*
X147418993Y-83775500D01*
X147554328Y-83748580D01*
X147647589Y-83709949D01*
X147652924Y-83709529D01*
X147657335Y-83706497D01*
X147682994Y-83707163D01*
X147708585Y-83705149D01*
X147713149Y-83707946D01*
X147718500Y-83708085D01*
X147738868Y-83723706D01*
X147760754Y-83737119D01*
X147762802Y-83742064D01*
X147767050Y-83745322D01*
X147771050Y-83761975D01*
X147784169Y-83793647D01*
X147784441Y-83803983D01*
X147784306Y-83809176D01*
X147779500Y-83845684D01*
X147779500Y-83994291D01*
X147779467Y-83995563D01*
X147769672Y-84023241D01*
X147760593Y-84051185D01*
X147759503Y-84051976D01*
X147759055Y-84053244D01*
X147734866Y-84069876D01*
X147711093Y-84087149D01*
X147709747Y-84087149D01*
X147708639Y-84087911D01*
X147679289Y-84087149D01*
X147649907Y-84087149D01*
X147647998Y-84086336D01*
X147647474Y-84086323D01*
X147646859Y-84085851D01*
X147633840Y-84080309D01*
X147631809Y-84079223D01*
X147504328Y-84026420D01*
X147368995Y-83999500D01*
X147368993Y-83999500D01*
X147231007Y-83999500D01*
X147231004Y-83999500D01*
X147095672Y-84026420D01*
X147095670Y-84026420D01*
X146968193Y-84079222D01*
X146968182Y-84079228D01*
X146853458Y-84155885D01*
X146755885Y-84253458D01*
X146679228Y-84368182D01*
X146679222Y-84368193D01*
X146626420Y-84495670D01*
X146626420Y-84495672D01*
X146599500Y-84631004D01*
X146599500Y-84768995D01*
X146626420Y-84904327D01*
X146626420Y-84904329D01*
X146679222Y-85031806D01*
X146679228Y-85031817D01*
X146755885Y-85146541D01*
X146853458Y-85244114D01*
X146968182Y-85320771D01*
X146968193Y-85320777D01*
X147015283Y-85340282D01*
X147095672Y-85373580D01*
X147231007Y-85400500D01*
X147231008Y-85400500D01*
X147368992Y-85400500D01*
X147368993Y-85400500D01*
X147504328Y-85373580D01*
X147631811Y-85320775D01*
X147746542Y-85244114D01*
X147811160Y-85179496D01*
X147865677Y-85151719D01*
X147881164Y-85150500D01*
X148891491Y-85150500D01*
X148919599Y-85153384D01*
X148950171Y-85150500D01*
X149559309Y-85150500D01*
X149649673Y-85126286D01*
X149673887Y-85119799D01*
X149736554Y-85083616D01*
X149740277Y-85081863D01*
X149748036Y-85080879D01*
X149773163Y-85072862D01*
X149955464Y-85055666D01*
X149955467Y-85055665D01*
X149959489Y-85054488D01*
X149987303Y-85050500D01*
X150545757Y-85050500D01*
X150545760Y-85050500D01*
X150613893Y-85040573D01*
X150718983Y-84989198D01*
X150801698Y-84906483D01*
X150853073Y-84801393D01*
X150863000Y-84733260D01*
X150863000Y-84399500D01*
X150867845Y-84384588D01*
X150867845Y-84368907D01*
X150877061Y-84356221D01*
X150881907Y-84341309D01*
X150894592Y-84332092D01*
X150903809Y-84319407D01*
X150918721Y-84314561D01*
X150931407Y-84305345D01*
X150962000Y-84300500D01*
X151034521Y-84300500D01*
X151092712Y-84319407D01*
X151104525Y-84329496D01*
X151170504Y-84395475D01*
X151198281Y-84449992D01*
X151199500Y-84465479D01*
X151199500Y-84565892D01*
X151227602Y-84670771D01*
X151233609Y-84693190D01*
X151299496Y-84807309D01*
X151299498Y-84807311D01*
X151299500Y-84807314D01*
X151392686Y-84900500D01*
X151392688Y-84900501D01*
X151392690Y-84900503D01*
X151506810Y-84966390D01*
X151506808Y-84966390D01*
X151506812Y-84966391D01*
X151506814Y-84966392D01*
X151634108Y-85000500D01*
X151634110Y-85000500D01*
X151765890Y-85000500D01*
X151765892Y-85000500D01*
X151893186Y-84966392D01*
X151893188Y-84966390D01*
X151893190Y-84966390D01*
X152007309Y-84900503D01*
X152007309Y-84900502D01*
X152007314Y-84900500D01*
X152100500Y-84807314D01*
X152103917Y-84801395D01*
X152166390Y-84693190D01*
X152166390Y-84693188D01*
X152166392Y-84693186D01*
X152200500Y-84565892D01*
X152200500Y-84434108D01*
X152166392Y-84306814D01*
X152166390Y-84306811D01*
X152166390Y-84306809D01*
X152100503Y-84192690D01*
X152100501Y-84192688D01*
X152100500Y-84192686D01*
X152007314Y-84099500D01*
X152007311Y-84099498D01*
X152007309Y-84099496D01*
X151893189Y-84033609D01*
X151893191Y-84033609D01*
X151843799Y-84020375D01*
X151765892Y-83999500D01*
X151665479Y-83999500D01*
X151607288Y-83980593D01*
X151595476Y-83970504D01*
X151384511Y-83759540D01*
X151384509Y-83759538D01*
X151366999Y-83749429D01*
X151366998Y-83749428D01*
X151360879Y-83745895D01*
X151319939Y-83700425D01*
X151313545Y-83639574D01*
X151324646Y-83610658D01*
X151339366Y-83585162D01*
X151339367Y-83585161D01*
X151342391Y-83573876D01*
X151375715Y-83522562D01*
X151432837Y-83500636D01*
X151438017Y-83500500D01*
X152520758Y-83500500D01*
X152520760Y-83500500D01*
X152588893Y-83490573D01*
X152588898Y-83490570D01*
X152596237Y-83488303D01*
X152596375Y-83488749D01*
X152614176Y-83483154D01*
X152740517Y-83463540D01*
X152800919Y-83473296D01*
X152825708Y-83491364D01*
X152878458Y-83544114D01*
X152993182Y-83620771D01*
X152993193Y-83620777D01*
X153029885Y-83635975D01*
X153120672Y-83673580D01*
X153256007Y-83700500D01*
X153256008Y-83700500D01*
X153393992Y-83700500D01*
X153393993Y-83700500D01*
X153529328Y-83673580D01*
X153656811Y-83620775D01*
X153771542Y-83544114D01*
X153869114Y-83446542D01*
X153945775Y-83331811D01*
X153998580Y-83204328D01*
X154025500Y-83068993D01*
X154025500Y-82931007D01*
X153998580Y-82795672D01*
X153945775Y-82668189D01*
X153945774Y-82668187D01*
X153945771Y-82668182D01*
X153869114Y-82553458D01*
X153771541Y-82455885D01*
X153656817Y-82379228D01*
X153656806Y-82379222D01*
X153529328Y-82326420D01*
X153393995Y-82299500D01*
X153393993Y-82299500D01*
X153256007Y-82299500D01*
X153256004Y-82299500D01*
X153120672Y-82326420D01*
X153120670Y-82326420D01*
X152993193Y-82379222D01*
X152993181Y-82379228D01*
X152878458Y-82455885D01*
X152852897Y-82481445D01*
X152798380Y-82509221D01*
X152777405Y-82510287D01*
X152519661Y-82495969D01*
X152502410Y-82495011D01*
X152502409Y-82495011D01*
X152502403Y-82495011D01*
X152457446Y-82499094D01*
X152448493Y-82499500D01*
X151429240Y-82499500D01*
X151395173Y-82504463D01*
X151361104Y-82509427D01*
X151256014Y-82560803D01*
X151251229Y-82564220D01*
X151192884Y-82582646D01*
X151134851Y-82563257D01*
X151099298Y-82513461D01*
X151094703Y-82483649D01*
X151094703Y-81854642D01*
X151094703Y-81854641D01*
X151074225Y-81778215D01*
X151074223Y-81778212D01*
X151074223Y-81778210D01*
X151034666Y-81709696D01*
X151034662Y-81709691D01*
X150591996Y-81267024D01*
X150564219Y-81212508D01*
X150563000Y-81197021D01*
X150563000Y-80916742D01*
X150562846Y-80915684D01*
X150562568Y-80913777D01*
X150572885Y-80853469D01*
X150616680Y-80810742D01*
X150660533Y-80800500D01*
X151014467Y-80800500D01*
X151072658Y-80819407D01*
X151108622Y-80868907D01*
X151112431Y-80913776D01*
X151112000Y-80916740D01*
X151112000Y-81283260D01*
X151116359Y-81313175D01*
X151121927Y-81351395D01*
X151171228Y-81452240D01*
X151173302Y-81456483D01*
X151256017Y-81539198D01*
X151299591Y-81560500D01*
X151361104Y-81590572D01*
X151361105Y-81590572D01*
X151361107Y-81590573D01*
X151429240Y-81600500D01*
X151429243Y-81600500D01*
X152520757Y-81600500D01*
X152520760Y-81600500D01*
X152588893Y-81590573D01*
X152693983Y-81539198D01*
X152776698Y-81456483D01*
X152828073Y-81351393D01*
X152838000Y-81283260D01*
X152838000Y-80916740D01*
X152828073Y-80848607D01*
X152776698Y-80743517D01*
X152693983Y-80660802D01*
X152693981Y-80660801D01*
X152588895Y-80609427D01*
X152561639Y-80605456D01*
X152520760Y-80599500D01*
X152520757Y-80599500D01*
X152181147Y-80599500D01*
X152136873Y-80589048D01*
X151655537Y-80348380D01*
X151629808Y-80329836D01*
X151569475Y-80269504D01*
X151541697Y-80214988D01*
X151551268Y-80154556D01*
X151594532Y-80111291D01*
X151639478Y-80100500D01*
X152673071Y-80100500D01*
X152693510Y-80100500D01*
X152706432Y-80101347D01*
X152738713Y-80105597D01*
X152763676Y-80112286D01*
X152787705Y-80122239D01*
X152810086Y-80135160D01*
X152835917Y-80154980D01*
X152845655Y-80163519D01*
X158836479Y-86154344D01*
X158845017Y-86164081D01*
X158864836Y-86189910D01*
X158877758Y-86212291D01*
X158887713Y-86236324D01*
X158894402Y-86261287D01*
X158898653Y-86293573D01*
X158899500Y-86306496D01*
X158899500Y-93593510D01*
X158898653Y-93606435D01*
X158894402Y-93638716D01*
X158887713Y-93663676D01*
X158877760Y-93687705D01*
X158864837Y-93710088D01*
X158845012Y-93735924D01*
X158836478Y-93745657D01*
X158814224Y-93767912D01*
X158812743Y-93769858D01*
X152845881Y-99836165D01*
X152835570Y-99845283D01*
X152810089Y-99864836D01*
X152787708Y-99877758D01*
X152763679Y-99887712D01*
X152738713Y-99894402D01*
X152706424Y-99898653D01*
X152693504Y-99899500D01*
X129506489Y-99899500D01*
X129493567Y-99898653D01*
X129409521Y-99887587D01*
X129384560Y-99880899D01*
X129312292Y-99850965D01*
X129289913Y-99838045D01*
X129227847Y-99790420D01*
X129209579Y-99772152D01*
X129161952Y-99710083D01*
X129149036Y-99687711D01*
X129119099Y-99615435D01*
X129112412Y-99590481D01*
X129101347Y-99506433D01*
X129100500Y-99493511D01*
X129100500Y-95406488D01*
X129101347Y-95393566D01*
X129103132Y-95380009D01*
X129112412Y-95309516D01*
X129119098Y-95284566D01*
X129149037Y-95212285D01*
X129161954Y-95189913D01*
X129213560Y-95122659D01*
X129222100Y-95112922D01*
X129236553Y-95098470D01*
X129236553Y-95098469D01*
X129250472Y-95084551D01*
X129250476Y-95084544D01*
X130212932Y-94122091D01*
X130222644Y-94113573D01*
X130289918Y-94061952D01*
X130312285Y-94049039D01*
X130384566Y-94019099D01*
X130409518Y-94012413D01*
X130493575Y-94001346D01*
X130506495Y-94000500D01*
X139057582Y-94000500D01*
X139057583Y-94000500D01*
X139168084Y-93968053D01*
X139264968Y-93905790D01*
X139340386Y-93818753D01*
X139388228Y-93713994D01*
X139392333Y-93685442D01*
X139404618Y-93600002D01*
X139404618Y-93599997D01*
X139388229Y-93486011D01*
X139388228Y-93486008D01*
X139388228Y-93486006D01*
X139340386Y-93381247D01*
X139264968Y-93294210D01*
X139240823Y-93278693D01*
X139168085Y-93231947D01*
X139057584Y-93199500D01*
X139057583Y-93199500D01*
X139019991Y-93199500D01*
X136582636Y-93199500D01*
X136524445Y-93180593D01*
X136512632Y-93170504D01*
X135785200Y-92443072D01*
X135785200Y-92443071D01*
X135756929Y-92414800D01*
X135756927Y-92414799D01*
X135756926Y-92414798D01*
X135719992Y-92399500D01*
X135719991Y-92399500D01*
X130080009Y-92399500D01*
X130080008Y-92399500D01*
X130043072Y-92414799D01*
X130043071Y-92414800D01*
X130014800Y-92443071D01*
X130014799Y-92443072D01*
X129641657Y-92816215D01*
X129287368Y-93170504D01*
X129232851Y-93198281D01*
X129217364Y-93199500D01*
X128307790Y-93199500D01*
X128292304Y-93198281D01*
X128278090Y-93196029D01*
X128253835Y-93192188D01*
X128224381Y-93182618D01*
X128196707Y-93168517D01*
X128171652Y-93150314D01*
X128149685Y-93128347D01*
X128131483Y-93103294D01*
X128117379Y-93075614D01*
X128107811Y-93046162D01*
X128101719Y-93007695D01*
X128100500Y-92992209D01*
X128100500Y-86907790D01*
X128101719Y-86892304D01*
X128107811Y-86853837D01*
X128117379Y-86824387D01*
X128131485Y-86796702D01*
X128149682Y-86771655D01*
X128171655Y-86749682D01*
X128196702Y-86731485D01*
X128224387Y-86717379D01*
X128253835Y-86707811D01*
X128282883Y-86703210D01*
X128292304Y-86701719D01*
X128307790Y-86700500D01*
X128326929Y-86700500D01*
X129217364Y-86700500D01*
X129275555Y-86719407D01*
X129287368Y-86729496D01*
X130014799Y-87456927D01*
X130014800Y-87456929D01*
X130043071Y-87485200D01*
X130043072Y-87485200D01*
X130043073Y-87485201D01*
X130080008Y-87500500D01*
X130080009Y-87500500D01*
X135719992Y-87500500D01*
X135743283Y-87490852D01*
X135756929Y-87485200D01*
X135785200Y-87456929D01*
X135785200Y-87456927D01*
X135973961Y-87268166D01*
X136512633Y-86729496D01*
X136567149Y-86701719D01*
X136582636Y-86700500D01*
X139057582Y-86700500D01*
X139057583Y-86700500D01*
X139168084Y-86668053D01*
X139264968Y-86605790D01*
X139340386Y-86518753D01*
X139388228Y-86413994D01*
X139404618Y-86300000D01*
X139401743Y-86280006D01*
X139388229Y-86186011D01*
X139388228Y-86186008D01*
X139388228Y-86186006D01*
X139340386Y-86081247D01*
X139264968Y-85994210D01*
X139221755Y-85966439D01*
X139168085Y-85931947D01*
X139057584Y-85899500D01*
X139057583Y-85899500D01*
X139019991Y-85899500D01*
X130506489Y-85899500D01*
X130493567Y-85898653D01*
X130409521Y-85887587D01*
X130384561Y-85880899D01*
X130348426Y-85865932D01*
X130312293Y-85850965D01*
X130289912Y-85838043D01*
X130222664Y-85786442D01*
X130212927Y-85777904D01*
X129222098Y-84787074D01*
X129213561Y-84777338D01*
X129161957Y-84710088D01*
X129149036Y-84687710D01*
X129119100Y-84615435D01*
X129112413Y-84590481D01*
X129101346Y-84506425D01*
X129100500Y-84493504D01*
X129100500Y-80506488D01*
X129101347Y-80493566D01*
X129103132Y-80480009D01*
X129112412Y-80409516D01*
X129119098Y-80384566D01*
X129149037Y-80312285D01*
X129161950Y-80289919D01*
X129209582Y-80227843D01*
X129227843Y-80209582D01*
X129289919Y-80161950D01*
X129312285Y-80149037D01*
X129384566Y-80119098D01*
X129409518Y-80112412D01*
X129476591Y-80103581D01*
X129493568Y-80101347D01*
X129506489Y-80100500D01*
X129526929Y-80100500D01*
X133600500Y-80100500D01*
X133658691Y-80119407D01*
G37*
%TD.AperFunction*%
%TA.AperFunction,Conductor*%
G36*
X150692610Y-95133773D02*
G01*
X150693248Y-95132233D01*
X150702255Y-95135962D01*
X150702260Y-95135966D01*
X150757808Y-95147015D01*
X150775315Y-95150498D01*
X150775320Y-95150498D01*
X150775326Y-95150500D01*
X150775327Y-95150500D01*
X150924673Y-95150500D01*
X150924674Y-95150500D01*
X150997740Y-95135966D01*
X150997746Y-95135961D01*
X151006749Y-95132234D01*
X151007144Y-95133189D01*
X151011865Y-95129326D01*
X151027424Y-95129488D01*
X151051710Y-95122636D01*
X151072948Y-95125798D01*
X151081452Y-95128028D01*
X151082468Y-95128749D01*
X151121359Y-95144858D01*
X151200000Y-95160500D01*
X151205269Y-95160500D01*
X151216029Y-95163322D01*
X151235487Y-95175811D01*
X151256668Y-95185074D01*
X151260741Y-95192021D01*
X151267520Y-95196373D01*
X151275919Y-95217910D01*
X151287613Y-95237857D01*
X151289438Y-95249374D01*
X151289499Y-95249997D01*
X151305141Y-95328637D01*
X151305144Y-95328647D01*
X151319904Y-95364280D01*
X151324705Y-95425277D01*
X151316985Y-95442927D01*
X151317766Y-95443251D01*
X151314033Y-95452263D01*
X151299501Y-95525315D01*
X151299500Y-95525327D01*
X151299500Y-95674672D01*
X151299501Y-95674684D01*
X151310285Y-95728894D01*
X151314034Y-95747740D01*
X151314035Y-95747742D01*
X151317766Y-95756749D01*
X151315751Y-95757583D01*
X151328811Y-95803888D01*
X151316227Y-95842613D01*
X151317766Y-95843251D01*
X151314033Y-95852263D01*
X151299501Y-95925315D01*
X151299500Y-95925327D01*
X151299500Y-96074672D01*
X151299501Y-96074684D01*
X151314033Y-96147736D01*
X151314034Y-96147740D01*
X151314035Y-96147742D01*
X151317766Y-96156749D01*
X151315751Y-96157583D01*
X151328811Y-96203888D01*
X151316227Y-96242613D01*
X151317766Y-96243251D01*
X151314033Y-96252263D01*
X151299501Y-96325315D01*
X151299500Y-96325327D01*
X151299500Y-96474672D01*
X151299501Y-96474684D01*
X151314033Y-96547736D01*
X151314034Y-96547740D01*
X151314035Y-96547741D01*
X151317767Y-96556752D01*
X151316811Y-96557147D01*
X151320673Y-96561865D01*
X151320510Y-96577425D01*
X151327363Y-96601724D01*
X151324201Y-96622948D01*
X151321970Y-96631454D01*
X151321251Y-96632468D01*
X151305142Y-96671359D01*
X151289500Y-96750000D01*
X151289500Y-96755264D01*
X151286677Y-96766029D01*
X151274183Y-96785493D01*
X151264913Y-96806682D01*
X151257971Y-96810749D01*
X151253626Y-96817520D01*
X151232077Y-96825923D01*
X151212124Y-96837616D01*
X151200626Y-96839438D01*
X151200002Y-96839499D01*
X151121362Y-96855141D01*
X151121353Y-96855144D01*
X151085718Y-96869904D01*
X151024721Y-96874703D01*
X151007075Y-96866986D01*
X151006752Y-96867767D01*
X150997742Y-96864035D01*
X150997740Y-96864034D01*
X150997736Y-96864033D01*
X150924684Y-96849501D01*
X150924674Y-96849500D01*
X150775326Y-96849500D01*
X150775325Y-96849500D01*
X150775315Y-96849501D01*
X150702263Y-96864033D01*
X150702261Y-96864033D01*
X150702260Y-96864034D01*
X150702259Y-96864034D01*
X150693251Y-96867766D01*
X150692416Y-96865751D01*
X150646112Y-96878811D01*
X150607386Y-96866227D01*
X150606749Y-96867766D01*
X150597742Y-96864035D01*
X150597740Y-96864034D01*
X150597736Y-96864033D01*
X150524684Y-96849501D01*
X150524674Y-96849500D01*
X150375326Y-96849500D01*
X150375325Y-96849500D01*
X150375315Y-96849501D01*
X150302263Y-96864033D01*
X150302261Y-96864033D01*
X150302260Y-96864034D01*
X150302259Y-96864034D01*
X150293251Y-96867766D01*
X150292416Y-96865751D01*
X150246112Y-96878811D01*
X150207386Y-96866227D01*
X150206749Y-96867766D01*
X150197742Y-96864035D01*
X150197740Y-96864034D01*
X150197736Y-96864033D01*
X150124684Y-96849501D01*
X150124674Y-96849500D01*
X149975326Y-96849500D01*
X149975325Y-96849500D01*
X149975315Y-96849501D01*
X149902263Y-96864033D01*
X149902261Y-96864033D01*
X149902260Y-96864034D01*
X149902259Y-96864034D01*
X149893251Y-96867766D01*
X149892854Y-96866809D01*
X149888136Y-96870673D01*
X149872569Y-96870510D01*
X149848261Y-96877362D01*
X149827052Y-96874201D01*
X149818545Y-96871970D01*
X149817532Y-96871251D01*
X149778641Y-96855142D01*
X149700000Y-96839500D01*
X149694734Y-96839500D01*
X149683970Y-96836677D01*
X149664505Y-96824182D01*
X149643319Y-96814914D01*
X149639251Y-96807972D01*
X149632479Y-96803626D01*
X149624076Y-96782078D01*
X149612383Y-96762126D01*
X149610560Y-96750609D01*
X149610500Y-96750000D01*
X149596581Y-96680022D01*
X149594858Y-96671359D01*
X149580094Y-96635716D01*
X149575294Y-96574724D01*
X149583017Y-96557073D01*
X149582234Y-96556749D01*
X149585961Y-96547746D01*
X149585966Y-96547740D01*
X149600500Y-96474674D01*
X149600500Y-96325326D01*
X149585966Y-96252260D01*
X149585964Y-96252257D01*
X149530602Y-96169400D01*
X149530599Y-96169397D01*
X149447742Y-96114035D01*
X149447740Y-96114034D01*
X149447737Y-96114033D01*
X149447736Y-96114033D01*
X149374684Y-96099501D01*
X149374674Y-96099500D01*
X149374673Y-96099500D01*
X148565479Y-96099500D01*
X148507288Y-96080593D01*
X148495475Y-96070504D01*
X148481787Y-96056816D01*
X148454010Y-96002299D01*
X148463581Y-95941867D01*
X148506846Y-95898602D01*
X148567278Y-95889031D01*
X148571106Y-95889715D01*
X148625315Y-95900498D01*
X148625320Y-95900498D01*
X148625326Y-95900500D01*
X148625327Y-95900500D01*
X149374673Y-95900500D01*
X149374674Y-95900500D01*
X149447740Y-95885966D01*
X149530601Y-95830601D01*
X149585966Y-95747740D01*
X149600500Y-95674674D01*
X149600500Y-95525326D01*
X149585966Y-95452260D01*
X149585962Y-95452255D01*
X149582233Y-95443248D01*
X149583187Y-95442852D01*
X149579324Y-95438133D01*
X149579486Y-95422572D01*
X149572635Y-95398288D01*
X149575798Y-95377049D01*
X149578027Y-95368549D01*
X149578749Y-95367532D01*
X149594858Y-95328641D01*
X149610500Y-95250000D01*
X149610500Y-95244732D01*
X149613323Y-95233969D01*
X149625811Y-95214513D01*
X149635073Y-95193332D01*
X149642022Y-95189257D01*
X149646374Y-95182478D01*
X149667913Y-95174078D01*
X149687856Y-95162387D01*
X149699392Y-95160560D01*
X149699998Y-95160500D01*
X149700000Y-95160500D01*
X149778641Y-95144858D01*
X149814280Y-95130095D01*
X149875277Y-95125295D01*
X149892924Y-95133014D01*
X149893248Y-95132233D01*
X149902255Y-95135962D01*
X149902260Y-95135966D01*
X149957808Y-95147015D01*
X149975315Y-95150498D01*
X149975320Y-95150498D01*
X149975326Y-95150500D01*
X149975327Y-95150500D01*
X150124673Y-95150500D01*
X150124674Y-95150500D01*
X150197740Y-95135966D01*
X150197746Y-95135961D01*
X150206752Y-95132233D01*
X150207586Y-95134248D01*
X150253880Y-95121189D01*
X150292610Y-95133773D01*
X150293248Y-95132233D01*
X150302255Y-95135962D01*
X150302260Y-95135966D01*
X150357808Y-95147015D01*
X150375315Y-95150498D01*
X150375320Y-95150498D01*
X150375326Y-95150500D01*
X150375327Y-95150500D01*
X150524673Y-95150500D01*
X150524674Y-95150500D01*
X150597740Y-95135966D01*
X150597746Y-95135961D01*
X150606752Y-95132233D01*
X150607586Y-95134248D01*
X150653880Y-95121189D01*
X150692610Y-95133773D01*
G37*
%TD.AperFunction*%
%TD*%
%TA.AperFunction,Conductor*%
%TO.N,Net-(D1-A)*%
G36*
X148544154Y-83763238D02*
G01*
X148882602Y-83897074D01*
X148889036Y-83903303D01*
X148890000Y-83907954D01*
X148890000Y-84092825D01*
X148886573Y-84101098D01*
X148883604Y-84103253D01*
X148544591Y-84275690D01*
X148535664Y-84276387D01*
X148530656Y-84273160D01*
X148306226Y-84027897D01*
X148303170Y-84019482D01*
X148306227Y-84012102D01*
X148405784Y-83903303D01*
X148531222Y-83766220D01*
X148539335Y-83762430D01*
X148544154Y-83763238D01*
G37*
%TD.AperFunction*%
%TD*%
%TA.AperFunction,Conductor*%
%TO.N,+BATT*%
G36*
X149190842Y-82701952D02*
G01*
X149486562Y-82874720D01*
X149683708Y-82989898D01*
X149689123Y-82997030D01*
X149687908Y-83005902D01*
X149683708Y-83010102D01*
X149190844Y-83298046D01*
X149183650Y-83299572D01*
X148747908Y-83251156D01*
X148740064Y-83246837D01*
X148737500Y-83239528D01*
X148737500Y-82760471D01*
X148740927Y-82752198D01*
X148747906Y-82748843D01*
X149183652Y-82700427D01*
X149190842Y-82701952D01*
G37*
%TD.AperFunction*%
%TD*%
%TA.AperFunction,Conductor*%
%TO.N,+BATT*%
G36*
X135904837Y-80778163D02*
G01*
X136780344Y-82622875D01*
X136780795Y-82631819D01*
X136778047Y-82636165D01*
X136435820Y-82978392D01*
X136427547Y-82981819D01*
X136423138Y-82980957D01*
X134514117Y-82204366D01*
X134507745Y-82198074D01*
X134507647Y-82189224D01*
X134897506Y-81203808D01*
X134903732Y-81197379D01*
X135889638Y-80772435D01*
X135898590Y-80772308D01*
X135904837Y-80778163D01*
G37*
%TD.AperFunction*%
%TD*%
%TA.AperFunction,Conductor*%
%TO.N,+BATT*%
G36*
X148569079Y-98383618D02*
G01*
X149016866Y-98585883D01*
X149022995Y-98592412D01*
X149023333Y-98599643D01*
X148942228Y-98895164D01*
X148936734Y-98902235D01*
X148935389Y-98902890D01*
X148670172Y-99011802D01*
X148661218Y-99011775D01*
X148655201Y-99006085D01*
X148423922Y-98529201D01*
X148423395Y-98520261D01*
X148426174Y-98515824D01*
X148555991Y-98386007D01*
X148564263Y-98382581D01*
X148569079Y-98383618D01*
G37*
%TD.AperFunction*%
%TD*%
%TA.AperFunction,Conductor*%
%TO.N,+BATT*%
G36*
X141052159Y-90102873D02*
G01*
X141055181Y-90104970D01*
X141558480Y-90587773D01*
X141558654Y-90587943D01*
X141901675Y-90930964D01*
X141905102Y-90939237D01*
X141901675Y-90947510D01*
X141899550Y-90949191D01*
X141054673Y-91471022D01*
X141045834Y-91472454D01*
X141044794Y-91472157D01*
X139081589Y-90811574D01*
X139074840Y-90805688D01*
X139074231Y-90796754D01*
X139080117Y-90790005D01*
X139081444Y-90789446D01*
X141043221Y-90102374D01*
X141052159Y-90102873D01*
G37*
%TD.AperFunction*%
%TD*%
%TA.AperFunction,Conductor*%
%TO.N,Net-(D1-A)*%
G36*
X151640441Y-93110460D02*
G01*
X151887405Y-93221892D01*
X151893537Y-93228419D01*
X151894293Y-93232557D01*
X151894293Y-93367406D01*
X151890866Y-93375679D01*
X151887357Y-93378092D01*
X151640422Y-93488176D01*
X151631470Y-93488415D01*
X151626875Y-93485219D01*
X151470091Y-93307020D01*
X151467200Y-93298547D01*
X151470092Y-93291565D01*
X151626849Y-93113396D01*
X151634885Y-93109450D01*
X151640441Y-93110460D01*
G37*
%TD.AperFunction*%
%TD*%
%TA.AperFunction,Conductor*%
%TO.N,Net-(D1-K)*%
G36*
X150832905Y-93304391D02*
G01*
X151039177Y-93432886D01*
X151044387Y-93440169D01*
X151044234Y-93446055D01*
X151002111Y-93592309D01*
X150999141Y-93597344D01*
X150903309Y-93693176D01*
X150895036Y-93696603D01*
X150886940Y-93693349D01*
X150786786Y-93597344D01*
X150689244Y-93503842D01*
X150685643Y-93495643D01*
X150687819Y-93488595D01*
X150817202Y-93307520D01*
X150824799Y-93302782D01*
X150832905Y-93304391D01*
G37*
%TD.AperFunction*%
%TD*%
%TA.AperFunction,Conductor*%
%TO.N,/LEDK*%
G36*
X141053551Y-88402387D02*
G01*
X141054796Y-88403083D01*
X141744628Y-88846546D01*
X141749733Y-88853902D01*
X141750000Y-88856387D01*
X141750000Y-89343612D01*
X141746573Y-89351885D01*
X141744627Y-89353454D01*
X141054801Y-89796913D01*
X141045989Y-89798504D01*
X141044614Y-89798115D01*
X139080569Y-89111043D01*
X139073892Y-89105077D01*
X139073389Y-89096137D01*
X139079356Y-89089459D01*
X139080570Y-89088956D01*
X141044613Y-88401884D01*
X141053551Y-88402387D01*
G37*
%TD.AperFunction*%
%TD*%
%TA.AperFunction,Conductor*%
%TO.N,/LEDK*%
G36*
X149557489Y-84450000D02*
G01*
X149917988Y-84547826D01*
X149925075Y-84553300D01*
X149926594Y-84558279D01*
X149946735Y-84838587D01*
X149943910Y-84847085D01*
X149936164Y-84851074D01*
X148900299Y-84948792D01*
X148891740Y-84946158D01*
X148887552Y-84938243D01*
X148887500Y-84937144D01*
X148887500Y-84458572D01*
X148890927Y-84450299D01*
X148895671Y-84447417D01*
X149193736Y-84353214D01*
X149200323Y-84353079D01*
X149557489Y-84450000D01*
G37*
%TD.AperFunction*%
%TD*%
%TA.AperFunction,Conductor*%
%TO.N,Net-(Q1-G)*%
G36*
X152210723Y-98313427D02*
G01*
X152213111Y-98316881D01*
X152366231Y-98655611D01*
X152366516Y-98664561D01*
X152363468Y-98669062D01*
X152117898Y-98893772D01*
X152109482Y-98896829D01*
X152102102Y-98893772D01*
X151856531Y-98669062D01*
X151852740Y-98660948D01*
X151853767Y-98655614D01*
X152006889Y-98316880D01*
X152013419Y-98310753D01*
X152017550Y-98310000D01*
X152202450Y-98310000D01*
X152210723Y-98313427D01*
G37*
%TD.AperFunction*%
%TD*%
%TA.AperFunction,Conductor*%
%TO.N,Net-(Q1-G)*%
G36*
X149935642Y-86453553D02*
G01*
X150572507Y-86726021D01*
X150578765Y-86732426D01*
X150579017Y-86740441D01*
X150503650Y-86969061D01*
X150497805Y-86975845D01*
X150492538Y-86977098D01*
X150303492Y-86977098D01*
X150298722Y-86976081D01*
X150298193Y-86975845D01*
X149803053Y-86754745D01*
X149796897Y-86748244D01*
X149797116Y-86739349D01*
X149920334Y-86459592D01*
X149926803Y-86453404D01*
X149935642Y-86453553D01*
G37*
%TD.AperFunction*%
%TD*%
%TA.AperFunction,Conductor*%
%TO.N,Net-(U2-PROG)*%
G36*
X151541117Y-80520927D02*
G01*
X152089543Y-80795139D01*
X152095411Y-80801904D01*
X152095133Y-80810051D01*
X151979890Y-81090526D01*
X151973576Y-81096876D01*
X151965290Y-81097152D01*
X151342087Y-80884504D01*
X151335363Y-80878589D01*
X151334575Y-80870361D01*
X151353706Y-80800000D01*
X151391342Y-80661578D01*
X151394356Y-80656380D01*
X151527617Y-80523119D01*
X151535889Y-80519693D01*
X151541117Y-80520927D01*
G37*
%TD.AperFunction*%
%TD*%
%TA.AperFunction,Conductor*%
%TO.N,Net-(U2-PROG)*%
G36*
X148676666Y-80583855D02*
G01*
X148806435Y-80713624D01*
X148809862Y-80721897D01*
X148808855Y-80726646D01*
X148623767Y-81143356D01*
X148617277Y-81149526D01*
X148610883Y-81150100D01*
X148305517Y-81091893D01*
X148298032Y-81086978D01*
X148296888Y-81084848D01*
X148192282Y-80830033D01*
X148192310Y-80821080D01*
X148197857Y-80815135D01*
X148663147Y-80581670D01*
X148672077Y-80581023D01*
X148676666Y-80583855D01*
G37*
%TD.AperFunction*%
%TD*%
%TA.AperFunction,Conductor*%
%TO.N,Net-(U1-PA6)*%
G36*
X150719709Y-98401145D02*
G01*
X151138169Y-98576392D01*
X151144476Y-98582749D01*
X151145174Y-98589199D01*
X151091805Y-98894422D01*
X151087005Y-98901981D01*
X151084829Y-98903187D01*
X150829919Y-99010754D01*
X150820964Y-99010813D01*
X150815005Y-99005402D01*
X150575038Y-98547152D01*
X150574237Y-98538235D01*
X150577129Y-98533455D01*
X150706920Y-98403664D01*
X150715192Y-98400238D01*
X150719709Y-98401145D01*
G37*
%TD.AperFunction*%
%TD*%
%TA.AperFunction,Conductor*%
%TO.N,Net-(SW1-A)*%
G36*
X149331815Y-87759576D02*
G01*
X149334512Y-87762273D01*
X149674810Y-88237217D01*
X149676843Y-88245938D01*
X149673559Y-88252317D01*
X149403426Y-88521586D01*
X149395166Y-88525000D01*
X149254836Y-88525000D01*
X149246576Y-88521586D01*
X148976442Y-88252317D01*
X148973002Y-88244050D01*
X148975190Y-88237218D01*
X149315490Y-87762272D01*
X149323094Y-87757543D01*
X149331815Y-87759576D01*
G37*
%TD.AperFunction*%
%TD*%
%TA.AperFunction,Conductor*%
%TO.N,Net-(SW1-A)*%
G36*
X149403426Y-91478414D02*
G01*
X149673559Y-91747682D01*
X149676999Y-91755949D01*
X149674810Y-91762782D01*
X149334512Y-92237726D01*
X149326908Y-92242456D01*
X149318187Y-92240423D01*
X149315490Y-92237726D01*
X148975191Y-91762782D01*
X148973158Y-91754061D01*
X148976441Y-91747683D01*
X149246576Y-91478413D01*
X149254836Y-91475000D01*
X149395166Y-91475000D01*
X149403426Y-91478414D01*
G37*
%TD.AperFunction*%
%TD*%
%TA.AperFunction,Conductor*%
%TO.N,Net-(SW1-A)*%
G36*
X149331235Y-92260843D02*
G01*
X149335019Y-92264224D01*
X149571050Y-92592797D01*
X149675803Y-92738622D01*
X149677847Y-92747340D01*
X149675942Y-92752077D01*
X149510823Y-92992232D01*
X149509455Y-92993876D01*
X149412379Y-93090952D01*
X149404106Y-93094379D01*
X149395877Y-93090996D01*
X149052831Y-92751564D01*
X149049360Y-92743309D01*
X149050850Y-92737534D01*
X149315311Y-92265333D01*
X149322342Y-92259790D01*
X149331235Y-92260843D01*
G37*
%TD.AperFunction*%
%TD*%
%TA.AperFunction,Conductor*%
%TO.N,+5V*%
G36*
X152926449Y-82724386D02*
G01*
X152934519Y-82728267D01*
X152937500Y-82736068D01*
X152937500Y-83214975D01*
X152934073Y-83223248D01*
X152927595Y-83226536D01*
X152553695Y-83284584D01*
X152546709Y-83283509D01*
X151993460Y-83009633D01*
X151987566Y-83002891D01*
X151988165Y-82993956D01*
X151992746Y-82989047D01*
X152484462Y-82701774D01*
X152491011Y-82700195D01*
X152926449Y-82724386D01*
G37*
%TD.AperFunction*%
%TD*%
M02*
