M48
; DRILL file {KiCad 9.0.5} date 2025-12-13T15:18:50-0500
; FORMAT={-:-/ absolute / inch / decimal}
; #@! TF.CreationDate,2025-12-13T15:18:50-05:00
; #@! TF.GenerationSoftware,Kicad,Pcbnew,9.0.5
; #@! TF.FileFunction,Plated,1,2,PTH
FMAT,2
INCH
; #@! TA.AperFunction,Plated,PTH,ViaDrill
T1C0.0118
; #@! TA.AperFunction,Plated,PTH,ViaDrill
T2C0.0197
%
G90
G05
T1
X5.3917Y-3.1772
X5.4232Y-3.1772
X5.4429Y-3.2697
X5.4547Y-3.1772
X5.4744Y-3.2697
X5.5591Y-3.3071
X5.5787Y-3.2264
X5.5906Y-3.1772
X5.5906Y-3.3071
X5.622Y-3.1772
X5.6535Y-3.1772
X5.685Y-3.1772
X5.685Y-3.4213
X5.685Y-3.4528
X5.685Y-3.4843
X5.685Y-3.5157
X5.685Y-3.5472
X5.685Y-3.5787
X5.685Y-3.6102
X5.7165Y-3.1772
X5.748Y-3.1772
X5.7559Y-3.7087
X5.7874Y-3.7087
X5.7943Y-3.7982
X5.7943Y-3.8297
X5.7943Y-3.8612
X5.7943Y-3.8927
X5.8041Y-3.4823
X5.8041Y-3.5138
X5.8386Y-3.4055
X5.8386Y-3.4724
X5.8386Y-3.5039
X5.8386Y-3.5551
X5.8386Y-3.5866
X5.8425Y-3.6732
X5.8543Y-3.8465
X5.8789Y-3.4852
X5.8789Y-3.6014
X5.9213Y-3.4528
X5.9399Y-3.2831
X5.9429Y-3.5866
X5.9724Y-3.3268
X5.9803Y-3.8465
X5.9882Y-3.4921
X5.9882Y-3.5236
X5.9882Y-3.5551
X5.9882Y-3.5866
X5.9922Y-3.6614
X6.0256Y-3.3583
X6.0256Y-3.3898
X6.0256Y-3.4213
T2
X5.498Y-3.3091
X5.6083Y-3.4803
X5.7992Y-3.3346
X5.8012Y-3.2707
X6.0364Y-3.2677
M30
