%TF.GenerationSoftware,KiCad,Pcbnew,9.0.5*%
%TF.CreationDate,2025-12-13T15:18:48-05:00*%
%TF.ProjectId,lightwear_bracelet,6c696768-7477-4656-9172-5f6272616365,rev?*%
%TF.SameCoordinates,Original*%
%TF.FileFunction,Copper,L2,Bot*%
%TF.FilePolarity,Positive*%
%FSLAX46Y46*%
G04 Gerber Fmt 4.6, Leading zero omitted, Abs format (unit mm)*
G04 Created by KiCad (PCBNEW 9.0.5) date 2025-12-13 15:18:48*
%MOMM*%
%LPD*%
G01*
G04 APERTURE LIST*
%ADD10C,0.300000*%
%TA.AperFunction,NonConductor*%
%ADD11C,0.300000*%
%TD*%
%TA.AperFunction,SMDPad,CuDef*%
%ADD12R,4.000000X1.400000*%
%TD*%
%TA.AperFunction,SMDPad,CuDef*%
%ADD13C,1.500000*%
%TD*%
%TA.AperFunction,ViaPad*%
%ADD14C,1.000000*%
%TD*%
%TA.AperFunction,ViaPad*%
%ADD15C,0.600000*%
%TD*%
%TA.AperFunction,Conductor*%
%ADD16C,0.500000*%
%TD*%
%TA.AperFunction,Conductor*%
%ADD17C,0.200000*%
%TD*%
%TA.AperFunction,Conductor*%
%ADD18C,0.150000*%
%TD*%
G04 APERTURE END LIST*
D10*
D11*
X130245489Y-90357971D02*
X130174060Y-90429400D01*
X130174060Y-90429400D02*
X130245489Y-90500828D01*
X130245489Y-90500828D02*
X130316917Y-90429400D01*
X130316917Y-90429400D02*
X130245489Y-90357971D01*
X130245489Y-90357971D02*
X130245489Y-90500828D01*
X130245489Y-89572257D02*
X130174060Y-89643685D01*
X130174060Y-89643685D02*
X130245489Y-89715114D01*
X130245489Y-89715114D02*
X130316917Y-89643685D01*
X130316917Y-89643685D02*
X130245489Y-89572257D01*
X130245489Y-89572257D02*
X130245489Y-89715114D01*
X129674060Y-91072257D02*
X129602631Y-91000828D01*
X129602631Y-91000828D02*
X129459774Y-90786542D01*
X129459774Y-90786542D02*
X129388346Y-90643685D01*
X129388346Y-90643685D02*
X129316917Y-90429400D01*
X129316917Y-90429400D02*
X129245488Y-90072257D01*
X129245488Y-90072257D02*
X129245488Y-89786542D01*
X129245488Y-89786542D02*
X129316917Y-89429400D01*
X129316917Y-89429400D02*
X129388346Y-89215114D01*
X129388346Y-89215114D02*
X129459774Y-89072257D01*
X129459774Y-89072257D02*
X129602631Y-88857971D01*
X129602631Y-88857971D02*
X129674060Y-88786542D01*
D10*
D11*
X133145489Y-90600828D02*
X133145489Y-89100828D01*
X132502632Y-90600828D02*
X132502632Y-89815114D01*
X132502632Y-89815114D02*
X132574060Y-89672257D01*
X132574060Y-89672257D02*
X132716917Y-89600828D01*
X132716917Y-89600828D02*
X132931203Y-89600828D01*
X132931203Y-89600828D02*
X133074060Y-89672257D01*
X133074060Y-89672257D02*
X133145489Y-89743685D01*
X131788346Y-90600828D02*
X131788346Y-89600828D01*
X131788346Y-89100828D02*
X131859774Y-89172257D01*
X131859774Y-89172257D02*
X131788346Y-89243685D01*
X131788346Y-89243685D02*
X131716917Y-89172257D01*
X131716917Y-89172257D02*
X131788346Y-89100828D01*
X131788346Y-89100828D02*
X131788346Y-89243685D01*
D12*
%TO.P,TP11,1,1*%
%TO.N,/LEDK*%
X139050000Y-89100000D03*
%TD*%
D13*
%TO.P,TP3,1,1*%
%TO.N,GND*%
X146175000Y-92500000D03*
%TD*%
%TO.P,TP2,1,1*%
%TO.N,/UPDI*%
X146175000Y-90000000D03*
%TD*%
D12*
%TO.P,TP9,1,1*%
%TO.N,/LEDK*%
X139050000Y-92500000D03*
%TD*%
D13*
%TO.P,TP1,1,1*%
%TO.N,+5V*%
X146175000Y-87500000D03*
%TD*%
D12*
%TO.P,TP10,1,1*%
%TO.N,+BATT*%
X139050000Y-87400000D03*
%TD*%
%TO.P,TP8,1,1*%
%TO.N,+BATT*%
X139050000Y-90800000D03*
%TD*%
D14*
%TO.N,+BATT*%
X139650000Y-84050000D03*
X147350000Y-83075000D03*
D15*
%TO.N,GND*%
X136950000Y-80700000D03*
X142000000Y-80700000D03*
X144400000Y-86900000D03*
X142800000Y-80700000D03*
X152100000Y-89500000D03*
X144400000Y-90100000D03*
X144400000Y-89300000D03*
X148300000Y-88200000D03*
X141200000Y-84000000D03*
X153050000Y-86100000D03*
X147425000Y-88450000D03*
X148300000Y-86500000D03*
X152100000Y-90300000D03*
X148300000Y-89000000D03*
X137750000Y-80700000D03*
X148300000Y-90300000D03*
X147000000Y-94200000D03*
X147175000Y-97275000D03*
X152100000Y-88700000D03*
X148700000Y-97700000D03*
X147175000Y-98075000D03*
X144400000Y-87700000D03*
X145200000Y-80700000D03*
X143600000Y-80700000D03*
X153050000Y-85300000D03*
X144400000Y-91700000D03*
X141700000Y-81950000D03*
X144400000Y-88500000D03*
X147425000Y-89250000D03*
X144400000Y-80700000D03*
X138550000Y-80700000D03*
X148300000Y-91100000D03*
X153050000Y-86900000D03*
X147175000Y-98875000D03*
X142000000Y-84000000D03*
X146200000Y-94200000D03*
X139050000Y-83050000D03*
X144400000Y-90900000D03*
X146000000Y-80700000D03*
X147175000Y-96475000D03*
X152100000Y-91100000D03*
X138250000Y-83050000D03*
%TO.N,Net-(D1-A)*%
X151700000Y-84500000D03*
X152201074Y-93000741D03*
D14*
%TO.N,/LEDK*%
X142450000Y-88400000D03*
X147300000Y-84700000D03*
D15*
%TO.N,Net-(Q1-G)*%
X151900000Y-97700000D03*
X150400000Y-87700000D03*
%TO.N,Net-(SW1-A)*%
X149325001Y-91475000D03*
X149325001Y-88525000D03*
D14*
%TO.N,+5V*%
X153325000Y-83000000D03*
D15*
%TO.N,/UPDI*%
X148400000Y-93300000D03*
%TO.N,/nCHRG*%
X150950000Y-91100000D03*
X150872975Y-83391975D03*
%TD*%
D16*
%TO.N,+5V*%
X148400000Y-85275000D02*
X146175000Y-87500000D01*
X150582611Y-82690975D02*
X148400000Y-84873586D01*
X152740975Y-82690975D02*
X150582611Y-82690975D01*
X148400000Y-84873586D02*
X148400000Y-85275000D01*
X153325000Y-83000000D02*
X153050000Y-83000000D01*
X153050000Y-83000000D02*
X152740975Y-82690975D01*
%TO.N,+BATT*%
X140625000Y-83075000D02*
X147350000Y-83075000D01*
X141451000Y-88200000D02*
X141451000Y-90201000D01*
X141451000Y-85851000D02*
X141451000Y-87400000D01*
X139650000Y-84050000D02*
X140625000Y-83075000D01*
X141451000Y-87999000D02*
X141451000Y-87400000D01*
X139650000Y-84050000D02*
X141451000Y-85851000D01*
X141451000Y-88200000D02*
X141451000Y-87999000D01*
X141451000Y-90201000D02*
X140852000Y-90800000D01*
X140852000Y-90800000D02*
X139050000Y-90800000D01*
D17*
%TO.N,Net-(D1-A)*%
X151500000Y-92100000D02*
X151500000Y-84700000D01*
X151500000Y-84700000D02*
X151700000Y-84500000D01*
X152201074Y-93000741D02*
X152201074Y-92801074D01*
X152201074Y-92801074D02*
X151500000Y-92100000D01*
D16*
%TO.N,/LEDK*%
X144000000Y-84700000D02*
X142450000Y-86250000D01*
X142450000Y-91050000D02*
X141000000Y-92500000D01*
X142450000Y-88400000D02*
X142450000Y-91050000D01*
X141000000Y-92500000D02*
X139050000Y-92500000D01*
X142450000Y-86250000D02*
X142450000Y-88400000D01*
X147300000Y-84700000D02*
X144000000Y-84700000D01*
D17*
%TO.N,Net-(Q1-G)*%
X150400000Y-93300000D02*
X151900000Y-94800000D01*
X151900000Y-94800000D02*
X151900000Y-97700000D01*
X150400000Y-93300000D02*
X150400000Y-87700000D01*
D18*
%TO.N,Net-(SW1-A)*%
X149325001Y-91475000D02*
X149325000Y-91474999D01*
X149325000Y-88525001D02*
X149325001Y-88525000D01*
X149325000Y-91474999D02*
X149325000Y-88525001D01*
D17*
%TO.N,/UPDI*%
X148400000Y-93300000D02*
X148400000Y-92475000D01*
X146175000Y-90250000D02*
X146175000Y-90000000D01*
X148400000Y-92475000D02*
X146175000Y-90250000D01*
D18*
%TO.N,/nCHRG*%
X150951000Y-91099000D02*
X150950000Y-91100000D01*
X150951000Y-83547025D02*
X150951000Y-91099000D01*
X150872975Y-83469000D02*
X150951000Y-83547025D01*
X150872975Y-83391975D02*
X150872975Y-83469000D01*
%TD*%
%TA.AperFunction,Conductor*%
%TO.N,GND*%
G36*
X152706432Y-80101347D02*
G01*
X152738713Y-80105597D01*
X152763676Y-80112286D01*
X152787705Y-80122239D01*
X152810086Y-80135160D01*
X152835917Y-80154980D01*
X152845655Y-80163519D01*
X158836479Y-86154344D01*
X158845017Y-86164081D01*
X158864836Y-86189910D01*
X158877758Y-86212291D01*
X158887713Y-86236324D01*
X158894402Y-86261287D01*
X158898653Y-86293573D01*
X158899500Y-86306496D01*
X158899500Y-93593510D01*
X158898653Y-93606435D01*
X158894402Y-93638716D01*
X158887713Y-93663676D01*
X158877760Y-93687705D01*
X158864837Y-93710088D01*
X158845012Y-93735924D01*
X158836478Y-93745657D01*
X158814224Y-93767912D01*
X158812743Y-93769858D01*
X152845881Y-99836165D01*
X152835570Y-99845283D01*
X152810089Y-99864836D01*
X152787708Y-99877758D01*
X152763679Y-99887712D01*
X152738713Y-99894402D01*
X152706424Y-99898653D01*
X152693504Y-99899500D01*
X129506489Y-99899500D01*
X129493567Y-99898653D01*
X129409521Y-99887587D01*
X129384560Y-99880899D01*
X129312292Y-99850965D01*
X129289913Y-99838045D01*
X129227847Y-99790420D01*
X129209579Y-99772152D01*
X129161952Y-99710083D01*
X129149036Y-99687711D01*
X129119099Y-99615435D01*
X129112412Y-99590481D01*
X129101347Y-99506433D01*
X129100500Y-99493511D01*
X129100500Y-95406488D01*
X129101347Y-95393566D01*
X129103132Y-95380009D01*
X129112412Y-95309516D01*
X129119098Y-95284566D01*
X129149037Y-95212285D01*
X129161954Y-95189913D01*
X129213560Y-95122659D01*
X129222100Y-95112922D01*
X129250472Y-95084551D01*
X129250476Y-95084544D01*
X130212932Y-94122091D01*
X130222644Y-94113573D01*
X130289918Y-94061952D01*
X130312285Y-94049039D01*
X130384566Y-94019099D01*
X130409518Y-94012413D01*
X130493575Y-94001346D01*
X130506495Y-94000500D01*
X139057582Y-94000500D01*
X139057583Y-94000500D01*
X139168084Y-93968053D01*
X139264968Y-93905790D01*
X139340386Y-93818753D01*
X139388228Y-93713994D01*
X139397194Y-93651634D01*
X139404618Y-93600002D01*
X139404618Y-93599996D01*
X139392195Y-93513589D01*
X139402628Y-93453299D01*
X139446507Y-93410657D01*
X139490187Y-93400500D01*
X141069747Y-93400500D01*
X141069748Y-93400500D01*
X141128231Y-93388867D01*
X141194552Y-93344552D01*
X141238867Y-93278231D01*
X141250500Y-93219748D01*
X141250500Y-92927609D01*
X141269407Y-92869418D01*
X141279490Y-92857612D01*
X141665305Y-92471796D01*
X141666466Y-92470655D01*
X141855848Y-92287975D01*
X141857509Y-92286354D01*
X141857659Y-92286206D01*
X141866233Y-92273464D01*
X141878350Y-92258751D01*
X142810490Y-91326614D01*
X142869799Y-91223887D01*
X142878003Y-91193270D01*
X142900500Y-91109309D01*
X142900500Y-89906381D01*
X145224500Y-89906381D01*
X145224500Y-90093618D01*
X145261026Y-90277249D01*
X145332677Y-90450229D01*
X145332681Y-90450238D01*
X145389696Y-90535565D01*
X145436698Y-90605908D01*
X145569092Y-90738302D01*
X145663731Y-90801538D01*
X145680539Y-90814284D01*
X145688860Y-90818328D01*
X145724769Y-90842322D01*
X145813081Y-90878902D01*
X145818439Y-90881311D01*
X146898736Y-91406398D01*
X146925462Y-91425433D01*
X148070504Y-92570475D01*
X148098281Y-92624992D01*
X148099500Y-92640479D01*
X148099500Y-92851679D01*
X148080593Y-92909870D01*
X148070509Y-92921676D01*
X148019115Y-92973071D01*
X147999497Y-92992689D01*
X147999496Y-92992690D01*
X147933609Y-93106809D01*
X147933608Y-93106814D01*
X147899500Y-93234108D01*
X147899500Y-93365892D01*
X147924429Y-93458930D01*
X147933609Y-93493190D01*
X147999496Y-93607309D01*
X147999498Y-93607311D01*
X147999500Y-93607314D01*
X148092686Y-93700500D01*
X148092688Y-93700501D01*
X148092690Y-93700503D01*
X148206810Y-93766390D01*
X148206808Y-93766390D01*
X148206812Y-93766391D01*
X148206814Y-93766392D01*
X148334108Y-93800500D01*
X148334110Y-93800500D01*
X148465890Y-93800500D01*
X148465892Y-93800500D01*
X148593186Y-93766392D01*
X148593188Y-93766390D01*
X148593190Y-93766390D01*
X148707309Y-93700503D01*
X148707309Y-93700502D01*
X148707314Y-93700500D01*
X148800500Y-93607314D01*
X148800503Y-93607309D01*
X148866390Y-93493190D01*
X148866390Y-93493188D01*
X148866392Y-93493186D01*
X148900500Y-93365892D01*
X148900500Y-93234108D01*
X148866392Y-93106814D01*
X148866390Y-93106811D01*
X148866390Y-93106809D01*
X148800503Y-92992690D01*
X148800501Y-92992688D01*
X148800500Y-92992686D01*
X148729494Y-92921680D01*
X148701719Y-92867166D01*
X148700500Y-92851679D01*
X148700500Y-92435437D01*
X148700499Y-92435435D01*
X148680021Y-92359011D01*
X148680019Y-92359007D01*
X148640460Y-92290489D01*
X148584511Y-92234539D01*
X148584511Y-92234540D01*
X147374262Y-91024291D01*
X147347237Y-90973947D01*
X147114309Y-89824289D01*
X147114306Y-89824283D01*
X147114306Y-89824280D01*
X147108283Y-89809838D01*
X147102557Y-89791045D01*
X147088973Y-89722749D01*
X147017322Y-89549769D01*
X147017320Y-89549767D01*
X147017318Y-89549761D01*
X146957649Y-89460463D01*
X146913302Y-89394092D01*
X146780908Y-89261698D01*
X146736559Y-89232065D01*
X146625238Y-89157681D01*
X146625229Y-89157677D01*
X146452249Y-89086026D01*
X146268618Y-89049500D01*
X146268616Y-89049500D01*
X146081384Y-89049500D01*
X146081381Y-89049500D01*
X145897750Y-89086026D01*
X145724770Y-89157677D01*
X145724761Y-89157681D01*
X145569092Y-89261698D01*
X145569088Y-89261701D01*
X145436701Y-89394088D01*
X145436698Y-89394092D01*
X145332681Y-89549761D01*
X145332677Y-89549770D01*
X145261026Y-89722750D01*
X145224500Y-89906381D01*
X142900500Y-89906381D01*
X142900500Y-88981164D01*
X142919407Y-88922973D01*
X142929496Y-88911160D01*
X142994114Y-88846542D01*
X143070775Y-88731811D01*
X143123580Y-88604328D01*
X143150500Y-88468993D01*
X143150500Y-88459108D01*
X148824501Y-88459108D01*
X148824501Y-88590892D01*
X148854580Y-88703151D01*
X148858610Y-88718190D01*
X148924497Y-88832309D01*
X148924499Y-88832311D01*
X148924501Y-88832314D01*
X149017687Y-88925500D01*
X149017689Y-88925501D01*
X149020504Y-88928316D01*
X149048281Y-88982833D01*
X149049500Y-88998320D01*
X149049500Y-91001679D01*
X149030593Y-91059870D01*
X149020504Y-91071682D01*
X148924501Y-91167685D01*
X148924497Y-91167690D01*
X148858610Y-91281809D01*
X148858609Y-91281814D01*
X148824501Y-91409108D01*
X148824501Y-91540892D01*
X148847413Y-91626401D01*
X148858610Y-91668190D01*
X148924497Y-91782309D01*
X148924499Y-91782311D01*
X148924501Y-91782314D01*
X149017687Y-91875500D01*
X149017689Y-91875501D01*
X149017691Y-91875503D01*
X149131811Y-91941390D01*
X149131809Y-91941390D01*
X149131813Y-91941391D01*
X149131815Y-91941392D01*
X149259109Y-91975500D01*
X149259111Y-91975500D01*
X149390891Y-91975500D01*
X149390893Y-91975500D01*
X149518187Y-91941392D01*
X149518189Y-91941390D01*
X149518191Y-91941390D01*
X149632310Y-91875503D01*
X149632310Y-91875502D01*
X149632315Y-91875500D01*
X149725501Y-91782314D01*
X149791393Y-91668186D01*
X149825501Y-91540892D01*
X149825501Y-91409108D01*
X149791393Y-91281814D01*
X149791391Y-91281811D01*
X149791391Y-91281809D01*
X149725504Y-91167690D01*
X149725500Y-91167685D01*
X149629496Y-91071680D01*
X149601719Y-91017164D01*
X149600500Y-91001677D01*
X149600500Y-88998322D01*
X149619407Y-88940131D01*
X149629496Y-88928318D01*
X149632312Y-88925501D01*
X149632315Y-88925500D01*
X149725501Y-88832314D01*
X149740272Y-88806730D01*
X149791391Y-88718190D01*
X149791391Y-88718188D01*
X149791393Y-88718186D01*
X149825501Y-88590892D01*
X149825501Y-88459108D01*
X149791393Y-88331814D01*
X149791391Y-88331811D01*
X149791391Y-88331809D01*
X149725504Y-88217690D01*
X149725502Y-88217688D01*
X149725501Y-88217686D01*
X149632315Y-88124500D01*
X149632312Y-88124498D01*
X149632310Y-88124496D01*
X149518190Y-88058609D01*
X149518192Y-88058609D01*
X149468800Y-88045375D01*
X149390893Y-88024500D01*
X149259109Y-88024500D01*
X149181201Y-88045375D01*
X149131810Y-88058609D01*
X149017691Y-88124496D01*
X148924497Y-88217690D01*
X148858610Y-88331809D01*
X148858609Y-88331814D01*
X148824501Y-88459108D01*
X143150500Y-88459108D01*
X143150500Y-88331007D01*
X143123580Y-88195672D01*
X143070775Y-88068189D01*
X143070774Y-88068187D01*
X143070771Y-88068182D01*
X142994114Y-87953458D01*
X142929496Y-87888840D01*
X142901719Y-87834323D01*
X142900500Y-87818836D01*
X142900500Y-86477611D01*
X142919407Y-86419420D01*
X142929496Y-86407607D01*
X144157607Y-85179496D01*
X144212124Y-85151719D01*
X144227611Y-85150500D01*
X146718836Y-85150500D01*
X146777027Y-85169407D01*
X146788840Y-85179496D01*
X146853458Y-85244114D01*
X146968182Y-85320771D01*
X146968193Y-85320777D01*
X147000863Y-85334309D01*
X147095672Y-85373580D01*
X147231007Y-85400500D01*
X147231008Y-85400500D01*
X147368992Y-85400500D01*
X147368993Y-85400500D01*
X147383948Y-85397525D01*
X147444709Y-85404714D01*
X147489640Y-85446245D01*
X147501579Y-85506254D01*
X147475966Y-85561820D01*
X147473269Y-85564626D01*
X146954497Y-86083398D01*
X146926443Y-86103067D01*
X145867489Y-86598452D01*
X145863426Y-86600243D01*
X145724765Y-86657679D01*
X145692910Y-86678963D01*
X145692911Y-86678964D01*
X145687134Y-86682824D01*
X145683553Y-86684500D01*
X145669680Y-86691644D01*
X145668164Y-86692499D01*
X145664942Y-86694355D01*
X145652936Y-86705673D01*
X145646050Y-86710275D01*
X145569092Y-86761697D01*
X145436705Y-86894083D01*
X145436698Y-86894092D01*
X145332681Y-87049761D01*
X145332677Y-87049770D01*
X145261026Y-87222750D01*
X145224500Y-87406381D01*
X145224500Y-87593618D01*
X145261026Y-87777249D01*
X145332677Y-87950229D01*
X145332681Y-87950238D01*
X145405093Y-88058608D01*
X145436698Y-88105908D01*
X145569092Y-88238302D01*
X145595515Y-88255957D01*
X145724761Y-88342318D01*
X145724767Y-88342320D01*
X145724769Y-88342322D01*
X145897749Y-88413973D01*
X146081384Y-88450500D01*
X146081385Y-88450500D01*
X146268615Y-88450500D01*
X146268616Y-88450500D01*
X146452251Y-88413973D01*
X146625231Y-88342322D01*
X146625233Y-88342320D01*
X146625238Y-88342318D01*
X146670187Y-88312282D01*
X146780908Y-88238302D01*
X146913302Y-88105908D01*
X146913303Y-88105907D01*
X146913304Y-88105906D01*
X146979182Y-88007309D01*
X146982677Y-88002079D01*
X146990505Y-87991433D01*
X146992170Y-87987873D01*
X147017322Y-87950231D01*
X147074771Y-87811534D01*
X147076545Y-87807508D01*
X147571931Y-86748553D01*
X147591595Y-86720506D01*
X148760489Y-85551614D01*
X148819799Y-85448887D01*
X148839977Y-85373580D01*
X148850500Y-85334309D01*
X148850500Y-85101196D01*
X148869407Y-85043005D01*
X148879490Y-85031198D01*
X150285685Y-83625002D01*
X150340200Y-83597227D01*
X150400632Y-83606798D01*
X150441423Y-83645507D01*
X150472473Y-83699286D01*
X150472475Y-83699289D01*
X150565661Y-83792475D01*
X150565663Y-83792476D01*
X150626000Y-83827312D01*
X150666941Y-83872781D01*
X150675500Y-83913048D01*
X150675500Y-87126644D01*
X150656593Y-87184835D01*
X150607093Y-87220799D01*
X150550878Y-87222271D01*
X150489095Y-87205717D01*
X150465892Y-87199500D01*
X150334108Y-87199500D01*
X150256200Y-87220375D01*
X150206809Y-87233609D01*
X150092690Y-87299496D01*
X149999496Y-87392690D01*
X149933609Y-87506809D01*
X149933608Y-87506814D01*
X149899500Y-87634108D01*
X149899500Y-87765892D01*
X149902544Y-87777251D01*
X149933609Y-87893190D01*
X149999496Y-88007309D01*
X149999498Y-88007311D01*
X149999500Y-88007314D01*
X150070505Y-88078319D01*
X150098281Y-88132834D01*
X150099500Y-88148321D01*
X150099500Y-93339564D01*
X150119977Y-93415985D01*
X150119979Y-93415990D01*
X150144770Y-93458930D01*
X150144771Y-93458930D01*
X150144772Y-93458932D01*
X150159540Y-93484511D01*
X151570505Y-94895476D01*
X151598281Y-94949991D01*
X151599500Y-94965478D01*
X151599500Y-97251679D01*
X151580593Y-97309870D01*
X151570509Y-97321676D01*
X151499500Y-97392686D01*
X151499497Y-97392689D01*
X151499496Y-97392690D01*
X151433609Y-97506809D01*
X151433608Y-97506814D01*
X151399500Y-97634108D01*
X151399500Y-97765892D01*
X151429579Y-97878151D01*
X151433609Y-97893190D01*
X151499496Y-98007309D01*
X151499498Y-98007311D01*
X151499500Y-98007314D01*
X151592686Y-98100500D01*
X151592688Y-98100501D01*
X151592690Y-98100503D01*
X151706810Y-98166390D01*
X151706808Y-98166390D01*
X151706812Y-98166391D01*
X151706814Y-98166392D01*
X151834108Y-98200500D01*
X151834110Y-98200500D01*
X151965890Y-98200500D01*
X151965892Y-98200500D01*
X152093186Y-98166392D01*
X152093188Y-98166390D01*
X152093190Y-98166390D01*
X152207309Y-98100503D01*
X152207309Y-98100502D01*
X152207314Y-98100500D01*
X152300500Y-98007314D01*
X152366392Y-97893186D01*
X152400500Y-97765892D01*
X152400500Y-97634108D01*
X152366392Y-97506814D01*
X152366390Y-97506811D01*
X152366390Y-97506809D01*
X152300503Y-97392690D01*
X152300501Y-97392688D01*
X152300500Y-97392686D01*
X152229494Y-97321680D01*
X152201719Y-97267166D01*
X152200500Y-97251679D01*
X152200500Y-94760437D01*
X152200499Y-94760435D01*
X152180021Y-94684011D01*
X152180019Y-94684007D01*
X152140460Y-94615489D01*
X152084511Y-94559539D01*
X152084511Y-94559540D01*
X150729496Y-93204525D01*
X150701719Y-93150008D01*
X150700500Y-93134521D01*
X150700500Y-91680321D01*
X150719407Y-91622130D01*
X150768907Y-91586166D01*
X150825122Y-91584695D01*
X150884108Y-91600500D01*
X150884109Y-91600500D01*
X151015891Y-91600500D01*
X151015892Y-91600500D01*
X151074877Y-91584695D01*
X151135978Y-91587896D01*
X151183528Y-91626401D01*
X151199500Y-91680321D01*
X151199500Y-92139564D01*
X151219978Y-92215988D01*
X151219980Y-92215992D01*
X151259539Y-92284510D01*
X151704388Y-92729360D01*
X151732165Y-92783876D01*
X151730011Y-92824985D01*
X151707267Y-92909870D01*
X151700574Y-92934849D01*
X151700574Y-93066633D01*
X151722914Y-93150008D01*
X151734683Y-93193931D01*
X151800570Y-93308050D01*
X151800572Y-93308052D01*
X151800574Y-93308055D01*
X151893760Y-93401241D01*
X151893762Y-93401242D01*
X151893764Y-93401244D01*
X152007884Y-93467131D01*
X152007882Y-93467131D01*
X152007886Y-93467132D01*
X152007888Y-93467133D01*
X152135182Y-93501241D01*
X152135184Y-93501241D01*
X152266964Y-93501241D01*
X152266966Y-93501241D01*
X152394260Y-93467133D01*
X152394262Y-93467131D01*
X152394264Y-93467131D01*
X152508383Y-93401244D01*
X152508383Y-93401243D01*
X152508388Y-93401241D01*
X152601574Y-93308055D01*
X152644267Y-93234109D01*
X152667464Y-93193931D01*
X152667464Y-93193929D01*
X152667466Y-93193927D01*
X152701574Y-93066633D01*
X152701574Y-92934849D01*
X152667466Y-92807555D01*
X152667464Y-92807552D01*
X152667464Y-92807550D01*
X152601577Y-92693431D01*
X152601575Y-92693429D01*
X152601574Y-92693427D01*
X152508388Y-92600241D01*
X152508385Y-92600239D01*
X152508383Y-92600237D01*
X152394263Y-92534350D01*
X152394261Y-92534349D01*
X152372153Y-92528425D01*
X152327774Y-92502803D01*
X151829496Y-92004525D01*
X151801719Y-91950008D01*
X151800500Y-91934521D01*
X151800500Y-89874034D01*
X153899500Y-89874034D01*
X153899500Y-90125965D01*
X153938908Y-90374780D01*
X154016759Y-90614379D01*
X154122593Y-90822092D01*
X154131130Y-90838845D01*
X154279207Y-91042656D01*
X154457344Y-91220793D01*
X154661155Y-91368870D01*
X154885621Y-91483241D01*
X155125215Y-91561090D01*
X155125216Y-91561090D01*
X155125219Y-91561091D01*
X155374035Y-91600500D01*
X155374038Y-91600500D01*
X155625965Y-91600500D01*
X155874780Y-91561091D01*
X155874781Y-91561090D01*
X155874785Y-91561090D01*
X156114379Y-91483241D01*
X156338845Y-91368870D01*
X156542656Y-91220793D01*
X156720793Y-91042656D01*
X156868870Y-90838845D01*
X156983241Y-90614379D01*
X157061090Y-90374785D01*
X157076538Y-90277251D01*
X157100500Y-90125965D01*
X157100500Y-89874034D01*
X157061091Y-89625219D01*
X156985993Y-89394092D01*
X156983241Y-89385621D01*
X156868870Y-89161155D01*
X156720793Y-88957344D01*
X156542656Y-88779207D01*
X156338845Y-88631130D01*
X156338844Y-88631129D01*
X156338842Y-88631128D01*
X156114379Y-88516759D01*
X155874780Y-88438908D01*
X155625965Y-88399500D01*
X155625962Y-88399500D01*
X155374038Y-88399500D01*
X155374035Y-88399500D01*
X155125219Y-88438908D01*
X154885620Y-88516759D01*
X154661157Y-88631128D01*
X154457345Y-88779206D01*
X154279206Y-88957345D01*
X154131128Y-89161157D01*
X154016759Y-89385620D01*
X153938908Y-89625219D01*
X153899500Y-89874034D01*
X151800500Y-89874034D01*
X151800500Y-85067192D01*
X151819407Y-85009001D01*
X151868907Y-84973037D01*
X151873862Y-84971569D01*
X151893186Y-84966392D01*
X152007314Y-84900500D01*
X152100500Y-84807314D01*
X152156634Y-84710088D01*
X152166390Y-84693190D01*
X152166390Y-84693188D01*
X152166392Y-84693186D01*
X152200500Y-84565892D01*
X152200500Y-84434108D01*
X152166392Y-84306814D01*
X152166390Y-84306811D01*
X152166390Y-84306809D01*
X152100503Y-84192690D01*
X152100501Y-84192688D01*
X152100500Y-84192686D01*
X152007314Y-84099500D01*
X152007311Y-84099498D01*
X152007309Y-84099496D01*
X151893189Y-84033609D01*
X151893191Y-84033609D01*
X151843799Y-84020375D01*
X151765892Y-83999500D01*
X151634108Y-83999500D01*
X151556200Y-84020375D01*
X151506809Y-84033609D01*
X151392690Y-84099496D01*
X151387540Y-84103449D01*
X151386045Y-84101501D01*
X151340987Y-84124460D01*
X151280555Y-84114889D01*
X151237290Y-84071624D01*
X151226500Y-84026679D01*
X151226500Y-83787271D01*
X151245407Y-83729080D01*
X151255490Y-83717273D01*
X151273475Y-83699289D01*
X151339367Y-83585161D01*
X151373475Y-83457867D01*
X151373475Y-83326083D01*
X151357402Y-83266097D01*
X151360605Y-83204996D01*
X151399110Y-83157446D01*
X151453029Y-83141475D01*
X152513364Y-83141475D01*
X152520961Y-83143943D01*
X152528851Y-83142694D01*
X152549506Y-83153218D01*
X152571555Y-83160382D01*
X152583368Y-83170471D01*
X152661675Y-83248778D01*
X152683135Y-83280896D01*
X152704224Y-83331810D01*
X152704225Y-83331811D01*
X152780886Y-83446542D01*
X152780889Y-83446545D01*
X152878458Y-83544114D01*
X152993182Y-83620771D01*
X152993193Y-83620777D01*
X153040283Y-83640282D01*
X153120672Y-83673580D01*
X153256007Y-83700500D01*
X153256008Y-83700500D01*
X153393992Y-83700500D01*
X153393993Y-83700500D01*
X153529328Y-83673580D01*
X153656811Y-83620775D01*
X153771542Y-83544114D01*
X153869114Y-83446542D01*
X153945775Y-83331811D01*
X153998580Y-83204328D01*
X154025500Y-83068993D01*
X154025500Y-82931007D01*
X153998580Y-82795672D01*
X153964962Y-82714511D01*
X153945777Y-82668193D01*
X153945771Y-82668182D01*
X153869114Y-82553458D01*
X153771541Y-82455885D01*
X153656817Y-82379228D01*
X153656806Y-82379222D01*
X153529328Y-82326420D01*
X153393995Y-82299500D01*
X153393993Y-82299500D01*
X153256007Y-82299500D01*
X153256004Y-82299500D01*
X153120672Y-82326420D01*
X153120670Y-82326420D01*
X153101655Y-82334297D01*
X153040658Y-82339097D01*
X153014270Y-82328569D01*
X152914865Y-82271177D01*
X152914861Y-82271175D01*
X152890648Y-82264687D01*
X152890648Y-82264688D01*
X152800284Y-82240475D01*
X150523302Y-82240475D01*
X150478119Y-82252581D01*
X150432936Y-82264688D01*
X150432935Y-82264687D01*
X150408723Y-82271176D01*
X150408720Y-82271177D01*
X150306001Y-82330482D01*
X148127328Y-84509155D01*
X148072811Y-84536932D01*
X148012379Y-84527361D01*
X147969114Y-84484096D01*
X147965867Y-84477051D01*
X147926420Y-84381817D01*
X147920777Y-84368193D01*
X147920771Y-84368182D01*
X147844114Y-84253458D01*
X147746541Y-84155885D01*
X147631817Y-84079228D01*
X147631806Y-84079222D01*
X147504328Y-84026420D01*
X147368995Y-83999500D01*
X147368993Y-83999500D01*
X147231007Y-83999500D01*
X147231004Y-83999500D01*
X147095672Y-84026420D01*
X147095670Y-84026420D01*
X146968193Y-84079222D01*
X146968182Y-84079228D01*
X146853458Y-84155885D01*
X146853454Y-84155889D01*
X146788840Y-84220504D01*
X146734323Y-84248281D01*
X146718836Y-84249500D01*
X143940691Y-84249500D01*
X143922669Y-84254329D01*
X143850325Y-84273713D01*
X143850324Y-84273712D01*
X143826112Y-84280201D01*
X143826109Y-84280202D01*
X143723390Y-84339507D01*
X142089509Y-85973388D01*
X142086236Y-85979058D01*
X142040766Y-86019998D01*
X141979916Y-86026393D01*
X141926928Y-85995800D01*
X141902042Y-85939904D01*
X141901500Y-85929557D01*
X141901500Y-85791692D01*
X141901500Y-85791691D01*
X141870799Y-85677114D01*
X141846767Y-85635489D01*
X141811490Y-85574386D01*
X140379496Y-84142392D01*
X140375869Y-84135274D01*
X140369407Y-84130579D01*
X140362243Y-84108530D01*
X140351719Y-84087875D01*
X140350500Y-84072388D01*
X140350500Y-84027611D01*
X140369407Y-83969420D01*
X140379496Y-83957607D01*
X140782607Y-83554496D01*
X140837124Y-83526719D01*
X140852611Y-83525500D01*
X146768836Y-83525500D01*
X146827027Y-83544407D01*
X146838840Y-83554496D01*
X146903458Y-83619114D01*
X147018182Y-83695771D01*
X147018193Y-83695777D01*
X147029596Y-83700500D01*
X147145672Y-83748580D01*
X147281007Y-83775500D01*
X147281008Y-83775500D01*
X147418992Y-83775500D01*
X147418993Y-83775500D01*
X147554328Y-83748580D01*
X147681811Y-83695775D01*
X147796542Y-83619114D01*
X147894114Y-83521542D01*
X147970775Y-83406811D01*
X148023580Y-83279328D01*
X148050500Y-83143993D01*
X148050500Y-83006007D01*
X148023580Y-82870672D01*
X147970775Y-82743189D01*
X147970774Y-82743187D01*
X147970771Y-82743182D01*
X147894114Y-82628458D01*
X147796541Y-82530885D01*
X147681817Y-82454228D01*
X147681806Y-82454222D01*
X147554328Y-82401420D01*
X147418995Y-82374500D01*
X147418993Y-82374500D01*
X147281007Y-82374500D01*
X147281004Y-82374500D01*
X147145672Y-82401420D01*
X147145670Y-82401420D01*
X147018193Y-82454222D01*
X147018182Y-82454228D01*
X146903458Y-82530885D01*
X146903454Y-82530889D01*
X146838840Y-82595504D01*
X146784323Y-82623281D01*
X146768836Y-82624500D01*
X140565691Y-82624500D01*
X140520508Y-82636606D01*
X140475325Y-82648713D01*
X140475324Y-82648712D01*
X140451112Y-82655201D01*
X140451109Y-82655202D01*
X140348390Y-82714507D01*
X139742393Y-83320504D01*
X139687876Y-83348281D01*
X139672389Y-83349500D01*
X139581004Y-83349500D01*
X139445672Y-83376420D01*
X139445670Y-83376420D01*
X139318193Y-83429222D01*
X139318182Y-83429228D01*
X139203458Y-83505885D01*
X139105885Y-83603458D01*
X139029228Y-83718182D01*
X139029222Y-83718193D01*
X138976420Y-83845670D01*
X138976420Y-83845672D01*
X138949500Y-83981004D01*
X138949500Y-84118995D01*
X138976420Y-84254327D01*
X138976420Y-84254329D01*
X139029222Y-84381806D01*
X139029228Y-84381817D01*
X139105885Y-84496541D01*
X139203458Y-84594114D01*
X139318182Y-84670771D01*
X139318193Y-84670777D01*
X139359062Y-84687705D01*
X139445672Y-84723580D01*
X139581007Y-84750500D01*
X139672389Y-84750500D01*
X139730580Y-84769407D01*
X139742393Y-84779496D01*
X140971504Y-86008607D01*
X140999281Y-86063124D01*
X141000500Y-86078611D01*
X141000500Y-86395500D01*
X140996232Y-86408634D01*
X140996766Y-86422432D01*
X140987013Y-86437007D01*
X140981593Y-86453691D01*
X140970419Y-86461808D01*
X140962742Y-86473284D01*
X140947228Y-86478658D01*
X140932093Y-86489655D01*
X140905325Y-86494426D01*
X140903411Y-86494500D01*
X140824000Y-86494500D01*
X140780316Y-86499197D01*
X140779964Y-86499273D01*
X140776018Y-86499426D01*
X140775628Y-86499315D01*
X140772193Y-86499500D01*
X139490187Y-86499500D01*
X139431996Y-86480593D01*
X139396032Y-86431093D01*
X139392195Y-86386411D01*
X139404618Y-86300003D01*
X139404618Y-86299997D01*
X139388229Y-86186011D01*
X139388228Y-86186008D01*
X139388228Y-86186006D01*
X139340386Y-86081247D01*
X139264968Y-85994210D01*
X139221755Y-85966439D01*
X139168085Y-85931947D01*
X139057584Y-85899500D01*
X139057583Y-85899500D01*
X139019991Y-85899500D01*
X130506489Y-85899500D01*
X130493567Y-85898653D01*
X130409521Y-85887587D01*
X130384561Y-85880899D01*
X130348426Y-85865932D01*
X130312293Y-85850965D01*
X130289912Y-85838043D01*
X130222664Y-85786442D01*
X130212927Y-85777904D01*
X129222098Y-84787074D01*
X129213561Y-84777338D01*
X129161957Y-84710088D01*
X129149036Y-84687710D01*
X129119100Y-84615435D01*
X129112413Y-84590481D01*
X129101346Y-84506425D01*
X129100500Y-84493504D01*
X129100500Y-80506488D01*
X129101347Y-80493566D01*
X129103132Y-80480009D01*
X129112412Y-80409516D01*
X129119098Y-80384566D01*
X129149037Y-80312285D01*
X129161950Y-80289919D01*
X129209582Y-80227843D01*
X129227843Y-80209582D01*
X129289919Y-80161950D01*
X129312285Y-80149037D01*
X129384566Y-80119098D01*
X129409518Y-80112412D01*
X129476591Y-80103581D01*
X129493568Y-80101347D01*
X129506489Y-80100500D01*
X129526929Y-80100500D01*
X152673071Y-80100500D01*
X152693510Y-80100500D01*
X152706432Y-80101347D01*
G37*
%TD.AperFunction*%
%TD*%
%TA.AperFunction,Conductor*%
%TO.N,+BATT*%
G36*
X141343039Y-86719685D02*
G01*
X141388794Y-86772489D01*
X141400000Y-86824000D01*
X141400000Y-87976000D01*
X141380315Y-88043039D01*
X141327511Y-88088794D01*
X141276000Y-88100000D01*
X140824000Y-88100000D01*
X140756961Y-88080315D01*
X140711206Y-88027511D01*
X140700000Y-87976000D01*
X140700000Y-86824000D01*
X140719685Y-86756961D01*
X140772489Y-86711206D01*
X140824000Y-86700000D01*
X141276000Y-86700000D01*
X141343039Y-86719685D01*
G37*
%TD.AperFunction*%
%TD*%
%TA.AperFunction,Conductor*%
%TO.N,/LEDK*%
G36*
X137043039Y-88419685D02*
G01*
X137088794Y-88472489D01*
X137100000Y-88524000D01*
X137100000Y-89783861D01*
X137080315Y-89850900D01*
X137027511Y-89896655D01*
X137000193Y-89905478D01*
X136971769Y-89911132D01*
X136905447Y-89955447D01*
X136861132Y-90021769D01*
X136861131Y-90021770D01*
X136849500Y-90080247D01*
X136849500Y-91519752D01*
X136861131Y-91578229D01*
X136861132Y-91578230D01*
X136905447Y-91644552D01*
X136949762Y-91674162D01*
X136971769Y-91688867D01*
X137000190Y-91694520D01*
X137062102Y-91726905D01*
X137096676Y-91787621D01*
X137100000Y-91816138D01*
X137100000Y-93075500D01*
X137080315Y-93142539D01*
X137027511Y-93188294D01*
X136976000Y-93199500D01*
X136592990Y-93199500D01*
X136525951Y-93179815D01*
X136505309Y-93163181D01*
X135804000Y-92461872D01*
X135785200Y-92443072D01*
X135785200Y-92443071D01*
X135756929Y-92414800D01*
X135751568Y-92412579D01*
X135739065Y-92400825D01*
X135726376Y-92379201D01*
X135710301Y-92359963D01*
X135707668Y-92347319D01*
X135703705Y-92340564D01*
X135704122Y-92330281D01*
X135700000Y-92310481D01*
X135700000Y-89151362D01*
X135719685Y-89084323D01*
X135736319Y-89063681D01*
X136363681Y-88436319D01*
X136425004Y-88402834D01*
X136451362Y-88400000D01*
X136976000Y-88400000D01*
X137043039Y-88419685D01*
G37*
%TD.AperFunction*%
%TD*%
%TA.AperFunction,Conductor*%
%TO.N,+5V*%
G36*
X147054493Y-86278554D02*
G01*
X147396445Y-86620506D01*
X147399872Y-86628779D01*
X147398770Y-86633737D01*
X146804366Y-87904356D01*
X146797756Y-87910397D01*
X146788810Y-87909996D01*
X146787281Y-87909135D01*
X146780108Y-87904356D01*
X146176243Y-87502006D01*
X146172993Y-87498756D01*
X145765864Y-86887718D01*
X145764129Y-86878933D01*
X145769114Y-86871494D01*
X145770630Y-86870639D01*
X147041265Y-86276228D01*
X147050208Y-86275828D01*
X147054493Y-86278554D01*
G37*
%TD.AperFunction*%
%TD*%
%TA.AperFunction,Conductor*%
%TO.N,+BATT*%
G36*
X141685648Y-90071527D02*
G01*
X141689075Y-90079800D01*
X141686681Y-90086890D01*
X141676691Y-90100000D01*
X141053784Y-90917423D01*
X141046044Y-90921927D01*
X141043769Y-90922011D01*
X139059509Y-90801577D01*
X139051459Y-90797655D01*
X139048639Y-90791571D01*
X138950720Y-90113179D01*
X138952930Y-90104504D01*
X138960629Y-90099930D01*
X138962127Y-90099811D01*
X141200929Y-90068100D01*
X141201095Y-90068100D01*
X141677375Y-90068100D01*
X141685648Y-90071527D01*
G37*
%TD.AperFunction*%
%TD*%
%TA.AperFunction,Conductor*%
%TO.N,/LEDK*%
G36*
X141371594Y-91781645D02*
G01*
X141713327Y-92123378D01*
X141716754Y-92131651D01*
X141713327Y-92139924D01*
X141713177Y-92140072D01*
X141054098Y-92775835D01*
X141045764Y-92779112D01*
X141044359Y-92779002D01*
X139058372Y-92501973D01*
X139050651Y-92497436D01*
X139048350Y-92491589D01*
X138978214Y-91812782D01*
X138980772Y-91804204D01*
X138988650Y-91799945D01*
X138989743Y-91799883D01*
X141363291Y-91778293D01*
X141371594Y-91781645D01*
G37*
%TD.AperFunction*%
%TD*%
%TA.AperFunction,Conductor*%
%TO.N,/UPDI*%
G36*
X146907945Y-89857698D02*
G01*
X146912901Y-89865096D01*
X147161011Y-91089683D01*
X147159295Y-91098472D01*
X147157817Y-91100279D01*
X147026731Y-91231365D01*
X147018458Y-91234792D01*
X147013343Y-91233615D01*
X145770374Y-90629460D01*
X145764432Y-90622761D01*
X145764966Y-90613822D01*
X145765752Y-90612450D01*
X146171596Y-90003339D01*
X146179034Y-89998355D01*
X146899165Y-89855941D01*
X146907945Y-89857698D01*
G37*
%TD.AperFunction*%
%TD*%
M02*
