%TF.GenerationSoftware,KiCad,Pcbnew,9.0.5*%
%TF.CreationDate,2025-12-13T15:18:49-05:00*%
%TF.ProjectId,lightwear_bracelet,6c696768-7477-4656-9172-5f6272616365,rev?*%
%TF.SameCoordinates,Original*%
%TF.FileFunction,Profile,NP*%
%FSLAX46Y46*%
G04 Gerber Fmt 4.6, Leading zero omitted, Abs format (unit mm)*
G04 Created by KiCad (PCBNEW 9.0.5) date 2025-12-13 15:18:49*
%MOMM*%
%LPD*%
G01*
G04 APERTURE LIST*
%TA.AperFunction,Profile*%
%ADD10C,0.050000*%
%TD*%
G04 APERTURE END LIST*
D10*
X139000000Y-93300000D02*
X136500000Y-93300000D01*
X136500000Y-86600000D02*
X135700000Y-87400000D01*
X152700000Y-100000000D02*
X129500000Y-100000000D01*
X129000000Y-95400000D02*
G75*
G02*
X129146447Y-95046447I500000J0D01*
G01*
X139000000Y-93300000D02*
G75*
G02*
X139000000Y-93900000I0J-300000D01*
G01*
X130146447Y-94046447D02*
G75*
G02*
X130500000Y-93900001I353553J-353553D01*
G01*
X139000000Y-86600000D02*
X136500000Y-86600000D01*
X128000000Y-86900000D02*
G75*
G02*
X128300000Y-86600000I300000J0D01*
G01*
X128300000Y-93300000D02*
X129300000Y-93300000D01*
X129146447Y-84853552D02*
X130146447Y-85853553D01*
X135700000Y-92500000D02*
X130100000Y-92500000D01*
X159000000Y-93600000D02*
G75*
G02*
X158912132Y-93812132I-300000J0D01*
G01*
X129300000Y-93300000D02*
X130100000Y-92500000D01*
X128300000Y-93300000D02*
G75*
G02*
X128000000Y-93000000I0J300000D01*
G01*
X130146448Y-94046447D02*
X129146447Y-95046447D01*
X158912132Y-93812132D02*
X152912132Y-99912130D01*
X128000000Y-93000000D02*
X128000000Y-86900000D01*
X158912132Y-86087868D02*
X152912132Y-80087868D01*
X129300000Y-86600000D02*
X130100000Y-87400000D01*
X130500000Y-93900000D02*
X139000000Y-93900000D01*
X129000000Y-84500000D02*
X129000000Y-80500000D01*
X130500000Y-86000000D02*
G75*
G02*
X130146447Y-85853553I0J500000D01*
G01*
X129000000Y-80500000D02*
G75*
G02*
X129500000Y-80000000I500000J0D01*
G01*
X128300000Y-86600000D02*
X129300000Y-86600000D01*
X139000000Y-86000000D02*
G75*
G02*
X139000000Y-86600000I0J-300000D01*
G01*
X159000000Y-86300000D02*
X159000000Y-93600000D01*
X129500000Y-80000000D02*
X152700000Y-80000000D01*
X139000000Y-86000000D02*
X130500000Y-86000000D01*
X158912132Y-86087868D02*
G75*
G02*
X159000000Y-86300000I-212132J-212132D01*
G01*
X135700000Y-87400000D02*
X130100000Y-87400000D01*
X152700000Y-80000000D02*
G75*
G02*
X152912132Y-80087868I0J-300000D01*
G01*
X129500000Y-100000000D02*
G75*
G02*
X129000000Y-99500000I0J500000D01*
G01*
X129146447Y-84853553D02*
G75*
G02*
X129000001Y-84500000I353553J353553D01*
G01*
X157000000Y-90000000D02*
G75*
G02*
X154000000Y-90000000I-1500000J0D01*
G01*
X154000000Y-90000000D02*
G75*
G02*
X157000000Y-90000000I1500000J0D01*
G01*
X135700000Y-92500000D02*
X136500000Y-93300000D01*
X152912132Y-99912132D02*
G75*
G02*
X152700000Y-100000000I-212132J212132D01*
G01*
X129000000Y-95400000D02*
X129000000Y-99500000D01*
M02*
