%TF.GenerationSoftware,KiCad,Pcbnew,9.0.5*%
%TF.CreationDate,2025-11-23T22:09:55-05:00*%
%TF.ProjectId,lightwear_clasp,6c696768-7477-4656-9172-5f636c617370,rev?*%
%TF.SameCoordinates,Original*%
%TF.FileFunction,Copper,L1,Top*%
%TF.FilePolarity,Positive*%
%FSLAX46Y46*%
G04 Gerber Fmt 4.6, Leading zero omitted, Abs format (unit mm)*
G04 Created by KiCad (PCBNEW 9.0.5) date 2025-11-23 22:09:55*
%MOMM*%
%LPD*%
G01*
G04 APERTURE LIST*
%TA.AperFunction,SMDPad,CuDef*%
%ADD10R,0.630000X1.150000*%
%TD*%
%TA.AperFunction,SMDPad,CuDef*%
%ADD11R,0.298000X1.000000*%
%TD*%
%TA.AperFunction,SMDPad,CuDef*%
%ADD12R,8.200000X6.000000*%
%TD*%
%TA.AperFunction,ViaPad*%
%ADD13C,0.600000*%
%TD*%
%TA.AperFunction,Conductor*%
%ADD14C,0.200000*%
%TD*%
%TA.AperFunction,Conductor*%
%ADD15C,0.300000*%
%TD*%
G04 APERTURE END LIST*
D10*
%TO.P,J1,SH1,SHIELD1*%
%TO.N,GND*%
X150980000Y-74330000D03*
D11*
%TO.P,J1,A1,GND_A1*%
X151650000Y-73490000D03*
%TO.P,J1,A2,TX1+*%
%TO.N,unconnected-(J1-TX1+-PadA2)*%
X152150000Y-73490000D03*
%TO.P,J1,A3,TX1-*%
%TO.N,unconnected-(J1-TX1--PadA3)*%
X152650000Y-73490000D03*
%TO.P,J1,A4,VBUS_A4*%
%TO.N,VBUS*%
X153150000Y-73490000D03*
%TO.P,J1,A5,CC*%
%TO.N,unconnected-(J1-CC-PadA5)*%
X153650000Y-73490000D03*
%TO.P,J1,A6,D+*%
%TO.N,unconnected-(J1-D+-PadA6)*%
X154150000Y-73490000D03*
%TO.P,J1,A7,D-*%
%TO.N,unconnected-(J1-D--PadA7)*%
X154650000Y-73490000D03*
%TO.P,J1,A8,SBU1*%
%TO.N,Net-(J1-SBU1)*%
X155150000Y-73490000D03*
%TO.P,J1,A9,VBUS_A9*%
%TO.N,VBUS*%
X155650000Y-73490000D03*
%TO.P,J1,A10,RX2-*%
%TO.N,unconnected-(J1-RX2--PadA10)*%
X156150000Y-73490000D03*
%TO.P,J1,A11,RX2+*%
%TO.N,unconnected-(J1-RX2+-PadA11)*%
X156650000Y-73490000D03*
%TO.P,J1,A12,GND_A12*%
%TO.N,GND*%
X157150000Y-73490000D03*
%TD*%
D12*
%TO.P,TP1,1,1*%
%TO.N,VBUS*%
X154400000Y-79710000D03*
%TD*%
D13*
%TO.N,GND*%
X151800000Y-75400000D03*
X151800000Y-76200000D03*
X151000000Y-76200000D03*
X157000000Y-76200000D03*
X157800000Y-76200000D03*
X157000000Y-75400000D03*
%TO.N,VBUS*%
X153400000Y-75900000D03*
X155400000Y-76100000D03*
%TO.N,Net-(J1-SBU1)*%
X154170000Y-76200000D03*
%TO.N,GND*%
X151000000Y-75400000D03*
X157800000Y-75400000D03*
%TO.N,VBUS*%
X153400000Y-75100000D03*
X155400000Y-75300000D03*
%TD*%
D14*
%TO.N,Net-(J1-SBU1)*%
X154170000Y-75170000D02*
X155150000Y-74190000D01*
X154170000Y-76200000D02*
X154170000Y-75170000D01*
X155150000Y-74190000D02*
X155150000Y-73490000D01*
D15*
%TO.N,GND*%
X150980000Y-75380000D02*
X151000000Y-75400000D01*
X150980000Y-74330000D02*
X150980000Y-75380000D01*
%TD*%
%TA.AperFunction,Conductor*%
%TO.N,GND*%
G36*
X151759691Y-73018907D02*
G01*
X151795655Y-73068407D01*
X151800500Y-73099000D01*
X151800500Y-74009746D01*
X151800501Y-74009758D01*
X151812132Y-74068227D01*
X151812133Y-74068231D01*
X151856448Y-74134552D01*
X151922769Y-74178867D01*
X151967231Y-74187711D01*
X151981241Y-74190498D01*
X151981246Y-74190498D01*
X151981252Y-74190500D01*
X151981253Y-74190500D01*
X152318747Y-74190500D01*
X152318748Y-74190500D01*
X152377231Y-74178867D01*
X152377230Y-74178867D01*
X152380685Y-74178180D01*
X152419315Y-74178180D01*
X152481241Y-74190498D01*
X152481246Y-74190498D01*
X152481252Y-74190500D01*
X152695500Y-74190500D01*
X152753691Y-74209407D01*
X152789655Y-74258907D01*
X152794500Y-74289500D01*
X152794500Y-76410500D01*
X152775593Y-76468691D01*
X152726093Y-76504655D01*
X152695500Y-76509500D01*
X150280252Y-76509500D01*
X150280251Y-76509500D01*
X150280241Y-76509501D01*
X150221772Y-76521132D01*
X150221766Y-76521134D01*
X150155451Y-76565445D01*
X150155445Y-76565451D01*
X150111134Y-76631766D01*
X150111132Y-76631772D01*
X150099501Y-76690241D01*
X150099500Y-76690251D01*
X150099500Y-76690252D01*
X150099500Y-82729748D01*
X150109731Y-82781186D01*
X150106789Y-82806052D01*
X150106789Y-82831093D01*
X150103248Y-82835965D01*
X150102541Y-82841946D01*
X150085545Y-82860331D01*
X150070825Y-82880593D01*
X150065096Y-82882454D01*
X150061008Y-82886877D01*
X150012634Y-82899500D01*
X149859752Y-82899500D01*
X149840436Y-82897597D01*
X149812100Y-82891960D01*
X149776416Y-82877180D01*
X149760658Y-82866650D01*
X149733349Y-82839341D01*
X149722817Y-82823580D01*
X149708038Y-82787896D01*
X149702402Y-82759560D01*
X149700500Y-82740247D01*
X149700500Y-73719752D01*
X149702402Y-73700439D01*
X149708038Y-73672103D01*
X149722816Y-73636421D01*
X149733351Y-73620655D01*
X149760655Y-73593351D01*
X149776421Y-73582816D01*
X149812102Y-73568038D01*
X149826397Y-73565194D01*
X149840439Y-73562402D01*
X149859752Y-73560500D01*
X149876929Y-73560500D01*
X149907129Y-73560500D01*
X149965320Y-73579407D01*
X150001284Y-73628907D01*
X150002755Y-73685121D01*
X149999500Y-73697273D01*
X149999500Y-73697274D01*
X149999500Y-74509991D01*
X150014798Y-74546926D01*
X150014799Y-74546927D01*
X150014800Y-74546929D01*
X150043071Y-74575200D01*
X150043072Y-74575200D01*
X150043073Y-74575201D01*
X150080008Y-74590500D01*
X150080009Y-74590500D01*
X150119992Y-74590500D01*
X150143283Y-74580852D01*
X150156929Y-74575200D01*
X150185200Y-74546929D01*
X150200500Y-74509991D01*
X150200500Y-73757790D01*
X150201719Y-73742304D01*
X150207811Y-73703837D01*
X150207812Y-73703835D01*
X150217379Y-73674387D01*
X150231485Y-73646702D01*
X150249682Y-73621655D01*
X150271653Y-73599684D01*
X150296713Y-73581480D01*
X150316716Y-73571289D01*
X150361657Y-73560500D01*
X151146142Y-73560500D01*
X151146144Y-73560500D01*
X151235288Y-73536614D01*
X151315212Y-73490469D01*
X151380469Y-73425212D01*
X151426614Y-73345288D01*
X151450500Y-73256144D01*
X151450500Y-73210000D01*
X151450500Y-73183071D01*
X151450500Y-73099000D01*
X151455345Y-73084088D01*
X151455345Y-73068407D01*
X151464561Y-73055721D01*
X151469407Y-73040809D01*
X151482092Y-73031592D01*
X151491309Y-73018907D01*
X151506221Y-73014061D01*
X151518907Y-73004845D01*
X151549500Y-73000000D01*
X151701500Y-73000000D01*
X151759691Y-73018907D01*
G37*
%TD.AperFunction*%
%TA.AperFunction,Conductor*%
G36*
X157308691Y-73018907D02*
G01*
X157344655Y-73068407D01*
X157349500Y-73099000D01*
X157349500Y-73183071D01*
X157349500Y-73210000D01*
X157349500Y-73256144D01*
X157373386Y-73345288D01*
X157419531Y-73425212D01*
X157484788Y-73490469D01*
X157564712Y-73536614D01*
X157653856Y-73560500D01*
X157680009Y-73560500D01*
X158438343Y-73560500D01*
X158483286Y-73571289D01*
X158503289Y-73581481D01*
X158528349Y-73599687D01*
X158550314Y-73621652D01*
X158568517Y-73646707D01*
X158582618Y-73674381D01*
X158592188Y-73703835D01*
X158598281Y-73742302D01*
X158599500Y-73757790D01*
X158599500Y-74534991D01*
X158614798Y-74571926D01*
X158614799Y-74571927D01*
X158614800Y-74571929D01*
X158643071Y-74600200D01*
X158643072Y-74600200D01*
X158643073Y-74600201D01*
X158680008Y-74615500D01*
X158680009Y-74615500D01*
X158719992Y-74615500D01*
X158743283Y-74605852D01*
X158756929Y-74600200D01*
X158785200Y-74571929D01*
X158800500Y-74534991D01*
X158800500Y-73730009D01*
X158800500Y-73697273D01*
X158797244Y-73685121D01*
X158798716Y-73657042D01*
X158798716Y-73628907D01*
X158800305Y-73626719D01*
X158800447Y-73624021D01*
X158818143Y-73602168D01*
X158834680Y-73579407D01*
X158837250Y-73578571D01*
X158838952Y-73576471D01*
X158892871Y-73560500D01*
X158923071Y-73560500D01*
X158940248Y-73560500D01*
X158959561Y-73562402D01*
X158987896Y-73568038D01*
X159023580Y-73582817D01*
X159039341Y-73593349D01*
X159066650Y-73620658D01*
X159077180Y-73636416D01*
X159091960Y-73672100D01*
X159097597Y-73700436D01*
X159099500Y-73719752D01*
X159099500Y-82740247D01*
X159097597Y-82759560D01*
X159097597Y-82759563D01*
X159091960Y-82787899D01*
X159077180Y-82823583D01*
X159066654Y-82839337D01*
X159039338Y-82866652D01*
X159031511Y-82871882D01*
X159023583Y-82877180D01*
X158987900Y-82891960D01*
X158959565Y-82897597D01*
X158940248Y-82899500D01*
X158787366Y-82899500D01*
X158729175Y-82880593D01*
X158693211Y-82831093D01*
X158690268Y-82781187D01*
X158700500Y-82729748D01*
X158700500Y-76690252D01*
X158688867Y-76631769D01*
X158644552Y-76565448D01*
X158644548Y-76565445D01*
X158578233Y-76521134D01*
X158578231Y-76521133D01*
X158578228Y-76521132D01*
X158578227Y-76521132D01*
X158519758Y-76509501D01*
X158519748Y-76509500D01*
X158519747Y-76509500D01*
X156104500Y-76509500D01*
X156046309Y-76490593D01*
X156010345Y-76441093D01*
X156005500Y-76410500D01*
X156005500Y-74289500D01*
X156024407Y-74231309D01*
X156073907Y-74195345D01*
X156104500Y-74190500D01*
X156318747Y-74190500D01*
X156318748Y-74190500D01*
X156377231Y-74178867D01*
X156377230Y-74178867D01*
X156380685Y-74178180D01*
X156419315Y-74178180D01*
X156481241Y-74190498D01*
X156481246Y-74190498D01*
X156481252Y-74190500D01*
X156481253Y-74190500D01*
X156818747Y-74190500D01*
X156818748Y-74190500D01*
X156877231Y-74178867D01*
X156943552Y-74134552D01*
X156987867Y-74068231D01*
X156999500Y-74009748D01*
X156999500Y-73099000D01*
X157004345Y-73084088D01*
X157004345Y-73068407D01*
X157013561Y-73055721D01*
X157018407Y-73040809D01*
X157031092Y-73031592D01*
X157040309Y-73018907D01*
X157055221Y-73014061D01*
X157067907Y-73004845D01*
X157098500Y-73000000D01*
X157250500Y-73000000D01*
X157308691Y-73018907D01*
G37*
%TD.AperFunction*%
%TD*%
%TA.AperFunction,Conductor*%
%TO.N,VBUS*%
G36*
X153309691Y-73018907D02*
G01*
X153345655Y-73068407D01*
X153350500Y-73099000D01*
X153350500Y-74004827D01*
X153359232Y-74048720D01*
X153359233Y-74048722D01*
X153392496Y-74098504D01*
X153442278Y-74131767D01*
X153453327Y-74133964D01*
X153486172Y-74140499D01*
X153486178Y-74140499D01*
X153486180Y-74140500D01*
X153486181Y-74140500D01*
X153813819Y-74140500D01*
X153813820Y-74140500D01*
X153813821Y-74140499D01*
X153813827Y-74140499D01*
X153857717Y-74131768D01*
X153857717Y-74131767D01*
X153857722Y-74131767D01*
X153857726Y-74131764D01*
X153862111Y-74129948D01*
X153923108Y-74125146D01*
X153937889Y-74129948D01*
X153942275Y-74131765D01*
X153942278Y-74131767D01*
X153942281Y-74131767D01*
X153942282Y-74131768D01*
X153986172Y-74140499D01*
X153986178Y-74140499D01*
X153986180Y-74140500D01*
X153986181Y-74140500D01*
X154313819Y-74140500D01*
X154313820Y-74140500D01*
X154313821Y-74140499D01*
X154313827Y-74140499D01*
X154357717Y-74131768D01*
X154357717Y-74131767D01*
X154357722Y-74131767D01*
X154357726Y-74131764D01*
X154362111Y-74129948D01*
X154423108Y-74125146D01*
X154437889Y-74129948D01*
X154442275Y-74131765D01*
X154442278Y-74131767D01*
X154442281Y-74131767D01*
X154442282Y-74131768D01*
X154486172Y-74140499D01*
X154486178Y-74140499D01*
X154486180Y-74140500D01*
X154486181Y-74140500D01*
X154606230Y-74140500D01*
X154664421Y-74159407D01*
X154700385Y-74208907D01*
X154700385Y-74270093D01*
X154676234Y-74309504D01*
X154028103Y-74957636D01*
X154028102Y-74957635D01*
X153957635Y-75028103D01*
X153919500Y-75120171D01*
X153919500Y-75772390D01*
X153900593Y-75830581D01*
X153890504Y-75842393D01*
X153809511Y-75923386D01*
X153809507Y-75923391D01*
X153750202Y-76026109D01*
X153750201Y-76026114D01*
X153719500Y-76140691D01*
X153719500Y-76259309D01*
X153746574Y-76360351D01*
X153750202Y-76373890D01*
X153809507Y-76476608D01*
X153809509Y-76476610D01*
X153809511Y-76476613D01*
X153893387Y-76560489D01*
X153893389Y-76560490D01*
X153893391Y-76560492D01*
X153988258Y-76615264D01*
X154029199Y-76660733D01*
X154035595Y-76721584D01*
X154005002Y-76774572D01*
X153949106Y-76799458D01*
X153938758Y-76800000D01*
X153099000Y-76800000D01*
X153040809Y-76781093D01*
X153004845Y-76731593D01*
X153000000Y-76701000D01*
X153000000Y-73099000D01*
X153004845Y-73084088D01*
X153004845Y-73068407D01*
X153014061Y-73055721D01*
X153018907Y-73040809D01*
X153031592Y-73031592D01*
X153040809Y-73018907D01*
X153055721Y-73014061D01*
X153068407Y-73004845D01*
X153099000Y-73000000D01*
X153251500Y-73000000D01*
X153309691Y-73018907D01*
G37*
%TD.AperFunction*%
%TA.AperFunction,Conductor*%
G36*
X155759191Y-73018907D02*
G01*
X155795155Y-73068407D01*
X155800000Y-73099000D01*
X155800000Y-76701000D01*
X155781093Y-76759191D01*
X155731593Y-76795155D01*
X155701000Y-76800000D01*
X154401242Y-76800000D01*
X154343051Y-76781093D01*
X154307087Y-76731593D01*
X154307087Y-76670407D01*
X154343051Y-76620907D01*
X154351742Y-76615264D01*
X154446608Y-76560492D01*
X154446608Y-76560491D01*
X154446613Y-76560489D01*
X154530489Y-76476613D01*
X154589799Y-76373886D01*
X154620500Y-76259309D01*
X154620500Y-76140691D01*
X154589799Y-76026114D01*
X154589797Y-76026111D01*
X154589797Y-76026109D01*
X154530492Y-75923391D01*
X154530488Y-75923386D01*
X154449496Y-75842393D01*
X154421719Y-75787876D01*
X154420500Y-75772390D01*
X154420500Y-75314768D01*
X154439407Y-75256577D01*
X154449490Y-75244770D01*
X155362364Y-74331897D01*
X155400500Y-74239828D01*
X155400500Y-74140173D01*
X155400500Y-74139017D01*
X155417185Y-74084015D01*
X155440767Y-74048722D01*
X155449500Y-74004820D01*
X155449500Y-73099000D01*
X155454345Y-73084088D01*
X155454345Y-73068407D01*
X155463561Y-73055721D01*
X155468407Y-73040809D01*
X155481092Y-73031592D01*
X155490309Y-73018907D01*
X155505221Y-73014061D01*
X155517907Y-73004845D01*
X155548500Y-73000000D01*
X155701000Y-73000000D01*
X155759191Y-73018907D01*
G37*
%TD.AperFunction*%
%TD*%
M02*
