%TF.GenerationSoftware,KiCad,Pcbnew,9.0.5*%
%TF.CreationDate,2025-11-23T22:09:55-05:00*%
%TF.ProjectId,lightwear_clasp,6c696768-7477-4656-9172-5f636c617370,rev?*%
%TF.SameCoordinates,Original*%
%TF.FileFunction,Soldermask,Bot*%
%TF.FilePolarity,Negative*%
%FSLAX46Y46*%
G04 Gerber Fmt 4.6, Leading zero omitted, Abs format (unit mm)*
G04 Created by KiCad (PCBNEW 9.0.5) date 2025-11-23 22:09:55*
%MOMM*%
%LPD*%
G01*
G04 APERTURE LIST*
G04 Aperture macros list*
%AMRoundRect*
0 Rectangle with rounded corners*
0 $1 Rounding radius*
0 $2 $3 $4 $5 $6 $7 $8 $9 X,Y pos of 4 corners*
0 Add a 4 corners polygon primitive as box body*
4,1,4,$2,$3,$4,$5,$6,$7,$8,$9,$2,$3,0*
0 Add four circle primitives for the rounded corners*
1,1,$1+$1,$2,$3*
1,1,$1+$1,$4,$5*
1,1,$1+$1,$6,$7*
1,1,$1+$1,$8,$9*
0 Add four rect primitives between the rounded corners*
20,1,$1+$1,$2,$3,$4,$5,0*
20,1,$1+$1,$4,$5,$6,$7,0*
20,1,$1+$1,$6,$7,$8,$9,0*
20,1,$1+$1,$8,$9,$2,$3,0*%
G04 Aperture macros list end*
%ADD10C,0.010000*%
%ADD11RoundRect,0.135000X-0.185000X0.135000X-0.185000X-0.135000X0.185000X-0.135000X0.185000X0.135000X0*%
G04 APERTURE END LIST*
D10*
%TO.C,J1*%
X158198500Y-74968500D02*
X157441500Y-74968500D01*
X157441500Y-73691500D01*
X158198500Y-73691500D01*
X158198500Y-74968500D01*
G36*
X158198500Y-74968500D02*
G01*
X157441500Y-74968500D01*
X157441500Y-73691500D01*
X158198500Y-73691500D01*
X158198500Y-74968500D01*
G37*
X157362500Y-74053500D02*
X156937500Y-74053500D01*
X156937500Y-72926500D01*
X157362500Y-72926500D01*
X157362500Y-74053500D01*
G36*
X157362500Y-74053500D02*
G01*
X156937500Y-74053500D01*
X156937500Y-72926500D01*
X157362500Y-72926500D01*
X157362500Y-74053500D01*
G37*
X156862500Y-74053500D02*
X156437500Y-74053500D01*
X156437500Y-72926500D01*
X156862500Y-72926500D01*
X156862500Y-74053500D01*
G36*
X156862500Y-74053500D02*
G01*
X156437500Y-74053500D01*
X156437500Y-72926500D01*
X156862500Y-72926500D01*
X156862500Y-74053500D01*
G37*
X156362500Y-74053500D02*
X155937500Y-74053500D01*
X155937500Y-72926500D01*
X156362500Y-72926500D01*
X156362500Y-74053500D01*
G36*
X156362500Y-74053500D02*
G01*
X155937500Y-74053500D01*
X155937500Y-72926500D01*
X156362500Y-72926500D01*
X156362500Y-74053500D01*
G37*
X155862500Y-74053500D02*
X155437500Y-74053500D01*
X155437500Y-72926500D01*
X155862500Y-72926500D01*
X155862500Y-74053500D01*
G36*
X155862500Y-74053500D02*
G01*
X155437500Y-74053500D01*
X155437500Y-72926500D01*
X155862500Y-72926500D01*
X155862500Y-74053500D01*
G37*
X155362500Y-74053500D02*
X154937500Y-74053500D01*
X154937500Y-72926500D01*
X155362500Y-72926500D01*
X155362500Y-74053500D01*
G36*
X155362500Y-74053500D02*
G01*
X154937500Y-74053500D01*
X154937500Y-72926500D01*
X155362500Y-72926500D01*
X155362500Y-74053500D01*
G37*
X151862500Y-74053500D02*
X151437500Y-74053500D01*
X151437500Y-72926500D01*
X151862500Y-72926500D01*
X151862500Y-74053500D01*
G36*
X151862500Y-74053500D02*
G01*
X151437500Y-74053500D01*
X151437500Y-72926500D01*
X151862500Y-72926500D01*
X151862500Y-74053500D01*
G37*
X152362500Y-74053500D02*
X151937500Y-74053500D01*
X151937500Y-72926500D01*
X152362500Y-72926500D01*
X152362500Y-74053500D01*
G36*
X152362500Y-74053500D02*
G01*
X151937500Y-74053500D01*
X151937500Y-72926500D01*
X152362500Y-72926500D01*
X152362500Y-74053500D01*
G37*
X152862500Y-74053500D02*
X152437500Y-74053500D01*
X152437500Y-72926500D01*
X152862500Y-72926500D01*
X152862500Y-74053500D01*
G36*
X152862500Y-74053500D02*
G01*
X152437500Y-74053500D01*
X152437500Y-72926500D01*
X152862500Y-72926500D01*
X152862500Y-74053500D01*
G37*
X153862500Y-74053500D02*
X153437500Y-74053500D01*
X153437500Y-72926500D01*
X153862500Y-72926500D01*
X153862500Y-74053500D01*
G36*
X153862500Y-74053500D02*
G01*
X153437500Y-74053500D01*
X153437500Y-72926500D01*
X153862500Y-72926500D01*
X153862500Y-74053500D01*
G37*
X153362500Y-74053500D02*
X152937500Y-74053500D01*
X152937500Y-72926500D01*
X153362500Y-72926500D01*
X153362500Y-74053500D01*
G36*
X153362500Y-74053500D02*
G01*
X152937500Y-74053500D01*
X152937500Y-72926500D01*
X153362500Y-72926500D01*
X153362500Y-74053500D01*
G37*
%TD*%
D11*
%TO.C,R2*%
X154770000Y-77040000D03*
X154770000Y-78060000D03*
%TD*%
%TO.C,R1*%
X153700000Y-77040000D03*
X153700000Y-78060000D03*
%TD*%
M02*
