%TF.GenerationSoftware,KiCad,Pcbnew,9.0.5*%
%TF.CreationDate,2026-04-14T21:17:58-04:00*%
%TF.ProjectId,lightwear_bracelet_12x15_bat,6c696768-7477-4656-9172-5f6272616365,rev?*%
%TF.SameCoordinates,Original*%
%TF.FileFunction,Profile,NP*%
%FSLAX46Y46*%
G04 Gerber Fmt 4.6, Leading zero omitted, Abs format (unit mm)*
G04 Created by KiCad (PCBNEW 9.0.5) date 2026-04-14 21:17:58*
%MOMM*%
%LPD*%
G01*
G04 APERTURE LIST*
%TA.AperFunction,Profile*%
%ADD10C,0.050000*%
%TD*%
G04 APERTURE END LIST*
D10*
X137247487Y-98747487D02*
X136950748Y-99000400D01*
X137000000Y-98150000D02*
G75*
G02*
X137247487Y-98747487I0J-350000D01*
G01*
X136543627Y-99987368D02*
G75*
G02*
X136950705Y-99000400I1400000J0D01*
G01*
X143652513Y-98747486D02*
X143919161Y-98983212D01*
X143919161Y-98983210D02*
G75*
G02*
X144343627Y-99987368I-975534J-1004158D01*
G01*
X143652513Y-98747487D02*
G75*
G02*
X143900000Y-98150001I247487J247487D01*
G01*
X145750000Y-98150000D02*
X143900000Y-98150000D01*
X137943627Y-101387368D02*
G75*
G02*
X136543627Y-99987368I0J1400000D01*
G01*
X144343627Y-99987368D02*
G75*
G02*
X142943627Y-101387368I-1400000J0D01*
G01*
X137943627Y-101387368D02*
X142943627Y-101387368D01*
X133175000Y-93800000D02*
G75*
G02*
X133175000Y-94300000I0J-250000D01*
G01*
X130500000Y-94300000D02*
X130500000Y-95500000D01*
X133150000Y-86150000D02*
X130500000Y-88800000D01*
X150800000Y-95100000D02*
X150800000Y-89200000D01*
X133150000Y-86150000D02*
X147750000Y-86150000D01*
X133175000Y-94300000D02*
X130500000Y-94300000D01*
X130500000Y-90700000D02*
G75*
G02*
X130700000Y-90500000I200000J0D01*
G01*
X130700000Y-93800000D02*
X133175000Y-93800000D01*
X130500000Y-95500000D02*
X133150000Y-98150000D01*
X133200000Y-90000000D02*
X130500000Y-90000000D01*
X130700000Y-93800000D02*
G75*
G02*
X130500000Y-93600000I0J200000D01*
G01*
X130500000Y-93600000D02*
X130500000Y-90700000D01*
X130500000Y-90000000D02*
X130500000Y-88800000D01*
X130700000Y-90500000D02*
X133200000Y-90500000D01*
X150800000Y-95100000D02*
X147750000Y-98150000D01*
X150800000Y-89200000D02*
X147750000Y-86150000D01*
X133200000Y-90000000D02*
G75*
G02*
X133200000Y-90500000I0J-250000D01*
G01*
X133150000Y-98150000D02*
X137000000Y-98150000D01*
X145750000Y-98150000D02*
X147750000Y-98150000D01*
M02*
