M48
; DRILL file {KiCad 9.0.5} date 2026-04-14T21:18:00-0400
; FORMAT={-:-/ absolute / inch / decimal}
; #@! TF.CreationDate,2026-04-14T21:18:00-04:00
; #@! TF.GenerationSoftware,Kicad,Pcbnew,9.0.5
; #@! TF.FileFunction,Plated,1,2,PTH
FMAT,2
INCH
; #@! TA.AperFunction,Plated,PTH,ViaDrill
T1C0.0118
%
G90
G05
T1
X5.2657Y-3.6594
X5.2933Y-3.437
X5.2933Y-3.4685
X5.2933Y-3.5
X5.4309Y-3.9365
X5.5293Y-3.9365
X5.5984Y-3.6969
X5.5984Y-3.7303
X5.5984Y-3.7618
X5.6277Y-3.9365
X5.6358Y-3.4724
X5.6614Y-3.628
X5.6673Y-3.4724
X5.7028Y-3.6299
X5.7343Y-3.6299
X5.761Y-3.7127
X5.7618Y-3.5094
X5.7697Y-3.6609
X5.8425Y-3.6614
X5.9134Y-3.6299
X5.9134Y-3.6614
M30
