%TF.GenerationSoftware,KiCad,Pcbnew,9.0.5*%
%TF.CreationDate,2026-04-14T21:17:58-04:00*%
%TF.ProjectId,lightwear_bracelet_12x15_bat,6c696768-7477-4656-9172-5f6272616365,rev?*%
%TF.SameCoordinates,Original*%
%TF.FileFunction,Soldermask,Bot*%
%TF.FilePolarity,Negative*%
%FSLAX46Y46*%
G04 Gerber Fmt 4.6, Leading zero omitted, Abs format (unit mm)*
G04 Created by KiCad (PCBNEW 9.0.5) date 2026-04-14 21:17:58*
%MOMM*%
%LPD*%
G01*
G04 APERTURE LIST*
G04 Aperture macros list*
%AMRoundRect*
0 Rectangle with rounded corners*
0 $1 Rounding radius*
0 $2 $3 $4 $5 $6 $7 $8 $9 X,Y pos of 4 corners*
0 Add a 4 corners polygon primitive as box body*
4,1,4,$2,$3,$4,$5,$6,$7,$8,$9,$2,$3,0*
0 Add four circle primitives for the rounded corners*
1,1,$1+$1,$2,$3*
1,1,$1+$1,$4,$5*
1,1,$1+$1,$6,$7*
1,1,$1+$1,$8,$9*
0 Add four rect primitives between the rounded corners*
20,1,$1+$1,$2,$3,$4,$5,0*
20,1,$1+$1,$4,$5,$6,$7,0*
20,1,$1+$1,$6,$7,$8,$9,0*
20,1,$1+$1,$8,$9,$2,$3,0*%
%AMFreePoly0*
4,1,14,0.385355,0.085355,0.400000,0.050000,0.400000,0.000711,0.385355,-0.034644,0.334644,-0.085355,0.299289,-0.100000,-0.350000,-0.100000,-0.385355,-0.085355,-0.400000,-0.050000,-0.400000,0.050000,-0.385355,0.085355,-0.350000,0.100000,0.350000,0.100000,0.385355,0.085355,0.385355,0.085355,$1*%
%AMFreePoly1*
4,1,14,0.334644,0.085355,0.385355,0.034644,0.400000,-0.000711,0.400000,-0.050000,0.385355,-0.085355,0.350000,-0.100000,-0.350000,-0.100000,-0.385355,-0.085355,-0.400000,-0.050000,-0.400000,0.050000,-0.385355,0.085355,-0.350000,0.100000,0.299289,0.100000,0.334644,0.085355,0.334644,0.085355,$1*%
%AMFreePoly2*
4,1,14,0.085355,0.385355,0.100000,0.350000,0.100000,-0.350000,0.085355,-0.385355,0.050000,-0.400000,0.000711,-0.400000,-0.034644,-0.385355,-0.085355,-0.334644,-0.100000,-0.299289,-0.100000,0.350000,-0.085355,0.385355,-0.050000,0.400000,0.050000,0.400000,0.085355,0.385355,0.085355,0.385355,$1*%
%AMFreePoly3*
4,1,14,0.085355,0.385355,0.100000,0.350000,0.100000,-0.299289,0.085355,-0.334644,0.034644,-0.385355,-0.000711,-0.400000,-0.050000,-0.400000,-0.085355,-0.385355,-0.100000,-0.350000,-0.100000,0.350000,-0.085355,0.385355,-0.050000,0.400000,0.050000,0.400000,0.085355,0.385355,0.085355,0.385355,$1*%
%AMFreePoly4*
4,1,14,0.385355,0.085355,0.400000,0.050000,0.400000,-0.050000,0.385355,-0.085355,0.350000,-0.100000,-0.350000,-0.100000,-0.385355,-0.085355,-0.400000,-0.050000,-0.400000,-0.000711,-0.385355,0.034644,-0.334644,0.085355,-0.299289,0.100000,0.350000,0.100000,0.385355,0.085355,0.385355,0.085355,$1*%
%AMFreePoly5*
4,1,14,0.385355,0.085355,0.400000,0.050000,0.400000,-0.050000,0.385355,-0.085355,0.350000,-0.100000,-0.299289,-0.100000,-0.334644,-0.085355,-0.385355,-0.034644,-0.400000,0.000711,-0.400000,0.050000,-0.385355,0.085355,-0.350000,0.100000,0.350000,0.100000,0.385355,0.085355,0.385355,0.085355,$1*%
%AMFreePoly6*
4,1,14,0.034644,0.385355,0.085355,0.334644,0.100000,0.299289,0.100000,-0.350000,0.085355,-0.385355,0.050000,-0.400000,-0.050000,-0.400000,-0.085355,-0.385355,-0.100000,-0.350000,-0.100000,0.350000,-0.085355,0.385355,-0.050000,0.400000,-0.000711,0.400000,0.034644,0.385355,0.034644,0.385355,$1*%
%AMFreePoly7*
4,1,14,0.085355,0.385355,0.100000,0.350000,0.100000,-0.350000,0.085355,-0.385355,0.050000,-0.400000,-0.050000,-0.400000,-0.085355,-0.385355,-0.100000,-0.350000,-0.100000,0.299289,-0.085355,0.334644,-0.034644,0.385355,0.000711,0.400000,0.050000,0.400000,0.085355,0.385355,0.085355,0.385355,$1*%
G04 Aperture macros list end*
%ADD10C,0.600000*%
%ADD11C,1.500000*%
%ADD12RoundRect,0.140000X-0.140000X-0.170000X0.140000X-0.170000X0.140000X0.170000X-0.140000X0.170000X0*%
%ADD13RoundRect,0.050000X-0.075000X0.150000X-0.075000X-0.150000X0.075000X-0.150000X0.075000X0.150000X0*%
%ADD14RoundRect,0.050000X-0.300000X0.150000X-0.300000X-0.150000X0.300000X-0.150000X0.300000X0.150000X0*%
%ADD15RoundRect,0.140000X0.140000X0.170000X-0.140000X0.170000X-0.140000X-0.170000X0.140000X-0.170000X0*%
%ADD16RoundRect,0.140000X-0.170000X0.140000X-0.170000X-0.140000X0.170000X-0.140000X0.170000X0.140000X0*%
%ADD17RoundRect,0.135000X0.135000X0.185000X-0.135000X0.185000X-0.135000X-0.185000X0.135000X-0.185000X0*%
%ADD18FreePoly0,0.000000*%
%ADD19RoundRect,0.050000X-0.350000X-0.050000X0.350000X-0.050000X0.350000X0.050000X-0.350000X0.050000X0*%
%ADD20FreePoly1,0.000000*%
%ADD21FreePoly2,0.000000*%
%ADD22RoundRect,0.050000X-0.050000X-0.350000X0.050000X-0.350000X0.050000X0.350000X-0.050000X0.350000X0*%
%ADD23FreePoly3,0.000000*%
%ADD24FreePoly4,0.000000*%
%ADD25FreePoly5,0.000000*%
%ADD26FreePoly6,0.000000*%
%ADD27FreePoly7,0.000000*%
%ADD28R,1.700000X1.700000*%
%ADD29RoundRect,0.062500X0.062500X-0.325000X0.062500X0.325000X-0.062500X0.325000X-0.062500X-0.325000X0*%
%ADD30R,1.200000X0.600000*%
G04 APERTURE END LIST*
D10*
%TO.C,*%
X138050000Y-98350000D03*
%TD*%
%TO.C,REF\u002A\u002A*%
X142800000Y-98350000D03*
X141850000Y-98350000D03*
X140900000Y-98350000D03*
X139950000Y-98350000D03*
X139000000Y-98350000D03*
%TD*%
D11*
%TO.C,TP5*%
X140443627Y-99987368D03*
%TD*%
%TO.C,TP4*%
X142943627Y-99987368D03*
%TD*%
%TO.C,TP6*%
X137943627Y-99987368D03*
%TD*%
D12*
%TO.C,R2*%
X144670000Y-95512500D03*
X145630000Y-95512500D03*
%TD*%
D13*
%TO.C,Q1*%
X145075000Y-87400000D03*
X145525000Y-87400000D03*
D14*
X145300000Y-88100000D03*
%TD*%
D15*
%TO.C,R1*%
X145630000Y-94300000D03*
X144670000Y-94300000D03*
%TD*%
D11*
%TO.C,TP3*%
X140432313Y-94642388D03*
%TD*%
%TO.C,TP2*%
X140432313Y-92142388D03*
%TD*%
D16*
%TO.C,C1*%
X144700000Y-90100000D03*
X144700000Y-91060000D03*
%TD*%
D11*
%TO.C,TP1*%
X140432313Y-89642388D03*
%TD*%
D17*
%TO.C,R3*%
X147950000Y-87750000D03*
X146930000Y-87750000D03*
%TD*%
D18*
%TO.C,U1*%
X146250000Y-91300000D03*
D19*
X146250000Y-90900000D03*
X146250000Y-90500000D03*
X146250000Y-90100000D03*
D20*
X146250000Y-89700000D03*
D21*
X146900000Y-89050000D03*
D22*
X147300000Y-89050000D03*
X147700000Y-89050000D03*
X148100000Y-89050000D03*
D23*
X148500000Y-89050000D03*
D24*
X149150000Y-89700000D03*
D19*
X149150000Y-90100000D03*
X149150000Y-90500000D03*
X149150000Y-90900000D03*
D25*
X149150000Y-91300000D03*
D26*
X148500000Y-91950000D03*
D22*
X148100000Y-91950000D03*
X147700000Y-91950000D03*
X147300000Y-91950000D03*
D27*
X146900000Y-91950000D03*
D28*
X147700000Y-90500000D03*
%TD*%
D29*
%TO.C,U2*%
X148400000Y-95825000D03*
X147900000Y-95825000D03*
X147400000Y-95825000D03*
X146900000Y-95825000D03*
X146900000Y-93900000D03*
X147400000Y-93900000D03*
X147900000Y-93900000D03*
X148400000Y-93900000D03*
D30*
X147650000Y-94862500D03*
%TD*%
M02*
