%TF.GenerationSoftware,KiCad,Pcbnew,9.0.5*%
%TF.CreationDate,2026-04-14T21:17:58-04:00*%
%TF.ProjectId,lightwear_bracelet_12x15_bat,6c696768-7477-4656-9172-5f6272616365,rev?*%
%TF.SameCoordinates,Original*%
%TF.FileFunction,Paste,Bot*%
%TF.FilePolarity,Positive*%
%FSLAX46Y46*%
G04 Gerber Fmt 4.6, Leading zero omitted, Abs format (unit mm)*
G04 Created by KiCad (PCBNEW 9.0.5) date 2026-04-14 21:17:58*
%MOMM*%
%LPD*%
G01*
G04 APERTURE LIST*
G04 Aperture macros list*
%AMRoundRect*
0 Rectangle with rounded corners*
0 $1 Rounding radius*
0 $2 $3 $4 $5 $6 $7 $8 $9 X,Y pos of 4 corners*
0 Add a 4 corners polygon primitive as box body*
4,1,4,$2,$3,$4,$5,$6,$7,$8,$9,$2,$3,0*
0 Add four circle primitives for the rounded corners*
1,1,$1+$1,$2,$3*
1,1,$1+$1,$4,$5*
1,1,$1+$1,$6,$7*
1,1,$1+$1,$8,$9*
0 Add four rect primitives between the rounded corners*
20,1,$1+$1,$2,$3,$4,$5,0*
20,1,$1+$1,$4,$5,$6,$7,0*
20,1,$1+$1,$6,$7,$8,$9,0*
20,1,$1+$1,$8,$9,$2,$3,0*%
%AMFreePoly0*
4,1,14,0.385355,0.085355,0.400000,0.050000,0.400000,0.000711,0.385355,-0.034644,0.334644,-0.085355,0.299289,-0.100000,-0.350000,-0.100000,-0.385355,-0.085355,-0.400000,-0.050000,-0.400000,0.050000,-0.385355,0.085355,-0.350000,0.100000,0.350000,0.100000,0.385355,0.085355,0.385355,0.085355,$1*%
%AMFreePoly1*
4,1,14,0.334644,0.085355,0.385355,0.034644,0.400000,-0.000711,0.400000,-0.050000,0.385355,-0.085355,0.350000,-0.100000,-0.350000,-0.100000,-0.385355,-0.085355,-0.400000,-0.050000,-0.400000,0.050000,-0.385355,0.085355,-0.350000,0.100000,0.299289,0.100000,0.334644,0.085355,0.334644,0.085355,$1*%
%AMFreePoly2*
4,1,14,0.085355,0.385355,0.100000,0.350000,0.100000,-0.350000,0.085355,-0.385355,0.050000,-0.400000,0.000711,-0.400000,-0.034644,-0.385355,-0.085355,-0.334644,-0.100000,-0.299289,-0.100000,0.350000,-0.085355,0.385355,-0.050000,0.400000,0.050000,0.400000,0.085355,0.385355,0.085355,0.385355,$1*%
%AMFreePoly3*
4,1,14,0.085355,0.385355,0.100000,0.350000,0.100000,-0.299289,0.085355,-0.334644,0.034644,-0.385355,-0.000711,-0.400000,-0.050000,-0.400000,-0.085355,-0.385355,-0.100000,-0.350000,-0.100000,0.350000,-0.085355,0.385355,-0.050000,0.400000,0.050000,0.400000,0.085355,0.385355,0.085355,0.385355,$1*%
%AMFreePoly4*
4,1,14,0.385355,0.085355,0.400000,0.050000,0.400000,-0.050000,0.385355,-0.085355,0.350000,-0.100000,-0.350000,-0.100000,-0.385355,-0.085355,-0.400000,-0.050000,-0.400000,-0.000711,-0.385355,0.034644,-0.334644,0.085355,-0.299289,0.100000,0.350000,0.100000,0.385355,0.085355,0.385355,0.085355,$1*%
%AMFreePoly5*
4,1,14,0.385355,0.085355,0.400000,0.050000,0.400000,-0.050000,0.385355,-0.085355,0.350000,-0.100000,-0.299289,-0.100000,-0.334644,-0.085355,-0.385355,-0.034644,-0.400000,0.000711,-0.400000,0.050000,-0.385355,0.085355,-0.350000,0.100000,0.350000,0.100000,0.385355,0.085355,0.385355,0.085355,$1*%
%AMFreePoly6*
4,1,14,0.034644,0.385355,0.085355,0.334644,0.100000,0.299289,0.100000,-0.350000,0.085355,-0.385355,0.050000,-0.400000,-0.050000,-0.400000,-0.085355,-0.385355,-0.100000,-0.350000,-0.100000,0.350000,-0.085355,0.385355,-0.050000,0.400000,-0.000711,0.400000,0.034644,0.385355,0.034644,0.385355,$1*%
%AMFreePoly7*
4,1,14,0.085355,0.385355,0.100000,0.350000,0.100000,-0.350000,0.085355,-0.385355,0.050000,-0.400000,-0.050000,-0.400000,-0.085355,-0.385355,-0.100000,-0.350000,-0.100000,0.299289,-0.085355,0.334644,-0.034644,0.385355,0.000711,0.400000,0.050000,0.400000,0.085355,0.385355,0.085355,0.385355,$1*%
G04 Aperture macros list end*
%ADD10RoundRect,0.140000X-0.140000X-0.170000X0.140000X-0.170000X0.140000X0.170000X-0.140000X0.170000X0*%
%ADD11RoundRect,0.050000X-0.075000X0.150000X-0.075000X-0.150000X0.075000X-0.150000X0.075000X0.150000X0*%
%ADD12RoundRect,0.050000X-0.300000X0.150000X-0.300000X-0.150000X0.300000X-0.150000X0.300000X0.150000X0*%
%ADD13RoundRect,0.140000X0.140000X0.170000X-0.140000X0.170000X-0.140000X-0.170000X0.140000X-0.170000X0*%
%ADD14RoundRect,0.140000X-0.170000X0.140000X-0.170000X-0.140000X0.170000X-0.140000X0.170000X0.140000X0*%
%ADD15RoundRect,0.135000X0.135000X0.185000X-0.135000X0.185000X-0.135000X-0.185000X0.135000X-0.185000X0*%
%ADD16RoundRect,0.172500X-0.172500X-0.172500X0.172500X-0.172500X0.172500X0.172500X-0.172500X0.172500X0*%
%ADD17FreePoly0,0.000000*%
%ADD18RoundRect,0.050000X-0.350000X-0.050000X0.350000X-0.050000X0.350000X0.050000X-0.350000X0.050000X0*%
%ADD19FreePoly1,0.000000*%
%ADD20FreePoly2,0.000000*%
%ADD21RoundRect,0.050000X-0.050000X-0.350000X0.050000X-0.350000X0.050000X0.350000X-0.050000X0.350000X0*%
%ADD22FreePoly3,0.000000*%
%ADD23FreePoly4,0.000000*%
%ADD24FreePoly5,0.000000*%
%ADD25FreePoly6,0.000000*%
%ADD26FreePoly7,0.000000*%
%ADD27RoundRect,0.060000X0.180000X-0.060000X0.180000X0.060000X-0.180000X0.060000X-0.180000X-0.060000X0*%
%ADD28RoundRect,0.062500X0.062500X-0.325000X0.062500X0.325000X-0.062500X0.325000X-0.062500X-0.325000X0*%
G04 APERTURE END LIST*
D10*
%TO.C,R2*%
X144670000Y-95512500D03*
X145630000Y-95512500D03*
%TD*%
D11*
%TO.C,Q1*%
X145075000Y-87400000D03*
X145525000Y-87400000D03*
D12*
X145300000Y-88100000D03*
%TD*%
D13*
%TO.C,R1*%
X145630000Y-94300000D03*
X144670000Y-94300000D03*
%TD*%
D14*
%TO.C,C1*%
X144700000Y-90100000D03*
X144700000Y-91060000D03*
%TD*%
D15*
%TO.C,R3*%
X147950000Y-87750000D03*
X146930000Y-87750000D03*
%TD*%
D16*
%TO.C,U1*%
X147275000Y-90075000D03*
X147275000Y-90925000D03*
X148125000Y-90075000D03*
X148125000Y-90925000D03*
D17*
X146250000Y-91300000D03*
D18*
X146250000Y-90900000D03*
X146250000Y-90500000D03*
X146250000Y-90100000D03*
D19*
X146250000Y-89700000D03*
D20*
X146900000Y-89050000D03*
D21*
X147300000Y-89050000D03*
X147700000Y-89050000D03*
X148100000Y-89050000D03*
D22*
X148500000Y-89050000D03*
D23*
X149150000Y-89700000D03*
D18*
X149150000Y-90100000D03*
X149150000Y-90500000D03*
X149150000Y-90900000D03*
D24*
X149150000Y-91300000D03*
D25*
X148500000Y-91950000D03*
D21*
X148100000Y-91950000D03*
X147700000Y-91950000D03*
X147300000Y-91950000D03*
D26*
X146900000Y-91950000D03*
%TD*%
D27*
%TO.C,U2*%
X147350000Y-95012500D03*
X147950000Y-95012500D03*
X147350000Y-94712500D03*
X147950000Y-94712500D03*
D28*
X148400000Y-95825000D03*
X147900000Y-95825000D03*
X147400000Y-95825000D03*
X146900000Y-95825000D03*
X146900000Y-93900000D03*
X147400000Y-93900000D03*
X147900000Y-93900000D03*
X148400000Y-93900000D03*
%TD*%
M02*
