%TF.GenerationSoftware,KiCad,Pcbnew,9.0.5*%
%TF.CreationDate,2026-04-28T23:29:31-04:00*%
%TF.ProjectId,lightwear_bracelet_12x15_bat,6c696768-7477-4656-9172-5f6272616365,rev?*%
%TF.SameCoordinates,Original*%
%TF.FileFunction,Copper,L2,Bot*%
%TF.FilePolarity,Positive*%
%FSLAX46Y46*%
G04 Gerber Fmt 4.6, Leading zero omitted, Abs format (unit mm)*
G04 Created by KiCad (PCBNEW 9.0.5) date 2026-04-28 23:29:31*
%MOMM*%
%LPD*%
G01*
G04 APERTURE LIST*
G04 Aperture macros list*
%AMRoundRect*
0 Rectangle with rounded corners*
0 $1 Rounding radius*
0 $2 $3 $4 $5 $6 $7 $8 $9 X,Y pos of 4 corners*
0 Add a 4 corners polygon primitive as box body*
4,1,4,$2,$3,$4,$5,$6,$7,$8,$9,$2,$3,0*
0 Add four circle primitives for the rounded corners*
1,1,$1+$1,$2,$3*
1,1,$1+$1,$4,$5*
1,1,$1+$1,$6,$7*
1,1,$1+$1,$8,$9*
0 Add four rect primitives between the rounded corners*
20,1,$1+$1,$2,$3,$4,$5,0*
20,1,$1+$1,$4,$5,$6,$7,0*
20,1,$1+$1,$6,$7,$8,$9,0*
20,1,$1+$1,$8,$9,$2,$3,0*%
%AMFreePoly0*
4,1,14,0.385355,0.085355,0.400000,0.050000,0.400000,0.000711,0.385355,-0.034644,0.334644,-0.085355,0.299289,-0.100000,-0.350000,-0.100000,-0.385355,-0.085355,-0.400000,-0.050000,-0.400000,0.050000,-0.385355,0.085355,-0.350000,0.100000,0.350000,0.100000,0.385355,0.085355,0.385355,0.085355,$1*%
%AMFreePoly1*
4,1,14,0.334644,0.085355,0.385355,0.034644,0.400000,-0.000711,0.400000,-0.050000,0.385355,-0.085355,0.350000,-0.100000,-0.350000,-0.100000,-0.385355,-0.085355,-0.400000,-0.050000,-0.400000,0.050000,-0.385355,0.085355,-0.350000,0.100000,0.299289,0.100000,0.334644,0.085355,0.334644,0.085355,$1*%
%AMFreePoly2*
4,1,14,0.085355,0.385355,0.100000,0.350000,0.100000,-0.350000,0.085355,-0.385355,0.050000,-0.400000,0.000711,-0.400000,-0.034644,-0.385355,-0.085355,-0.334644,-0.100000,-0.299289,-0.100000,0.350000,-0.085355,0.385355,-0.050000,0.400000,0.050000,0.400000,0.085355,0.385355,0.085355,0.385355,$1*%
%AMFreePoly3*
4,1,14,0.085355,0.385355,0.100000,0.350000,0.100000,-0.299289,0.085355,-0.334644,0.034644,-0.385355,-0.000711,-0.400000,-0.050000,-0.400000,-0.085355,-0.385355,-0.100000,-0.350000,-0.100000,0.350000,-0.085355,0.385355,-0.050000,0.400000,0.050000,0.400000,0.085355,0.385355,0.085355,0.385355,$1*%
%AMFreePoly4*
4,1,14,0.385355,0.085355,0.400000,0.050000,0.400000,-0.050000,0.385355,-0.085355,0.350000,-0.100000,-0.350000,-0.100000,-0.385355,-0.085355,-0.400000,-0.050000,-0.400000,-0.000711,-0.385355,0.034644,-0.334644,0.085355,-0.299289,0.100000,0.350000,0.100000,0.385355,0.085355,0.385355,0.085355,$1*%
%AMFreePoly5*
4,1,14,0.385355,0.085355,0.400000,0.050000,0.400000,-0.050000,0.385355,-0.085355,0.350000,-0.100000,-0.299289,-0.100000,-0.334644,-0.085355,-0.385355,-0.034644,-0.400000,0.000711,-0.400000,0.050000,-0.385355,0.085355,-0.350000,0.100000,0.350000,0.100000,0.385355,0.085355,0.385355,0.085355,$1*%
%AMFreePoly6*
4,1,14,0.034644,0.385355,0.085355,0.334644,0.100000,0.299289,0.100000,-0.350000,0.085355,-0.385355,0.050000,-0.400000,-0.050000,-0.400000,-0.085355,-0.385355,-0.100000,-0.350000,-0.100000,0.350000,-0.085355,0.385355,-0.050000,0.400000,-0.000711,0.400000,0.034644,0.385355,0.034644,0.385355,$1*%
%AMFreePoly7*
4,1,14,0.085355,0.385355,0.100000,0.350000,0.100000,-0.350000,0.085355,-0.385355,0.050000,-0.400000,-0.050000,-0.400000,-0.085355,-0.385355,-0.100000,-0.350000,-0.100000,0.299289,-0.085355,0.334644,-0.034644,0.385355,0.000711,0.400000,0.050000,0.400000,0.085355,0.385355,0.085355,0.385355,$1*%
G04 Aperture macros list end*
%TA.AperFunction,SMDPad,CuDef*%
%ADD10RoundRect,0.135000X0.185000X-0.135000X0.185000X0.135000X-0.185000X0.135000X-0.185000X-0.135000X0*%
%TD*%
%TA.AperFunction,SMDPad,CuDef*%
%ADD11C,1.500000*%
%TD*%
%TA.AperFunction,SMDPad,CuDef*%
%ADD12RoundRect,0.140000X-0.140000X-0.170000X0.140000X-0.170000X0.140000X0.170000X-0.140000X0.170000X0*%
%TD*%
%TA.AperFunction,SMDPad,CuDef*%
%ADD13RoundRect,0.050000X-0.150000X-0.075000X0.150000X-0.075000X0.150000X0.075000X-0.150000X0.075000X0*%
%TD*%
%TA.AperFunction,SMDPad,CuDef*%
%ADD14RoundRect,0.050000X-0.150000X-0.300000X0.150000X-0.300000X0.150000X0.300000X-0.150000X0.300000X0*%
%TD*%
%TA.AperFunction,SMDPad,CuDef*%
%ADD15RoundRect,0.140000X-0.170000X0.140000X-0.170000X-0.140000X0.170000X-0.140000X0.170000X0.140000X0*%
%TD*%
%TA.AperFunction,SMDPad,CuDef*%
%ADD16FreePoly0,0.000000*%
%TD*%
%TA.AperFunction,SMDPad,CuDef*%
%ADD17RoundRect,0.050000X-0.350000X-0.050000X0.350000X-0.050000X0.350000X0.050000X-0.350000X0.050000X0*%
%TD*%
%TA.AperFunction,SMDPad,CuDef*%
%ADD18FreePoly1,0.000000*%
%TD*%
%TA.AperFunction,SMDPad,CuDef*%
%ADD19FreePoly2,0.000000*%
%TD*%
%TA.AperFunction,SMDPad,CuDef*%
%ADD20RoundRect,0.050000X-0.050000X-0.350000X0.050000X-0.350000X0.050000X0.350000X-0.050000X0.350000X0*%
%TD*%
%TA.AperFunction,SMDPad,CuDef*%
%ADD21FreePoly3,0.000000*%
%TD*%
%TA.AperFunction,SMDPad,CuDef*%
%ADD22FreePoly4,0.000000*%
%TD*%
%TA.AperFunction,SMDPad,CuDef*%
%ADD23FreePoly5,0.000000*%
%TD*%
%TA.AperFunction,SMDPad,CuDef*%
%ADD24FreePoly6,0.000000*%
%TD*%
%TA.AperFunction,SMDPad,CuDef*%
%ADD25FreePoly7,0.000000*%
%TD*%
%TA.AperFunction,HeatsinkPad*%
%ADD26R,1.700000X1.700000*%
%TD*%
%TA.AperFunction,SMDPad,CuDef*%
%ADD27RoundRect,0.062500X0.062500X-0.325000X0.062500X0.325000X-0.062500X0.325000X-0.062500X-0.325000X0*%
%TD*%
%TA.AperFunction,HeatsinkPad*%
%ADD28R,1.200000X0.600000*%
%TD*%
%TA.AperFunction,ViaPad*%
%ADD29C,0.600000*%
%TD*%
%TA.AperFunction,Conductor*%
%ADD30C,0.200000*%
%TD*%
%TA.AperFunction,Conductor*%
%ADD31C,0.300000*%
%TD*%
%TA.AperFunction,Conductor*%
%ADD32C,0.120000*%
%TD*%
G04 APERTURE END LIST*
D10*
%TO.P,R3,2*%
%TO.N,Net-(Q1-G)*%
X144700000Y-88030000D03*
%TO.P,R3,1*%
%TO.N,Net-(U1-PA6)*%
X144700000Y-89050000D03*
%TD*%
D11*
%TO.P,TP4,1,1*%
%TO.N,Net-(TP3-Pad1)*%
X142943627Y-99987368D03*
%TD*%
D12*
%TO.P,R2,1*%
%TO.N,GND*%
X144670000Y-95512500D03*
%TO.P,R2,2*%
%TO.N,Net-(U2-ISET)*%
X145630000Y-95512500D03*
%TD*%
D13*
%TO.P,Q1,1,G*%
%TO.N,Net-(Q1-G)*%
X145850000Y-87850000D03*
%TO.P,Q1,2,D*%
%TO.N,/LEDK*%
X145850000Y-87400000D03*
D14*
%TO.P,Q1,3,S*%
%TO.N,GND*%
X146550000Y-87625000D03*
%TD*%
D11*
%TO.P,TP5,1,1*%
%TO.N,Net-(TP2-Pad1)*%
X140443627Y-99987368D03*
%TD*%
%TO.P,TP3,1,1*%
%TO.N,GND*%
X140432313Y-94642388D03*
%TD*%
%TO.P,TP2,1,1*%
%TO.N,/UPDI*%
X140432313Y-92142388D03*
%TD*%
D15*
%TO.P,C1,1*%
%TO.N,+BATT*%
X144700000Y-90270000D03*
%TO.P,C1,2*%
%TO.N,GND*%
X144700000Y-91230000D03*
%TD*%
D11*
%TO.P,TP1,1,1*%
%TO.N,+5V*%
X140432313Y-89642388D03*
%TD*%
D16*
%TO.P,U1,1,PA2*%
%TO.N,unconnected-(U1-PA2-Pad1)*%
X146250000Y-91300000D03*
D17*
%TO.P,U1,2,PA3*%
%TO.N,unconnected-(U1-PA3-Pad2)*%
X146250000Y-90900000D03*
%TO.P,U1,3,GND*%
%TO.N,GND*%
X146250000Y-90500000D03*
%TO.P,U1,4,VCC*%
%TO.N,+BATT*%
X146250000Y-90100000D03*
D18*
%TO.P,U1,5,PA4*%
%TO.N,unconnected-(U1-PA4-Pad5)*%
X146250000Y-89700000D03*
D19*
%TO.P,U1,6,PA5*%
%TO.N,/BTN*%
X146900000Y-89050000D03*
D20*
%TO.P,U1,7,PA6*%
%TO.N,Net-(U1-PA6)*%
X147300000Y-89050000D03*
%TO.P,U1,8,PA7*%
%TO.N,unconnected-(U1-PA7-Pad8)*%
X147700000Y-89050000D03*
%TO.P,U1,9,PB5*%
%TO.N,unconnected-(U1-PB5-Pad9)*%
X148100000Y-89050000D03*
D21*
%TO.P,U1,10,PB4*%
%TO.N,unconnected-(U1-PB4-Pad10)*%
X148500000Y-89050000D03*
D22*
%TO.P,U1,11,PB3*%
%TO.N,unconnected-(U1-PB3-Pad11)*%
X149150000Y-89700000D03*
D17*
%TO.P,U1,12,PB2*%
%TO.N,unconnected-(U1-PB2-Pad12)*%
X149150000Y-90100000D03*
%TO.P,U1,13,PB1*%
%TO.N,unconnected-(U1-PB1-Pad13)*%
X149150000Y-90500000D03*
%TO.P,U1,14,PB0*%
%TO.N,unconnected-(U1-PB0-Pad14)*%
X149150000Y-90900000D03*
D23*
%TO.P,U1,15,PC0*%
%TO.N,unconnected-(U1-PC0-Pad15)*%
X149150000Y-91300000D03*
D24*
%TO.P,U1,16,PC1*%
%TO.N,unconnected-(U1-PC1-Pad16)*%
X148500000Y-91950000D03*
D20*
%TO.P,U1,17,PC2*%
%TO.N,/nCHRG*%
X148100000Y-91950000D03*
%TO.P,U1,18,PC3*%
%TO.N,unconnected-(U1-PC3-Pad18)*%
X147700000Y-91950000D03*
%TO.P,U1,19,~{RESET}/PA0*%
%TO.N,/UPDI*%
X147300000Y-91950000D03*
D25*
%TO.P,U1,20,PA1*%
%TO.N,unconnected-(U1-PA1-Pad20)*%
X146900000Y-91950000D03*
D26*
%TO.P,U1,21,GND*%
%TO.N,GND*%
X147700000Y-90500000D03*
%TD*%
D27*
%TO.P,U2,1,TEMP*%
%TO.N,GND*%
X148400000Y-95825000D03*
%TO.P,U2,2,ISET*%
%TO.N,Net-(U2-ISET)*%
X147900000Y-95825000D03*
%TO.P,U2,3,GND*%
%TO.N,GND*%
X147400000Y-95825000D03*
%TO.P,U2,4,V_{CC}*%
%TO.N,+5V*%
X146900000Y-95825000D03*
%TO.P,U2,5,BAT*%
%TO.N,+BATT*%
X146900000Y-93900000D03*
%TO.P,U2,6,~{STDBY}*%
%TO.N,unconnected-(U2-~{STDBY}-Pad6)*%
X147400000Y-93900000D03*
%TO.P,U2,7,~{CHRG}*%
%TO.N,/nCHRG*%
X147900000Y-93900000D03*
%TO.P,U2,8,EN*%
%TO.N,unconnected-(U2-EN-Pad8)*%
X148400000Y-93900000D03*
D28*
%TO.P,U2,9,BASE*%
%TO.N,GND*%
X147650000Y-94862500D03*
%TD*%
D11*
%TO.P,TP6,1,1*%
%TO.N,Net-(TP1-Pad1)*%
X137943627Y-99987368D03*
%TD*%
D29*
%TO.N,+BATT*%
X143800000Y-92150000D03*
%TO.N,GND*%
X150200000Y-92200000D03*
X134450000Y-87300000D03*
X144850000Y-92200000D03*
X134450000Y-88900000D03*
X150200000Y-93000000D03*
X134450000Y-88100000D03*
X147500000Y-87700000D03*
X142200000Y-95550000D03*
X145650000Y-92200000D03*
X148300000Y-87700000D03*
X142200000Y-94750000D03*
%TO.N,/LEDK*%
X133750000Y-92950000D03*
%TO.N,/BTN*%
X146350000Y-89140000D03*
%TO.N,/UPDI*%
X145750000Y-93150000D03*
X142200000Y-93900000D03*
%TO.N,Net-(TP1-Pad1)*%
X137943627Y-99987368D03*
%TO.N,Net-(TP2-Pad1)*%
X140443627Y-99987368D03*
%TO.N,Net-(TP3-Pad1)*%
X142943627Y-99987368D03*
%TD*%
D30*
%TO.N,/UPDI*%
X147300000Y-92572182D02*
X147300000Y-91950000D01*
X146886091Y-92986091D02*
X147300000Y-92572182D01*
X145913909Y-92986091D02*
X146886091Y-92986091D01*
X145750000Y-93150000D02*
X145913909Y-92986091D01*
%TO.N,Net-(U1-PA6)*%
X145361000Y-88389000D02*
X144700000Y-89050000D01*
X146011000Y-88389000D02*
X145361000Y-88389000D01*
X146150000Y-88250000D02*
X146011000Y-88389000D01*
X147150000Y-88250000D02*
X146150000Y-88250000D01*
X147300000Y-88400000D02*
X147150000Y-88250000D01*
X147300000Y-89050000D02*
X147300000Y-88400000D01*
%TO.N,/nCHRG*%
X147900000Y-92577064D02*
X148100000Y-92377064D01*
X148100000Y-92377064D02*
X148100000Y-91950000D01*
X147900000Y-93900000D02*
X147900000Y-92577064D01*
%TO.N,+BATT*%
X145550000Y-93900000D02*
X146900000Y-93900000D01*
X143800000Y-92150000D02*
X145550000Y-93900000D01*
%TO.N,+5V*%
X145937500Y-94862500D02*
X145652425Y-94862500D01*
X146900000Y-95825000D02*
X145937500Y-94862500D01*
X145652425Y-94862500D02*
X140432313Y-89642388D01*
D31*
%TO.N,/LEDK*%
X145850000Y-87400000D02*
X139300000Y-87400000D01*
D30*
%TO.N,Net-(Q1-G)*%
X145670000Y-88030000D02*
X145850000Y-87850000D01*
X144700000Y-88030000D02*
X145670000Y-88030000D01*
%TO.N,+BATT*%
X143800000Y-92150000D02*
X143800000Y-91000000D01*
X146250000Y-90100000D02*
X144700000Y-90100000D01*
X143800000Y-91000000D02*
X144700000Y-90100000D01*
%TO.N,GND*%
X145822936Y-90500000D02*
X145500000Y-90822936D01*
D32*
X147937501Y-94900000D02*
X148900000Y-94900000D01*
X147400000Y-95825000D02*
X147400000Y-95437501D01*
D30*
X146250000Y-90500000D02*
X145822936Y-90500000D01*
D32*
X148030000Y-90627500D02*
X148007500Y-90650000D01*
D30*
X146250000Y-90500000D02*
X147700000Y-90500000D01*
D32*
X147400000Y-95437501D02*
X147937501Y-94900000D01*
D31*
%TO.N,/LEDK*%
X139300000Y-87400000D02*
X133750000Y-92950000D01*
D30*
%TO.N,/BTN*%
X146900000Y-89050000D02*
X146440000Y-89050000D01*
X146440000Y-89050000D02*
X146350000Y-89140000D01*
%TO.N,/UPDI*%
X140442388Y-92142388D02*
X140432313Y-92142388D01*
X142200000Y-93900000D02*
X140442388Y-92142388D01*
%TO.N,Net-(U2-ISET)*%
X145630000Y-95512500D02*
X146581000Y-96463500D01*
X147900000Y-96212499D02*
X147900000Y-95825000D01*
X146581000Y-96463500D02*
X147648999Y-96463500D01*
X147880000Y-95845000D02*
X147900000Y-95825000D01*
X147648999Y-96463500D02*
X147900000Y-96212499D01*
%TD*%
%TA.AperFunction,Conductor*%
%TO.N,GND*%
G36*
X145543040Y-90420185D02*
G01*
X145588795Y-90472989D01*
X145600001Y-90524500D01*
X145600001Y-90594785D01*
X145600002Y-90594808D01*
X145602908Y-90619869D01*
X145602909Y-90619873D01*
X145647377Y-90720586D01*
X145656447Y-90789865D01*
X145655559Y-90794862D01*
X145649500Y-90825321D01*
X145649500Y-90974678D01*
X145664032Y-91047735D01*
X145665534Y-91051361D01*
X145673003Y-91120831D01*
X145665536Y-91146263D01*
X145655143Y-91171356D01*
X145655140Y-91171366D01*
X145639500Y-91249996D01*
X145639500Y-91350003D01*
X145650258Y-91404088D01*
X145655142Y-91428641D01*
X145671251Y-91467532D01*
X145671253Y-91467535D01*
X145671256Y-91467542D01*
X145707876Y-91525820D01*
X145707880Y-91525826D01*
X145782468Y-91578749D01*
X145821359Y-91594858D01*
X145899997Y-91610499D01*
X145899999Y-91610500D01*
X146465500Y-91610500D01*
X146532539Y-91630185D01*
X146578294Y-91682989D01*
X146589500Y-91734500D01*
X146589500Y-92300003D01*
X146605140Y-92378633D01*
X146605142Y-92378641D01*
X146621251Y-92417532D01*
X146621253Y-92417535D01*
X146621256Y-92417542D01*
X146657875Y-92475819D01*
X146657876Y-92475820D01*
X146657880Y-92475826D01*
X146657884Y-92475829D01*
X146658423Y-92476399D01*
X146659216Y-92477954D01*
X146664377Y-92486167D01*
X146663642Y-92486628D01*
X146690178Y-92538635D01*
X146683244Y-92608160D01*
X146639823Y-92662900D01*
X146573701Y-92685474D01*
X146568321Y-92685591D01*
X145966913Y-92685591D01*
X145934820Y-92681366D01*
X145851895Y-92659147D01*
X145815892Y-92649500D01*
X145684108Y-92649500D01*
X145556812Y-92683608D01*
X145442686Y-92749500D01*
X145442683Y-92749502D01*
X145349502Y-92842683D01*
X145349500Y-92842686D01*
X145283606Y-92956816D01*
X145280867Y-92963430D01*
X145237024Y-93017832D01*
X145170729Y-93039895D01*
X145103030Y-93022614D01*
X145078626Y-93003655D01*
X144336819Y-92261848D01*
X144303334Y-92200525D01*
X144300500Y-92174167D01*
X144300500Y-92084110D01*
X144300500Y-92084108D01*
X144266392Y-91956814D01*
X144243866Y-91917799D01*
X144227394Y-91849899D01*
X144250246Y-91783872D01*
X144305167Y-91740682D01*
X144374721Y-91734040D01*
X144407554Y-91745317D01*
X144407984Y-91745536D01*
X144499303Y-91759999D01*
X144825000Y-91759999D01*
X144900689Y-91759999D01*
X144992017Y-91745534D01*
X145102093Y-91689447D01*
X145102098Y-91689444D01*
X145189444Y-91602098D01*
X145189448Y-91602093D01*
X145245536Y-91492015D01*
X145260000Y-91400691D01*
X145260000Y-91355000D01*
X144825000Y-91355000D01*
X144825000Y-91759999D01*
X144499303Y-91759999D01*
X144574999Y-91759998D01*
X144575000Y-91759998D01*
X144575000Y-91354000D01*
X144577550Y-91345314D01*
X144576262Y-91336353D01*
X144587240Y-91312312D01*
X144594685Y-91286961D01*
X144601525Y-91281033D01*
X144605287Y-91272797D01*
X144627521Y-91258507D01*
X144647489Y-91241206D01*
X144658003Y-91238918D01*
X144664065Y-91235023D01*
X144699000Y-91230000D01*
X144700000Y-91230000D01*
X144700000Y-91229000D01*
X144719685Y-91161961D01*
X144772489Y-91116206D01*
X144824000Y-91105000D01*
X145259999Y-91105000D01*
X145259999Y-91059310D01*
X145245534Y-90967982D01*
X145189447Y-90857906D01*
X145189444Y-90857901D01*
X145134222Y-90802679D01*
X145100737Y-90741356D01*
X145105721Y-90671664D01*
X145113029Y-90655648D01*
X145121582Y-90639957D01*
X145153224Y-90608316D01*
X145203972Y-90499487D01*
X145205823Y-90485423D01*
X145216875Y-90465150D01*
X145225897Y-90456114D01*
X145231063Y-90444433D01*
X145250119Y-90431859D01*
X145266246Y-90415710D01*
X145278721Y-90412986D01*
X145289382Y-90405953D01*
X145325749Y-90400500D01*
X145476001Y-90400500D01*
X145543040Y-90420185D01*
G37*
%TD.AperFunction*%
%TA.AperFunction,Conductor*%
G36*
X148311339Y-89628015D02*
G01*
X148320827Y-89626995D01*
X148330463Y-89629133D01*
X148338546Y-89631266D01*
X148371359Y-89644858D01*
X148447137Y-89659930D01*
X148450844Y-89660909D01*
X148477594Y-89677077D01*
X148505298Y-89691569D01*
X148507254Y-89695004D01*
X148510640Y-89697051D01*
X148524406Y-89725124D01*
X148539873Y-89752284D01*
X148540814Y-89756611D01*
X148555140Y-89828632D01*
X148555143Y-89828644D01*
X148565535Y-89853733D01*
X148573002Y-89923202D01*
X148565537Y-89948629D01*
X148564033Y-89952258D01*
X148549500Y-90025323D01*
X148549500Y-90025326D01*
X148549500Y-90174674D01*
X148549500Y-90174676D01*
X148549499Y-90174676D01*
X148564033Y-90247740D01*
X148566025Y-90252548D01*
X148573494Y-90322017D01*
X148566025Y-90347452D01*
X148564033Y-90352259D01*
X148549500Y-90425323D01*
X148549500Y-90425326D01*
X148549500Y-90574674D01*
X148549500Y-90574676D01*
X148549499Y-90574676D01*
X148564033Y-90647740D01*
X148566025Y-90652548D01*
X148573494Y-90722017D01*
X148566025Y-90747452D01*
X148564033Y-90752259D01*
X148549500Y-90825323D01*
X148549500Y-90974678D01*
X148564032Y-91047735D01*
X148565534Y-91051361D01*
X148567953Y-91073867D01*
X148574926Y-91095402D01*
X148571982Y-91111343D01*
X148573003Y-91120831D01*
X148570867Y-91130462D01*
X148568732Y-91138547D01*
X148555142Y-91171359D01*
X148540069Y-91247137D01*
X148539091Y-91250844D01*
X148522918Y-91277600D01*
X148508429Y-91305300D01*
X148504993Y-91307256D01*
X148502948Y-91310640D01*
X148474881Y-91324403D01*
X148447713Y-91339874D01*
X148443389Y-91340814D01*
X148371365Y-91355140D01*
X148371360Y-91355141D01*
X148371359Y-91355142D01*
X148353232Y-91362650D01*
X148346265Y-91365536D01*
X148276795Y-91373002D01*
X148251365Y-91365535D01*
X148247738Y-91364032D01*
X148174677Y-91349500D01*
X148174674Y-91349500D01*
X148025326Y-91349500D01*
X148025324Y-91349500D01*
X147952259Y-91364033D01*
X147947452Y-91366025D01*
X147877983Y-91373494D01*
X147852548Y-91366025D01*
X147847740Y-91364033D01*
X147774676Y-91349500D01*
X147774674Y-91349500D01*
X147625326Y-91349500D01*
X147625324Y-91349500D01*
X147552259Y-91364033D01*
X147547452Y-91366025D01*
X147477983Y-91373494D01*
X147452548Y-91366025D01*
X147447740Y-91364033D01*
X147374676Y-91349500D01*
X147374674Y-91349500D01*
X147225326Y-91349500D01*
X147225324Y-91349500D01*
X147152258Y-91364033D01*
X147148629Y-91365537D01*
X147126127Y-91367954D01*
X147104596Y-91374926D01*
X147088648Y-91371981D01*
X147079159Y-91373001D01*
X147069536Y-91370866D01*
X147061448Y-91368731D01*
X147028641Y-91355142D01*
X146952873Y-91340071D01*
X146949155Y-91339090D01*
X146922398Y-91322917D01*
X146894700Y-91308429D01*
X146892743Y-91304993D01*
X146889359Y-91302948D01*
X146875591Y-91274872D01*
X146860126Y-91247714D01*
X146859191Y-91243421D01*
X146844858Y-91171359D01*
X146834464Y-91146267D01*
X146826996Y-91076799D01*
X146834467Y-91051358D01*
X146835963Y-91047744D01*
X146835966Y-91047740D01*
X146850500Y-90974674D01*
X146850500Y-90825326D01*
X146844440Y-90794861D01*
X146850666Y-90725272D01*
X146852623Y-90720583D01*
X146897089Y-90619877D01*
X146897089Y-90619875D01*
X146899999Y-90594794D01*
X146899999Y-90405214D01*
X146899997Y-90405191D01*
X146897091Y-90380130D01*
X146897090Y-90380127D01*
X146852622Y-90279414D01*
X146843551Y-90210136D01*
X146844431Y-90205182D01*
X146850500Y-90174674D01*
X146850500Y-90025326D01*
X146850500Y-90025323D01*
X146850499Y-90025321D01*
X146835967Y-89952264D01*
X146835966Y-89952263D01*
X146835966Y-89952260D01*
X146835964Y-89952257D01*
X146834467Y-89948642D01*
X146832046Y-89926133D01*
X146825073Y-89904597D01*
X146828015Y-89888660D01*
X146826995Y-89879173D01*
X146829132Y-89869537D01*
X146831263Y-89861460D01*
X146844858Y-89828641D01*
X146859934Y-89752843D01*
X146860908Y-89749155D01*
X146877081Y-89722397D01*
X146891569Y-89694701D01*
X146895004Y-89692744D01*
X146897051Y-89689359D01*
X146925124Y-89675592D01*
X146952284Y-89660126D01*
X146956566Y-89659193D01*
X147028641Y-89644858D01*
X147053732Y-89634464D01*
X147123199Y-89626996D01*
X147148638Y-89634466D01*
X147152262Y-89635967D01*
X147225321Y-89650499D01*
X147225324Y-89650500D01*
X147225326Y-89650500D01*
X147374676Y-89650500D01*
X147374677Y-89650499D01*
X147403043Y-89644857D01*
X147447732Y-89635968D01*
X147447733Y-89635967D01*
X147447740Y-89635966D01*
X147447745Y-89635962D01*
X147452539Y-89633977D01*
X147522008Y-89626504D01*
X147547461Y-89633977D01*
X147552256Y-89635963D01*
X147552260Y-89635966D01*
X147552264Y-89635966D01*
X147552267Y-89635968D01*
X147625321Y-89650499D01*
X147625324Y-89650500D01*
X147625326Y-89650500D01*
X147774676Y-89650500D01*
X147774677Y-89650499D01*
X147803043Y-89644857D01*
X147847732Y-89635968D01*
X147847733Y-89635967D01*
X147847740Y-89635966D01*
X147847745Y-89635962D01*
X147852539Y-89633977D01*
X147922008Y-89626504D01*
X147947461Y-89633977D01*
X147952256Y-89635963D01*
X147952260Y-89635966D01*
X147952264Y-89635966D01*
X147952267Y-89635968D01*
X148025321Y-89650499D01*
X148025324Y-89650500D01*
X148025326Y-89650500D01*
X148174676Y-89650500D01*
X148174677Y-89650499D01*
X148247740Y-89635966D01*
X148247744Y-89635963D01*
X148251358Y-89634467D01*
X148273866Y-89632046D01*
X148295403Y-89625073D01*
X148311339Y-89628015D01*
G37*
%TD.AperFunction*%
%TA.AperFunction,Conductor*%
G36*
X147724049Y-86270185D02*
G01*
X147744691Y-86286819D01*
X150663181Y-89205309D01*
X150696666Y-89266632D01*
X150699500Y-89292990D01*
X150699500Y-95007009D01*
X150679815Y-95074048D01*
X150663181Y-95094690D01*
X147744691Y-98013181D01*
X147683368Y-98046666D01*
X147657010Y-98049500D01*
X143866511Y-98049500D01*
X143866437Y-98049501D01*
X143840691Y-98049501D01*
X143839318Y-98049868D01*
X143830453Y-98049989D01*
X143830165Y-98049908D01*
X143828772Y-98050000D01*
X143259177Y-98050000D01*
X143192138Y-98030315D01*
X143171496Y-98013682D01*
X143170995Y-98013181D01*
X143107314Y-97949500D01*
X143050250Y-97916554D01*
X142993187Y-97883608D01*
X142929539Y-97866554D01*
X142865892Y-97849500D01*
X142734108Y-97849500D01*
X142606812Y-97883608D01*
X142492686Y-97949500D01*
X142428504Y-98013682D01*
X142401573Y-98028386D01*
X142375758Y-98044977D01*
X142369555Y-98045868D01*
X142367180Y-98047166D01*
X142340823Y-98050000D01*
X142309177Y-98050000D01*
X142242138Y-98030315D01*
X142221496Y-98013682D01*
X142220995Y-98013181D01*
X142157314Y-97949500D01*
X142100250Y-97916554D01*
X142043187Y-97883608D01*
X141979539Y-97866554D01*
X141915892Y-97849500D01*
X141784108Y-97849500D01*
X141656812Y-97883608D01*
X141542686Y-97949500D01*
X141478504Y-98013682D01*
X141451573Y-98028386D01*
X141425758Y-98044977D01*
X141419555Y-98045868D01*
X141417180Y-98047166D01*
X141390823Y-98050000D01*
X141359177Y-98050000D01*
X141292138Y-98030315D01*
X141271496Y-98013682D01*
X141270995Y-98013181D01*
X141207314Y-97949500D01*
X141150250Y-97916554D01*
X141093187Y-97883608D01*
X141029539Y-97866554D01*
X140965892Y-97849500D01*
X140834108Y-97849500D01*
X140706812Y-97883608D01*
X140592686Y-97949500D01*
X140528504Y-98013682D01*
X140501573Y-98028386D01*
X140475758Y-98044977D01*
X140469555Y-98045868D01*
X140467180Y-98047166D01*
X140440823Y-98050000D01*
X140409177Y-98050000D01*
X140342138Y-98030315D01*
X140321496Y-98013682D01*
X140320995Y-98013181D01*
X140257314Y-97949500D01*
X140200250Y-97916554D01*
X140143187Y-97883608D01*
X140079539Y-97866554D01*
X140015892Y-97849500D01*
X139884108Y-97849500D01*
X139756812Y-97883608D01*
X139642686Y-97949500D01*
X139578504Y-98013682D01*
X139551573Y-98028386D01*
X139525758Y-98044977D01*
X139519555Y-98045868D01*
X139517180Y-98047166D01*
X139490823Y-98050000D01*
X139459177Y-98050000D01*
X139392138Y-98030315D01*
X139371496Y-98013682D01*
X139370995Y-98013181D01*
X139307314Y-97949500D01*
X139250250Y-97916554D01*
X139193187Y-97883608D01*
X139129539Y-97866554D01*
X139065892Y-97849500D01*
X138934108Y-97849500D01*
X138806812Y-97883608D01*
X138692686Y-97949500D01*
X138628504Y-98013682D01*
X138601573Y-98028386D01*
X138575758Y-98044977D01*
X138569555Y-98045868D01*
X138567180Y-98047166D01*
X138540823Y-98050000D01*
X138509177Y-98050000D01*
X138442138Y-98030315D01*
X138421496Y-98013682D01*
X138420995Y-98013181D01*
X138357314Y-97949500D01*
X138300250Y-97916554D01*
X138243187Y-97883608D01*
X138179539Y-97866554D01*
X138115892Y-97849500D01*
X137984108Y-97849500D01*
X137856812Y-97883608D01*
X137742686Y-97949500D01*
X137678504Y-98013682D01*
X137617180Y-98047166D01*
X137590823Y-98050000D01*
X137071233Y-98050000D01*
X137063604Y-98049500D01*
X137059309Y-98049500D01*
X137019991Y-98049500D01*
X133242990Y-98049500D01*
X133175951Y-98029815D01*
X133155309Y-98013181D01*
X130855317Y-95713189D01*
X144140001Y-95713189D01*
X144154465Y-95804517D01*
X144210552Y-95914593D01*
X144210555Y-95914598D01*
X144297901Y-96001944D01*
X144297906Y-96001948D01*
X144407984Y-96058036D01*
X144407983Y-96058036D01*
X144499304Y-96072499D01*
X144544999Y-96072499D01*
X144545000Y-96072498D01*
X144545000Y-95637500D01*
X144140001Y-95637500D01*
X144140001Y-95713189D01*
X130855317Y-95713189D01*
X130636819Y-95494691D01*
X130622115Y-95467763D01*
X130605523Y-95441945D01*
X130604631Y-95435744D01*
X130603763Y-95434154D01*
X139817321Y-95434154D01*
X139958637Y-95528578D01*
X139958639Y-95528579D01*
X140140619Y-95603957D01*
X140140631Y-95603960D01*
X140333817Y-95642387D01*
X140333821Y-95642388D01*
X140530805Y-95642388D01*
X140530808Y-95642387D01*
X140723994Y-95603960D01*
X140724006Y-95603957D01*
X140905986Y-95528579D01*
X140905987Y-95528578D01*
X140974147Y-95483036D01*
X141047303Y-95434154D01*
X140924957Y-95311808D01*
X144140000Y-95311808D01*
X144140000Y-95387500D01*
X144545000Y-95387500D01*
X144545000Y-94952500D01*
X144499311Y-94952500D01*
X144407982Y-94966965D01*
X144297906Y-95023052D01*
X144297901Y-95023055D01*
X144210555Y-95110401D01*
X144210551Y-95110406D01*
X144154463Y-95220484D01*
X144140000Y-95311808D01*
X140924957Y-95311808D01*
X140432314Y-94819164D01*
X140432313Y-94819164D01*
X139817321Y-95434154D01*
X130603763Y-95434154D01*
X130603334Y-95433368D01*
X130600500Y-95407010D01*
X130600500Y-94543892D01*
X139432313Y-94543892D01*
X139432313Y-94740883D01*
X139470740Y-94934069D01*
X139470743Y-94934081D01*
X139546120Y-95116059D01*
X139546127Y-95116071D01*
X139640546Y-95257377D01*
X140255536Y-94642388D01*
X140255536Y-94642387D01*
X140609089Y-94642387D01*
X140609089Y-94642388D01*
X141224079Y-95257378D01*
X141236997Y-95238046D01*
X141318503Y-95116063D01*
X141318504Y-95116061D01*
X141393882Y-94934081D01*
X141393885Y-94934069D01*
X141432312Y-94740883D01*
X141432313Y-94740880D01*
X141432313Y-94543896D01*
X141432312Y-94543892D01*
X141393885Y-94350706D01*
X141393882Y-94350694D01*
X141318504Y-94168714D01*
X141318503Y-94168712D01*
X141224079Y-94027396D01*
X140609089Y-94642387D01*
X140255536Y-94642387D01*
X139640546Y-94027397D01*
X139546122Y-94168712D01*
X139470743Y-94350694D01*
X139470740Y-94350706D01*
X139432313Y-94543892D01*
X130600500Y-94543892D01*
X130600500Y-94524500D01*
X130620185Y-94457461D01*
X130672989Y-94411706D01*
X130724500Y-94400500D01*
X133230513Y-94400500D01*
X133230514Y-94400500D01*
X133336107Y-94366191D01*
X133425930Y-94300930D01*
X133491191Y-94211107D01*
X133525500Y-94105514D01*
X133525500Y-93994486D01*
X133516209Y-93965892D01*
X133506221Y-93935150D01*
X133494962Y-93900500D01*
X133491191Y-93888893D01*
X133463385Y-93850621D01*
X139817322Y-93850621D01*
X140432313Y-94465611D01*
X140432314Y-94465611D01*
X141047302Y-93850621D01*
X141047302Y-93850620D01*
X140905996Y-93756202D01*
X140905984Y-93756195D01*
X140724006Y-93680818D01*
X140723994Y-93680815D01*
X140530808Y-93642388D01*
X140333817Y-93642388D01*
X140140631Y-93680815D01*
X140140619Y-93680818D01*
X139958637Y-93756197D01*
X139817322Y-93850621D01*
X133463385Y-93850621D01*
X133462552Y-93849475D01*
X133425930Y-93799069D01*
X133336108Y-93733810D01*
X133336107Y-93733809D01*
X133264824Y-93710647D01*
X133230515Y-93699500D01*
X133230514Y-93699500D01*
X133194991Y-93699500D01*
X130724500Y-93699500D01*
X130657461Y-93679815D01*
X130611706Y-93627011D01*
X130600500Y-93575500D01*
X130600500Y-92884108D01*
X133249500Y-92884108D01*
X133249500Y-93015891D01*
X133283608Y-93143187D01*
X133301704Y-93174529D01*
X133349500Y-93257314D01*
X133442686Y-93350500D01*
X133556814Y-93416392D01*
X133684108Y-93450500D01*
X133684110Y-93450500D01*
X133815890Y-93450500D01*
X133815892Y-93450500D01*
X133943186Y-93416392D01*
X134057314Y-93350500D01*
X134150500Y-93257314D01*
X134216392Y-93143186D01*
X134250500Y-93015892D01*
X134250500Y-92996543D01*
X134270185Y-92929504D01*
X134286819Y-92908862D01*
X135146914Y-92048767D01*
X139481813Y-92048767D01*
X139481813Y-92236008D01*
X139518338Y-92419631D01*
X139518340Y-92419639D01*
X139589989Y-92592616D01*
X139589994Y-92592625D01*
X139694010Y-92748295D01*
X139694013Y-92748299D01*
X139826401Y-92880687D01*
X139826405Y-92880690D01*
X139982075Y-92984706D01*
X139982081Y-92984709D01*
X139982082Y-92984710D01*
X140155062Y-93056361D01*
X140290872Y-93083375D01*
X140338692Y-93092887D01*
X140338696Y-93092888D01*
X140338697Y-93092888D01*
X140525928Y-93092888D01*
X140525929Y-93092888D01*
X140580590Y-93082014D01*
X140602091Y-93079663D01*
X140682673Y-93077928D01*
X140694355Y-93078226D01*
X140758260Y-93082886D01*
X140771564Y-93084584D01*
X140831171Y-93095494D01*
X140847112Y-93099520D01*
X140885500Y-93111976D01*
X140904408Y-93118111D01*
X140920968Y-93124839D01*
X140982066Y-93154960D01*
X140997230Y-93163823D01*
X141067062Y-93211576D01*
X141079610Y-93221397D01*
X141166000Y-93298460D01*
X141172382Y-93302340D01*
X141195639Y-93320610D01*
X141663181Y-93788152D01*
X141696666Y-93849475D01*
X141699500Y-93875833D01*
X141699500Y-93965891D01*
X141733608Y-94093187D01*
X141740726Y-94105515D01*
X141799500Y-94207314D01*
X141892686Y-94300500D01*
X142006814Y-94366392D01*
X142134108Y-94400500D01*
X142134110Y-94400500D01*
X142265890Y-94400500D01*
X142265892Y-94400500D01*
X142393186Y-94366392D01*
X142507314Y-94300500D01*
X142600500Y-94207314D01*
X142666392Y-94093186D01*
X142700500Y-93965892D01*
X142700500Y-93834108D01*
X142666392Y-93706814D01*
X142600500Y-93592686D01*
X142507314Y-93499500D01*
X142422442Y-93450499D01*
X142393187Y-93433608D01*
X142328931Y-93416391D01*
X142265892Y-93399500D01*
X142175833Y-93399500D01*
X142108794Y-93379815D01*
X142088152Y-93363181D01*
X141618299Y-92893328D01*
X141612066Y-92886617D01*
X141605393Y-92878878D01*
X141596145Y-92863694D01*
X141534493Y-92796642D01*
X141533190Y-92795131D01*
X141533005Y-92794723D01*
X141528466Y-92789304D01*
X141484880Y-92732090D01*
X141477777Y-92721715D01*
X141446598Y-92670812D01*
X141440285Y-92659147D01*
X141422199Y-92620983D01*
X141415082Y-92602149D01*
X141385460Y-92499116D01*
X141381071Y-92475259D01*
X141370130Y-92345291D01*
X141369719Y-92332440D01*
X141370178Y-92309390D01*
X141372536Y-92287665D01*
X141382813Y-92236004D01*
X141382813Y-92048771D01*
X141382812Y-92048767D01*
X141367005Y-91969301D01*
X141346286Y-91865137D01*
X141274635Y-91692157D01*
X141274634Y-91692156D01*
X141274631Y-91692150D01*
X141170615Y-91536480D01*
X141170612Y-91536476D01*
X141038224Y-91404088D01*
X141038220Y-91404085D01*
X140882550Y-91300069D01*
X140882541Y-91300064D01*
X140709564Y-91228415D01*
X140709556Y-91228413D01*
X140525933Y-91191888D01*
X140525929Y-91191888D01*
X140338697Y-91191888D01*
X140338692Y-91191888D01*
X140155069Y-91228413D01*
X140155061Y-91228415D01*
X139982084Y-91300064D01*
X139982075Y-91300069D01*
X139826405Y-91404085D01*
X139826401Y-91404088D01*
X139694013Y-91536476D01*
X139694010Y-91536480D01*
X139589994Y-91692150D01*
X139589989Y-91692159D01*
X139518340Y-91865136D01*
X139518338Y-91865144D01*
X139481813Y-92048767D01*
X135146914Y-92048767D01*
X139408862Y-87786819D01*
X139470185Y-87753334D01*
X139496543Y-87750500D01*
X144055500Y-87750500D01*
X144122539Y-87770185D01*
X144168294Y-87822989D01*
X144179500Y-87874500D01*
X144179500Y-88204316D01*
X144185931Y-88253171D01*
X144235935Y-88360404D01*
X144327267Y-88451736D01*
X144324443Y-88454559D01*
X144355183Y-88493042D01*
X144362352Y-88562542D01*
X144330808Y-88624886D01*
X144327101Y-88628098D01*
X144327267Y-88628264D01*
X144235935Y-88719595D01*
X144185931Y-88826828D01*
X144179500Y-88875683D01*
X144179500Y-89224316D01*
X144185931Y-89273171D01*
X144185932Y-89273173D01*
X144235935Y-89380404D01*
X144319596Y-89464065D01*
X144426827Y-89514068D01*
X144475683Y-89520500D01*
X144475684Y-89520500D01*
X144924317Y-89520500D01*
X144940601Y-89518356D01*
X144973173Y-89514068D01*
X145080404Y-89464065D01*
X145164065Y-89380404D01*
X145214068Y-89273173D01*
X145220500Y-89224316D01*
X145220500Y-89005833D01*
X145240185Y-88938794D01*
X145256819Y-88918152D01*
X145449152Y-88725819D01*
X145510475Y-88692334D01*
X145536833Y-88689500D01*
X145817394Y-88689500D01*
X145884433Y-88709185D01*
X145930188Y-88761989D01*
X145940132Y-88831147D01*
X145924781Y-88875500D01*
X145883609Y-88946810D01*
X145883609Y-88946811D01*
X145883608Y-88946813D01*
X145883608Y-88946814D01*
X145849500Y-89074108D01*
X145849500Y-89205892D01*
X145866598Y-89269706D01*
X145864936Y-89339554D01*
X145825774Y-89397417D01*
X145794281Y-89416357D01*
X145782475Y-89421247D01*
X145782457Y-89421256D01*
X145724179Y-89457876D01*
X145724174Y-89457880D01*
X145671250Y-89532468D01*
X145655143Y-89571355D01*
X145655140Y-89571366D01*
X145639500Y-89649996D01*
X145639500Y-89675500D01*
X145619815Y-89742539D01*
X145567011Y-89788294D01*
X145515500Y-89799500D01*
X144989102Y-89799500D01*
X144968976Y-89796627D01*
X144968892Y-89797266D01*
X144909901Y-89789500D01*
X144490105Y-89789500D01*
X144474386Y-89791569D01*
X144440513Y-89796028D01*
X144440511Y-89796029D01*
X144440509Y-89796029D01*
X144331683Y-89846776D01*
X144246776Y-89931683D01*
X144196027Y-90040514D01*
X144189500Y-90090098D01*
X144189500Y-90134166D01*
X144169815Y-90201205D01*
X144153181Y-90221847D01*
X143615489Y-90759540D01*
X143559541Y-90815487D01*
X143559535Y-90815495D01*
X143519982Y-90884004D01*
X143519979Y-90884009D01*
X143499500Y-90960439D01*
X143499500Y-91691323D01*
X143493045Y-91713304D01*
X143491120Y-91736134D01*
X143482423Y-91749478D01*
X143479815Y-91758362D01*
X143473812Y-91766893D01*
X143468890Y-91773295D01*
X143399500Y-91842686D01*
X143351062Y-91926581D01*
X143346073Y-91933073D01*
X143324179Y-91949030D01*
X143304579Y-91967719D01*
X143296369Y-91969301D01*
X143289610Y-91974228D01*
X143262566Y-91975815D01*
X143235972Y-91980941D01*
X143228208Y-91977832D01*
X143219860Y-91978323D01*
X143196252Y-91965039D01*
X143171108Y-91954972D01*
X143160080Y-91945184D01*
X141718255Y-90503359D01*
X141700545Y-90481013D01*
X141695960Y-90473616D01*
X141695956Y-90473612D01*
X141695957Y-90473612D01*
X141614518Y-90386414D01*
X141608305Y-90379229D01*
X141544672Y-90299671D01*
X141538401Y-90291103D01*
X141492005Y-90221656D01*
X141486065Y-90211804D01*
X141480327Y-90201205D01*
X141455565Y-90155462D01*
X141448087Y-90138831D01*
X141446390Y-90134166D01*
X141402640Y-90013919D01*
X141396644Y-89990598D01*
X141376149Y-89858874D01*
X141374679Y-89840753D01*
X141374313Y-89791889D01*
X141376693Y-89766768D01*
X141382813Y-89736004D01*
X141382813Y-89548771D01*
X141382812Y-89548767D01*
X141375910Y-89514068D01*
X141346286Y-89365137D01*
X141274635Y-89192157D01*
X141274634Y-89192156D01*
X141274631Y-89192150D01*
X141170615Y-89036480D01*
X141170612Y-89036476D01*
X141038224Y-88904088D01*
X141038220Y-88904085D01*
X140882550Y-88800069D01*
X140882541Y-88800064D01*
X140709564Y-88728415D01*
X140709556Y-88728413D01*
X140525933Y-88691888D01*
X140525929Y-88691888D01*
X140338697Y-88691888D01*
X140338692Y-88691888D01*
X140155069Y-88728413D01*
X140155061Y-88728415D01*
X139982084Y-88800064D01*
X139982075Y-88800069D01*
X139826405Y-88904085D01*
X139826401Y-88904088D01*
X139694013Y-89036476D01*
X139694010Y-89036480D01*
X139589994Y-89192150D01*
X139589989Y-89192159D01*
X139518340Y-89365136D01*
X139518338Y-89365144D01*
X139481813Y-89548767D01*
X139481813Y-89736008D01*
X139518338Y-89919631D01*
X139518340Y-89919639D01*
X139589989Y-90092616D01*
X139589994Y-90092625D01*
X139694010Y-90248295D01*
X139694013Y-90248299D01*
X139826401Y-90380687D01*
X139826405Y-90380690D01*
X139982075Y-90484706D01*
X139982084Y-90484711D01*
X140002598Y-90493208D01*
X140155062Y-90556361D01*
X140292169Y-90583633D01*
X140338692Y-90592887D01*
X140338696Y-90592888D01*
X140338697Y-90592888D01*
X140525927Y-90592888D01*
X140525929Y-90592888D01*
X140560480Y-90586014D01*
X140584813Y-90583633D01*
X140614959Y-90583671D01*
X140630635Y-90584688D01*
X140760974Y-90601501D01*
X140777504Y-90604789D01*
X140835304Y-90620444D01*
X140848155Y-90624690D01*
X140913875Y-90650467D01*
X140925704Y-90655838D01*
X140946097Y-90666419D01*
X140988288Y-90688314D01*
X140998488Y-90694239D01*
X141028920Y-90713910D01*
X141041461Y-90722017D01*
X141067922Y-90739121D01*
X141076652Y-90745314D01*
X141094973Y-90759540D01*
X141152078Y-90803880D01*
X141159305Y-90809947D01*
X141247261Y-90889671D01*
X141259564Y-90901794D01*
X141275452Y-90912283D01*
X141280300Y-90916239D01*
X141281567Y-90918088D01*
X141289587Y-90924633D01*
X145193756Y-94828802D01*
X145227241Y-94890125D01*
X145222257Y-94959817D01*
X145180385Y-95015750D01*
X145114921Y-95040167D01*
X145049780Y-95026968D01*
X144932015Y-94966963D01*
X144840691Y-94952500D01*
X144795000Y-94952500D01*
X144795000Y-96072499D01*
X144840689Y-96072499D01*
X144932017Y-96058034D01*
X145042093Y-96001947D01*
X145042094Y-96001947D01*
X145097319Y-95946722D01*
X145158642Y-95913237D01*
X145228334Y-95918221D01*
X145272682Y-95946722D01*
X145291684Y-95965724D01*
X145400513Y-96016472D01*
X145450099Y-96023000D01*
X145664165Y-96022999D01*
X145731205Y-96042683D01*
X145751847Y-96059318D01*
X146340540Y-96648011D01*
X146396489Y-96703960D01*
X146396491Y-96703961D01*
X146396495Y-96703964D01*
X146465004Y-96743517D01*
X146465011Y-96743521D01*
X146541438Y-96764000D01*
X146541440Y-96764000D01*
X147688559Y-96764000D01*
X147688561Y-96764000D01*
X147764988Y-96743521D01*
X147833510Y-96703960D01*
X147889459Y-96648011D01*
X148075031Y-96462439D01*
X148136354Y-96428954D01*
X148206046Y-96433938D01*
X148215117Y-96437738D01*
X148255370Y-96456508D01*
X148255375Y-96456509D01*
X148274998Y-96459093D01*
X148275000Y-96459092D01*
X148275000Y-96459091D01*
X148525000Y-96459091D01*
X148525001Y-96459091D01*
X148544626Y-96456509D01*
X148544629Y-96456508D01*
X148644508Y-96409933D01*
X148722433Y-96332008D01*
X148769009Y-96232126D01*
X148775000Y-96186622D01*
X148775000Y-95950000D01*
X148525000Y-95950000D01*
X148525000Y-96459091D01*
X148275000Y-96459091D01*
X148275000Y-95950000D01*
X148261818Y-95936818D01*
X148228333Y-95875495D01*
X148225499Y-95849141D01*
X148225499Y-95800860D01*
X148245184Y-95733823D01*
X148261819Y-95713180D01*
X148274999Y-95700000D01*
X148525000Y-95700000D01*
X148774999Y-95700000D01*
X148774999Y-95463385D01*
X148769007Y-95417869D01*
X148722432Y-95317990D01*
X148644509Y-95240067D01*
X148544629Y-95193491D01*
X148525000Y-95190906D01*
X148525000Y-95700000D01*
X148274999Y-95700000D01*
X148275000Y-95699999D01*
X148275000Y-95190906D01*
X148274999Y-95190906D01*
X148255375Y-95193490D01*
X148255370Y-95193491D01*
X148146924Y-95244061D01*
X148077846Y-95254553D01*
X148070327Y-95253296D01*
X147988403Y-95237000D01*
X147811601Y-95237000D01*
X147729670Y-95253297D01*
X147660078Y-95247068D01*
X147653075Y-95244061D01*
X147544630Y-95193491D01*
X147525000Y-95190906D01*
X147525000Y-95701000D01*
X147522449Y-95709685D01*
X147523738Y-95718647D01*
X147512759Y-95742687D01*
X147505315Y-95768039D01*
X147498474Y-95773966D01*
X147494713Y-95782203D01*
X147472478Y-95796492D01*
X147452511Y-95813794D01*
X147441996Y-95816081D01*
X147435935Y-95819977D01*
X147401000Y-95825000D01*
X147399000Y-95825000D01*
X147331961Y-95805315D01*
X147286206Y-95752511D01*
X147275000Y-95701000D01*
X147275000Y-95190907D01*
X147274998Y-95190906D01*
X147255375Y-95193490D01*
X147255370Y-95193491D01*
X147146924Y-95244061D01*
X147077846Y-95254553D01*
X147070327Y-95253296D01*
X146988403Y-95237000D01*
X146811601Y-95237000D01*
X146805540Y-95237598D01*
X146805348Y-95235655D01*
X146744722Y-95230206D01*
X146702486Y-95202515D01*
X146122012Y-94622041D01*
X146122004Y-94622035D01*
X146053495Y-94582482D01*
X146053490Y-94582479D01*
X146028013Y-94575652D01*
X145977062Y-94562000D01*
X145977060Y-94562000D01*
X145828258Y-94562000D01*
X145798817Y-94553355D01*
X145768831Y-94546832D01*
X145763815Y-94543077D01*
X145761219Y-94542315D01*
X145740577Y-94525681D01*
X145627077Y-94412181D01*
X145593592Y-94350858D01*
X145598576Y-94281166D01*
X145640448Y-94225233D01*
X145705912Y-94200816D01*
X145714758Y-94200500D01*
X146462711Y-94200500D01*
X146529750Y-94220185D01*
X146575505Y-94272989D01*
X146584328Y-94300307D01*
X146584452Y-94300930D01*
X146589760Y-94327618D01*
X146589761Y-94327620D01*
X146624668Y-94379861D01*
X146647888Y-94414612D01*
X146734883Y-94472740D01*
X146734886Y-94472740D01*
X146734887Y-94472741D01*
X146773241Y-94480370D01*
X146811599Y-94488000D01*
X146988400Y-94487999D01*
X147065117Y-94472740D01*
X147081107Y-94462055D01*
X147147783Y-94441176D01*
X147215164Y-94459659D01*
X147218871Y-94462041D01*
X147224214Y-94465611D01*
X147234883Y-94472740D01*
X147234887Y-94472741D01*
X147273241Y-94480370D01*
X147311599Y-94488000D01*
X147488400Y-94487999D01*
X147565117Y-94472740D01*
X147581107Y-94462055D01*
X147647783Y-94441176D01*
X147715164Y-94459659D01*
X147718871Y-94462041D01*
X147724214Y-94465611D01*
X147734883Y-94472740D01*
X147734887Y-94472741D01*
X147773241Y-94480370D01*
X147811599Y-94488000D01*
X147988400Y-94487999D01*
X148065117Y-94472740D01*
X148081107Y-94462055D01*
X148147783Y-94441176D01*
X148215164Y-94459659D01*
X148218871Y-94462041D01*
X148224214Y-94465611D01*
X148234883Y-94472740D01*
X148234887Y-94472741D01*
X148273241Y-94480370D01*
X148311599Y-94488000D01*
X148488400Y-94487999D01*
X148565117Y-94472740D01*
X148652112Y-94414612D01*
X148710240Y-94327617D01*
X148725500Y-94250901D01*
X148725499Y-93549100D01*
X148710240Y-93472383D01*
X148710239Y-93472381D01*
X148710238Y-93472379D01*
X148672827Y-93416391D01*
X148652112Y-93385388D01*
X148565117Y-93327260D01*
X148565115Y-93327259D01*
X148565112Y-93327258D01*
X148488404Y-93312000D01*
X148324500Y-93312000D01*
X148257461Y-93292315D01*
X148211706Y-93239511D01*
X148200500Y-93188000D01*
X148200500Y-92752897D01*
X148209144Y-92723456D01*
X148215668Y-92693470D01*
X148219422Y-92688454D01*
X148220185Y-92685858D01*
X148236819Y-92665216D01*
X148312664Y-92589371D01*
X148373987Y-92555886D01*
X148424535Y-92555435D01*
X148450000Y-92560500D01*
X148550001Y-92560500D01*
X148550001Y-92560499D01*
X148628641Y-92544858D01*
X148667532Y-92528749D01*
X148725826Y-92492120D01*
X148778749Y-92417532D01*
X148794858Y-92378641D01*
X148810500Y-92300000D01*
X148810500Y-91734500D01*
X148830185Y-91667461D01*
X148882989Y-91621706D01*
X148934500Y-91610500D01*
X149500001Y-91610500D01*
X149500001Y-91610499D01*
X149578641Y-91594858D01*
X149617532Y-91578749D01*
X149675826Y-91542120D01*
X149728749Y-91467532D01*
X149744858Y-91428641D01*
X149760500Y-91350000D01*
X149760500Y-91250000D01*
X149744858Y-91171359D01*
X149734464Y-91146267D01*
X149726996Y-91076799D01*
X149734467Y-91051358D01*
X149735963Y-91047744D01*
X149735966Y-91047740D01*
X149750500Y-90974674D01*
X149750500Y-90825326D01*
X149750500Y-90825323D01*
X149750499Y-90825321D01*
X149735968Y-90752267D01*
X149735966Y-90752264D01*
X149735966Y-90752260D01*
X149735963Y-90752256D01*
X149733977Y-90747461D01*
X149726504Y-90677992D01*
X149733977Y-90652539D01*
X149735962Y-90647745D01*
X149735966Y-90647740D01*
X149741044Y-90622215D01*
X149750499Y-90574678D01*
X149750500Y-90574676D01*
X149750500Y-90425323D01*
X149750499Y-90425321D01*
X149735968Y-90352267D01*
X149735966Y-90352264D01*
X149735966Y-90352260D01*
X149735963Y-90352256D01*
X149733977Y-90347461D01*
X149726504Y-90277992D01*
X149733977Y-90252539D01*
X149735962Y-90247745D01*
X149735966Y-90247740D01*
X149750500Y-90174674D01*
X149750500Y-90025326D01*
X149750500Y-90025323D01*
X149750499Y-90025321D01*
X149735967Y-89952264D01*
X149735966Y-89952263D01*
X149735966Y-89952260D01*
X149735964Y-89952257D01*
X149734467Y-89948642D01*
X149726995Y-89879173D01*
X149734465Y-89853732D01*
X149739844Y-89840746D01*
X149744858Y-89828641D01*
X149760500Y-89750000D01*
X149760500Y-89650000D01*
X149744858Y-89571359D01*
X149728749Y-89532468D01*
X149728744Y-89532461D01*
X149728743Y-89532457D01*
X149692123Y-89474179D01*
X149692120Y-89474174D01*
X149617532Y-89421251D01*
X149617531Y-89421250D01*
X149578644Y-89405143D01*
X149578642Y-89405142D01*
X149578641Y-89405142D01*
X149578638Y-89405141D01*
X149578633Y-89405140D01*
X149500003Y-89389500D01*
X149500000Y-89389500D01*
X148934500Y-89389500D01*
X148867461Y-89369815D01*
X148821706Y-89317011D01*
X148810500Y-89265500D01*
X148810500Y-88699998D01*
X148810499Y-88699996D01*
X148808886Y-88691888D01*
X148794858Y-88621359D01*
X148778749Y-88582468D01*
X148778744Y-88582461D01*
X148778743Y-88582457D01*
X148742123Y-88524179D01*
X148742120Y-88524174D01*
X148667532Y-88471251D01*
X148667531Y-88471250D01*
X148628644Y-88455143D01*
X148628642Y-88455142D01*
X148628641Y-88455142D01*
X148628638Y-88455141D01*
X148628633Y-88455140D01*
X148550003Y-88439500D01*
X148550000Y-88439500D01*
X148450000Y-88439500D01*
X148449996Y-88439500D01*
X148371366Y-88455140D01*
X148371361Y-88455141D01*
X148371359Y-88455142D01*
X148353232Y-88462650D01*
X148346265Y-88465536D01*
X148276795Y-88473002D01*
X148251365Y-88465535D01*
X148247738Y-88464032D01*
X148174677Y-88449500D01*
X148174674Y-88449500D01*
X148025326Y-88449500D01*
X148025324Y-88449500D01*
X147952259Y-88464033D01*
X147947452Y-88466025D01*
X147882344Y-88474201D01*
X147857637Y-88470646D01*
X147847740Y-88464034D01*
X147774674Y-88449500D01*
X147710636Y-88449500D01*
X147701856Y-88448237D01*
X147677819Y-88437257D01*
X147652473Y-88429815D01*
X147646542Y-88422971D01*
X147638302Y-88419207D01*
X147624016Y-88396974D01*
X147606718Y-88377011D01*
X147601038Y-88361214D01*
X147600532Y-88360426D01*
X147600532Y-88359805D01*
X147599740Y-88357604D01*
X147580021Y-88284011D01*
X147562216Y-88253171D01*
X147540464Y-88215495D01*
X147540458Y-88215487D01*
X147334512Y-88009541D01*
X147334511Y-88009540D01*
X147301425Y-87990438D01*
X147265989Y-87969979D01*
X147189562Y-87949500D01*
X147109305Y-87949500D01*
X147095019Y-87946066D01*
X147076950Y-87935684D01*
X147056961Y-87929815D01*
X147047270Y-87918631D01*
X147034437Y-87911258D01*
X147024849Y-87892755D01*
X147011206Y-87877011D01*
X147007238Y-87858771D01*
X147002290Y-87849223D01*
X147003152Y-87839989D01*
X147000000Y-87825500D01*
X147000000Y-87750000D01*
X146674000Y-87750000D01*
X146665314Y-87747449D01*
X146656353Y-87748738D01*
X146632312Y-87737759D01*
X146606961Y-87730315D01*
X146601033Y-87723474D01*
X146592797Y-87719713D01*
X146578507Y-87697478D01*
X146561206Y-87677511D01*
X146558918Y-87666996D01*
X146555023Y-87660935D01*
X146550000Y-87626000D01*
X146550000Y-87625000D01*
X146549000Y-87625000D01*
X146481961Y-87605315D01*
X146436206Y-87552511D01*
X146425000Y-87501000D01*
X146425000Y-87500000D01*
X146675000Y-87500000D01*
X146999999Y-87500000D01*
X146999999Y-87280214D01*
X146999997Y-87280191D01*
X146997091Y-87255130D01*
X146997090Y-87255126D01*
X146951788Y-87152525D01*
X146951785Y-87152520D01*
X146872479Y-87073214D01*
X146872474Y-87073211D01*
X146769876Y-87027910D01*
X146744794Y-87025000D01*
X146675000Y-87025000D01*
X146675000Y-87500000D01*
X146425000Y-87500000D01*
X146425000Y-87025000D01*
X146424999Y-87024999D01*
X146355203Y-87025000D01*
X146330130Y-87027908D01*
X146330126Y-87027909D01*
X146227519Y-87073213D01*
X146219660Y-87078597D01*
X146153227Y-87100240D01*
X146127700Y-87098346D01*
X146105797Y-87094418D01*
X146097740Y-87089034D01*
X146024674Y-87074500D01*
X145994736Y-87074500D01*
X145983880Y-87072553D01*
X145981337Y-87071283D01*
X145973680Y-87070275D01*
X145896144Y-87049500D01*
X139253856Y-87049500D01*
X139164712Y-87073386D01*
X139164711Y-87073386D01*
X139164709Y-87073387D01*
X139164706Y-87073388D01*
X139084794Y-87119526D01*
X139084785Y-87119533D01*
X133791137Y-92413181D01*
X133729814Y-92446666D01*
X133703456Y-92449500D01*
X133684108Y-92449500D01*
X133556812Y-92483608D01*
X133442686Y-92549500D01*
X133442683Y-92549502D01*
X133349502Y-92642683D01*
X133349500Y-92642686D01*
X133283608Y-92756812D01*
X133249500Y-92884108D01*
X130600500Y-92884108D01*
X130600500Y-90724500D01*
X130620185Y-90657461D01*
X130672989Y-90611706D01*
X130724500Y-90600500D01*
X133255513Y-90600500D01*
X133255514Y-90600500D01*
X133361107Y-90566191D01*
X133450930Y-90500930D01*
X133516191Y-90411107D01*
X133550500Y-90305514D01*
X133550500Y-90194486D01*
X133516191Y-90088893D01*
X133481041Y-90040514D01*
X133450930Y-89999069D01*
X133361108Y-89933810D01*
X133361107Y-89933809D01*
X133289824Y-89910647D01*
X133255515Y-89899500D01*
X133255514Y-89899500D01*
X133219991Y-89899500D01*
X130724500Y-89899500D01*
X130657461Y-89879815D01*
X130611706Y-89827011D01*
X130600500Y-89775500D01*
X130600500Y-88892990D01*
X130620185Y-88825951D01*
X130636819Y-88805309D01*
X133155309Y-86286819D01*
X133216632Y-86253334D01*
X133242990Y-86250500D01*
X147657010Y-86250500D01*
X147724049Y-86270185D01*
G37*
%TD.AperFunction*%
%TD*%
%TA.AperFunction,Conductor*%
%TO.N,+5V*%
G36*
X141156749Y-89670427D02*
G01*
X141164879Y-89674179D01*
X141167985Y-89682030D01*
X141169368Y-89866527D01*
X141198531Y-90053962D01*
X141198532Y-90053963D01*
X141263282Y-90231929D01*
X141263284Y-90231932D01*
X141263285Y-90231935D01*
X141279734Y-90262320D01*
X141312633Y-90323094D01*
X141375362Y-90416990D01*
X141375364Y-90416994D01*
X141375369Y-90417001D01*
X141375371Y-90417003D01*
X141395327Y-90441953D01*
X141455717Y-90517457D01*
X141455720Y-90517460D01*
X141545775Y-90613883D01*
X141548917Y-90622268D01*
X141545497Y-90630142D01*
X141420284Y-90755355D01*
X141412011Y-90758782D01*
X141403799Y-90755416D01*
X141388442Y-90740284D01*
X141388437Y-90740279D01*
X141288019Y-90649259D01*
X141191446Y-90574273D01*
X141191430Y-90574262D01*
X141096875Y-90513142D01*
X141096867Y-90513137D01*
X141054549Y-90491178D01*
X141005009Y-90465471D01*
X141005006Y-90465469D01*
X141005003Y-90465468D01*
X140906424Y-90426803D01*
X140906416Y-90426800D01*
X140809541Y-90400563D01*
X140695587Y-90385865D01*
X140636164Y-90378200D01*
X140636160Y-90378199D01*
X140636149Y-90378199D01*
X140472026Y-90377991D01*
X140463757Y-90374554D01*
X140460350Y-90366754D01*
X140447950Y-90053959D01*
X140432107Y-89654334D01*
X140435204Y-89645934D01*
X140443335Y-89642182D01*
X140444244Y-89642182D01*
X141156749Y-89670427D01*
G37*
%TD.AperFunction*%
%TD*%
%TA.AperFunction,Conductor*%
%TO.N,/UPDI*%
G36*
X141156208Y-92166403D02*
G01*
X141164357Y-92170109D01*
X141167500Y-92178494D01*
X141167500Y-92178496D01*
X141166888Y-92196292D01*
X141163920Y-92345482D01*
X141163920Y-92345486D01*
X141179013Y-92524775D01*
X141224998Y-92684721D01*
X141225000Y-92684725D01*
X141262137Y-92763095D01*
X141311274Y-92843316D01*
X141311283Y-92843329D01*
X141374231Y-92925957D01*
X141374234Y-92925961D01*
X141444871Y-93002785D01*
X141447948Y-93011195D01*
X141444531Y-93018977D01*
X141318858Y-93144650D01*
X141310585Y-93148077D01*
X141302797Y-93145108D01*
X141200580Y-93053926D01*
X141200581Y-93053926D01*
X141200578Y-93053924D01*
X141093917Y-92980986D01*
X141093918Y-92980986D01*
X141093913Y-92980983D01*
X140990487Y-92929994D01*
X140889710Y-92897295D01*
X140791006Y-92879229D01*
X140693801Y-92872142D01*
X140501625Y-92876282D01*
X140501608Y-92876282D01*
X140501597Y-92876283D01*
X140486465Y-92876981D01*
X140476585Y-92877437D01*
X140468163Y-92874394D01*
X140464358Y-92866289D01*
X140432177Y-92154330D01*
X140435227Y-92145914D01*
X140443337Y-92142117D01*
X140444242Y-92142112D01*
X141156208Y-92166403D01*
G37*
%TD.AperFunction*%
%TD*%
M02*
