%TF.GenerationSoftware,KiCad,Pcbnew,9.0.5*%
%TF.CreationDate,2026-04-28T23:29:31-04:00*%
%TF.ProjectId,lightwear_bracelet_12x15_bat,6c696768-7477-4656-9172-5f6272616365,rev?*%
%TF.SameCoordinates,Original*%
%TF.FileFunction,Legend,Bot*%
%TF.FilePolarity,Positive*%
%FSLAX46Y46*%
G04 Gerber Fmt 4.6, Leading zero omitted, Abs format (unit mm)*
G04 Created by KiCad (PCBNEW 9.0.5) date 2026-04-28 23:29:31*
%MOMM*%
%LPD*%
G01*
G04 APERTURE LIST*
%ADD10C,0.150000*%
%ADD11C,0.120000*%
G04 APERTURE END LIST*
D10*
X137962368Y-94280005D02*
X138038558Y-94241910D01*
X138038558Y-94241910D02*
X138152844Y-94241910D01*
X138152844Y-94241910D02*
X138267130Y-94280005D01*
X138267130Y-94280005D02*
X138343320Y-94356195D01*
X138343320Y-94356195D02*
X138381415Y-94432386D01*
X138381415Y-94432386D02*
X138419511Y-94584767D01*
X138419511Y-94584767D02*
X138419511Y-94699053D01*
X138419511Y-94699053D02*
X138381415Y-94851434D01*
X138381415Y-94851434D02*
X138343320Y-94927624D01*
X138343320Y-94927624D02*
X138267130Y-95003815D01*
X138267130Y-95003815D02*
X138152844Y-95041910D01*
X138152844Y-95041910D02*
X138076653Y-95041910D01*
X138076653Y-95041910D02*
X137962368Y-95003815D01*
X137962368Y-95003815D02*
X137924272Y-94965719D01*
X137924272Y-94965719D02*
X137924272Y-94699053D01*
X137924272Y-94699053D02*
X138076653Y-94699053D01*
X137581415Y-95041910D02*
X137581415Y-94241910D01*
X137581415Y-94241910D02*
X137124272Y-95041910D01*
X137124272Y-95041910D02*
X137124272Y-94241910D01*
X136743320Y-95041910D02*
X136743320Y-94241910D01*
X136743320Y-94241910D02*
X136552844Y-94241910D01*
X136552844Y-94241910D02*
X136438558Y-94280005D01*
X136438558Y-94280005D02*
X136362368Y-94356195D01*
X136362368Y-94356195D02*
X136324273Y-94432386D01*
X136324273Y-94432386D02*
X136286177Y-94584767D01*
X136286177Y-94584767D02*
X136286177Y-94699053D01*
X136286177Y-94699053D02*
X136324273Y-94851434D01*
X136324273Y-94851434D02*
X136362368Y-94927624D01*
X136362368Y-94927624D02*
X136438558Y-95003815D01*
X136438558Y-95003815D02*
X136552844Y-95041910D01*
X136552844Y-95041910D02*
X136743320Y-95041910D01*
X138000463Y-89241910D02*
X138381415Y-89241910D01*
X138381415Y-89241910D02*
X138419511Y-89622862D01*
X138419511Y-89622862D02*
X138381415Y-89584767D01*
X138381415Y-89584767D02*
X138305225Y-89546672D01*
X138305225Y-89546672D02*
X138114749Y-89546672D01*
X138114749Y-89546672D02*
X138038558Y-89584767D01*
X138038558Y-89584767D02*
X138000463Y-89622862D01*
X138000463Y-89622862D02*
X137962368Y-89699053D01*
X137962368Y-89699053D02*
X137962368Y-89889529D01*
X137962368Y-89889529D02*
X138000463Y-89965719D01*
X138000463Y-89965719D02*
X138038558Y-90003815D01*
X138038558Y-90003815D02*
X138114749Y-90041910D01*
X138114749Y-90041910D02*
X138305225Y-90041910D01*
X138305225Y-90041910D02*
X138381415Y-90003815D01*
X138381415Y-90003815D02*
X138419511Y-89965719D01*
X137695701Y-89508576D02*
X137505225Y-90041910D01*
X137505225Y-90041910D02*
X137314748Y-89508576D01*
X138381415Y-91741910D02*
X138381415Y-92389529D01*
X138381415Y-92389529D02*
X138343320Y-92465719D01*
X138343320Y-92465719D02*
X138305225Y-92503815D01*
X138305225Y-92503815D02*
X138229034Y-92541910D01*
X138229034Y-92541910D02*
X138076653Y-92541910D01*
X138076653Y-92541910D02*
X138000463Y-92503815D01*
X138000463Y-92503815D02*
X137962368Y-92465719D01*
X137962368Y-92465719D02*
X137924272Y-92389529D01*
X137924272Y-92389529D02*
X137924272Y-91741910D01*
X137543320Y-92541910D02*
X137543320Y-91741910D01*
X137543320Y-91741910D02*
X137238558Y-91741910D01*
X137238558Y-91741910D02*
X137162368Y-91780005D01*
X137162368Y-91780005D02*
X137124273Y-91818100D01*
X137124273Y-91818100D02*
X137086177Y-91894291D01*
X137086177Y-91894291D02*
X137086177Y-92008576D01*
X137086177Y-92008576D02*
X137124273Y-92084767D01*
X137124273Y-92084767D02*
X137162368Y-92122862D01*
X137162368Y-92122862D02*
X137238558Y-92160957D01*
X137238558Y-92160957D02*
X137543320Y-92160957D01*
X136743320Y-92541910D02*
X136743320Y-91741910D01*
X136743320Y-91741910D02*
X136552844Y-91741910D01*
X136552844Y-91741910D02*
X136438558Y-91780005D01*
X136438558Y-91780005D02*
X136362368Y-91856195D01*
X136362368Y-91856195D02*
X136324273Y-91932386D01*
X136324273Y-91932386D02*
X136286177Y-92084767D01*
X136286177Y-92084767D02*
X136286177Y-92199053D01*
X136286177Y-92199053D02*
X136324273Y-92351434D01*
X136324273Y-92351434D02*
X136362368Y-92427624D01*
X136362368Y-92427624D02*
X136438558Y-92503815D01*
X136438558Y-92503815D02*
X136552844Y-92541910D01*
X136552844Y-92541910D02*
X136743320Y-92541910D01*
X135943320Y-92541910D02*
X135943320Y-91741910D01*
D11*
%TO.C,R3*%
X144320000Y-88693641D02*
X144320000Y-88386359D01*
X145080000Y-88693641D02*
X145080000Y-88386359D01*
%TO.C,TP4*%
X143893627Y-99987368D02*
G75*
G02*
X141993627Y-99987368I-950000J0D01*
G01*
X141993627Y-99987368D02*
G75*
G02*
X143893627Y-99987368I950000J0D01*
G01*
%TO.C,R2*%
X145042164Y-95152500D02*
X145257836Y-95152500D01*
X145042164Y-95872500D02*
X145257836Y-95872500D01*
%TO.C,Q1*%
X145390000Y-88235000D02*
X146550000Y-88235000D01*
X145390000Y-87015000D02*
X145390000Y-88235000D01*
X146550000Y-87015000D02*
X145390000Y-87015000D01*
%TO.C,TP5*%
X141393627Y-99987368D02*
G75*
G02*
X139493627Y-99987368I-950000J0D01*
G01*
X139493627Y-99987368D02*
G75*
G02*
X141393627Y-99987368I950000J0D01*
G01*
%TO.C,TP3*%
X141382313Y-94642388D02*
G75*
G02*
X139482313Y-94642388I-950000J0D01*
G01*
X139482313Y-94642388D02*
G75*
G02*
X141382313Y-94642388I950000J0D01*
G01*
%TO.C,TP2*%
X141382313Y-92142388D02*
G75*
G02*
X139482313Y-92142388I-950000J0D01*
G01*
X139482313Y-92142388D02*
G75*
G02*
X141382313Y-92142388I950000J0D01*
G01*
%TO.C,C1*%
X144340000Y-90642164D02*
X144340000Y-90857836D01*
X145060000Y-90642164D02*
X145060000Y-90857836D01*
%TO.C,TP1*%
X141382313Y-89642388D02*
G75*
G02*
X139482313Y-89642388I-950000J0D01*
G01*
X139482313Y-89642388D02*
G75*
G02*
X141382313Y-89642388I950000J0D01*
G01*
%TO.C,U1*%
X146090000Y-88890000D02*
X146090000Y-89340000D01*
X146090000Y-91660000D02*
X146090000Y-92110000D01*
X146090000Y-92110000D02*
X146540000Y-92110000D01*
X146540000Y-88890000D02*
X146090000Y-88890000D01*
X148860000Y-92110000D02*
X149310000Y-92110000D01*
X149310000Y-88890000D02*
X148860000Y-88890000D01*
X149310000Y-89340000D02*
X149310000Y-88890000D01*
X149310000Y-92110000D02*
X149310000Y-91660000D01*
X145580000Y-91300000D02*
X145250000Y-91540000D01*
X145250000Y-91060000D01*
X145580000Y-91300000D01*
G36*
X145580000Y-91300000D02*
G01*
X145250000Y-91540000D01*
X145250000Y-91060000D01*
X145580000Y-91300000D01*
G37*
%TO.C,U2*%
X146515000Y-93752500D02*
X146515000Y-95972500D01*
X148785000Y-95558068D02*
X148785000Y-93752500D01*
X148980000Y-95992500D02*
X148790000Y-95852500D01*
X148980000Y-95712500D01*
X148980000Y-95992500D01*
G36*
X148980000Y-95992500D02*
G01*
X148790000Y-95852500D01*
X148980000Y-95712500D01*
X148980000Y-95992500D01*
G37*
%TO.C,TP6*%
X138893627Y-99987368D02*
G75*
G02*
X136993627Y-99987368I-950000J0D01*
G01*
X136993627Y-99987368D02*
G75*
G02*
X138893627Y-99987368I950000J0D01*
G01*
%TD*%
M02*
