%TF.GenerationSoftware,KiCad,Pcbnew,9.0.5*%
%TF.CreationDate,2026-06-10T19:13:21-04:00*%
%TF.ProjectId,lightwear_bracelet_20x15_audio_reactive,6c696768-7477-4656-9172-5f6272616365,rev?*%
%TF.SameCoordinates,Original*%
%TF.FileFunction,Paste,Bot*%
%TF.FilePolarity,Positive*%
%FSLAX46Y46*%
G04 Gerber Fmt 4.6, Leading zero omitted, Abs format (unit mm)*
G04 Created by KiCad (PCBNEW 9.0.5) date 2026-06-10 19:13:21*
%MOMM*%
%LPD*%
G01*
G04 APERTURE LIST*
G04 Aperture macros list*
%AMRoundRect*
0 Rectangle with rounded corners*
0 $1 Rounding radius*
0 $2 $3 $4 $5 $6 $7 $8 $9 X,Y pos of 4 corners*
0 Add a 4 corners polygon primitive as box body*
4,1,4,$2,$3,$4,$5,$6,$7,$8,$9,$2,$3,0*
0 Add four circle primitives for the rounded corners*
1,1,$1+$1,$2,$3*
1,1,$1+$1,$4,$5*
1,1,$1+$1,$6,$7*
1,1,$1+$1,$8,$9*
0 Add four rect primitives between the rounded corners*
20,1,$1+$1,$2,$3,$4,$5,0*
20,1,$1+$1,$4,$5,$6,$7,0*
20,1,$1+$1,$6,$7,$8,$9,0*
20,1,$1+$1,$8,$9,$2,$3,0*%
%AMRotRect*
0 Rectangle, with rotation*
0 The origin of the aperture is its center*
0 $1 length*
0 $2 width*
0 $3 Rotation angle, in degrees counterclockwise*
0 Add horizontal line*
21,1,$1,$2,0,0,$3*%
%AMFreePoly0*
4,1,14,0.385355,0.085355,0.400000,0.050000,0.400000,0.000711,0.385355,-0.034644,0.334644,-0.085355,0.299289,-0.100000,-0.350000,-0.100000,-0.385355,-0.085355,-0.400000,-0.050000,-0.400000,0.050000,-0.385355,0.085355,-0.350000,0.100000,0.350000,0.100000,0.385355,0.085355,0.385355,0.085355,$1*%
%AMFreePoly1*
4,1,14,0.334644,0.085355,0.385355,0.034644,0.400000,-0.000711,0.400000,-0.050000,0.385355,-0.085355,0.350000,-0.100000,-0.350000,-0.100000,-0.385355,-0.085355,-0.400000,-0.050000,-0.400000,0.050000,-0.385355,0.085355,-0.350000,0.100000,0.299289,0.100000,0.334644,0.085355,0.334644,0.085355,$1*%
%AMFreePoly2*
4,1,14,0.085355,0.385355,0.100000,0.350000,0.100000,-0.350000,0.085355,-0.385355,0.050000,-0.400000,0.000711,-0.400000,-0.034644,-0.385355,-0.085355,-0.334644,-0.100000,-0.299289,-0.100000,0.350000,-0.085355,0.385355,-0.050000,0.400000,0.050000,0.400000,0.085355,0.385355,0.085355,0.385355,$1*%
%AMFreePoly3*
4,1,14,0.085355,0.385355,0.100000,0.350000,0.100000,-0.299289,0.085355,-0.334644,0.034644,-0.385355,-0.000711,-0.400000,-0.050000,-0.400000,-0.085355,-0.385355,-0.100000,-0.350000,-0.100000,0.350000,-0.085355,0.385355,-0.050000,0.400000,0.050000,0.400000,0.085355,0.385355,0.085355,0.385355,$1*%
%AMFreePoly4*
4,1,14,0.385355,0.085355,0.400000,0.050000,0.400000,-0.050000,0.385355,-0.085355,0.350000,-0.100000,-0.350000,-0.100000,-0.385355,-0.085355,-0.400000,-0.050000,-0.400000,-0.000711,-0.385355,0.034644,-0.334644,0.085355,-0.299289,0.100000,0.350000,0.100000,0.385355,0.085355,0.385355,0.085355,$1*%
%AMFreePoly5*
4,1,14,0.385355,0.085355,0.400000,0.050000,0.400000,-0.050000,0.385355,-0.085355,0.350000,-0.100000,-0.299289,-0.100000,-0.334644,-0.085355,-0.385355,-0.034644,-0.400000,0.000711,-0.400000,0.050000,-0.385355,0.085355,-0.350000,0.100000,0.350000,0.100000,0.385355,0.085355,0.385355,0.085355,$1*%
%AMFreePoly6*
4,1,14,0.034644,0.385355,0.085355,0.334644,0.100000,0.299289,0.100000,-0.350000,0.085355,-0.385355,0.050000,-0.400000,-0.050000,-0.400000,-0.085355,-0.385355,-0.100000,-0.350000,-0.100000,0.350000,-0.085355,0.385355,-0.050000,0.400000,-0.000711,0.400000,0.034644,0.385355,0.034644,0.385355,$1*%
%AMFreePoly7*
4,1,14,0.085355,0.385355,0.100000,0.350000,0.100000,-0.350000,0.085355,-0.385355,0.050000,-0.400000,-0.050000,-0.400000,-0.085355,-0.385355,-0.100000,-0.350000,-0.100000,0.299289,-0.085355,0.334644,-0.034644,0.385355,0.000711,0.400000,0.050000,0.400000,0.085355,0.385355,0.085355,0.385355,$1*%
G04 Aperture macros list end*
%ADD10C,0.300000*%
%ADD11RoundRect,0.150000X0.587500X0.150000X-0.587500X0.150000X-0.587500X-0.150000X0.587500X-0.150000X0*%
%ADD12RoundRect,0.172500X0.172500X0.172500X-0.172500X0.172500X-0.172500X-0.172500X0.172500X-0.172500X0*%
%ADD13FreePoly0,180.000000*%
%ADD14RoundRect,0.050000X0.350000X0.050000X-0.350000X0.050000X-0.350000X-0.050000X0.350000X-0.050000X0*%
%ADD15FreePoly1,180.000000*%
%ADD16FreePoly2,180.000000*%
%ADD17RoundRect,0.050000X0.050000X0.350000X-0.050000X0.350000X-0.050000X-0.350000X0.050000X-0.350000X0*%
%ADD18FreePoly3,180.000000*%
%ADD19FreePoly4,180.000000*%
%ADD20FreePoly5,180.000000*%
%ADD21FreePoly6,180.000000*%
%ADD22FreePoly7,180.000000*%
%ADD23RoundRect,0.150000X-0.150000X0.512500X-0.150000X-0.512500X0.150000X-0.512500X0.150000X0.512500X0*%
%ADD24RoundRect,0.140000X0.170000X-0.140000X0.170000X0.140000X-0.170000X0.140000X-0.170000X-0.140000X0*%
%ADD25RoundRect,0.150000X0.150000X-0.587500X0.150000X0.587500X-0.150000X0.587500X-0.150000X-0.587500X0*%
%ADD26RoundRect,0.140000X-0.140000X-0.170000X0.140000X-0.170000X0.140000X0.170000X-0.140000X0.170000X0*%
%ADD27RoundRect,0.135000X-0.185000X0.135000X-0.185000X-0.135000X0.185000X-0.135000X0.185000X0.135000X0*%
%ADD28RoundRect,0.135000X0.185000X-0.135000X0.185000X0.135000X-0.185000X0.135000X-0.185000X-0.135000X0*%
%ADD29RotRect,0.700000X0.600000X135.000000*%
G04 APERTURE END LIST*
D10*
%TO.C,MK1*%
X145281105Y-87385306D02*
G75*
G02*
X145277746Y-86923726I618895J235306D01*
G01*
X145665177Y-86530922D02*
G75*
G02*
X146126274Y-86527746I234823J-619073D01*
G01*
X146135305Y-87768895D02*
G75*
G02*
X145673726Y-87772254I-235305J618909D01*
G01*
X146518895Y-86914695D02*
G75*
G02*
X146522254Y-87376274I-618885J-235305D01*
G01*
%TD*%
D11*
%TO.C,Q1*%
X149562500Y-94350000D03*
X151437500Y-93400000D03*
X151437500Y-95300000D03*
%TD*%
D12*
%TO.C,U1*%
X163700000Y-90600000D03*
X163700000Y-89750000D03*
X162850000Y-90600000D03*
X162850000Y-89750000D03*
D13*
X164725000Y-89375000D03*
D14*
X164725000Y-89775000D03*
X164725000Y-90175000D03*
X164725000Y-90575000D03*
D15*
X164725000Y-90975000D03*
D16*
X164075000Y-91625000D03*
D17*
X163675000Y-91625000D03*
X163275000Y-91625000D03*
X162875000Y-91625000D03*
D18*
X162475000Y-91625000D03*
D19*
X161825000Y-90975000D03*
D14*
X161825000Y-90575000D03*
X161825000Y-90175000D03*
X161825000Y-89775000D03*
D20*
X161825000Y-89375000D03*
D21*
X162475000Y-88725000D03*
D17*
X162875000Y-88725000D03*
X163275000Y-88725000D03*
X163675000Y-88725000D03*
D22*
X164075000Y-88725000D03*
%TD*%
D23*
%TO.C,U2*%
X160250000Y-93400000D03*
X161200000Y-93400000D03*
X162150000Y-93400000D03*
X162150000Y-95675000D03*
X160250000Y-95675000D03*
%TD*%
D24*
%TO.C,C2*%
X149000000Y-90810000D03*
X149000000Y-89850000D03*
%TD*%
D25*
%TO.C,D2*%
X149100000Y-88175000D03*
X151000000Y-88175000D03*
X150050000Y-86300000D03*
%TD*%
D26*
%TO.C,C1*%
X166225000Y-90575000D03*
X167185000Y-90575000D03*
%TD*%
D27*
%TO.C,R3*%
X163675000Y-93125000D03*
X163675000Y-94145000D03*
%TD*%
D28*
%TO.C,R2*%
X158725000Y-95637500D03*
X158725000Y-94617500D03*
%TD*%
D27*
%TO.C,R1*%
X150176396Y-89848171D03*
X150176396Y-90868171D03*
%TD*%
D29*
%TO.C,MK1*%
X146550538Y-85792355D03*
X147222289Y-86464107D03*
%TD*%
M02*
