%TF.GenerationSoftware,KiCad,Pcbnew,9.0.5*%
%TF.CreationDate,2026-06-10T19:13:21-04:00*%
%TF.ProjectId,lightwear_bracelet_20x15_audio_reactive,6c696768-7477-4656-9172-5f6272616365,rev?*%
%TF.SameCoordinates,Original*%
%TF.FileFunction,Legend,Top*%
%TF.FilePolarity,Positive*%
%FSLAX46Y46*%
G04 Gerber Fmt 4.6, Leading zero omitted, Abs format (unit mm)*
G04 Created by KiCad (PCBNEW 9.0.5) date 2026-06-10 19:13:21*
%MOMM*%
%LPD*%
G01*
G04 APERTURE LIST*
%ADD10C,0.200000*%
%ADD11C,0.100000*%
%ADD12C,0.120000*%
G04 APERTURE END LIST*
D10*
X164569673Y-95386266D02*
X165331578Y-95386266D01*
X164569673Y-86286266D02*
X165331578Y-86286266D01*
X164950625Y-86667219D02*
X164950625Y-85905314D01*
D11*
G36*
X154073133Y-89964000D02*
G01*
X154101123Y-89825123D01*
X154443845Y-89558556D01*
X154506517Y-89502576D01*
X154526410Y-89478623D01*
X154538464Y-89457782D01*
X154545661Y-89436246D01*
X154547990Y-89415186D01*
X154545188Y-89394696D01*
X154537069Y-89377429D01*
X154523321Y-89362576D01*
X154505790Y-89351908D01*
X154482794Y-89344961D01*
X154452784Y-89342401D01*
X154413474Y-89347501D01*
X154374968Y-89363113D01*
X154339724Y-89387508D01*
X154307215Y-89420803D01*
X154159351Y-89323351D01*
X154194463Y-89278753D01*
X154238499Y-89240199D01*
X154292609Y-89207433D01*
X154351493Y-89183776D01*
X154415749Y-89169284D01*
X154486392Y-89164300D01*
X154542610Y-89167613D01*
X154592541Y-89177115D01*
X154637041Y-89192339D01*
X154678548Y-89213980D01*
X154712170Y-89239549D01*
X154738939Y-89269080D01*
X154759116Y-89303075D01*
X154771235Y-89340265D01*
X154775380Y-89381578D01*
X154771174Y-89427813D01*
X154758576Y-89472339D01*
X154736953Y-89514977D01*
X154702009Y-89561390D01*
X154657318Y-89606327D01*
X154591660Y-89660503D01*
X154324019Y-89867670D01*
X154293782Y-89788145D01*
X154719351Y-89788145D01*
X154683496Y-89964000D01*
X154073133Y-89964000D01*
G37*
G36*
X155292004Y-89168550D02*
G01*
X155343311Y-89180688D01*
X155388283Y-89200154D01*
X155428687Y-89227516D01*
X155462475Y-89261641D01*
X155490181Y-89303225D01*
X155509797Y-89349358D01*
X155522186Y-89403345D01*
X155526573Y-89466721D01*
X155523043Y-89537887D01*
X155512691Y-89604739D01*
X155495750Y-89667782D01*
X155472049Y-89728473D01*
X155443288Y-89782766D01*
X155409532Y-89831278D01*
X155369921Y-89874858D01*
X155326166Y-89911102D01*
X155277934Y-89940503D01*
X155225931Y-89962104D01*
X155170202Y-89975209D01*
X155109944Y-89979680D01*
X155051108Y-89975446D01*
X154999607Y-89963334D01*
X154954263Y-89943874D01*
X154913527Y-89916457D01*
X154879740Y-89882328D01*
X154852316Y-89840803D01*
X154833026Y-89794676D01*
X154820831Y-89740668D01*
X154816510Y-89677258D01*
X154816781Y-89671690D01*
X155039406Y-89671690D01*
X155042834Y-89716775D01*
X155051702Y-89748051D01*
X155064563Y-89769143D01*
X155083052Y-89785239D01*
X155104924Y-89794892D01*
X155131242Y-89798256D01*
X155158999Y-89794618D01*
X155184111Y-89783814D01*
X155207397Y-89765235D01*
X155236514Y-89728692D01*
X155261130Y-89681752D01*
X155279688Y-89630207D01*
X155293077Y-89575360D01*
X155301196Y-89520321D01*
X155303726Y-89472339D01*
X155300290Y-89427224D01*
X155291405Y-89395953D01*
X155278520Y-89374886D01*
X155260032Y-89358786D01*
X155238175Y-89349135D01*
X155211891Y-89345772D01*
X155184101Y-89349411D01*
X155158974Y-89360217D01*
X155135687Y-89378794D01*
X155106600Y-89415291D01*
X155081953Y-89462227D01*
X155063397Y-89513779D01*
X155050006Y-89568668D01*
X155041925Y-89623706D01*
X155039406Y-89671690D01*
X154816781Y-89671690D01*
X154819975Y-89606074D01*
X154830135Y-89539235D01*
X154846748Y-89476247D01*
X154870188Y-89415571D01*
X154898944Y-89361265D01*
X154932965Y-89312702D01*
X154972932Y-89269100D01*
X155016887Y-89232875D01*
X155065150Y-89203525D01*
X155117155Y-89181896D01*
X155172883Y-89168776D01*
X155233140Y-89164300D01*
X155292004Y-89168550D01*
G37*
G36*
X155502637Y-89964000D02*
G01*
X155530628Y-89825123D01*
X155873349Y-89558556D01*
X155936022Y-89502576D01*
X155955914Y-89478623D01*
X155967969Y-89457782D01*
X155975166Y-89436246D01*
X155977494Y-89415186D01*
X155974693Y-89394696D01*
X155966573Y-89377429D01*
X155952826Y-89362576D01*
X155935294Y-89351908D01*
X155912299Y-89344961D01*
X155882288Y-89342401D01*
X155842979Y-89347501D01*
X155804473Y-89363113D01*
X155769229Y-89387508D01*
X155736720Y-89420803D01*
X155588855Y-89323351D01*
X155623968Y-89278753D01*
X155668004Y-89240199D01*
X155722114Y-89207433D01*
X155780998Y-89183776D01*
X155845254Y-89169284D01*
X155915896Y-89164300D01*
X155972114Y-89167613D01*
X156022045Y-89177115D01*
X156066545Y-89192339D01*
X156108053Y-89213980D01*
X156141675Y-89239549D01*
X156168443Y-89269080D01*
X156188620Y-89303075D01*
X156200740Y-89340265D01*
X156204884Y-89381578D01*
X156200679Y-89427813D01*
X156188080Y-89472339D01*
X156166458Y-89514977D01*
X156131514Y-89561390D01*
X156086822Y-89606327D01*
X156021165Y-89660503D01*
X155753524Y-89867670D01*
X155723286Y-89788145D01*
X156148855Y-89788145D01*
X156113000Y-89964000D01*
X155502637Y-89964000D01*
G37*
G36*
X156799454Y-89168137D02*
G01*
X156863119Y-89179443D01*
X156921982Y-89198331D01*
X156965066Y-89221452D01*
X156864242Y-89378256D01*
X156831563Y-89360156D01*
X156796489Y-89348556D01*
X156759476Y-89342294D01*
X156719797Y-89340154D01*
X156676299Y-89343090D01*
X156639099Y-89351390D01*
X156605046Y-89365127D01*
X156575840Y-89383288D01*
X156550405Y-89405938D01*
X156528799Y-89432576D01*
X156511219Y-89462267D01*
X156497438Y-89494711D01*
X156490868Y-89517050D01*
X156514983Y-89498759D01*
X156555666Y-89479617D01*
X156600339Y-89468394D01*
X156651458Y-89464474D01*
X156694179Y-89467448D01*
X156734541Y-89476233D01*
X156772993Y-89490803D01*
X156808496Y-89511142D01*
X156838945Y-89536607D01*
X156864829Y-89567545D01*
X156884027Y-89602652D01*
X156895924Y-89643290D01*
X156900097Y-89690741D01*
X156895117Y-89748430D01*
X156880794Y-89798954D01*
X156857501Y-89843637D01*
X156825896Y-89883069D01*
X156787168Y-89916377D01*
X156740460Y-89943874D01*
X156689695Y-89963420D01*
X156633463Y-89975497D01*
X156570809Y-89979680D01*
X156508157Y-89975489D01*
X156452115Y-89963404D01*
X156401695Y-89943874D01*
X156355910Y-89915963D01*
X156317691Y-89880533D01*
X156286315Y-89836896D01*
X156264029Y-89787831D01*
X156249912Y-89729663D01*
X156249849Y-89728794D01*
X156466664Y-89728794D01*
X156469651Y-89753511D01*
X156478387Y-89775297D01*
X156492741Y-89793846D01*
X156513119Y-89808905D01*
X156537721Y-89818367D01*
X156568562Y-89821752D01*
X156599553Y-89818375D01*
X156626111Y-89808659D01*
X156649211Y-89792639D01*
X156666933Y-89771283D01*
X156677823Y-89744903D01*
X156681695Y-89711990D01*
X156678506Y-89685594D01*
X156669505Y-89664354D01*
X156654780Y-89647070D01*
X156635598Y-89634395D01*
X156611758Y-89626400D01*
X156581995Y-89623525D01*
X156549818Y-89626872D01*
X156522644Y-89636421D01*
X156499523Y-89652103D01*
X156481758Y-89673351D01*
X156470530Y-89698913D01*
X156466664Y-89728794D01*
X156249849Y-89728794D01*
X156244891Y-89660503D01*
X156249145Y-89593109D01*
X156262233Y-89522750D01*
X156284593Y-89453998D01*
X156317138Y-89388319D01*
X156359505Y-89328076D01*
X156412344Y-89274111D01*
X156452555Y-89243254D01*
X156498088Y-89216538D01*
X156549511Y-89194000D01*
X156603315Y-89177918D01*
X156663858Y-89167827D01*
X156732107Y-89164300D01*
X156799454Y-89168137D01*
G37*
G36*
X156973859Y-89726547D02*
G01*
X157006343Y-89563050D01*
X157332260Y-89563050D01*
X157299776Y-89726547D01*
X156973859Y-89726547D01*
G37*
G36*
X157889966Y-89168550D02*
G01*
X157941274Y-89180688D01*
X157986245Y-89200154D01*
X158026649Y-89227516D01*
X158060437Y-89261641D01*
X158088143Y-89303225D01*
X158107759Y-89349358D01*
X158120148Y-89403345D01*
X158124535Y-89466721D01*
X158121006Y-89537887D01*
X158110653Y-89604739D01*
X158093712Y-89667782D01*
X158070011Y-89728473D01*
X158041250Y-89782766D01*
X158007494Y-89831278D01*
X157967883Y-89874858D01*
X157924129Y-89911102D01*
X157875896Y-89940503D01*
X157823893Y-89962104D01*
X157768164Y-89975209D01*
X157707906Y-89979680D01*
X157649070Y-89975446D01*
X157597569Y-89963334D01*
X157552226Y-89943874D01*
X157511489Y-89916457D01*
X157477702Y-89882328D01*
X157450279Y-89840803D01*
X157430988Y-89794676D01*
X157418793Y-89740668D01*
X157414473Y-89677258D01*
X157414744Y-89671690D01*
X157637369Y-89671690D01*
X157640797Y-89716775D01*
X157649664Y-89748051D01*
X157662526Y-89769143D01*
X157681015Y-89785239D01*
X157702887Y-89794892D01*
X157729204Y-89798256D01*
X157756962Y-89794618D01*
X157782073Y-89783814D01*
X157805359Y-89765235D01*
X157834477Y-89728692D01*
X157859092Y-89681752D01*
X157877650Y-89630207D01*
X157891039Y-89575360D01*
X157899158Y-89520321D01*
X157901688Y-89472339D01*
X157898252Y-89427224D01*
X157889367Y-89395953D01*
X157876482Y-89374886D01*
X157857995Y-89358786D01*
X157836138Y-89349135D01*
X157809853Y-89345772D01*
X157782063Y-89349411D01*
X157756936Y-89360217D01*
X157733649Y-89378794D01*
X157704562Y-89415291D01*
X157679916Y-89462227D01*
X157661359Y-89513779D01*
X157647969Y-89568668D01*
X157639887Y-89623706D01*
X157637369Y-89671690D01*
X157414744Y-89671690D01*
X157417938Y-89606074D01*
X157428097Y-89539235D01*
X157444710Y-89476247D01*
X157468150Y-89415571D01*
X157496906Y-89361265D01*
X157530928Y-89312702D01*
X157570895Y-89269100D01*
X157614849Y-89232875D01*
X157663112Y-89203525D01*
X157715118Y-89181896D01*
X157770846Y-89168776D01*
X157831102Y-89164300D01*
X157889966Y-89168550D01*
G37*
G36*
X158734639Y-89168137D02*
G01*
X158798304Y-89179443D01*
X158857167Y-89198331D01*
X158900251Y-89221452D01*
X158799427Y-89378256D01*
X158766748Y-89360156D01*
X158731674Y-89348556D01*
X158694661Y-89342294D01*
X158654982Y-89340154D01*
X158611484Y-89343090D01*
X158574284Y-89351390D01*
X158540231Y-89365127D01*
X158511025Y-89383288D01*
X158485589Y-89405938D01*
X158463984Y-89432576D01*
X158446404Y-89462267D01*
X158432623Y-89494711D01*
X158426052Y-89517050D01*
X158450168Y-89498759D01*
X158490851Y-89479617D01*
X158535524Y-89468394D01*
X158586643Y-89464474D01*
X158629364Y-89467448D01*
X158669726Y-89476233D01*
X158708178Y-89490803D01*
X158743681Y-89511142D01*
X158774129Y-89536607D01*
X158800013Y-89567545D01*
X158819212Y-89602652D01*
X158831109Y-89643290D01*
X158835282Y-89690741D01*
X158830302Y-89748430D01*
X158815979Y-89798954D01*
X158792686Y-89843637D01*
X158761081Y-89883069D01*
X158722352Y-89916377D01*
X158675645Y-89943874D01*
X158624880Y-89963420D01*
X158568648Y-89975497D01*
X158505994Y-89979680D01*
X158443342Y-89975489D01*
X158387299Y-89963404D01*
X158336880Y-89943874D01*
X158291095Y-89915963D01*
X158252876Y-89880533D01*
X158221500Y-89836896D01*
X158199214Y-89787831D01*
X158185097Y-89729663D01*
X158185034Y-89728794D01*
X158401849Y-89728794D01*
X158404835Y-89753511D01*
X158413572Y-89775297D01*
X158427926Y-89793846D01*
X158448304Y-89808905D01*
X158472906Y-89818367D01*
X158503747Y-89821752D01*
X158534738Y-89818375D01*
X158561296Y-89808659D01*
X158584396Y-89792639D01*
X158602117Y-89771283D01*
X158613008Y-89744903D01*
X158616880Y-89711990D01*
X158613690Y-89685594D01*
X158604690Y-89664354D01*
X158589965Y-89647070D01*
X158570783Y-89634395D01*
X158546943Y-89626400D01*
X158517180Y-89623525D01*
X158485003Y-89626872D01*
X158457829Y-89636421D01*
X158434708Y-89652103D01*
X158416943Y-89673351D01*
X158405715Y-89698913D01*
X158401849Y-89728794D01*
X158185034Y-89728794D01*
X158180076Y-89660503D01*
X158184330Y-89593109D01*
X158197418Y-89522750D01*
X158219778Y-89453998D01*
X158252323Y-89388319D01*
X158294690Y-89328076D01*
X158347529Y-89274111D01*
X158387740Y-89243254D01*
X158433273Y-89216538D01*
X158484696Y-89194000D01*
X158538500Y-89177918D01*
X158599043Y-89167827D01*
X158667292Y-89164300D01*
X158734639Y-89168137D01*
G37*
G36*
X158909043Y-89726547D02*
G01*
X158941528Y-89563050D01*
X159267445Y-89563050D01*
X159234961Y-89726547D01*
X158909043Y-89726547D01*
G37*
G36*
X159368220Y-89964000D02*
G01*
X159508220Y-89262876D01*
X159585498Y-89351341D01*
X159344724Y-89351341D01*
X159379406Y-89179980D01*
X159746796Y-89179980D01*
X159589993Y-89964000D01*
X159368220Y-89964000D01*
G37*
G36*
X160251111Y-89168550D02*
G01*
X160302418Y-89180688D01*
X160347390Y-89200154D01*
X160387793Y-89227516D01*
X160421581Y-89261641D01*
X160449288Y-89303225D01*
X160468904Y-89349358D01*
X160481293Y-89403345D01*
X160485680Y-89466721D01*
X160482150Y-89537887D01*
X160471797Y-89604739D01*
X160454856Y-89667782D01*
X160431156Y-89728473D01*
X160402395Y-89782766D01*
X160368639Y-89831278D01*
X160329028Y-89874858D01*
X160285273Y-89911102D01*
X160237041Y-89940503D01*
X160185037Y-89962104D01*
X160129309Y-89975209D01*
X160069050Y-89979680D01*
X160010215Y-89975446D01*
X159958713Y-89963334D01*
X159913370Y-89943874D01*
X159872634Y-89916457D01*
X159838847Y-89882328D01*
X159811423Y-89840803D01*
X159792133Y-89794676D01*
X159779937Y-89740668D01*
X159775617Y-89677258D01*
X159775888Y-89671690D01*
X159998513Y-89671690D01*
X160001941Y-89716775D01*
X160010809Y-89748051D01*
X160023670Y-89769143D01*
X160042159Y-89785239D01*
X160064031Y-89794892D01*
X160090348Y-89798256D01*
X160118106Y-89794618D01*
X160143217Y-89783814D01*
X160166503Y-89765235D01*
X160195621Y-89728692D01*
X160220237Y-89681752D01*
X160238795Y-89630207D01*
X160252184Y-89575360D01*
X160260303Y-89520321D01*
X160262833Y-89472339D01*
X160259397Y-89427224D01*
X160250512Y-89395953D01*
X160237627Y-89374886D01*
X160219139Y-89358786D01*
X160197282Y-89349135D01*
X160170997Y-89345772D01*
X160143208Y-89349411D01*
X160118080Y-89360217D01*
X160094794Y-89378794D01*
X160065707Y-89415291D01*
X160041060Y-89462227D01*
X160022504Y-89513779D01*
X160009113Y-89568668D01*
X160001032Y-89623706D01*
X159998513Y-89671690D01*
X159775888Y-89671690D01*
X159779082Y-89606074D01*
X159789241Y-89539235D01*
X159805854Y-89476247D01*
X159829294Y-89415571D01*
X159858051Y-89361265D01*
X159892072Y-89312702D01*
X159932039Y-89269100D01*
X159975994Y-89232875D01*
X160024256Y-89203525D01*
X160076262Y-89181896D01*
X160131990Y-89168776D01*
X160192247Y-89164300D01*
X160251111Y-89168550D01*
G37*
G36*
X148882930Y-87307047D02*
G01*
X148949950Y-87079150D01*
X148949993Y-87079150D01*
X149030648Y-86805452D01*
X149030477Y-86805452D01*
X149061209Y-86700910D01*
X149081426Y-86632247D01*
X149081768Y-86631136D01*
X149096984Y-86579619D01*
X149097198Y-86579619D01*
X149177938Y-86305285D01*
X148701616Y-86305285D01*
X148727945Y-86431021D01*
X148429603Y-87445246D01*
X148380721Y-87498884D01*
X148356940Y-87518195D01*
X148343904Y-87526451D01*
X148390194Y-87579158D01*
X149751585Y-87579158D01*
X149816801Y-87569198D01*
X149880346Y-87539490D01*
X149940666Y-87490610D01*
X149969100Y-87459296D01*
X149996066Y-87423695D01*
X150021361Y-87384057D01*
X150044892Y-87340478D01*
X150060528Y-87307047D01*
X148882930Y-87307047D01*
G37*
G36*
X150357375Y-86305127D02*
G01*
X150383619Y-86430704D01*
X150085319Y-87444928D01*
X150035558Y-87499003D01*
X150012657Y-87518036D01*
X149999577Y-87526292D01*
X150045867Y-87579079D01*
X150458546Y-87579079D01*
X150606393Y-87077880D01*
X150834125Y-86305127D01*
X150357375Y-86305127D01*
G37*
G36*
X151389264Y-87077960D02*
G01*
X151900593Y-87077960D01*
X151833957Y-87301570D01*
X151832504Y-87306333D01*
X151826605Y-87326098D01*
X151059164Y-87326098D01*
X151064977Y-87306333D01*
X151064934Y-87306333D01*
X151085151Y-87237511D01*
X151279459Y-86575967D01*
X152015399Y-86575967D01*
X152015399Y-86575809D01*
X152078401Y-86575809D01*
X152122885Y-86590606D01*
X152143918Y-86605265D01*
X152163794Y-86624584D01*
X152182036Y-86648083D01*
X152198682Y-86675858D01*
X152207099Y-86692972D01*
X152209749Y-86698608D01*
X152543397Y-86305127D01*
X152171666Y-86305285D01*
X151948934Y-86305285D01*
X151948934Y-86305127D01*
X151872896Y-86305127D01*
X151873024Y-86305285D01*
X150882466Y-86305285D01*
X150908753Y-86431260D01*
X150654435Y-87298792D01*
X150644654Y-87357461D01*
X150645302Y-87418170D01*
X150656393Y-87476751D01*
X150665699Y-87503362D01*
X150677211Y-87526926D01*
X150690539Y-87546593D01*
X150705637Y-87562120D01*
X150721620Y-87572587D01*
X150738895Y-87578184D01*
X150748725Y-87579000D01*
X150857419Y-87579158D01*
X150984835Y-87579317D01*
X150984835Y-87579158D01*
X151751849Y-87579158D01*
X151681623Y-87816581D01*
X152137130Y-87672111D01*
X152391576Y-86806960D01*
X151541769Y-86806960D01*
X151389264Y-87077960D01*
G37*
G36*
X153772030Y-86305127D02*
G01*
X153798317Y-86430704D01*
X153687827Y-86806325D01*
X152919232Y-86806325D01*
X153066993Y-86305047D01*
X152590243Y-86305047D01*
X152616487Y-86430625D01*
X152318187Y-87444849D01*
X152268368Y-87498918D01*
X152245525Y-87517957D01*
X152232445Y-87526133D01*
X152278736Y-87578920D01*
X152691414Y-87578920D01*
X152839175Y-87077722D01*
X153607984Y-87077722D01*
X153500017Y-87444928D01*
X153450099Y-87499147D01*
X153427355Y-87518036D01*
X153414275Y-87526292D01*
X153460566Y-87579000D01*
X153873287Y-87579000D01*
X154248823Y-86305127D01*
X153772030Y-86305127D01*
G37*
G36*
X155934544Y-86305127D02*
G01*
X154285068Y-86305127D01*
X154341489Y-86575809D01*
X154893764Y-86575809D01*
X154638079Y-87445008D01*
X154636925Y-87448897D01*
X154585544Y-87501341D01*
X154565459Y-87517957D01*
X154552380Y-87526133D01*
X154598670Y-87579000D01*
X154598713Y-87578841D01*
X154598670Y-87579000D01*
X155011349Y-87579000D01*
X155269813Y-86700751D01*
X155277378Y-86674953D01*
X155290030Y-86632009D01*
X155290415Y-86630977D01*
X155305588Y-86579381D01*
X155306657Y-86575809D01*
X155860813Y-86575809D01*
X155939716Y-86305047D01*
X155934544Y-86305127D01*
G37*
G36*
X157134540Y-86305206D02*
G01*
X157160826Y-86430704D01*
X156995840Y-86990246D01*
X156845900Y-86416892D01*
X156725067Y-86416892D01*
X156213353Y-87041287D01*
X156390478Y-86439118D01*
X156429887Y-86305206D01*
X155953907Y-86305206D01*
X155980193Y-86430704D01*
X155680525Y-87447151D01*
X155632647Y-87498837D01*
X155608547Y-87517957D01*
X155595468Y-87526213D01*
X155641758Y-87578841D01*
X155641758Y-87579000D01*
X156154668Y-87579000D01*
X156677622Y-86980800D01*
X156822306Y-87579000D01*
X157235840Y-87579000D01*
X157571112Y-86439039D01*
X157610520Y-86305047D01*
X157134540Y-86305047D01*
X157134540Y-86305206D01*
G37*
G36*
X157923908Y-87077722D02*
G01*
X158560643Y-87077722D01*
X158714901Y-86806325D01*
X158676969Y-86806435D01*
X158297991Y-86806325D01*
X158214503Y-86806363D01*
X158109496Y-86806325D01*
X158037902Y-86806368D01*
X158003879Y-86806325D01*
X158032175Y-86710435D01*
X158071883Y-86575650D01*
X158859114Y-86575650D01*
X158903984Y-86585633D01*
X158925446Y-86597989D01*
X158945866Y-86615073D01*
X158964852Y-86636545D01*
X158982354Y-86662400D01*
X158998284Y-86692813D01*
X159000934Y-86698528D01*
X159334453Y-86304333D01*
X158739264Y-86304968D01*
X158334621Y-86304968D01*
X158334621Y-86305285D01*
X158328972Y-86305271D01*
X158153777Y-86304968D01*
X157673950Y-86304968D01*
X157700365Y-86431021D01*
X157533456Y-87000883D01*
X157402834Y-87444928D01*
X157402749Y-87445087D01*
X157353936Y-87498695D01*
X157330129Y-87518036D01*
X157317093Y-87526213D01*
X157363340Y-87579000D01*
X158896471Y-87579000D01*
X159050686Y-87306889D01*
X157856247Y-87306889D01*
X157923908Y-87077722D01*
G37*
G36*
X160948604Y-86305021D02*
G01*
X160958985Y-86308347D01*
X160968387Y-86316541D01*
X160976455Y-86329187D01*
X160982818Y-86345848D01*
X160983524Y-86348371D01*
X160987296Y-86368138D01*
X160988352Y-86388684D01*
X160982604Y-86427291D01*
X160899684Y-86709086D01*
X160755727Y-87198616D01*
X160718370Y-87325701D01*
X160643870Y-87579000D01*
X160231020Y-87579000D01*
X160183661Y-87526213D01*
X160196741Y-87518036D01*
X160196892Y-87517933D01*
X160221652Y-87497543D01*
X160271070Y-87442865D01*
X160309367Y-87312604D01*
X160377926Y-87078992D01*
X159608347Y-87078992D01*
X159461313Y-87579000D01*
X159048463Y-87579000D01*
X159002173Y-87526213D01*
X159015210Y-87518036D01*
X159038991Y-87498725D01*
X159087872Y-87445087D01*
X159276020Y-86805372D01*
X159688831Y-86805372D01*
X160457983Y-86806960D01*
X160518463Y-86601448D01*
X160518549Y-86586684D01*
X160512180Y-86579381D01*
X159755382Y-86579381D01*
X159688831Y-86805372D01*
X159276020Y-86805372D01*
X159386215Y-86430704D01*
X159359885Y-86304968D01*
X160947085Y-86304968D01*
X160948604Y-86305021D01*
G37*
G36*
X162703460Y-86345927D02*
G01*
X162697115Y-86329268D01*
X162689077Y-86316641D01*
X162679697Y-86308445D01*
X162669348Y-86305104D01*
X162667770Y-86305047D01*
X161080527Y-86305047D01*
X161106857Y-86430783D01*
X160808514Y-87445008D01*
X160759558Y-87498745D01*
X160735894Y-87517957D01*
X160722815Y-87526213D01*
X160769105Y-87579000D01*
X161182083Y-87579000D01*
X161262055Y-87306809D01*
X161262012Y-87306809D01*
X161328989Y-87078992D01*
X161409559Y-86805214D01*
X161440248Y-86700751D01*
X161460465Y-86632009D01*
X161460807Y-86630977D01*
X161477049Y-86575809D01*
X162233763Y-86575809D01*
X162240088Y-86583112D01*
X162240046Y-86597797D01*
X162214315Y-86685193D01*
X162178625Y-86806801D01*
X161554713Y-86805531D01*
X161414261Y-87078992D01*
X161784112Y-87078992D01*
X162100363Y-87578841D01*
X162513042Y-87578841D01*
X162254877Y-87170357D01*
X162573394Y-86868717D01*
X162703289Y-86427370D01*
X162708975Y-86388047D01*
X162707835Y-86367450D01*
X162703951Y-86347662D01*
X162703460Y-86345927D01*
G37*
G36*
X154832592Y-88153756D02*
G01*
X154832938Y-88153426D01*
X154867341Y-88129380D01*
X154905136Y-88111574D01*
X154947032Y-88100665D01*
X154993907Y-88096896D01*
X155037142Y-88100503D01*
X155078574Y-88111263D01*
X155118764Y-88129380D01*
X155155250Y-88153994D01*
X155186870Y-88184943D01*
X155213970Y-88222876D01*
X155233658Y-88265034D01*
X155246035Y-88314379D01*
X155250411Y-88372401D01*
X155247442Y-88422659D01*
X155238774Y-88469155D01*
X155224619Y-88512401D01*
X155205090Y-88553498D01*
X155181410Y-88590534D01*
X155153496Y-88623874D01*
X155121606Y-88653321D01*
X155086802Y-88677881D01*
X155048813Y-88697782D01*
X155008530Y-88712303D01*
X154966116Y-88721084D01*
X154921123Y-88724062D01*
X154878299Y-88721365D01*
X154840056Y-88713604D01*
X154805743Y-88701103D01*
X154774699Y-88682850D01*
X154748728Y-88658797D01*
X154727399Y-88628401D01*
X154710537Y-88714000D01*
X154507815Y-88714000D01*
X154563001Y-88437370D01*
X154775505Y-88437370D01*
X154779126Y-88471236D01*
X154789309Y-88498763D01*
X154805743Y-88521341D01*
X154827769Y-88538283D01*
X154855582Y-88548885D01*
X154890886Y-88552702D01*
X154931346Y-88547267D01*
X154965917Y-88531452D01*
X154994627Y-88506278D01*
X155016866Y-88472101D01*
X155030548Y-88431885D01*
X155035380Y-88383588D01*
X155031766Y-88349714D01*
X155021575Y-88321991D01*
X155005094Y-88299080D01*
X154983023Y-88281793D01*
X154955223Y-88271008D01*
X154920000Y-88267133D01*
X154880459Y-88272652D01*
X154845505Y-88288968D01*
X154816327Y-88314619D01*
X154793970Y-88348905D01*
X154780327Y-88389077D01*
X154775505Y-88437370D01*
X154563001Y-88437370D01*
X154673607Y-87882939D01*
X154886392Y-87882939D01*
X154832592Y-88153756D01*
G37*
G36*
X155339658Y-88941341D02*
G01*
X155291827Y-88937730D01*
X155243914Y-88926784D01*
X155199682Y-88909223D01*
X155168297Y-88888731D01*
X155263503Y-88738619D01*
X155283595Y-88752720D01*
X155306050Y-88763825D01*
X155330399Y-88770912D01*
X155357585Y-88773351D01*
X155387165Y-88769293D01*
X155411318Y-88757670D01*
X155432173Y-88738660D01*
X155453914Y-88708382D01*
X155497585Y-88637845D01*
X155515512Y-88616547D01*
X155821256Y-88106958D01*
X156029595Y-88106958D01*
X155640956Y-88740866D01*
X155592224Y-88812674D01*
X155549071Y-88861815D01*
X155517718Y-88888740D01*
X155486061Y-88909051D01*
X155453866Y-88923413D01*
X155401407Y-88936656D01*
X155339658Y-88941341D01*
G37*
G36*
X155451667Y-88739743D02*
G01*
X155309420Y-88106958D01*
X155521081Y-88106958D01*
X155621905Y-88597496D01*
X155451667Y-88739743D01*
G37*
G36*
X156289030Y-88714000D02*
G01*
X156410027Y-88106958D01*
X156611625Y-88106958D01*
X156576894Y-88279443D01*
X156556720Y-88230154D01*
X156587344Y-88185323D01*
X156622672Y-88151454D01*
X156663112Y-88127133D01*
X156708131Y-88110758D01*
X156759321Y-88100493D01*
X156817718Y-88096896D01*
X156780739Y-88288382D01*
X156756071Y-88285646D01*
X156732575Y-88285060D01*
X156687321Y-88289052D01*
X156649927Y-88300258D01*
X156618855Y-88318082D01*
X156593927Y-88343191D01*
X156574159Y-88378632D01*
X156560090Y-88427258D01*
X156501863Y-88714000D01*
X156289030Y-88714000D01*
G37*
G36*
X157119455Y-88724062D02*
G01*
X157055236Y-88719998D01*
X156999081Y-88708407D01*
X156949804Y-88689917D01*
X156904557Y-88663600D01*
X156867322Y-88631608D01*
X156837208Y-88593637D01*
X156815141Y-88550582D01*
X156801603Y-88502245D01*
X156796908Y-88447433D01*
X156802204Y-88381505D01*
X156817597Y-88321983D01*
X156842826Y-88267719D01*
X156877415Y-88218888D01*
X156920079Y-88177427D01*
X156971639Y-88142813D01*
X157028541Y-88117756D01*
X157092310Y-88102274D01*
X157164298Y-88096896D01*
X157225538Y-88100928D01*
X157278296Y-88112359D01*
X157323886Y-88130503D01*
X157365439Y-88156176D01*
X157399516Y-88187225D01*
X157426908Y-88224000D01*
X157446831Y-88265330D01*
X157459063Y-88311472D01*
X157463300Y-88363462D01*
X157459930Y-88414997D01*
X157450990Y-88463113D01*
X156963775Y-88463113D01*
X156983949Y-88351103D01*
X157352414Y-88351103D01*
X157263949Y-88383588D01*
X157267677Y-88341834D01*
X157261165Y-88310266D01*
X157245467Y-88283931D01*
X157221939Y-88264348D01*
X157192314Y-88252396D01*
X157154187Y-88248082D01*
X157120731Y-88251176D01*
X157092920Y-88259901D01*
X157069630Y-88273874D01*
X157041163Y-88303728D01*
X157020341Y-88343874D01*
X157008268Y-88389386D01*
X157004124Y-88439617D01*
X157008483Y-88479939D01*
X157020305Y-88509894D01*
X157038806Y-88532039D01*
X157063709Y-88547587D01*
X157097534Y-88557855D01*
X157143000Y-88561690D01*
X157182834Y-88558474D01*
X157221939Y-88548794D01*
X157258557Y-88533061D01*
X157289741Y-88512401D01*
X157378206Y-88645660D01*
X157338819Y-88671462D01*
X157297653Y-88691557D01*
X157254424Y-88706184D01*
X157187291Y-88719603D01*
X157119455Y-88724062D01*
G37*
G36*
X157549958Y-88941341D02*
G01*
X157502127Y-88937730D01*
X157454214Y-88926784D01*
X157409982Y-88909223D01*
X157378597Y-88888731D01*
X157473803Y-88738619D01*
X157493895Y-88752720D01*
X157516350Y-88763825D01*
X157540700Y-88770912D01*
X157567885Y-88773351D01*
X157597465Y-88769293D01*
X157621618Y-88757670D01*
X157642473Y-88738660D01*
X157664214Y-88708382D01*
X157707885Y-88637845D01*
X157725812Y-88616547D01*
X158031556Y-88106958D01*
X158239895Y-88106958D01*
X157851256Y-88740866D01*
X157802524Y-88812674D01*
X157759371Y-88861815D01*
X157728018Y-88888740D01*
X157696361Y-88909051D01*
X157664166Y-88923413D01*
X157611707Y-88936656D01*
X157549958Y-88941341D01*
G37*
G36*
X157661967Y-88739743D02*
G01*
X157519720Y-88106958D01*
X157731381Y-88106958D01*
X157832205Y-88597496D01*
X157661967Y-88739743D01*
G37*
G36*
X158380628Y-88610978D02*
G01*
X158427669Y-88346658D01*
X158711039Y-88106958D01*
X158979853Y-88106958D01*
X158641577Y-88399268D01*
X158520628Y-88487782D01*
X158380628Y-88610978D01*
G37*
G36*
X158173412Y-88714000D02*
G01*
X158339204Y-87882939D01*
X158551988Y-87882939D01*
X158386245Y-88714000D01*
X158173412Y-88714000D01*
G37*
G36*
X158623698Y-88714000D02*
G01*
X158483698Y-88481041D01*
X158633761Y-88318619D01*
X158872337Y-88714000D01*
X158623698Y-88714000D01*
G37*
G36*
X159291294Y-88100305D02*
G01*
X159333311Y-88110001D01*
X159369811Y-88125472D01*
X159401651Y-88147944D01*
X159427475Y-88178118D01*
X159428325Y-88179772D01*
X159443182Y-88106958D01*
X159655966Y-88106958D01*
X159535017Y-88714000D01*
X159333419Y-88714000D01*
X159345586Y-88655783D01*
X159312121Y-88683225D01*
X159270148Y-88705627D01*
X159223144Y-88719322D01*
X159169923Y-88724062D01*
X159127417Y-88720489D01*
X159086155Y-88709774D01*
X159045603Y-88691627D01*
X159008811Y-88666923D01*
X158976999Y-88635784D01*
X158949811Y-88597545D01*
X158930131Y-88555016D01*
X158917779Y-88505460D01*
X158913419Y-88447433D01*
X158914012Y-88437370D01*
X159128450Y-88437370D01*
X159132071Y-88471236D01*
X159142254Y-88498763D01*
X159158688Y-88521341D01*
X159180714Y-88538283D01*
X159208527Y-88548885D01*
X159243831Y-88552702D01*
X159284291Y-88547267D01*
X159318862Y-88531452D01*
X159347572Y-88506278D01*
X159369811Y-88472101D01*
X159383492Y-88431885D01*
X159388325Y-88383588D01*
X159384716Y-88349711D01*
X159374541Y-88321988D01*
X159358087Y-88299080D01*
X159336016Y-88281795D01*
X159308201Y-88271009D01*
X159272944Y-88267133D01*
X159233404Y-88272652D01*
X159198450Y-88288968D01*
X159169272Y-88314619D01*
X159146915Y-88348905D01*
X159133272Y-88389077D01*
X159128450Y-88437370D01*
X158914012Y-88437370D01*
X158916382Y-88397174D01*
X158925034Y-88350678D01*
X158939162Y-88307433D01*
X158958740Y-88266355D01*
X158982422Y-88229522D01*
X159010286Y-88196547D01*
X159042193Y-88167459D01*
X159077188Y-88143084D01*
X159115554Y-88123225D01*
X159156207Y-88108630D01*
X159198455Y-88099855D01*
X159242707Y-88096896D01*
X159291294Y-88100305D01*
G37*
G36*
X159939727Y-88724062D02*
G01*
X159893364Y-88720787D01*
X159853392Y-88711485D01*
X159818778Y-88696658D01*
X159788278Y-88675383D01*
X159764587Y-88648735D01*
X159747069Y-88616009D01*
X159737160Y-88579988D01*
X159734573Y-88538089D01*
X159740376Y-88488856D01*
X159843398Y-87971452D01*
X160056231Y-87971452D01*
X159953161Y-88487782D01*
X159952584Y-88519934D01*
X159961025Y-88540978D01*
X159978131Y-88554373D01*
X160006943Y-88559443D01*
X160039427Y-88554997D01*
X160070788Y-88541515D01*
X160097655Y-88688256D01*
X160062581Y-88704478D01*
X160023161Y-88715660D01*
X159981955Y-88721952D01*
X159939727Y-88724062D01*
G37*
G36*
X159691088Y-88288382D02*
G01*
X159723572Y-88129380D01*
X160162623Y-88129380D01*
X160131263Y-88288382D01*
X159691088Y-88288382D01*
G37*
G36*
X160609412Y-88100979D02*
G01*
X160665181Y-88112586D01*
X160713733Y-88131041D01*
X160758229Y-88157307D01*
X160794698Y-88189119D01*
X160824033Y-88226784D01*
X160845467Y-88269401D01*
X160858667Y-88317536D01*
X160863258Y-88372401D01*
X160857734Y-88438222D01*
X160841624Y-88497935D01*
X160815094Y-88552702D01*
X160779093Y-88601878D01*
X160735290Y-88643520D01*
X160682909Y-88678145D01*
X160625334Y-88703272D01*
X160561541Y-88718720D01*
X160490300Y-88724062D01*
X160426836Y-88719944D01*
X160371212Y-88708184D01*
X160322260Y-88689380D01*
X160277438Y-88662709D01*
X160240779Y-88630521D01*
X160211374Y-88592513D01*
X160189909Y-88549543D01*
X160176752Y-88501555D01*
X160172198Y-88447433D01*
X160173044Y-88437370D01*
X160388353Y-88437370D01*
X160391986Y-88472005D01*
X160402185Y-88500090D01*
X160418590Y-88523050D01*
X160440633Y-88540359D01*
X160468107Y-88551105D01*
X160502609Y-88554949D01*
X160543031Y-88549375D01*
X160577641Y-88533113D01*
X160606376Y-88507510D01*
X160628590Y-88473225D01*
X160642244Y-88432869D01*
X160647103Y-88383588D01*
X160643637Y-88351110D01*
X160633703Y-88323467D01*
X160617404Y-88299617D01*
X160595557Y-88281378D01*
X160567954Y-88270067D01*
X160532847Y-88266009D01*
X160492389Y-88271455D01*
X160457815Y-88287307D01*
X160429137Y-88312537D01*
X160406817Y-88347196D01*
X160393186Y-88388012D01*
X160388353Y-88437370D01*
X160173044Y-88437370D01*
X160177732Y-88381620D01*
X160193851Y-88322112D01*
X160220362Y-88267719D01*
X160256327Y-88218875D01*
X160300110Y-88177404D01*
X160352498Y-88142813D01*
X160410104Y-88117685D01*
X160473914Y-88102237D01*
X160545157Y-88096896D01*
X160609412Y-88100979D01*
G37*
D12*
%TO.C,D1*%
X144456619Y-94327839D02*
X146072358Y-95943580D01*
X145496066Y-93288394D02*
X144456619Y-94327839D01*
X147111805Y-94904133D02*
X145496066Y-93288394D01*
%TD*%
M02*
