%TF.GenerationSoftware,KiCad,Pcbnew,9.0.5*%
%TF.CreationDate,2026-06-10T19:13:21-04:00*%
%TF.ProjectId,lightwear_bracelet_20x15_audio_reactive,6c696768-7477-4656-9172-5f6272616365,rev?*%
%TF.SameCoordinates,Original*%
%TF.FileFunction,Copper,L1,Top*%
%TF.FilePolarity,Positive*%
%FSLAX46Y46*%
G04 Gerber Fmt 4.6, Leading zero omitted, Abs format (unit mm)*
G04 Created by KiCad (PCBNEW 9.0.5) date 2026-06-10 19:13:21*
%MOMM*%
%LPD*%
G01*
G04 APERTURE LIST*
G04 Aperture macros list*
%AMRoundRect*
0 Rectangle with rounded corners*
0 $1 Rounding radius*
0 $2 $3 $4 $5 $6 $7 $8 $9 X,Y pos of 4 corners*
0 Add a 4 corners polygon primitive as box body*
4,1,4,$2,$3,$4,$5,$6,$7,$8,$9,$2,$3,0*
0 Add four circle primitives for the rounded corners*
1,1,$1+$1,$2,$3*
1,1,$1+$1,$4,$5*
1,1,$1+$1,$6,$7*
1,1,$1+$1,$8,$9*
0 Add four rect primitives between the rounded corners*
20,1,$1+$1,$2,$3,$4,$5,0*
20,1,$1+$1,$4,$5,$6,$7,0*
20,1,$1+$1,$6,$7,$8,$9,0*
20,1,$1+$1,$8,$9,$2,$3,0*%
%AMFreePoly0*
4,1,7,0.700000,-0.300000,0.500000,-0.500000,-1.750000,-0.500000,-1.750000,-0.100000,0.300000,1.950000,0.700000,1.950000,0.700000,-0.300000,0.700000,-0.300000,$1*%
G04 Aperture macros list end*
%TA.AperFunction,SMDPad,CuDef*%
%ADD10R,2.000000X1.200000*%
%TD*%
%TA.AperFunction,SMDPad,CuDef*%
%ADD11R,0.711200X0.990600*%
%TD*%
%TA.AperFunction,SMDPad,CuDef*%
%ADD12R,1.500000X0.800000*%
%TD*%
%TA.AperFunction,SMDPad,CuDef*%
%ADD13FreePoly0,270.000000*%
%TD*%
%TA.AperFunction,SMDPad,CuDef*%
%ADD14FreePoly0,180.000000*%
%TD*%
%TA.AperFunction,SMDPad,CuDef*%
%ADD15RoundRect,0.218750X-0.335876X-0.026517X-0.026517X-0.335876X0.335876X0.026517X0.026517X0.335876X0*%
%TD*%
%TA.AperFunction,ViaPad*%
%ADD16C,0.600000*%
%TD*%
%TA.AperFunction,Conductor*%
%ADD17C,0.250000*%
%TD*%
%TA.AperFunction,Conductor*%
%ADD18C,0.200000*%
%TD*%
%TA.AperFunction,Conductor*%
%ADD19C,0.300000*%
%TD*%
G04 APERTURE END LIST*
D10*
%TO.P,TP4,1,1*%
%TO.N,/LEDK*%
X145000000Y-91700000D03*
%TD*%
D11*
%TO.P,SW1,1,A*%
%TO.N,GND*%
X169016499Y-88619200D03*
X169016499Y-93119202D03*
%TO.P,SW1,2,B*%
%TO.N,/BTN*%
X166866501Y-88619200D03*
X166866501Y-93119202D03*
%TD*%
D12*
%TO.P,TP8,1,1*%
%TO.N,/BTN*%
X167250000Y-90200000D03*
%TD*%
D13*
%TO.P,TP6,1,1*%
%TO.N,+BATT*%
X166450000Y-86800000D03*
%TD*%
D12*
%TO.P,TP9,1,1*%
%TO.N,GND*%
X167250000Y-91500000D03*
%TD*%
D10*
%TO.P,TP5,1,1*%
%TO.N,+BATT*%
X145000000Y-90000000D03*
%TD*%
D14*
%TO.P,TP7,1,1*%
%TO.N,GND*%
X166650000Y-94700000D03*
%TD*%
D15*
%TO.P,D1,1,K*%
%TO.N,Net-(D1-K)*%
X145469549Y-94301325D03*
%TO.P,D1,2,A*%
%TO.N,Net-(D1-A)*%
X146583243Y-95415017D03*
%TD*%
D16*
%TO.N,GND*%
X154826396Y-96008171D03*
X159226396Y-90358171D03*
X165800000Y-88650000D03*
X154076396Y-86058171D03*
X147526396Y-88908171D03*
X168876396Y-91708171D03*
X166050000Y-89450000D03*
X147526396Y-88058171D03*
X144576396Y-88008171D03*
X164776396Y-95958171D03*
X155676396Y-96008171D03*
X153026396Y-90908171D03*
X164776396Y-94258171D03*
X168876396Y-90858171D03*
X168876396Y-90008171D03*
X153976396Y-96008171D03*
X160426396Y-86108171D03*
X154926396Y-86058171D03*
X161276396Y-86108171D03*
X159576396Y-86108171D03*
X153026396Y-91758171D03*
X153026396Y-90058171D03*
X158376396Y-90358171D03*
X153226396Y-86058171D03*
X160076396Y-90358171D03*
%TO.N,+BATT*%
X164750000Y-91650000D03*
X150150000Y-88200000D03*
X162876396Y-92658171D03*
%TO.N,Net-(D1-A)*%
X146583243Y-95415017D03*
%TO.N,Net-(D1-K)*%
X161476396Y-88208171D03*
X148326396Y-91808171D03*
X145469549Y-94301325D03*
%TO.N,Net-(Q1-G)*%
X157300000Y-95150000D03*
X163350000Y-95150000D03*
%TO.N,/LEDK*%
X149126396Y-93508171D03*
%TO.N,/BTN*%
X164826396Y-92858171D03*
%TO.N,/nCHRG*%
X162700000Y-87550000D03*
X160251396Y-91783171D03*
%TO.N,Net-(MK1-OUT)*%
X163026396Y-86208171D03*
X147876396Y-87208171D03*
%TD*%
D17*
%TO.N,GND*%
X167876396Y-94323604D02*
X167876396Y-93708171D01*
X166650000Y-94700000D02*
X167500000Y-94700000D01*
X167500000Y-94700000D02*
X167876396Y-94323604D01*
D18*
%TO.N,+BATT*%
X162876396Y-92658171D02*
X163741829Y-92658171D01*
D19*
X166341829Y-86908171D02*
X151441829Y-86908171D01*
X148350000Y-90000000D02*
X150150000Y-88200000D01*
D18*
X163741829Y-92658171D02*
X164750000Y-91650000D01*
D19*
X151441829Y-86908171D02*
X150150000Y-88200000D01*
X166450000Y-86800000D02*
X166450000Y-86959567D01*
X164750000Y-88659567D02*
X164750000Y-91650000D01*
X166450000Y-86959567D02*
X164750000Y-88659567D01*
X145000000Y-90000000D02*
X148350000Y-90000000D01*
X166450000Y-86800000D02*
X166341829Y-86908171D01*
D18*
%TO.N,Net-(D1-K)*%
X152576396Y-87558171D02*
X160826396Y-87558171D01*
X148326396Y-91808171D02*
X152576396Y-87558171D01*
X160826396Y-87558171D02*
X161476396Y-88208171D01*
%TO.N,Net-(Q1-G)*%
X157300000Y-95150000D02*
X163350000Y-95150000D01*
D19*
%TO.N,/LEDK*%
X148676396Y-93508171D02*
X146868225Y-91700000D01*
X146868225Y-91700000D02*
X145000000Y-91700000D01*
X149126396Y-93508171D02*
X148676396Y-93508171D01*
D18*
%TO.N,/BTN*%
X165792530Y-92858171D02*
X166199000Y-92451701D01*
X164826396Y-92858171D02*
X165792530Y-92858171D01*
X166900000Y-90200000D02*
X166199000Y-90901000D01*
X166199000Y-90901000D02*
X166199000Y-92451701D01*
X166199000Y-92451701D02*
X166866501Y-93119202D01*
X166866501Y-88619200D02*
X166866501Y-89816501D01*
X166866501Y-89816501D02*
X167250000Y-90200000D01*
X167250000Y-90200000D02*
X166900000Y-90200000D01*
%TO.N,/nCHRG*%
X162376396Y-87873604D02*
X162700000Y-87550000D01*
X162376396Y-89658171D02*
X162376396Y-87873604D01*
X160251396Y-91783171D02*
X162376396Y-89658171D01*
%TO.N,Net-(MK1-OUT)*%
X147876396Y-87208171D02*
X149776396Y-85308171D01*
X162126396Y-85308171D02*
X163026396Y-86208171D01*
X149776396Y-85308171D02*
X161876396Y-85308171D01*
X161876396Y-85308171D02*
X162126396Y-85308171D01*
%TD*%
%TA.AperFunction,Conductor*%
%TO.N,GND*%
G36*
X165474397Y-87277578D02*
G01*
X165510361Y-87327078D01*
X165510361Y-87388264D01*
X165486210Y-87427675D01*
X164469530Y-88444355D01*
X164435552Y-88503209D01*
X164435551Y-88503210D01*
X164435550Y-88503209D01*
X164428463Y-88515485D01*
X164423386Y-88524279D01*
X164400773Y-88608674D01*
X164399500Y-88613424D01*
X164399500Y-91251678D01*
X164380593Y-91309869D01*
X164370505Y-91321680D01*
X164349501Y-91342684D01*
X164349496Y-91342690D01*
X164283609Y-91456809D01*
X164283608Y-91456814D01*
X164249506Y-91584088D01*
X164249500Y-91584109D01*
X164249500Y-91684520D01*
X164230593Y-91742711D01*
X164220504Y-91754524D01*
X163646354Y-92328675D01*
X163591837Y-92356452D01*
X163576350Y-92357671D01*
X163324717Y-92357671D01*
X163266526Y-92338764D01*
X163254719Y-92328680D01*
X163183710Y-92257671D01*
X163183707Y-92257669D01*
X163183705Y-92257667D01*
X163069585Y-92191780D01*
X163069587Y-92191780D01*
X163020195Y-92178546D01*
X162942288Y-92157671D01*
X162810504Y-92157671D01*
X162732596Y-92178546D01*
X162683205Y-92191780D01*
X162569086Y-92257667D01*
X162475892Y-92350861D01*
X162410005Y-92464980D01*
X162406155Y-92479350D01*
X162375896Y-92592279D01*
X162375896Y-92724063D01*
X162382481Y-92748638D01*
X162410005Y-92851361D01*
X162475892Y-92965480D01*
X162475894Y-92965482D01*
X162475896Y-92965485D01*
X162569082Y-93058671D01*
X162569084Y-93058672D01*
X162569086Y-93058674D01*
X162683206Y-93124561D01*
X162683204Y-93124561D01*
X162683208Y-93124562D01*
X162683210Y-93124563D01*
X162810504Y-93158671D01*
X162810506Y-93158671D01*
X162942286Y-93158671D01*
X162942288Y-93158671D01*
X163069582Y-93124563D01*
X163069584Y-93124561D01*
X163069586Y-93124561D01*
X163183705Y-93058674D01*
X163183705Y-93058673D01*
X163183710Y-93058671D01*
X163254715Y-92987665D01*
X163309230Y-92959890D01*
X163324717Y-92958671D01*
X163781392Y-92958671D01*
X163781392Y-92958670D01*
X163857818Y-92938192D01*
X163926340Y-92898631D01*
X163954314Y-92870656D01*
X163982290Y-92842682D01*
X164171958Y-92653013D01*
X164226475Y-92625235D01*
X164286907Y-92634806D01*
X164330172Y-92678071D01*
X164339743Y-92738503D01*
X164337589Y-92748638D01*
X164325896Y-92792279D01*
X164325896Y-92924063D01*
X164349886Y-93013594D01*
X164360005Y-93051361D01*
X164425892Y-93165480D01*
X164425894Y-93165482D01*
X164425896Y-93165485D01*
X164519082Y-93258671D01*
X164519084Y-93258672D01*
X164519086Y-93258674D01*
X164633206Y-93324561D01*
X164633204Y-93324561D01*
X164633208Y-93324562D01*
X164633210Y-93324563D01*
X164760504Y-93358671D01*
X164760506Y-93358671D01*
X164892286Y-93358671D01*
X164892288Y-93358671D01*
X165019582Y-93324563D01*
X165019584Y-93324561D01*
X165019586Y-93324561D01*
X165133705Y-93258674D01*
X165133705Y-93258673D01*
X165133710Y-93258671D01*
X165204715Y-93187665D01*
X165259230Y-93159890D01*
X165274717Y-93158671D01*
X165832093Y-93158671D01*
X165832093Y-93158670D01*
X165908519Y-93138192D01*
X165977041Y-93098631D01*
X166032990Y-93042682D01*
X166128996Y-92946676D01*
X166142967Y-92939557D01*
X166154055Y-92928470D01*
X166169542Y-92926017D01*
X166183513Y-92918899D01*
X166199000Y-92921351D01*
X166214487Y-92918899D01*
X166228457Y-92926017D01*
X166243945Y-92928470D01*
X166269004Y-92946676D01*
X166281405Y-92959077D01*
X166309182Y-93013594D01*
X166310401Y-93029081D01*
X166310401Y-93634248D01*
X166310402Y-93634260D01*
X166322033Y-93692729D01*
X166322034Y-93692733D01*
X166366349Y-93759054D01*
X166373279Y-93763685D01*
X166411159Y-93811734D01*
X166413561Y-93872872D01*
X166379569Y-93923746D01*
X166322165Y-93944924D01*
X166318278Y-93945000D01*
X166149999Y-93945000D01*
X166052414Y-93964412D01*
X166052412Y-93964412D01*
X165969688Y-94019688D01*
X165969684Y-94019691D01*
X165769691Y-94219684D01*
X165769688Y-94219688D01*
X165714412Y-94302412D01*
X165714412Y-94302414D01*
X165695000Y-94399999D01*
X165695000Y-95299999D01*
X165695001Y-95300000D01*
X167076000Y-95300000D01*
X167090912Y-95304845D01*
X167106593Y-95304845D01*
X167119278Y-95314061D01*
X167134191Y-95318907D01*
X167143407Y-95331592D01*
X167156093Y-95340809D01*
X167160938Y-95355721D01*
X167170155Y-95368407D01*
X167175000Y-95399000D01*
X167175000Y-95451000D01*
X167156093Y-95509191D01*
X167106593Y-95545155D01*
X167076000Y-95550000D01*
X165695001Y-95550000D01*
X165695000Y-95550001D01*
X165695000Y-96650500D01*
X165676093Y-96708691D01*
X165626593Y-96744655D01*
X165596000Y-96749500D01*
X146532636Y-96749500D01*
X146474445Y-96730593D01*
X146462632Y-96720504D01*
X145117259Y-95375131D01*
X145828117Y-95375131D01*
X145828117Y-95507936D01*
X145841948Y-95550503D01*
X145869156Y-95634243D01*
X145927576Y-95714650D01*
X145927578Y-95714652D01*
X145927581Y-95714656D01*
X146283604Y-96070679D01*
X146283607Y-96070681D01*
X146283609Y-96070683D01*
X146364016Y-96129103D01*
X146364017Y-96129103D01*
X146364018Y-96129104D01*
X146490324Y-96170143D01*
X146490326Y-96170143D01*
X146623127Y-96170143D01*
X146623129Y-96170143D01*
X146749435Y-96129104D01*
X146829849Y-96070679D01*
X147238905Y-95661623D01*
X147297330Y-95581209D01*
X147338369Y-95454903D01*
X147338369Y-95322098D01*
X147297330Y-95195792D01*
X147238905Y-95115378D01*
X147207635Y-95084108D01*
X156799500Y-95084108D01*
X156799500Y-95215892D01*
X156823335Y-95304845D01*
X156833609Y-95343190D01*
X156899496Y-95457309D01*
X156899498Y-95457311D01*
X156899500Y-95457314D01*
X156992686Y-95550500D01*
X156992688Y-95550501D01*
X156992690Y-95550503D01*
X157106810Y-95616390D01*
X157106808Y-95616390D01*
X157106812Y-95616391D01*
X157106814Y-95616392D01*
X157234108Y-95650500D01*
X157234110Y-95650500D01*
X157365890Y-95650500D01*
X157365892Y-95650500D01*
X157493186Y-95616392D01*
X157493188Y-95616390D01*
X157493190Y-95616390D01*
X157607309Y-95550503D01*
X157607309Y-95550502D01*
X157607314Y-95550500D01*
X157678319Y-95479494D01*
X157732834Y-95451719D01*
X157748321Y-95450500D01*
X162901679Y-95450500D01*
X162959870Y-95469407D01*
X162971676Y-95479490D01*
X163042686Y-95550500D01*
X163042688Y-95550501D01*
X163042690Y-95550503D01*
X163156810Y-95616390D01*
X163156808Y-95616390D01*
X163156812Y-95616391D01*
X163156814Y-95616392D01*
X163284108Y-95650500D01*
X163284110Y-95650500D01*
X163415890Y-95650500D01*
X163415892Y-95650500D01*
X163543186Y-95616392D01*
X163543188Y-95616390D01*
X163543190Y-95616390D01*
X163657309Y-95550503D01*
X163657309Y-95550502D01*
X163657314Y-95550500D01*
X163750500Y-95457314D01*
X163753730Y-95451719D01*
X163816390Y-95343190D01*
X163816390Y-95343188D01*
X163816392Y-95343186D01*
X163850500Y-95215892D01*
X163850500Y-95084108D01*
X163816392Y-94956814D01*
X163816390Y-94956811D01*
X163816390Y-94956809D01*
X163750503Y-94842690D01*
X163750501Y-94842688D01*
X163750500Y-94842686D01*
X163657314Y-94749500D01*
X163657311Y-94749498D01*
X163657309Y-94749496D01*
X163543189Y-94683609D01*
X163543191Y-94683609D01*
X163493799Y-94670375D01*
X163415892Y-94649500D01*
X163284108Y-94649500D01*
X163206200Y-94670375D01*
X163156809Y-94683609D01*
X163042690Y-94749496D01*
X163042689Y-94749497D01*
X163042686Y-94749499D01*
X163042686Y-94749500D01*
X162971680Y-94820505D01*
X162917166Y-94848281D01*
X162901679Y-94849500D01*
X157748321Y-94849500D01*
X157690130Y-94830593D01*
X157678323Y-94820509D01*
X157607314Y-94749500D01*
X157607311Y-94749498D01*
X157607309Y-94749496D01*
X157493189Y-94683609D01*
X157493191Y-94683609D01*
X157443799Y-94670375D01*
X157365892Y-94649500D01*
X157234108Y-94649500D01*
X157156200Y-94670375D01*
X157106809Y-94683609D01*
X156992690Y-94749496D01*
X156899496Y-94842690D01*
X156833609Y-94956809D01*
X156817907Y-95015411D01*
X156799500Y-95084108D01*
X147207635Y-95084108D01*
X146882882Y-94759355D01*
X146882878Y-94759352D01*
X146882876Y-94759350D01*
X146802469Y-94700930D01*
X146749156Y-94683608D01*
X146676162Y-94659891D01*
X146543357Y-94659891D01*
X146501255Y-94673570D01*
X146417049Y-94700930D01*
X146336642Y-94759350D01*
X145927576Y-95168416D01*
X145869156Y-95248823D01*
X145852528Y-95300000D01*
X145828117Y-95375131D01*
X145117259Y-95375131D01*
X144003567Y-94261439D01*
X144714423Y-94261439D01*
X144714423Y-94394244D01*
X144738231Y-94467517D01*
X144755462Y-94520551D01*
X144813882Y-94600958D01*
X144813884Y-94600960D01*
X144813887Y-94600964D01*
X145169910Y-94956987D01*
X145169913Y-94956989D01*
X145169915Y-94956991D01*
X145250322Y-95015411D01*
X145250323Y-95015411D01*
X145250324Y-95015412D01*
X145376630Y-95056451D01*
X145376632Y-95056451D01*
X145509433Y-95056451D01*
X145509435Y-95056451D01*
X145635741Y-95015412D01*
X145716155Y-94956987D01*
X146125211Y-94547931D01*
X146183636Y-94467517D01*
X146224675Y-94341211D01*
X146224675Y-94208406D01*
X146183636Y-94082100D01*
X146163742Y-94054719D01*
X146125215Y-94001691D01*
X146125213Y-94001689D01*
X146125211Y-94001686D01*
X145769188Y-93645663D01*
X145769184Y-93645660D01*
X145769182Y-93645658D01*
X145688775Y-93587238D01*
X145646672Y-93573558D01*
X145562468Y-93546199D01*
X145429663Y-93546199D01*
X145387561Y-93559878D01*
X145303355Y-93587238D01*
X145222948Y-93645658D01*
X144813882Y-94054724D01*
X144755462Y-94135131D01*
X144747911Y-94158372D01*
X144714423Y-94261439D01*
X144003567Y-94261439D01*
X143929496Y-94187368D01*
X143901719Y-94132851D01*
X143900500Y-94117364D01*
X143900500Y-92599500D01*
X143919407Y-92541309D01*
X143968907Y-92505345D01*
X143999500Y-92500500D01*
X146019747Y-92500500D01*
X146019748Y-92500500D01*
X146078231Y-92488867D01*
X146144552Y-92444552D01*
X146188867Y-92378231D01*
X146200500Y-92319748D01*
X146200500Y-92149500D01*
X146219407Y-92091309D01*
X146268907Y-92055345D01*
X146299500Y-92050500D01*
X146682035Y-92050500D01*
X146740226Y-92069407D01*
X146752039Y-92079496D01*
X148461184Y-93788641D01*
X148541108Y-93834785D01*
X148630252Y-93858671D01*
X148728075Y-93858671D01*
X148786266Y-93877578D01*
X148798072Y-93887661D01*
X148819082Y-93908671D01*
X148819084Y-93908672D01*
X148819086Y-93908674D01*
X148933206Y-93974561D01*
X148933204Y-93974561D01*
X148933208Y-93974562D01*
X148933210Y-93974563D01*
X149060504Y-94008671D01*
X149060506Y-94008671D01*
X149192286Y-94008671D01*
X149192288Y-94008671D01*
X149319582Y-93974563D01*
X149319584Y-93974561D01*
X149319586Y-93974561D01*
X149433705Y-93908674D01*
X149433705Y-93908673D01*
X149433710Y-93908671D01*
X149526896Y-93815485D01*
X149541033Y-93790999D01*
X149592786Y-93701361D01*
X149592786Y-93701359D01*
X149592788Y-93701357D01*
X149626896Y-93574063D01*
X149626896Y-93442279D01*
X149592788Y-93314985D01*
X149592786Y-93314982D01*
X149592786Y-93314980D01*
X149526899Y-93200861D01*
X149526897Y-93200859D01*
X149526896Y-93200857D01*
X149433710Y-93107671D01*
X149433707Y-93107669D01*
X149433705Y-93107667D01*
X149319585Y-93041780D01*
X149319587Y-93041780D01*
X149270195Y-93028546D01*
X149192288Y-93007671D01*
X149060504Y-93007671D01*
X148958088Y-93035113D01*
X148933206Y-93041780D01*
X148854752Y-93087075D01*
X148794904Y-93099796D01*
X148739008Y-93074909D01*
X148735249Y-93071342D01*
X148456186Y-92792279D01*
X148128444Y-92464537D01*
X148100669Y-92410023D01*
X148110240Y-92349591D01*
X148153505Y-92306326D01*
X148213937Y-92296755D01*
X148224065Y-92298907D01*
X148260504Y-92308671D01*
X148260506Y-92308671D01*
X148392286Y-92308671D01*
X148392288Y-92308671D01*
X148519582Y-92274563D01*
X148519584Y-92274561D01*
X148519586Y-92274561D01*
X148633705Y-92208674D01*
X148633705Y-92208673D01*
X148633710Y-92208671D01*
X148726896Y-92115485D01*
X148747244Y-92080241D01*
X148792786Y-92001361D01*
X148792786Y-92001359D01*
X148792788Y-92001357D01*
X148826896Y-91874063D01*
X148826896Y-91773649D01*
X148845803Y-91715458D01*
X148855892Y-91703645D01*
X152671871Y-87887667D01*
X152726388Y-87859890D01*
X152741875Y-87858671D01*
X160660917Y-87858671D01*
X160719108Y-87877578D01*
X160730921Y-87887667D01*
X160946900Y-88103646D01*
X160974677Y-88158163D01*
X160975896Y-88173650D01*
X160975896Y-88274063D01*
X161005975Y-88386322D01*
X161010005Y-88401361D01*
X161075892Y-88515480D01*
X161075894Y-88515482D01*
X161075896Y-88515485D01*
X161169082Y-88608671D01*
X161169084Y-88608672D01*
X161169086Y-88608674D01*
X161283206Y-88674561D01*
X161283204Y-88674561D01*
X161283208Y-88674562D01*
X161283210Y-88674563D01*
X161410504Y-88708671D01*
X161410506Y-88708671D01*
X161542286Y-88708671D01*
X161542288Y-88708671D01*
X161669582Y-88674563D01*
X161669584Y-88674561D01*
X161669586Y-88674561D01*
X161783705Y-88608674D01*
X161783705Y-88608673D01*
X161783710Y-88608671D01*
X161876896Y-88515485D01*
X161891159Y-88490779D01*
X161936629Y-88449839D01*
X161997479Y-88443443D01*
X162050467Y-88474036D01*
X162075354Y-88529931D01*
X162075896Y-88540280D01*
X162075896Y-89492691D01*
X162056989Y-89550882D01*
X162046900Y-89562695D01*
X160355920Y-91253675D01*
X160301403Y-91281452D01*
X160285916Y-91282671D01*
X160185504Y-91282671D01*
X160107596Y-91303546D01*
X160058205Y-91316780D01*
X159944086Y-91382667D01*
X159850892Y-91475861D01*
X159785005Y-91589980D01*
X159765935Y-91661149D01*
X159750896Y-91717279D01*
X159750896Y-91849063D01*
X159780975Y-91961322D01*
X159785005Y-91976361D01*
X159850892Y-92090480D01*
X159850894Y-92090482D01*
X159850896Y-92090485D01*
X159944082Y-92183671D01*
X159944084Y-92183672D01*
X159944086Y-92183674D01*
X160058206Y-92249561D01*
X160058204Y-92249561D01*
X160058208Y-92249562D01*
X160058210Y-92249563D01*
X160185504Y-92283671D01*
X160185506Y-92283671D01*
X160317286Y-92283671D01*
X160317288Y-92283671D01*
X160444582Y-92249563D01*
X160444584Y-92249561D01*
X160444586Y-92249561D01*
X160558705Y-92183674D01*
X160558705Y-92183673D01*
X160558710Y-92183671D01*
X160651896Y-92090485D01*
X160651899Y-92090480D01*
X160717786Y-91976361D01*
X160717786Y-91976359D01*
X160717788Y-91976357D01*
X160751896Y-91849063D01*
X160751896Y-91748649D01*
X160770803Y-91690458D01*
X160780892Y-91678645D01*
X161674530Y-90785007D01*
X162616856Y-89842682D01*
X162656417Y-89774160D01*
X162676896Y-89697733D01*
X162676896Y-88149037D01*
X162695803Y-88090846D01*
X162745303Y-88054882D01*
X162762975Y-88050884D01*
X162765888Y-88050500D01*
X162765892Y-88050500D01*
X162893186Y-88016392D01*
X162893188Y-88016390D01*
X162893190Y-88016390D01*
X163007309Y-87950503D01*
X163007309Y-87950502D01*
X163007314Y-87950500D01*
X163100500Y-87857314D01*
X163125046Y-87814799D01*
X163166390Y-87743190D01*
X163166390Y-87743188D01*
X163166392Y-87743186D01*
X163200500Y-87615892D01*
X163200500Y-87484108D01*
X163173487Y-87383293D01*
X163176690Y-87322192D01*
X163215195Y-87274642D01*
X163269114Y-87258671D01*
X165416206Y-87258671D01*
X165474397Y-87277578D01*
G37*
%TD.AperFunction*%
%TA.AperFunction,Conductor*%
G36*
X168774504Y-87316632D02*
G01*
X169166632Y-87708760D01*
X169194409Y-87763277D01*
X169184838Y-87823709D01*
X169166632Y-87848768D01*
X169141499Y-87873901D01*
X169141499Y-89364499D01*
X169141500Y-89364500D01*
X169300500Y-89364500D01*
X169358691Y-89383407D01*
X169394655Y-89432907D01*
X169399500Y-89463500D01*
X169399500Y-92274902D01*
X169380593Y-92333093D01*
X169331093Y-92369057D01*
X169300500Y-92373902D01*
X169141500Y-92373902D01*
X169141499Y-92373903D01*
X169141499Y-93020202D01*
X169136654Y-93035113D01*
X169136654Y-93050795D01*
X169127437Y-93063480D01*
X169122592Y-93078393D01*
X169109906Y-93087609D01*
X169100690Y-93100295D01*
X169085777Y-93105140D01*
X169073092Y-93114357D01*
X169042499Y-93119202D01*
X169016499Y-93119202D01*
X169016499Y-93145202D01*
X168997592Y-93203393D01*
X168948092Y-93239357D01*
X168917499Y-93244202D01*
X168410900Y-93244202D01*
X168410899Y-93244203D01*
X168410899Y-93639126D01*
X168425405Y-93712048D01*
X168425407Y-93712053D01*
X168478157Y-93790999D01*
X168494766Y-93849887D01*
X168473588Y-93907290D01*
X168422715Y-93941283D01*
X168395842Y-93945000D01*
X167414724Y-93945000D01*
X167356533Y-93926093D01*
X167320569Y-93876593D01*
X167320569Y-93815407D01*
X167356533Y-93765907D01*
X167359703Y-93763697D01*
X167366653Y-93759054D01*
X167410968Y-93692733D01*
X167422601Y-93634250D01*
X167422601Y-92604154D01*
X167421631Y-92599277D01*
X168410899Y-92599277D01*
X168410899Y-92994201D01*
X168410900Y-92994202D01*
X168891499Y-92994202D01*
X168891499Y-92373903D01*
X168891498Y-92373902D01*
X168636274Y-92373902D01*
X168563352Y-92388408D01*
X168563350Y-92388409D01*
X168480661Y-92443660D01*
X168480657Y-92443664D01*
X168425406Y-92526353D01*
X168425405Y-92526355D01*
X168410899Y-92599277D01*
X167421631Y-92599277D01*
X167410968Y-92545671D01*
X167366653Y-92479350D01*
X167345155Y-92464985D01*
X167300334Y-92435036D01*
X167300332Y-92435035D01*
X167300329Y-92435034D01*
X167300328Y-92435034D01*
X167241859Y-92423403D01*
X167241849Y-92423402D01*
X167241848Y-92423402D01*
X166636680Y-92423402D01*
X166629082Y-92420933D01*
X166621193Y-92422183D01*
X166600537Y-92411658D01*
X166578489Y-92404495D01*
X166566676Y-92394406D01*
X166528496Y-92356226D01*
X166500719Y-92301709D01*
X166499500Y-92286222D01*
X166499500Y-92249000D01*
X166518407Y-92190809D01*
X166567907Y-92154845D01*
X166598500Y-92150000D01*
X167124999Y-92150000D01*
X167125000Y-92149999D01*
X167375000Y-92149999D01*
X167375001Y-92150000D01*
X168024623Y-92150000D01*
X168024624Y-92149999D01*
X168097546Y-92135493D01*
X168097548Y-92135492D01*
X168180237Y-92080241D01*
X168180241Y-92080237D01*
X168235492Y-91997548D01*
X168235493Y-91997546D01*
X168249999Y-91924624D01*
X168250000Y-91924622D01*
X168250000Y-91625001D01*
X168249999Y-91625000D01*
X167375000Y-91625000D01*
X167375000Y-92149999D01*
X167125000Y-92149999D01*
X167125000Y-91599000D01*
X167129845Y-91584088D01*
X167129845Y-91568407D01*
X167139061Y-91555721D01*
X167143907Y-91540809D01*
X167156592Y-91531592D01*
X167165809Y-91518907D01*
X167180721Y-91514061D01*
X167193407Y-91504845D01*
X167224000Y-91500000D01*
X167250000Y-91500000D01*
X167250000Y-91474000D01*
X167268907Y-91415809D01*
X167318407Y-91379845D01*
X167349000Y-91375000D01*
X168249999Y-91375000D01*
X168250000Y-91374999D01*
X168250000Y-91075377D01*
X168249999Y-91075375D01*
X168235493Y-91002453D01*
X168235492Y-91002451D01*
X168180241Y-90919762D01*
X168180235Y-90919756D01*
X168154117Y-90902304D01*
X168116238Y-90854254D01*
X168113837Y-90793116D01*
X168139119Y-90749984D01*
X168144548Y-90744554D01*
X168144552Y-90744552D01*
X168188867Y-90678231D01*
X168200500Y-90619748D01*
X168200500Y-89780252D01*
X168188867Y-89721769D01*
X168144552Y-89655448D01*
X168144548Y-89655445D01*
X168078233Y-89611134D01*
X168078231Y-89611133D01*
X168078228Y-89611132D01*
X168078227Y-89611132D01*
X168019758Y-89599501D01*
X168019748Y-89599500D01*
X168019747Y-89599500D01*
X167266001Y-89599500D01*
X167251089Y-89594655D01*
X167235408Y-89594655D01*
X167222722Y-89585438D01*
X167207810Y-89580593D01*
X167198593Y-89567907D01*
X167185908Y-89558691D01*
X167181062Y-89543778D01*
X167171846Y-89531093D01*
X167167001Y-89500500D01*
X167167001Y-89411135D01*
X167185908Y-89352944D01*
X167235408Y-89316980D01*
X167246676Y-89314039D01*
X167300332Y-89303367D01*
X167366653Y-89259052D01*
X167410968Y-89192731D01*
X167422601Y-89134248D01*
X167422601Y-88744201D01*
X168410899Y-88744201D01*
X168410899Y-89139124D01*
X168425405Y-89212046D01*
X168425406Y-89212048D01*
X168480657Y-89294737D01*
X168480661Y-89294741D01*
X168563350Y-89349992D01*
X168563352Y-89349993D01*
X168636274Y-89364499D01*
X168636276Y-89364500D01*
X168891498Y-89364500D01*
X168891499Y-89364499D01*
X168891499Y-88744201D01*
X168891498Y-88744200D01*
X168410900Y-88744200D01*
X168410899Y-88744201D01*
X167422601Y-88744201D01*
X167422601Y-88104152D01*
X167422601Y-88104151D01*
X167422600Y-88104143D01*
X167421631Y-88099275D01*
X168410899Y-88099275D01*
X168410899Y-88494199D01*
X168410900Y-88494200D01*
X168891498Y-88494200D01*
X168891499Y-88494199D01*
X168891499Y-87873901D01*
X168891498Y-87873900D01*
X168636274Y-87873900D01*
X168563352Y-87888406D01*
X168563350Y-87888407D01*
X168480661Y-87943658D01*
X168480657Y-87943662D01*
X168425406Y-88026351D01*
X168425405Y-88026353D01*
X168410899Y-88099275D01*
X167421631Y-88099275D01*
X167415972Y-88070829D01*
X167410968Y-88045669D01*
X167366653Y-87979348D01*
X167366649Y-87979345D01*
X167300334Y-87935034D01*
X167300332Y-87935033D01*
X167300329Y-87935032D01*
X167300328Y-87935032D01*
X167241859Y-87923401D01*
X167241849Y-87923400D01*
X166491153Y-87923400D01*
X166491152Y-87923400D01*
X166491142Y-87923401D01*
X166432673Y-87935032D01*
X166432667Y-87935034D01*
X166366352Y-87979345D01*
X166366346Y-87979351D01*
X166322035Y-88045666D01*
X166322033Y-88045672D01*
X166310402Y-88104141D01*
X166310401Y-88104153D01*
X166310401Y-89134246D01*
X166310402Y-89134258D01*
X166322033Y-89192727D01*
X166322035Y-89192733D01*
X166363939Y-89255445D01*
X166366349Y-89259052D01*
X166366352Y-89259054D01*
X166419754Y-89294737D01*
X166432670Y-89303367D01*
X166486316Y-89314038D01*
X166491570Y-89316980D01*
X166497594Y-89316980D01*
X166517855Y-89331700D01*
X166539699Y-89343934D01*
X166542220Y-89349403D01*
X166547094Y-89352944D01*
X166554832Y-89376760D01*
X166565315Y-89399499D01*
X166566001Y-89411135D01*
X166566001Y-89501325D01*
X166547094Y-89559516D01*
X166497594Y-89595480D01*
X166484939Y-89598129D01*
X166485023Y-89598550D01*
X166421772Y-89611132D01*
X166421766Y-89611134D01*
X166355451Y-89655445D01*
X166355445Y-89655451D01*
X166311134Y-89721766D01*
X166311132Y-89721772D01*
X166299501Y-89780241D01*
X166299500Y-89780253D01*
X166299500Y-90334521D01*
X166280593Y-90392712D01*
X166270504Y-90404525D01*
X166014489Y-90660540D01*
X166014488Y-90660539D01*
X165958539Y-90716489D01*
X165918980Y-90785007D01*
X165918978Y-90785011D01*
X165898500Y-90861435D01*
X165898500Y-92286222D01*
X165879593Y-92344413D01*
X165869504Y-92356226D01*
X165697055Y-92528675D01*
X165642538Y-92556452D01*
X165627051Y-92557671D01*
X165274717Y-92557671D01*
X165216526Y-92538764D01*
X165204719Y-92528680D01*
X165133710Y-92457671D01*
X165133707Y-92457669D01*
X165133705Y-92457667D01*
X165019585Y-92391780D01*
X165019587Y-92391780D01*
X164952863Y-92373902D01*
X164892288Y-92357671D01*
X164760504Y-92357671D01*
X164760501Y-92357671D01*
X164716861Y-92369364D01*
X164655760Y-92366161D01*
X164608211Y-92327655D01*
X164592376Y-92268554D01*
X164614304Y-92211433D01*
X164621238Y-92203732D01*
X164645476Y-92179495D01*
X164699993Y-92151719D01*
X164715478Y-92150500D01*
X164815890Y-92150500D01*
X164815892Y-92150500D01*
X164943186Y-92116392D01*
X164943188Y-92116390D01*
X164943190Y-92116390D01*
X165057309Y-92050503D01*
X165057309Y-92050502D01*
X165057314Y-92050500D01*
X165150500Y-91957314D01*
X165198565Y-91874063D01*
X165216390Y-91843190D01*
X165216390Y-91843188D01*
X165216392Y-91843186D01*
X165250500Y-91715892D01*
X165250500Y-91584108D01*
X165216392Y-91456814D01*
X165216390Y-91456811D01*
X165216390Y-91456809D01*
X165150503Y-91342690D01*
X165150498Y-91342684D01*
X165129495Y-91321680D01*
X165101719Y-91267163D01*
X165100500Y-91251678D01*
X165100500Y-88845757D01*
X165119407Y-88787566D01*
X165129496Y-88775753D01*
X166170753Y-87734496D01*
X166225270Y-87706719D01*
X166240757Y-87705500D01*
X168399999Y-87705500D01*
X168400000Y-87705500D01*
X168445728Y-87700348D01*
X168528127Y-87660666D01*
X168585149Y-87589163D01*
X168605500Y-87500000D01*
X168605500Y-87386636D01*
X168624407Y-87328445D01*
X168673907Y-87292481D01*
X168735093Y-87292481D01*
X168774504Y-87316632D01*
G37*
%TD.AperFunction*%
%TA.AperFunction,Conductor*%
G36*
X149528280Y-84969407D02*
G01*
X149564244Y-85018907D01*
X149564244Y-85080093D01*
X149540094Y-85119501D01*
X148258238Y-86401357D01*
X147980920Y-86678675D01*
X147926403Y-86706452D01*
X147910916Y-86707671D01*
X147810504Y-86707671D01*
X147732596Y-86728546D01*
X147683205Y-86741780D01*
X147569086Y-86807667D01*
X147475892Y-86900861D01*
X147410005Y-87014980D01*
X147410004Y-87014985D01*
X147375896Y-87142279D01*
X147375896Y-87274063D01*
X147398069Y-87356814D01*
X147410005Y-87401361D01*
X147475892Y-87515480D01*
X147475894Y-87515482D01*
X147475896Y-87515485D01*
X147569082Y-87608671D01*
X147569084Y-87608672D01*
X147569086Y-87608674D01*
X147683206Y-87674561D01*
X147683204Y-87674561D01*
X147683208Y-87674562D01*
X147683210Y-87674563D01*
X147810504Y-87708671D01*
X147810506Y-87708671D01*
X147942286Y-87708671D01*
X147942288Y-87708671D01*
X148069582Y-87674563D01*
X148069584Y-87674561D01*
X148069586Y-87674561D01*
X148183705Y-87608674D01*
X148183705Y-87608673D01*
X148183710Y-87608671D01*
X148276896Y-87515485D01*
X148310484Y-87457309D01*
X148342786Y-87401361D01*
X148342786Y-87401359D01*
X148342788Y-87401357D01*
X148376896Y-87274063D01*
X148376896Y-87173649D01*
X148395803Y-87115458D01*
X148405892Y-87103645D01*
X149871871Y-85637667D01*
X149926388Y-85609890D01*
X149941875Y-85608671D01*
X161836834Y-85608671D01*
X161960917Y-85608671D01*
X162019108Y-85627578D01*
X162030921Y-85637667D01*
X162496900Y-86103646D01*
X162524677Y-86158163D01*
X162525896Y-86173650D01*
X162525896Y-86274063D01*
X162560004Y-86401357D01*
X162560005Y-86401360D01*
X162564514Y-86409169D01*
X162577237Y-86469017D01*
X162552352Y-86524913D01*
X162499365Y-86555507D01*
X162478779Y-86557671D01*
X151395685Y-86557671D01*
X151306541Y-86581557D01*
X151226617Y-86627701D01*
X150183814Y-87670504D01*
X150129297Y-87698281D01*
X150113810Y-87699500D01*
X150084108Y-87699500D01*
X150006200Y-87720375D01*
X149956809Y-87733609D01*
X149842690Y-87799496D01*
X149749496Y-87892690D01*
X149683609Y-88006809D01*
X149649500Y-88134109D01*
X149649500Y-88163810D01*
X149630593Y-88222001D01*
X149620504Y-88233814D01*
X148233814Y-89620504D01*
X148179297Y-89648281D01*
X148163810Y-89649500D01*
X146299500Y-89649500D01*
X146241309Y-89630593D01*
X146205345Y-89581093D01*
X146200500Y-89550500D01*
X146200500Y-89380253D01*
X146200498Y-89380241D01*
X146190842Y-89331700D01*
X146188867Y-89321769D01*
X146170804Y-89294737D01*
X146144554Y-89255451D01*
X146144552Y-89255448D01*
X146099499Y-89225344D01*
X146078233Y-89211134D01*
X146078231Y-89211133D01*
X146078228Y-89211132D01*
X146078227Y-89211132D01*
X146019758Y-89199501D01*
X146019748Y-89199500D01*
X143999500Y-89199500D01*
X143941309Y-89180593D01*
X143905345Y-89131093D01*
X143900500Y-89100500D01*
X143900500Y-87582636D01*
X143919407Y-87524445D01*
X143929496Y-87512632D01*
X144358020Y-87084108D01*
X145399500Y-87084108D01*
X145399500Y-87215892D01*
X145422127Y-87300339D01*
X145433609Y-87343190D01*
X145499496Y-87457309D01*
X145499498Y-87457311D01*
X145499500Y-87457314D01*
X145592686Y-87550500D01*
X145592688Y-87550501D01*
X145592690Y-87550503D01*
X145706810Y-87616390D01*
X145706808Y-87616390D01*
X145706812Y-87616391D01*
X145706814Y-87616392D01*
X145834108Y-87650500D01*
X145834110Y-87650500D01*
X145965890Y-87650500D01*
X145965892Y-87650500D01*
X146093186Y-87616392D01*
X146093188Y-87616390D01*
X146093190Y-87616390D01*
X146207309Y-87550503D01*
X146207309Y-87550502D01*
X146207314Y-87550500D01*
X146300500Y-87457314D01*
X146366392Y-87343186D01*
X146400500Y-87215892D01*
X146400500Y-87084108D01*
X146366392Y-86956814D01*
X146366390Y-86956811D01*
X146366390Y-86956809D01*
X146300503Y-86842690D01*
X146300501Y-86842688D01*
X146300500Y-86842686D01*
X146207314Y-86749500D01*
X146207311Y-86749498D01*
X146207309Y-86749496D01*
X146093189Y-86683609D01*
X146093191Y-86683609D01*
X146043799Y-86670375D01*
X145965892Y-86649500D01*
X145834108Y-86649500D01*
X145756200Y-86670375D01*
X145706809Y-86683609D01*
X145592690Y-86749496D01*
X145499496Y-86842690D01*
X145433609Y-86956809D01*
X145433608Y-86956814D01*
X145399500Y-87084108D01*
X144358020Y-87084108D01*
X146462632Y-84979496D01*
X146517149Y-84951719D01*
X146532636Y-84950500D01*
X149470089Y-84950500D01*
X149528280Y-84969407D01*
G37*
%TD.AperFunction*%
%TD*%
M02*
