M48
; DRILL file {KiCad 9.0.5} date 2026-06-10T19:13:23-0400
; FORMAT={-:-/ absolute / inch / decimal}
; #@! TF.CreationDate,2026-06-10T19:13:23-04:00
; #@! TF.GenerationSoftware,Kicad,Pcbnew,9.0.5
; #@! TF.FileFunction,Plated,1,2,PTH
FMAT,2
INCH
; #@! TA.AperFunction,Plated,PTH,ViaDrill
T1C0.0118
%
G90
G05
T1
X5.692Y-3.4649
X5.7271Y-3.7127
X5.771Y-3.7565
X5.8081Y-3.4669
X5.8081Y-3.5003
X5.8219Y-3.4334
X5.8396Y-3.6145
X5.8711Y-3.6814
X5.9114Y-3.4724
X6.0247Y-3.5456
X6.0247Y-3.5791
X6.0247Y-3.6125
X6.0325Y-3.3881
X6.0621Y-3.7798
X6.066Y-3.3881
X6.0955Y-3.7798
X6.0995Y-3.3881
X6.129Y-3.7798
X6.1929Y-3.7461
X6.2353Y-3.5574
X6.2688Y-3.5574
X6.2825Y-3.3901
X6.3022Y-3.5574
X6.3091Y-3.6135
X6.316Y-3.3901
X6.3495Y-3.3901
X6.3573Y-3.4728
X6.4055Y-3.4469
X6.4125Y-3.648
X6.4184Y-3.394
X6.4311Y-3.7461
X6.4862Y-3.6083
X6.4873Y-3.711
X6.4873Y-3.7779
X6.4892Y-3.6558
X6.5276Y-3.4902
X6.5374Y-3.5217
X6.6487Y-3.5436
X6.6487Y-3.5771
X6.6487Y-3.6106
M30
