%TF.GenerationSoftware,KiCad,Pcbnew,9.0.5*%
%TF.CreationDate,2026-02-10T22:25:29-05:00*%
%TF.ProjectId,lightwear_bracelet,6c696768-7477-4656-9172-5f6272616365,rev?*%
%TF.SameCoordinates,Original*%
%TF.FileFunction,Legend,Bot*%
%TF.FilePolarity,Positive*%
%FSLAX46Y46*%
G04 Gerber Fmt 4.6, Leading zero omitted, Abs format (unit mm)*
G04 Created by KiCad (PCBNEW 9.0.5) date 2026-02-10 22:25:29*
%MOMM*%
%LPD*%
G01*
G04 APERTURE LIST*
%ADD10C,0.150000*%
%ADD11C,0.100000*%
%ADD12C,0.152400*%
%ADD13C,0.120000*%
G04 APERTURE END LIST*
D10*
X143591792Y-94632390D02*
X143667982Y-94594295D01*
X143667982Y-94594295D02*
X143782268Y-94594295D01*
X143782268Y-94594295D02*
X143896554Y-94632390D01*
X143896554Y-94632390D02*
X143972744Y-94708580D01*
X143972744Y-94708580D02*
X144010839Y-94784771D01*
X144010839Y-94784771D02*
X144048935Y-94937152D01*
X144048935Y-94937152D02*
X144048935Y-95051438D01*
X144048935Y-95051438D02*
X144010839Y-95203819D01*
X144010839Y-95203819D02*
X143972744Y-95280009D01*
X143972744Y-95280009D02*
X143896554Y-95356200D01*
X143896554Y-95356200D02*
X143782268Y-95394295D01*
X143782268Y-95394295D02*
X143706077Y-95394295D01*
X143706077Y-95394295D02*
X143591792Y-95356200D01*
X143591792Y-95356200D02*
X143553696Y-95318104D01*
X143553696Y-95318104D02*
X143553696Y-95051438D01*
X143553696Y-95051438D02*
X143706077Y-95051438D01*
X143210839Y-95394295D02*
X143210839Y-94594295D01*
X143210839Y-94594295D02*
X142753696Y-95394295D01*
X142753696Y-95394295D02*
X142753696Y-94594295D01*
X142372744Y-95394295D02*
X142372744Y-94594295D01*
X142372744Y-94594295D02*
X142182268Y-94594295D01*
X142182268Y-94594295D02*
X142067982Y-94632390D01*
X142067982Y-94632390D02*
X141991792Y-94708580D01*
X141991792Y-94708580D02*
X141953697Y-94784771D01*
X141953697Y-94784771D02*
X141915601Y-94937152D01*
X141915601Y-94937152D02*
X141915601Y-95051438D01*
X141915601Y-95051438D02*
X141953697Y-95203819D01*
X141953697Y-95203819D02*
X141991792Y-95280009D01*
X141991792Y-95280009D02*
X142067982Y-95356200D01*
X142067982Y-95356200D02*
X142182268Y-95394295D01*
X142182268Y-95394295D02*
X142372744Y-95394295D01*
X143629887Y-89594295D02*
X144010839Y-89594295D01*
X144010839Y-89594295D02*
X144048935Y-89975247D01*
X144048935Y-89975247D02*
X144010839Y-89937152D01*
X144010839Y-89937152D02*
X143934649Y-89899057D01*
X143934649Y-89899057D02*
X143744173Y-89899057D01*
X143744173Y-89899057D02*
X143667982Y-89937152D01*
X143667982Y-89937152D02*
X143629887Y-89975247D01*
X143629887Y-89975247D02*
X143591792Y-90051438D01*
X143591792Y-90051438D02*
X143591792Y-90241914D01*
X143591792Y-90241914D02*
X143629887Y-90318104D01*
X143629887Y-90318104D02*
X143667982Y-90356200D01*
X143667982Y-90356200D02*
X143744173Y-90394295D01*
X143744173Y-90394295D02*
X143934649Y-90394295D01*
X143934649Y-90394295D02*
X144010839Y-90356200D01*
X144010839Y-90356200D02*
X144048935Y-90318104D01*
X143325125Y-89860961D02*
X143134649Y-90394295D01*
X143134649Y-90394295D02*
X142944172Y-89860961D01*
X144010839Y-92094295D02*
X144010839Y-92741914D01*
X144010839Y-92741914D02*
X143972744Y-92818104D01*
X143972744Y-92818104D02*
X143934649Y-92856200D01*
X143934649Y-92856200D02*
X143858458Y-92894295D01*
X143858458Y-92894295D02*
X143706077Y-92894295D01*
X143706077Y-92894295D02*
X143629887Y-92856200D01*
X143629887Y-92856200D02*
X143591792Y-92818104D01*
X143591792Y-92818104D02*
X143553696Y-92741914D01*
X143553696Y-92741914D02*
X143553696Y-92094295D01*
X143172744Y-92894295D02*
X143172744Y-92094295D01*
X143172744Y-92094295D02*
X142867982Y-92094295D01*
X142867982Y-92094295D02*
X142791792Y-92132390D01*
X142791792Y-92132390D02*
X142753697Y-92170485D01*
X142753697Y-92170485D02*
X142715601Y-92246676D01*
X142715601Y-92246676D02*
X142715601Y-92360961D01*
X142715601Y-92360961D02*
X142753697Y-92437152D01*
X142753697Y-92437152D02*
X142791792Y-92475247D01*
X142791792Y-92475247D02*
X142867982Y-92513342D01*
X142867982Y-92513342D02*
X143172744Y-92513342D01*
X142372744Y-92894295D02*
X142372744Y-92094295D01*
X142372744Y-92094295D02*
X142182268Y-92094295D01*
X142182268Y-92094295D02*
X142067982Y-92132390D01*
X142067982Y-92132390D02*
X141991792Y-92208580D01*
X141991792Y-92208580D02*
X141953697Y-92284771D01*
X141953697Y-92284771D02*
X141915601Y-92437152D01*
X141915601Y-92437152D02*
X141915601Y-92551438D01*
X141915601Y-92551438D02*
X141953697Y-92703819D01*
X141953697Y-92703819D02*
X141991792Y-92780009D01*
X141991792Y-92780009D02*
X142067982Y-92856200D01*
X142067982Y-92856200D02*
X142182268Y-92894295D01*
X142182268Y-92894295D02*
X142372744Y-92894295D01*
X141572744Y-92894295D02*
X141572744Y-92094295D01*
X133766667Y-97892800D02*
X133909524Y-97845180D01*
X133909524Y-97845180D02*
X134147619Y-97845180D01*
X134147619Y-97845180D02*
X134242857Y-97892800D01*
X134242857Y-97892800D02*
X134290476Y-97940419D01*
X134290476Y-97940419D02*
X134338095Y-98035657D01*
X134338095Y-98035657D02*
X134338095Y-98130895D01*
X134338095Y-98130895D02*
X134290476Y-98226133D01*
X134290476Y-98226133D02*
X134242857Y-98273752D01*
X134242857Y-98273752D02*
X134147619Y-98321371D01*
X134147619Y-98321371D02*
X133957143Y-98368990D01*
X133957143Y-98368990D02*
X133861905Y-98416609D01*
X133861905Y-98416609D02*
X133814286Y-98464228D01*
X133814286Y-98464228D02*
X133766667Y-98559466D01*
X133766667Y-98559466D02*
X133766667Y-98654704D01*
X133766667Y-98654704D02*
X133814286Y-98749942D01*
X133814286Y-98749942D02*
X133861905Y-98797561D01*
X133861905Y-98797561D02*
X133957143Y-98845180D01*
X133957143Y-98845180D02*
X134195238Y-98845180D01*
X134195238Y-98845180D02*
X134338095Y-98797561D01*
X134671429Y-98845180D02*
X134909524Y-97845180D01*
X134909524Y-97845180D02*
X135100000Y-98559466D01*
X135100000Y-98559466D02*
X135290476Y-97845180D01*
X135290476Y-97845180D02*
X135528572Y-98845180D01*
X136433333Y-97845180D02*
X135861905Y-97845180D01*
X136147619Y-97845180D02*
X136147619Y-98845180D01*
X136147619Y-98845180D02*
X136052381Y-98702323D01*
X136052381Y-98702323D02*
X135957143Y-98607085D01*
X135957143Y-98607085D02*
X135861905Y-98559466D01*
D11*
%TO.C,R2*%
X132385000Y-85700000D02*
G75*
G02*
X132285000Y-85700000I-50000J0D01*
G01*
X132285000Y-85700000D02*
G75*
G02*
X132385000Y-85700000I50000J0D01*
G01*
D12*
%TO.C,SW1*%
X133667644Y-96776000D02*
X136532356Y-96776000D01*
X136532356Y-99824000D02*
X133667644Y-99824000D01*
X131467900Y-99100000D02*
G75*
G02*
X131315498Y-99100000I-76201J0D01*
G01*
X131315498Y-99100000D02*
G75*
G02*
X131467900Y-99100000I76201J0D01*
G01*
D13*
%TO.C,Q1*%
X130277500Y-94390000D02*
X130277500Y-94440000D01*
X130277500Y-95560000D02*
X130277500Y-96340000D01*
X130277500Y-97460000D02*
X130277500Y-97510000D01*
X130277500Y-97510000D02*
X131797500Y-97510000D01*
X131797500Y-94390000D02*
X130277500Y-94390000D01*
X131797500Y-95390000D02*
X131797500Y-94390000D01*
X131797500Y-97510000D02*
X131797500Y-96510000D01*
X129737500Y-96330000D02*
X129497500Y-96000000D01*
X129977500Y-96000000D01*
X129737500Y-96330000D01*
G36*
X129737500Y-96330000D02*
G01*
X129497500Y-96000000D01*
X129977500Y-96000000D01*
X129737500Y-96330000D01*
G37*
%TO.C,U2*%
X133227500Y-86390000D02*
X133227500Y-86440000D01*
X133227500Y-87560000D02*
X133227500Y-88340000D01*
X133227500Y-89460000D02*
X133227500Y-89510000D01*
X133227500Y-89510000D02*
X135047500Y-89510000D01*
X135047500Y-86390000D02*
X133227500Y-86390000D01*
X135047500Y-86440000D02*
X135047500Y-86390000D01*
X135047500Y-89510000D02*
X135047500Y-89460000D01*
X135587500Y-86440000D02*
X135347500Y-86110000D01*
X135827500Y-86110000D01*
X135587500Y-86440000D01*
G36*
X135587500Y-86440000D02*
G01*
X135347500Y-86110000D01*
X135827500Y-86110000D01*
X135587500Y-86440000D01*
G37*
%TO.C,R3*%
X135653641Y-94820000D02*
X135346359Y-94820000D01*
X135653641Y-95580000D02*
X135346359Y-95580000D01*
%TO.C,C1*%
X138840000Y-92187836D02*
X138840000Y-91972164D01*
X139560000Y-92187836D02*
X139560000Y-91972164D01*
%TO.C,U1*%
X134640000Y-90390000D02*
X134640000Y-90840000D01*
X134640000Y-93160000D02*
X134640000Y-93610000D01*
X134640000Y-93610000D02*
X135090000Y-93610000D01*
X135090000Y-90390000D02*
X134640000Y-90390000D01*
X137410000Y-93610000D02*
X137860000Y-93610000D01*
X137860000Y-90390000D02*
X137410000Y-90390000D01*
X137860000Y-90840000D02*
X137860000Y-90390000D01*
X137860000Y-93610000D02*
X137860000Y-93160000D01*
X138700000Y-91440000D02*
X138370000Y-91200000D01*
X138700000Y-90960000D01*
X138700000Y-91440000D01*
G36*
X138700000Y-91440000D02*
G01*
X138370000Y-91200000D01*
X138700000Y-90960000D01*
X138700000Y-91440000D01*
G37*
%TO.C,R1*%
X130920000Y-87436359D02*
X130920000Y-87743641D01*
X131680000Y-87436359D02*
X131680000Y-87743641D01*
%TD*%
M02*
