M48
; DRILL file {KiCad 9.0.5} date 2026-02-10T22:25:31-0500
; FORMAT={-:-/ absolute / inch / decimal}
; #@! TF.CreationDate,2026-02-10T22:25:31-05:00
; #@! TF.GenerationSoftware,Kicad,Pcbnew,9.0.5
; #@! TF.FileFunction,Plated,1,2,PTH
FMAT,2
INCH
; #@! TA.AperFunction,Plated,PTH,ViaDrill
T1C0.0118
; #@! TA.AperFunction,Plated,PTH,ComponentDrill
T2C0.0354
%
G90
G05
T1
X5.126Y-3.4724
X5.1732Y-3.7323
X5.1811Y-3.4016
X5.2008Y-3.5276
X5.2126Y-3.7323
X5.2559Y-3.4606
X5.3105Y-3.6756
X5.3189Y-3.9055
X5.3228Y-3.378
X5.3622Y-3.378
X5.3937Y-3.4055
X5.435Y-3.4311
X5.437Y-3.685
X5.437Y-3.7165
X5.437Y-3.748
X5.437Y-3.7795
X5.4528Y-3.4606
X5.4685Y-3.5551
X5.5118Y-3.5354
X5.6654Y-3.3661
X5.6654Y-3.3976
X5.6929Y-3.4252
X5.7244Y-3.4252
X5.7559Y-3.8031
X5.7874Y-3.8031
X5.8189Y-3.8031
X5.8504Y-3.8031
T2
X5.2805Y-3.8386
X5.3573Y-3.8386
M30
